G04 #@! TF.FileFunction,Soldermask,Bot*
%FSLAX46Y46*%
G04 Gerber Fmt 4.6, Leading zero omitted, Abs format (unit mm)*
G04 Created by KiCad (PCBNEW 0.201507280910+6003~25~ubuntu14.04.1-product) date Thu 20 Aug 2015 04:30:47 BST*
%MOMM*%
G01*
G04 APERTURE LIST*
%ADD10C,0.100000*%
%ADD11C,3.175000*%
%ADD12C,3.810000*%
%ADD13C,4.000000*%
%ADD14C,3.000000*%
%ADD15C,2.000000*%
%ADD16C,6.300000*%
%ADD17C,0.600000*%
%ADD18C,1.500000*%
%ADD19C,1.200000*%
%ADD20O,1.800000X2.500000*%
%ADD21C,1.016000*%
%ADD22C,2.500000*%
%ADD23R,2.500000X2.500000*%
%ADD24R,4.000000X2.540000*%
%ADD25R,4.000000X3.048000*%
G04 APERTURE END LIST*
D10*
D11*
X180126000Y-70258000D02*
X187626000Y-70258000D01*
X173656000Y-70258000D02*
X180126000Y-70258000D01*
X166156000Y-70258000D02*
X173656000Y-70258000D01*
X159686000Y-70258000D02*
X166156000Y-70258000D01*
X152186000Y-70258000D02*
X159686000Y-70258000D01*
X145716000Y-70258000D02*
X152186000Y-70258000D01*
X180594000Y-57975500D02*
X180594000Y-65278000D01*
X187642500Y-65214500D02*
X180149500Y-65214500D01*
X162814000Y-61849000D02*
X162814000Y-57531000D01*
X166179500Y-65214500D02*
X162814000Y-61849000D01*
X173609000Y-65214500D02*
X166179500Y-65214500D01*
X152146000Y-65214500D02*
X144843500Y-57912000D01*
X159702500Y-65214500D02*
X152146000Y-65214500D01*
X130937000Y-61468000D02*
X127254000Y-57785000D01*
X134493000Y-61468000D02*
X130937000Y-61468000D01*
X138239500Y-65214500D02*
X134493000Y-61468000D01*
X145669000Y-65214500D02*
X145669000Y-65278000D01*
X138239500Y-65214500D02*
X145669000Y-65214500D01*
X132778500Y-65468500D02*
X137477500Y-70167500D01*
X138176000Y-70231000D02*
X137541000Y-70231000D01*
X132524500Y-65214500D02*
X132524500Y-65278000D01*
X131762500Y-65214500D02*
X132524500Y-65214500D01*
X138216000Y-70258000D02*
X145716000Y-70258000D01*
X124246000Y-65218000D02*
X131746000Y-65218000D01*
X124246000Y-70258000D02*
X131746000Y-70258000D01*
D12*
X111252000Y-70104000D02*
X122682000Y-70104000D01*
X92202000Y-89154000D02*
X111252000Y-70104000D01*
X91948000Y-100266500D02*
X91948000Y-89408000D01*
X88068000Y-100330000D02*
X95678000Y-100330000D01*
X60706000Y-100330000D02*
X69088000Y-100330000D01*
X56515000Y-96139000D02*
X60706000Y-100330000D01*
X53594000Y-96139000D02*
X56515000Y-96139000D01*
D13*
X61468000Y-100330000D03*
X95678000Y-100330000D03*
X69088000Y-100330000D03*
X88068000Y-100330000D03*
D14*
X131746000Y-90558000D03*
X124246000Y-90558000D03*
X131746000Y-70258000D03*
X124246000Y-70258000D03*
X131746000Y-75298000D03*
X124246000Y-75298000D03*
X131746000Y-65218000D03*
X124246000Y-65218000D03*
X173656000Y-90558000D03*
X166156000Y-90558000D03*
X173656000Y-70258000D03*
X166156000Y-70258000D03*
X173656000Y-75298000D03*
X166156000Y-75298000D03*
X173656000Y-65218000D03*
X166156000Y-65218000D03*
X145716000Y-90558000D03*
X138216000Y-90558000D03*
X145716000Y-70258000D03*
X138216000Y-70258000D03*
X145716000Y-75298000D03*
X138216000Y-75298000D03*
X145716000Y-65218000D03*
X138216000Y-65218000D03*
X187626000Y-90558000D03*
X180126000Y-90558000D03*
X187626000Y-70258000D03*
X180126000Y-70258000D03*
X187626000Y-75298000D03*
X180126000Y-75298000D03*
X187626000Y-65218000D03*
X180126000Y-65218000D03*
X159686000Y-90558000D03*
X152186000Y-90558000D03*
X159686000Y-70258000D03*
X152186000Y-70258000D03*
X159686000Y-75298000D03*
X152186000Y-75298000D03*
X159686000Y-65218000D03*
X152186000Y-65218000D03*
D15*
X61722000Y-92583000D03*
X41402000Y-80518000D03*
X65024000Y-77724000D03*
X41402000Y-77597000D03*
X121666000Y-101092000D03*
X121666000Y-98679000D03*
X130556000Y-101854000D03*
X174244000Y-101092000D03*
X146050000Y-101092000D03*
X192151000Y-92837000D03*
X160401000Y-101219000D03*
D16*
X55905400Y-143725900D03*
D17*
X55905400Y-141225900D03*
X58405400Y-143725900D03*
X55905400Y-146225900D03*
X53405400Y-143725900D03*
X54105400Y-141925900D03*
X57705400Y-141925900D03*
X54105400Y-145525900D03*
X57705400Y-145525900D03*
D16*
X187921900Y-143725900D03*
D17*
X187921900Y-141225900D03*
X190421900Y-143725900D03*
X187921900Y-146225900D03*
X185421900Y-143725900D03*
X186121900Y-141925900D03*
X189721900Y-141925900D03*
X186121900Y-145525900D03*
X189721900Y-145525900D03*
D16*
X187921900Y-59715400D03*
D17*
X187921900Y-57215400D03*
X190421900Y-59715400D03*
X187921900Y-62215400D03*
X185421900Y-59715400D03*
X186121900Y-57915400D03*
X189721900Y-57915400D03*
X186121900Y-61515400D03*
X189721900Y-61515400D03*
D16*
X55918100Y-59715400D03*
D17*
X55918100Y-57215400D03*
X58418100Y-59715400D03*
X55918100Y-62215400D03*
X53418100Y-59715400D03*
X54118100Y-57915400D03*
X57718100Y-57915400D03*
X54118100Y-61515400D03*
X57718100Y-61515400D03*
D18*
X100568000Y-89827000D03*
X98568000Y-89827000D03*
D19*
X97068000Y-91527000D03*
D18*
X48095000Y-74787000D03*
X48095000Y-72787000D03*
D19*
X46395000Y-71287000D03*
D18*
X152892000Y-101638000D03*
X150892000Y-101638000D03*
D19*
X149392000Y-103338000D03*
D18*
X180705000Y-102273000D03*
X178705000Y-102273000D03*
D19*
X177205000Y-103973000D03*
D18*
X138795000Y-100368000D03*
X136795000Y-100368000D03*
D19*
X135295000Y-102068000D03*
D18*
X166862000Y-101892000D03*
X164862000Y-101892000D03*
D19*
X163362000Y-103592000D03*
D20*
X48895000Y-84836000D03*
X46355000Y-84836000D03*
X43815000Y-84836000D03*
D21*
X57404000Y-78486000D03*
X57404000Y-77216000D03*
X58674000Y-78486000D03*
X58674000Y-77216000D03*
X59944000Y-78486000D03*
X59944000Y-77216000D03*
X61214000Y-78486000D03*
X61214000Y-77216000D03*
X62484000Y-78486000D03*
X62484000Y-77216000D03*
D22*
X69596000Y-65151000D03*
D23*
X67056000Y-62611000D03*
X72136000Y-62611000D03*
X67056000Y-67691000D03*
X72136000Y-67691000D03*
D24*
X43434000Y-93599000D03*
D25*
X43434000Y-96139000D03*
D24*
X43434000Y-98679000D03*
X53594000Y-93599000D03*
D25*
X53594000Y-96139000D03*
D24*
X53594000Y-98679000D03*
X152654000Y-52832000D03*
D25*
X152654000Y-55372000D03*
D24*
X152654000Y-57912000D03*
X162814000Y-52832000D03*
D25*
X162814000Y-55372000D03*
D24*
X162814000Y-57912000D03*
X117094000Y-52832000D03*
D25*
X117094000Y-55372000D03*
D24*
X117094000Y-57912000D03*
X127254000Y-52832000D03*
D25*
X127254000Y-55372000D03*
D24*
X127254000Y-57912000D03*
X170434000Y-52832000D03*
D25*
X170434000Y-55372000D03*
D24*
X170434000Y-57912000D03*
X180594000Y-52832000D03*
D25*
X180594000Y-55372000D03*
D24*
X180594000Y-57912000D03*
X134874000Y-52832000D03*
D25*
X134874000Y-55372000D03*
D24*
X134874000Y-57912000D03*
X145034000Y-52832000D03*
D25*
X145034000Y-55372000D03*
D24*
X145034000Y-57912000D03*
M02*
