G04 #@! TF.FileFunction,Legend,Top*
%FSLAX46Y46*%
G04 Gerber Fmt 4.6, Leading zero omitted, Abs format (unit mm)*
G04 Created by KiCad (PCBNEW 0.201508190901+6103~28~ubuntu14.04.1-product) date Wed 19 Aug 2015 17:06:54 BST*
%MOMM*%
G01*
G04 APERTURE LIST*
%ADD10C,0.100000*%
%ADD11C,0.150000*%
%ADD12C,0.400000*%
%ADD13C,0.500000*%
G04 APERTURE END LIST*
D10*
D11*
X77732000Y-91274000D02*
X78732000Y-91274000D01*
X78732000Y-89574000D02*
X77732000Y-89574000D01*
X72255000Y-76366000D02*
X71255000Y-76366000D01*
X71255000Y-78066000D02*
X72255000Y-78066000D01*
X77605000Y-93306000D02*
X78605000Y-93306000D01*
X78605000Y-91606000D02*
X77605000Y-91606000D01*
X65095500Y-81368000D02*
X66095500Y-81368000D01*
X66095500Y-79668000D02*
X65095500Y-79668000D01*
X67603000Y-85733000D02*
X67603000Y-86733000D01*
X69303000Y-86733000D02*
X69303000Y-85733000D01*
X65571000Y-85733000D02*
X65571000Y-86733000D01*
X67271000Y-86733000D02*
X67271000Y-85733000D01*
X83146000Y-80510000D02*
X83146000Y-79510000D01*
X81446000Y-79510000D02*
X81446000Y-80510000D01*
X79366000Y-61103000D02*
X79366000Y-63103000D01*
X81416000Y-63103000D02*
X81416000Y-61103000D01*
X81954000Y-61666500D02*
X81954000Y-62666500D01*
X83654000Y-62666500D02*
X83654000Y-61666500D01*
X85432000Y-80510000D02*
X85432000Y-79510000D01*
X83732000Y-79510000D02*
X83732000Y-80510000D01*
X59348000Y-86495000D02*
X59348000Y-87495000D01*
X61048000Y-87495000D02*
X61048000Y-86495000D01*
X61048000Y-83685000D02*
X61048000Y-82685000D01*
X59348000Y-82685000D02*
X59348000Y-83685000D01*
X48014000Y-95464000D02*
X49014000Y-95464000D01*
X49014000Y-96814000D02*
X48014000Y-96814000D01*
X71366000Y-60746000D02*
X70366000Y-60746000D01*
X70366000Y-59396000D02*
X71366000Y-59396000D01*
D12*
X123506000Y-94604000D02*
X123506000Y-96404000D01*
D11*
X123306000Y-94404000D02*
X123306000Y-96604000D01*
X123306000Y-96604000D02*
X123706000Y-96604000D01*
X123706000Y-96604000D02*
X123706000Y-94404000D01*
X123706000Y-94404000D02*
X123306000Y-94404000D01*
X125806000Y-96204000D02*
X125806000Y-96604000D01*
X125806000Y-96604000D02*
X122406000Y-96604000D01*
X122406000Y-96604000D02*
X122406000Y-96204000D01*
X122406000Y-94804000D02*
X122406000Y-94404000D01*
X122406000Y-94404000D02*
X125806000Y-94404000D01*
X125806000Y-94404000D02*
X125806000Y-94804000D01*
D12*
X164908000Y-93334000D02*
X164908000Y-95134000D01*
D11*
X164708000Y-93134000D02*
X164708000Y-95334000D01*
X164708000Y-95334000D02*
X165108000Y-95334000D01*
X165108000Y-95334000D02*
X165108000Y-93134000D01*
X165108000Y-93134000D02*
X164708000Y-93134000D01*
X167208000Y-94934000D02*
X167208000Y-95334000D01*
X167208000Y-95334000D02*
X163808000Y-95334000D01*
X163808000Y-95334000D02*
X163808000Y-94934000D01*
X163808000Y-93534000D02*
X163808000Y-93134000D01*
X163808000Y-93134000D02*
X167208000Y-93134000D01*
X167208000Y-93134000D02*
X167208000Y-93534000D01*
X157234000Y-54697000D02*
X158234000Y-54697000D01*
X158234000Y-56047000D02*
X157234000Y-56047000D01*
D12*
X138492000Y-94096000D02*
X138492000Y-95896000D01*
D11*
X138292000Y-93896000D02*
X138292000Y-96096000D01*
X138292000Y-96096000D02*
X138692000Y-96096000D01*
X138692000Y-96096000D02*
X138692000Y-93896000D01*
X138692000Y-93896000D02*
X138292000Y-93896000D01*
X140792000Y-95696000D02*
X140792000Y-96096000D01*
X140792000Y-96096000D02*
X137392000Y-96096000D01*
X137392000Y-96096000D02*
X137392000Y-95696000D01*
X137392000Y-94296000D02*
X137392000Y-93896000D01*
X137392000Y-93896000D02*
X140792000Y-93896000D01*
X140792000Y-93896000D02*
X140792000Y-94296000D01*
X121674000Y-54697000D02*
X122674000Y-54697000D01*
X122674000Y-56047000D02*
X121674000Y-56047000D01*
D12*
X179005000Y-93969000D02*
X179005000Y-95769000D01*
D11*
X178805000Y-93769000D02*
X178805000Y-95969000D01*
X178805000Y-95969000D02*
X179205000Y-95969000D01*
X179205000Y-95969000D02*
X179205000Y-93769000D01*
X179205000Y-93769000D02*
X178805000Y-93769000D01*
X181305000Y-95569000D02*
X181305000Y-95969000D01*
X181305000Y-95969000D02*
X177905000Y-95969000D01*
X177905000Y-95969000D02*
X177905000Y-95569000D01*
X177905000Y-94169000D02*
X177905000Y-93769000D01*
X177905000Y-93769000D02*
X181305000Y-93769000D01*
X181305000Y-93769000D02*
X181305000Y-94169000D01*
X175014000Y-54697000D02*
X176014000Y-54697000D01*
X176014000Y-56047000D02*
X175014000Y-56047000D01*
D12*
X151192000Y-93334000D02*
X151192000Y-95134000D01*
D11*
X150992000Y-93134000D02*
X150992000Y-95334000D01*
X150992000Y-95334000D02*
X151392000Y-95334000D01*
X151392000Y-95334000D02*
X151392000Y-93134000D01*
X151392000Y-93134000D02*
X150992000Y-93134000D01*
X153492000Y-94934000D02*
X153492000Y-95334000D01*
X153492000Y-95334000D02*
X150092000Y-95334000D01*
X150092000Y-95334000D02*
X150092000Y-94934000D01*
X150092000Y-93534000D02*
X150092000Y-93134000D01*
X150092000Y-93134000D02*
X153492000Y-93134000D01*
X153492000Y-93134000D02*
X153492000Y-93534000D01*
X139454000Y-54697000D02*
X140454000Y-54697000D01*
X140454000Y-56047000D02*
X139454000Y-56047000D01*
X95758000Y-97155000D02*
X95758000Y-95885000D01*
X95758000Y-95885000D02*
X88138000Y-95885000D01*
X88138000Y-95885000D02*
X88138000Y-97155000D01*
X88138000Y-103505000D02*
X88138000Y-104775000D01*
X88138000Y-104775000D02*
X95758000Y-104775000D01*
X95758000Y-104775000D02*
X95758000Y-103505000D01*
X61468000Y-103505000D02*
X61468000Y-104775000D01*
X61468000Y-104775000D02*
X69088000Y-104775000D01*
X69088000Y-104775000D02*
X69088000Y-103505000D01*
X61468000Y-97155000D02*
X61468000Y-95885000D01*
X61468000Y-95885000D02*
X69088000Y-95885000D01*
X69088000Y-95885000D02*
X69088000Y-97155000D01*
X61468000Y-103505000D02*
X61468000Y-97155000D01*
X61468000Y-97155000D02*
X95758000Y-97155000D01*
X95758000Y-97155000D02*
X95758000Y-103505000D01*
X95758000Y-103505000D02*
X61468000Y-103505000D01*
X121746000Y-92804000D02*
X121746000Y-62804000D01*
X121746000Y-62804000D02*
X134246000Y-62804000D01*
X134246000Y-62804000D02*
X134246000Y-92804000D01*
X134246000Y-92804000D02*
X121746000Y-92804000D01*
X163656000Y-92804000D02*
X163656000Y-62804000D01*
X163656000Y-62804000D02*
X176156000Y-62804000D01*
X176156000Y-62804000D02*
X176156000Y-92804000D01*
X176156000Y-92804000D02*
X163656000Y-92804000D01*
X135716000Y-92804000D02*
X135716000Y-62804000D01*
X135716000Y-62804000D02*
X148216000Y-62804000D01*
X148216000Y-62804000D02*
X148216000Y-92804000D01*
X148216000Y-92804000D02*
X135716000Y-92804000D01*
X177626000Y-92804000D02*
X177626000Y-62804000D01*
X177626000Y-62804000D02*
X190126000Y-62804000D01*
X190126000Y-62804000D02*
X190126000Y-92804000D01*
X190126000Y-92804000D02*
X177626000Y-92804000D01*
X149686000Y-92804000D02*
X149686000Y-62804000D01*
X149686000Y-62804000D02*
X162186000Y-62804000D01*
X162186000Y-62804000D02*
X162186000Y-92804000D01*
X162186000Y-92804000D02*
X149686000Y-92804000D01*
X45720000Y-96139000D02*
X46990000Y-96139000D01*
X40132000Y-96139000D02*
X41148000Y-96139000D01*
X50546000Y-95631000D02*
X50546000Y-96647000D01*
X50038000Y-96139000D02*
X51054000Y-96139000D01*
X55880000Y-96139000D02*
X56896000Y-96139000D01*
X56388000Y-95631000D02*
X56388000Y-96647000D01*
X56388000Y-99949000D02*
X56388000Y-100965000D01*
X55880000Y-100457000D02*
X56896000Y-100457000D01*
X56388000Y-91313000D02*
X56388000Y-92329000D01*
X55880000Y-91821000D02*
X56896000Y-91821000D01*
X50038000Y-100457000D02*
X51054000Y-100457000D01*
X50546000Y-99949000D02*
X50546000Y-100965000D01*
X50546000Y-91313000D02*
X50546000Y-92329000D01*
X50038000Y-91821000D02*
X51054000Y-91821000D01*
X45720000Y-100711000D02*
X46990000Y-100711000D01*
X45720000Y-91567000D02*
X46990000Y-91567000D01*
X40132000Y-100711000D02*
X41148000Y-100711000D01*
X40132000Y-91567000D02*
X41148000Y-91567000D01*
X39624000Y-91059000D02*
X57404000Y-91059000D01*
X57404000Y-91059000D02*
X57404000Y-101219000D01*
X57404000Y-101219000D02*
X39624000Y-101219000D01*
X39624000Y-101219000D02*
X39624000Y-91059000D01*
X154940000Y-55372000D02*
X156210000Y-55372000D01*
X149352000Y-55372000D02*
X150368000Y-55372000D01*
X159766000Y-54864000D02*
X159766000Y-55880000D01*
X159258000Y-55372000D02*
X160274000Y-55372000D01*
X165100000Y-55372000D02*
X166116000Y-55372000D01*
X165608000Y-54864000D02*
X165608000Y-55880000D01*
X165608000Y-59182000D02*
X165608000Y-60198000D01*
X165100000Y-59690000D02*
X166116000Y-59690000D01*
X165608000Y-50546000D02*
X165608000Y-51562000D01*
X165100000Y-51054000D02*
X166116000Y-51054000D01*
X159258000Y-59690000D02*
X160274000Y-59690000D01*
X159766000Y-59182000D02*
X159766000Y-60198000D01*
X159766000Y-50546000D02*
X159766000Y-51562000D01*
X159258000Y-51054000D02*
X160274000Y-51054000D01*
X154940000Y-59944000D02*
X156210000Y-59944000D01*
X154940000Y-50800000D02*
X156210000Y-50800000D01*
X149352000Y-59944000D02*
X150368000Y-59944000D01*
X149352000Y-50800000D02*
X150368000Y-50800000D01*
X148844000Y-50292000D02*
X166624000Y-50292000D01*
X166624000Y-50292000D02*
X166624000Y-60452000D01*
X166624000Y-60452000D02*
X148844000Y-60452000D01*
X148844000Y-60452000D02*
X148844000Y-50292000D01*
X119380000Y-55372000D02*
X120650000Y-55372000D01*
X113792000Y-55372000D02*
X114808000Y-55372000D01*
X124206000Y-54864000D02*
X124206000Y-55880000D01*
X123698000Y-55372000D02*
X124714000Y-55372000D01*
X129540000Y-55372000D02*
X130556000Y-55372000D01*
X130048000Y-54864000D02*
X130048000Y-55880000D01*
X130048000Y-59182000D02*
X130048000Y-60198000D01*
X129540000Y-59690000D02*
X130556000Y-59690000D01*
X130048000Y-50546000D02*
X130048000Y-51562000D01*
X129540000Y-51054000D02*
X130556000Y-51054000D01*
X123698000Y-59690000D02*
X124714000Y-59690000D01*
X124206000Y-59182000D02*
X124206000Y-60198000D01*
X124206000Y-50546000D02*
X124206000Y-51562000D01*
X123698000Y-51054000D02*
X124714000Y-51054000D01*
X119380000Y-59944000D02*
X120650000Y-59944000D01*
X119380000Y-50800000D02*
X120650000Y-50800000D01*
X113792000Y-59944000D02*
X114808000Y-59944000D01*
X113792000Y-50800000D02*
X114808000Y-50800000D01*
X113284000Y-50292000D02*
X131064000Y-50292000D01*
X131064000Y-50292000D02*
X131064000Y-60452000D01*
X131064000Y-60452000D02*
X113284000Y-60452000D01*
X113284000Y-60452000D02*
X113284000Y-50292000D01*
X172720000Y-55372000D02*
X173990000Y-55372000D01*
X167132000Y-55372000D02*
X168148000Y-55372000D01*
X177546000Y-54864000D02*
X177546000Y-55880000D01*
X177038000Y-55372000D02*
X178054000Y-55372000D01*
X182880000Y-55372000D02*
X183896000Y-55372000D01*
X183388000Y-54864000D02*
X183388000Y-55880000D01*
X183388000Y-59182000D02*
X183388000Y-60198000D01*
X182880000Y-59690000D02*
X183896000Y-59690000D01*
X183388000Y-50546000D02*
X183388000Y-51562000D01*
X182880000Y-51054000D02*
X183896000Y-51054000D01*
X177038000Y-59690000D02*
X178054000Y-59690000D01*
X177546000Y-59182000D02*
X177546000Y-60198000D01*
X177546000Y-50546000D02*
X177546000Y-51562000D01*
X177038000Y-51054000D02*
X178054000Y-51054000D01*
X172720000Y-59944000D02*
X173990000Y-59944000D01*
X172720000Y-50800000D02*
X173990000Y-50800000D01*
X167132000Y-59944000D02*
X168148000Y-59944000D01*
X167132000Y-50800000D02*
X168148000Y-50800000D01*
X166624000Y-50292000D02*
X184404000Y-50292000D01*
X184404000Y-50292000D02*
X184404000Y-60452000D01*
X184404000Y-60452000D02*
X166624000Y-60452000D01*
X166624000Y-60452000D02*
X166624000Y-50292000D01*
X137160000Y-55372000D02*
X138430000Y-55372000D01*
X131572000Y-55372000D02*
X132588000Y-55372000D01*
X141986000Y-54864000D02*
X141986000Y-55880000D01*
X141478000Y-55372000D02*
X142494000Y-55372000D01*
X147320000Y-55372000D02*
X148336000Y-55372000D01*
X147828000Y-54864000D02*
X147828000Y-55880000D01*
X147828000Y-59182000D02*
X147828000Y-60198000D01*
X147320000Y-59690000D02*
X148336000Y-59690000D01*
X147828000Y-50546000D02*
X147828000Y-51562000D01*
X147320000Y-51054000D02*
X148336000Y-51054000D01*
X141478000Y-59690000D02*
X142494000Y-59690000D01*
X141986000Y-59182000D02*
X141986000Y-60198000D01*
X141986000Y-50546000D02*
X141986000Y-51562000D01*
X141478000Y-51054000D02*
X142494000Y-51054000D01*
X137160000Y-59944000D02*
X138430000Y-59944000D01*
X137160000Y-50800000D02*
X138430000Y-50800000D01*
X131572000Y-59944000D02*
X132588000Y-59944000D01*
X131572000Y-50800000D02*
X132588000Y-50800000D01*
X131064000Y-50292000D02*
X148844000Y-50292000D01*
X148844000Y-50292000D02*
X148844000Y-60452000D01*
X148844000Y-60452000D02*
X131064000Y-60452000D01*
X131064000Y-60452000D02*
X131064000Y-50292000D01*
X129950160Y-94853760D02*
X129901900Y-94853760D01*
X127151180Y-95554800D02*
X127151180Y-94853760D01*
X127151180Y-94853760D02*
X127400100Y-94853760D01*
X129950160Y-94853760D02*
X130150820Y-94853760D01*
X130150820Y-94853760D02*
X130150820Y-95554800D01*
X171479160Y-94599760D02*
X171430900Y-94599760D01*
X168680180Y-95300800D02*
X168680180Y-94599760D01*
X168680180Y-94599760D02*
X168929100Y-94599760D01*
X171479160Y-94599760D02*
X171679820Y-94599760D01*
X171679820Y-94599760D02*
X171679820Y-95300800D01*
X144555160Y-94853760D02*
X144506900Y-94853760D01*
X141756180Y-95554800D02*
X141756180Y-94853760D01*
X141756180Y-94853760D02*
X142005100Y-94853760D01*
X144555160Y-94853760D02*
X144755820Y-94853760D01*
X144755820Y-94853760D02*
X144755820Y-95554800D01*
X185449160Y-94599760D02*
X185400900Y-94599760D01*
X182650180Y-95300800D02*
X182650180Y-94599760D01*
X182650180Y-94599760D02*
X182899100Y-94599760D01*
X185449160Y-94599760D02*
X185649820Y-94599760D01*
X185649820Y-94599760D02*
X185649820Y-95300800D01*
X157890160Y-94853760D02*
X157841900Y-94853760D01*
X155091180Y-95554800D02*
X155091180Y-94853760D01*
X155091180Y-94853760D02*
X155340100Y-94853760D01*
X157890160Y-94853760D02*
X158090820Y-94853760D01*
X158090820Y-94853760D02*
X158090820Y-95554800D01*
X57644000Y-82458000D02*
X57644000Y-83658000D01*
X55894000Y-83658000D02*
X55894000Y-82458000D01*
X53862000Y-83658000D02*
X53862000Y-82458000D01*
X55612000Y-82458000D02*
X55612000Y-83658000D01*
X54829000Y-73519000D02*
X53629000Y-73519000D01*
X53629000Y-71769000D02*
X54829000Y-71769000D01*
X68164000Y-84187000D02*
X66964000Y-84187000D01*
X66964000Y-82437000D02*
X68164000Y-82437000D01*
X128051000Y-97804000D02*
X129251000Y-97804000D01*
X129251000Y-99554000D02*
X128051000Y-99554000D01*
X125441000Y-99554000D02*
X124241000Y-99554000D01*
X124241000Y-97804000D02*
X125441000Y-97804000D01*
X131988000Y-96153000D02*
X133188000Y-96153000D01*
X133188000Y-97903000D02*
X131988000Y-97903000D01*
X133188000Y-95871000D02*
X131988000Y-95871000D01*
X131988000Y-94121000D02*
X133188000Y-94121000D01*
X165008000Y-95899000D02*
X166208000Y-95899000D01*
X166208000Y-97649000D02*
X165008000Y-97649000D01*
X174357000Y-94650000D02*
X174357000Y-95850000D01*
X172607000Y-95850000D02*
X172607000Y-94650000D01*
X176389000Y-94650000D02*
X176389000Y-95850000D01*
X174639000Y-95850000D02*
X174639000Y-94650000D01*
X171034000Y-99173000D02*
X169834000Y-99173000D01*
X169834000Y-97423000D02*
X171034000Y-97423000D01*
X136511000Y-94269000D02*
X136511000Y-95469000D01*
X134761000Y-95469000D02*
X134761000Y-94269000D01*
X169834000Y-99455000D02*
X171034000Y-99455000D01*
X171034000Y-101205000D02*
X169834000Y-101205000D01*
X148957000Y-94904000D02*
X148957000Y-96104000D01*
X147207000Y-96104000D02*
X147207000Y-94904000D01*
X146925000Y-94904000D02*
X146925000Y-96104000D01*
X145175000Y-96104000D02*
X145175000Y-94904000D01*
X143348000Y-99427000D02*
X142148000Y-99427000D01*
X142148000Y-97677000D02*
X143348000Y-97677000D01*
X142148000Y-99709000D02*
X143348000Y-99709000D01*
X143348000Y-101459000D02*
X142148000Y-101459000D01*
X179105000Y-96407000D02*
X180305000Y-96407000D01*
X180305000Y-98157000D02*
X179105000Y-98157000D01*
X190740000Y-97063000D02*
X190740000Y-98263000D01*
X188990000Y-98263000D02*
X188990000Y-97063000D01*
X188433000Y-95490000D02*
X187233000Y-95490000D01*
X187233000Y-93740000D02*
X188433000Y-93740000D01*
X185004000Y-99173000D02*
X183804000Y-99173000D01*
X183804000Y-97423000D02*
X185004000Y-97423000D01*
X151292000Y-95645000D02*
X152492000Y-95645000D01*
X152492000Y-97395000D02*
X151292000Y-97395000D01*
X187946000Y-97063000D02*
X187946000Y-98263000D01*
X186196000Y-98263000D02*
X186196000Y-97063000D01*
X162546000Y-94904000D02*
X162546000Y-96104000D01*
X160796000Y-96104000D02*
X160796000Y-94904000D01*
X160641000Y-94904000D02*
X160641000Y-96104000D01*
X158891000Y-96104000D02*
X158891000Y-94904000D01*
X157191000Y-99554000D02*
X155991000Y-99554000D01*
X155991000Y-97804000D02*
X157191000Y-97804000D01*
X155991000Y-99709000D02*
X157191000Y-99709000D01*
X157191000Y-101459000D02*
X155991000Y-101459000D01*
X64719000Y-83062000D02*
X64719000Y-87662000D01*
X64519000Y-87862000D02*
X64719000Y-87662000D01*
X64519000Y-82862000D02*
X64719000Y-83062000D01*
X61519000Y-83012000D02*
X61519000Y-87712000D01*
X61719000Y-82862000D02*
X61519000Y-83012000D01*
X61719000Y-87862000D02*
X61519000Y-87712000D01*
X40555000Y-134015000D02*
X40555000Y-106015000D01*
X204555000Y-106015000D02*
X204555000Y-134015000D01*
X204555000Y-134015000D02*
X40555000Y-134015000D01*
X40555000Y-106015000D02*
X204555000Y-106015000D01*
X100187760Y-92934840D02*
X100187760Y-92983100D01*
X100888800Y-95733820D02*
X100187760Y-95733820D01*
X100187760Y-95733820D02*
X100187760Y-95484900D01*
X100187760Y-92934840D02*
X100187760Y-92734180D01*
X100187760Y-92734180D02*
X100888800Y-92734180D01*
X104507000Y-93634000D02*
X104507000Y-94834000D01*
X102757000Y-94834000D02*
X102757000Y-93634000D01*
X104789000Y-94834000D02*
X104789000Y-93634000D01*
X106539000Y-93634000D02*
X106539000Y-94834000D01*
X59205400Y-143725900D02*
G75*
G03X59205400Y-143725900I-3300000J0D01*
G01*
X191221900Y-143725900D02*
G75*
G03X191221900Y-143725900I-3300000J0D01*
G01*
X191221900Y-59715400D02*
G75*
G03X191221900Y-59715400I-3300000J0D01*
G01*
X59218100Y-59715400D02*
G75*
G03X59218100Y-59715400I-3300000J0D01*
G01*
D13*
X96768000Y-86427000D02*
X96768000Y-90727000D01*
X102368000Y-91827000D02*
X102368000Y-86427000D01*
X98968000Y-87627000D02*
X98968000Y-86427000D01*
X100168000Y-87627000D02*
X100168000Y-86427000D01*
X98968000Y-86427000D02*
X96768000Y-86427000D01*
X102368000Y-86427000D02*
X100168000Y-86427000D01*
X100168000Y-87627000D02*
X98968000Y-87627000D01*
X102368000Y-91827000D02*
X97868000Y-91827000D01*
X51495000Y-70987000D02*
X47195000Y-70987000D01*
X46095000Y-76587000D02*
X51495000Y-76587000D01*
X50295000Y-73187000D02*
X51495000Y-73187000D01*
X50295000Y-74387000D02*
X51495000Y-74387000D01*
X51495000Y-73187000D02*
X51495000Y-70987000D01*
X51495000Y-76587000D02*
X51495000Y-74387000D01*
X50295000Y-74387000D02*
X50295000Y-73187000D01*
X46095000Y-76587000D02*
X46095000Y-72087000D01*
X149092000Y-97984000D02*
X149092000Y-102284000D01*
X154692000Y-103384000D02*
X154692000Y-97984000D01*
X151292000Y-99184000D02*
X151292000Y-97984000D01*
X152492000Y-99184000D02*
X152492000Y-97984000D01*
X151292000Y-97984000D02*
X149092000Y-97984000D01*
X154692000Y-97984000D02*
X152492000Y-97984000D01*
X152492000Y-99184000D02*
X151292000Y-99184000D01*
X154692000Y-103384000D02*
X150192000Y-103384000D01*
X176905000Y-98873000D02*
X176905000Y-103173000D01*
X182505000Y-104273000D02*
X182505000Y-98873000D01*
X179105000Y-100073000D02*
X179105000Y-98873000D01*
X180305000Y-100073000D02*
X180305000Y-98873000D01*
X179105000Y-98873000D02*
X176905000Y-98873000D01*
X182505000Y-98873000D02*
X180305000Y-98873000D01*
X180305000Y-100073000D02*
X179105000Y-100073000D01*
X182505000Y-104273000D02*
X178005000Y-104273000D01*
X134995000Y-96968000D02*
X134995000Y-101268000D01*
X140595000Y-102368000D02*
X140595000Y-96968000D01*
X137195000Y-98168000D02*
X137195000Y-96968000D01*
X138395000Y-98168000D02*
X138395000Y-96968000D01*
X137195000Y-96968000D02*
X134995000Y-96968000D01*
X140595000Y-96968000D02*
X138395000Y-96968000D01*
X138395000Y-98168000D02*
X137195000Y-98168000D01*
X140595000Y-102368000D02*
X136095000Y-102368000D01*
X163062000Y-98492000D02*
X163062000Y-102792000D01*
X168662000Y-103892000D02*
X168662000Y-98492000D01*
X165262000Y-99692000D02*
X165262000Y-98492000D01*
X166462000Y-99692000D02*
X166462000Y-98492000D01*
X165262000Y-98492000D02*
X163062000Y-98492000D01*
X168662000Y-98492000D02*
X166462000Y-98492000D01*
X166462000Y-99692000D02*
X165262000Y-99692000D01*
X168662000Y-103892000D02*
X164162000Y-103892000D01*
D11*
X160828000Y-99652000D02*
X160828000Y-97452000D01*
X160928000Y-97452000D02*
X160928000Y-99652000D01*
X161028000Y-99652000D02*
X161028000Y-97452000D01*
X161128000Y-97452000D02*
X161128000Y-99652000D01*
X160528000Y-97452000D02*
X162028000Y-97452000D01*
X162028000Y-97452000D02*
X162028000Y-97752000D01*
X162028000Y-99352000D02*
X162028000Y-99652000D01*
X162028000Y-99652000D02*
X159028000Y-99652000D01*
X159028000Y-99652000D02*
X159028000Y-99352000D01*
X159028000Y-97752000D02*
X159028000Y-97452000D01*
X159028000Y-97452000D02*
X160528000Y-97452000D01*
X191051000Y-96820000D02*
X193251000Y-96820000D01*
X193251000Y-96920000D02*
X191051000Y-96920000D01*
X191051000Y-97020000D02*
X193251000Y-97020000D01*
X193251000Y-97120000D02*
X191051000Y-97120000D01*
X193251000Y-96520000D02*
X193251000Y-98020000D01*
X193251000Y-98020000D02*
X192951000Y-98020000D01*
X191351000Y-98020000D02*
X191051000Y-98020000D01*
X191051000Y-98020000D02*
X191051000Y-95020000D01*
X191051000Y-95020000D02*
X191351000Y-95020000D01*
X192951000Y-95020000D02*
X193251000Y-95020000D01*
X193251000Y-95020000D02*
X193251000Y-96520000D01*
X146858000Y-99652000D02*
X146858000Y-97452000D01*
X146958000Y-97452000D02*
X146958000Y-99652000D01*
X147058000Y-99652000D02*
X147058000Y-97452000D01*
X147158000Y-97452000D02*
X147158000Y-99652000D01*
X146558000Y-97452000D02*
X148058000Y-97452000D01*
X148058000Y-97452000D02*
X148058000Y-97752000D01*
X148058000Y-99352000D02*
X148058000Y-99652000D01*
X148058000Y-99652000D02*
X145058000Y-99652000D01*
X145058000Y-99652000D02*
X145058000Y-99352000D01*
X145058000Y-97752000D02*
X145058000Y-97452000D01*
X145058000Y-97452000D02*
X146558000Y-97452000D01*
X173944000Y-97198000D02*
X173944000Y-99398000D01*
X173844000Y-99398000D02*
X173844000Y-97198000D01*
X173744000Y-97198000D02*
X173744000Y-99398000D01*
X173644000Y-99398000D02*
X173644000Y-97198000D01*
X174244000Y-99398000D02*
X172744000Y-99398000D01*
X172744000Y-99398000D02*
X172744000Y-99098000D01*
X172744000Y-97498000D02*
X172744000Y-97198000D01*
X172744000Y-97198000D02*
X175744000Y-97198000D01*
X175744000Y-97198000D02*
X175744000Y-97498000D01*
X175744000Y-99098000D02*
X175744000Y-99398000D01*
X175744000Y-99398000D02*
X174244000Y-99398000D01*
X131996000Y-100884000D02*
X134196000Y-100884000D01*
X134196000Y-100984000D02*
X131996000Y-100984000D01*
X131996000Y-101084000D02*
X134196000Y-101084000D01*
X134196000Y-101184000D02*
X131996000Y-101184000D01*
X134196000Y-100584000D02*
X134196000Y-102084000D01*
X134196000Y-102084000D02*
X133896000Y-102084000D01*
X132296000Y-102084000D02*
X131996000Y-102084000D01*
X131996000Y-102084000D02*
X131996000Y-99084000D01*
X131996000Y-99084000D02*
X132296000Y-99084000D01*
X133896000Y-99084000D02*
X134196000Y-99084000D01*
X134196000Y-99084000D02*
X134196000Y-100584000D01*
X40555000Y-90436000D02*
X40555000Y-82836000D01*
X52155000Y-90436000D02*
X52155000Y-82836000D01*
X52155000Y-82836000D02*
X40555000Y-82836000D01*
X52155000Y-90436000D02*
X40555000Y-90436000D01*
X72192000Y-80570000D02*
X70942000Y-80570000D01*
X73692000Y-81320000D02*
G75*
G03X73692000Y-81320000I-500000J0D01*
G01*
X79192000Y-80320000D02*
X79192000Y-87320000D01*
X79192000Y-87320000D02*
X72192000Y-87320000D01*
X72192000Y-87320000D02*
X72192000Y-80320000D01*
X72192000Y-80320000D02*
X79192000Y-80320000D01*
X100964000Y-69976000D02*
X84964000Y-69976000D01*
X84964000Y-69976000D02*
X84964000Y-53976000D01*
X84964000Y-53976000D02*
X100964000Y-53976000D01*
X100964000Y-53976000D02*
X100964000Y-69976000D01*
X57404000Y-80391000D02*
X62484000Y-80391000D01*
X62484000Y-79565500D02*
X62484000Y-80391000D01*
X61023500Y-80391000D02*
X61023500Y-79565500D01*
X57404000Y-79565500D02*
X57404000Y-80391000D01*
X58864500Y-80391000D02*
X58864500Y-79565500D01*
X57404000Y-76136500D02*
X57404000Y-75311000D01*
X57404000Y-75311000D02*
X62484000Y-75311000D01*
X62484000Y-75311000D02*
X62484000Y-76136500D01*
X59944000Y-76136500D02*
X63119000Y-76136500D01*
X63119000Y-76136500D02*
X63119000Y-79565500D01*
X63119000Y-79565500D02*
X56769000Y-79565500D01*
X56769000Y-79565500D02*
X56769000Y-76136500D01*
X56769000Y-76136500D02*
X59944000Y-76136500D01*
X68346000Y-61651000D02*
X70846000Y-61651000D01*
X73096000Y-66401000D02*
X73096000Y-63901000D01*
X68346000Y-68651000D02*
X70846000Y-68651000D01*
X66096000Y-63901000D02*
X66096000Y-66401000D01*
X71398776Y-65151000D02*
G75*
G03X71398776Y-65151000I-1802776J0D01*
G01*
X81419000Y-73838000D02*
X81419000Y-76538000D01*
X82919000Y-73838000D02*
X82919000Y-76538000D01*
X82019000Y-75338000D02*
X82269000Y-75338000D01*
X82269000Y-75338000D02*
X82119000Y-75188000D01*
X82519000Y-75088000D02*
X81819000Y-75088000D01*
X82169000Y-75438000D02*
X82169000Y-75788000D01*
X82169000Y-75088000D02*
X82519000Y-75438000D01*
X82519000Y-75438000D02*
X81819000Y-75438000D01*
X81819000Y-75438000D02*
X82169000Y-75088000D01*
X82792000Y-89865000D02*
X82792000Y-87165000D01*
X81292000Y-89865000D02*
X81292000Y-87165000D01*
X82192000Y-88365000D02*
X81942000Y-88365000D01*
X81942000Y-88365000D02*
X82092000Y-88515000D01*
X81692000Y-88615000D02*
X82392000Y-88615000D01*
X82042000Y-88265000D02*
X82042000Y-87915000D01*
X82042000Y-88615000D02*
X81692000Y-88265000D01*
X81692000Y-88265000D02*
X82392000Y-88265000D01*
X82392000Y-88265000D02*
X82042000Y-88615000D01*
X84824000Y-89865000D02*
X84824000Y-87165000D01*
X83324000Y-89865000D02*
X83324000Y-87165000D01*
X84224000Y-88365000D02*
X83974000Y-88365000D01*
X83974000Y-88365000D02*
X84124000Y-88515000D01*
X83724000Y-88615000D02*
X84424000Y-88615000D01*
X84074000Y-88265000D02*
X84074000Y-87915000D01*
X84074000Y-88615000D02*
X83724000Y-88265000D01*
X83724000Y-88265000D02*
X84424000Y-88265000D01*
X84424000Y-88265000D02*
X84074000Y-88615000D01*
X83326000Y-76038000D02*
X83326000Y-74838000D01*
X85076000Y-74838000D02*
X85076000Y-76038000D01*
X81167000Y-92421000D02*
X81167000Y-91221000D01*
X82917000Y-91221000D02*
X82917000Y-92421000D01*
X83199000Y-92421000D02*
X83199000Y-91221000D01*
X84949000Y-91221000D02*
X84949000Y-92421000D01*
M02*
