G04 #@! TF.FileFunction,Legend,Top*
%FSLAX46Y46*%
G04 Gerber Fmt 4.6, Leading zero omitted, Abs format (unit mm)*
G04 Created by KiCad (PCBNEW 0.201507280910+6003~25~ubuntu14.04.1-product) date Thu 20 Aug 2015 03:48:50 BST*
%MOMM*%
G01*
G04 APERTURE LIST*
%ADD10C,0.100000*%
%ADD11C,1.000000*%
%ADD12C,0.750000*%
%ADD13C,0.300000*%
%ADD14C,0.200000*%
%ADD15C,0.150000*%
%ADD16C,0.400000*%
%ADD17C,0.500000*%
%ADD18C,0.010000*%
G04 APERTURE END LIST*
D10*
D11*
X129676381Y-136263905D02*
X130628762Y-136263905D01*
X131104953Y-136502000D01*
X131581143Y-136978190D01*
X131819238Y-137930571D01*
X131819238Y-139597238D01*
X131581143Y-140549619D01*
X131104953Y-141025810D01*
X130628762Y-141263905D01*
X129676381Y-141263905D01*
X129200191Y-141025810D01*
X128724000Y-140549619D01*
X128485905Y-139597238D01*
X128485905Y-137930571D01*
X128724000Y-136978190D01*
X129200191Y-136502000D01*
X129676381Y-136263905D01*
X133962095Y-141263905D02*
X133962095Y-136263905D01*
X134438286Y-139359143D02*
X135866857Y-141263905D01*
X135866857Y-137930571D02*
X133962095Y-139835333D01*
X140628762Y-136502000D02*
X140152571Y-136263905D01*
X139438286Y-136263905D01*
X138724000Y-136502000D01*
X138247809Y-136978190D01*
X138009714Y-137454381D01*
X137771619Y-138406762D01*
X137771619Y-139121048D01*
X138009714Y-140073429D01*
X138247809Y-140549619D01*
X138724000Y-141025810D01*
X139438286Y-141263905D01*
X139914476Y-141263905D01*
X140628762Y-141025810D01*
X140866857Y-140787714D01*
X140866857Y-139121048D01*
X139914476Y-139121048D01*
X143724000Y-141263905D02*
X143247809Y-141025810D01*
X143009714Y-140787714D01*
X142771619Y-140311524D01*
X142771619Y-138882952D01*
X143009714Y-138406762D01*
X143247809Y-138168667D01*
X143724000Y-137930571D01*
X144438286Y-137930571D01*
X144914476Y-138168667D01*
X145152571Y-138406762D01*
X145390667Y-138882952D01*
X145390667Y-140311524D01*
X145152571Y-140787714D01*
X144914476Y-141025810D01*
X144438286Y-141263905D01*
X143724000Y-141263905D01*
X151104953Y-136740095D02*
X151343048Y-136502000D01*
X151819239Y-136263905D01*
X153009715Y-136263905D01*
X153485905Y-136502000D01*
X153724001Y-136740095D01*
X153962096Y-137216286D01*
X153962096Y-137692476D01*
X153724001Y-138406762D01*
X150866858Y-141263905D01*
X153962096Y-141263905D01*
X126581144Y-149263905D02*
X126581144Y-144263905D01*
X131581144Y-144502000D02*
X131104953Y-144263905D01*
X130390668Y-144263905D01*
X129676382Y-144502000D01*
X129200191Y-144978190D01*
X128962096Y-145454381D01*
X128724001Y-146406762D01*
X128724001Y-147121048D01*
X128962096Y-148073429D01*
X129200191Y-148549619D01*
X129676382Y-149025810D01*
X130390668Y-149263905D01*
X130866858Y-149263905D01*
X131581144Y-149025810D01*
X131819239Y-148787714D01*
X131819239Y-147121048D01*
X130866858Y-147121048D01*
X133962096Y-149263905D02*
X133962096Y-144263905D01*
X136819239Y-149263905D01*
X136819239Y-144263905D01*
X139200191Y-149263905D02*
X139200191Y-144263905D01*
X140866857Y-144263905D02*
X143724000Y-144263905D01*
X142295429Y-149263905D02*
X142295429Y-144263905D01*
X145390667Y-149263905D02*
X145390667Y-144263905D01*
X148724000Y-144263905D02*
X149676381Y-144263905D01*
X150152572Y-144502000D01*
X150628762Y-144978190D01*
X150866857Y-145930571D01*
X150866857Y-147597238D01*
X150628762Y-148549619D01*
X150152572Y-149025810D01*
X149676381Y-149263905D01*
X148724000Y-149263905D01*
X148247810Y-149025810D01*
X147771619Y-148549619D01*
X147533524Y-147597238D01*
X147533524Y-145930571D01*
X147771619Y-144978190D01*
X148247810Y-144502000D01*
X148724000Y-144263905D01*
X153009714Y-149263905D02*
X153009714Y-144263905D01*
X155866857Y-149263905D01*
X155866857Y-144263905D01*
D12*
X65414858Y-143027143D02*
X65414858Y-140027143D01*
X66129143Y-140027143D01*
X66557715Y-140170000D01*
X66843429Y-140455714D01*
X66986286Y-140741429D01*
X67129143Y-141312857D01*
X67129143Y-141741429D01*
X66986286Y-142312857D01*
X66843429Y-142598571D01*
X66557715Y-142884286D01*
X66129143Y-143027143D01*
X65414858Y-143027143D01*
X68272001Y-142170000D02*
X69700572Y-142170000D01*
X67986286Y-143027143D02*
X68986286Y-140027143D01*
X69986286Y-143027143D01*
X70557715Y-140027143D02*
X71557715Y-143027143D01*
X72557715Y-140027143D01*
X73557716Y-143027143D02*
X73557716Y-140027143D01*
X74986287Y-143027143D02*
X74986287Y-140027143D01*
X75700572Y-140027143D01*
X76129144Y-140170000D01*
X76414858Y-140455714D01*
X76557715Y-140741429D01*
X76700572Y-141312857D01*
X76700572Y-141741429D01*
X76557715Y-142312857D01*
X76414858Y-142598571D01*
X76129144Y-142884286D01*
X75700572Y-143027143D01*
X74986287Y-143027143D01*
X79843429Y-140027143D02*
X81557715Y-140027143D01*
X80700572Y-143027143D02*
X80700572Y-140027143D01*
X82557715Y-140027143D02*
X82557715Y-142455714D01*
X82700572Y-142741429D01*
X82843429Y-142884286D01*
X83129143Y-143027143D01*
X83700572Y-143027143D01*
X83986286Y-142884286D01*
X84129143Y-142741429D01*
X84272000Y-142455714D01*
X84272000Y-140027143D01*
X87414857Y-143027143D02*
X86414857Y-141598571D01*
X85700572Y-143027143D02*
X85700572Y-140027143D01*
X86843429Y-140027143D01*
X87129143Y-140170000D01*
X87272000Y-140312857D01*
X87414857Y-140598571D01*
X87414857Y-141027143D01*
X87272000Y-141312857D01*
X87129143Y-141455714D01*
X86843429Y-141598571D01*
X85700572Y-141598571D01*
X88700572Y-143027143D02*
X88700572Y-140027143D01*
X90414857Y-143027143D01*
X90414857Y-140027143D01*
X91843429Y-141455714D02*
X92843429Y-141455714D01*
X93272000Y-143027143D02*
X91843429Y-143027143D01*
X91843429Y-140027143D01*
X93272000Y-140027143D01*
X96272000Y-143027143D02*
X95272000Y-141598571D01*
X94557715Y-143027143D02*
X94557715Y-140027143D01*
X95700572Y-140027143D01*
X95986286Y-140170000D01*
X96129143Y-140312857D01*
X96272000Y-140598571D01*
X96272000Y-141027143D01*
X96129143Y-141312857D01*
X95986286Y-141455714D01*
X95700572Y-141598571D01*
X94557715Y-141598571D01*
X66200571Y-145262857D02*
X66343428Y-145120000D01*
X66629142Y-144977143D01*
X67343428Y-144977143D01*
X67629142Y-145120000D01*
X67771999Y-145262857D01*
X67914856Y-145548571D01*
X67914856Y-145834286D01*
X67771999Y-146262857D01*
X66057713Y-147977143D01*
X67914856Y-147977143D01*
X69771999Y-144977143D02*
X70057714Y-144977143D01*
X70343428Y-145120000D01*
X70486285Y-145262857D01*
X70629142Y-145548571D01*
X70771999Y-146120000D01*
X70771999Y-146834286D01*
X70629142Y-147405714D01*
X70486285Y-147691429D01*
X70343428Y-147834286D01*
X70057714Y-147977143D01*
X69771999Y-147977143D01*
X69486285Y-147834286D01*
X69343428Y-147691429D01*
X69200571Y-147405714D01*
X69057714Y-146834286D01*
X69057714Y-146120000D01*
X69200571Y-145548571D01*
X69343428Y-145262857D01*
X69486285Y-145120000D01*
X69771999Y-144977143D01*
X73629142Y-147977143D02*
X71914857Y-147977143D01*
X72771999Y-147977143D02*
X72771999Y-144977143D01*
X72486285Y-145405714D01*
X72200571Y-145691429D01*
X71914857Y-145834286D01*
X76343428Y-144977143D02*
X74914857Y-144977143D01*
X74772000Y-146405714D01*
X74914857Y-146262857D01*
X75200571Y-146120000D01*
X75914857Y-146120000D01*
X76200571Y-146262857D01*
X76343428Y-146405714D01*
X76486285Y-146691429D01*
X76486285Y-147405714D01*
X76343428Y-147691429D01*
X76200571Y-147834286D01*
X75914857Y-147977143D01*
X75200571Y-147977143D01*
X74914857Y-147834286D01*
X74772000Y-147691429D01*
X77772000Y-146834286D02*
X80057714Y-146834286D01*
X82057714Y-144977143D02*
X82343429Y-144977143D01*
X82629143Y-145120000D01*
X82772000Y-145262857D01*
X82914857Y-145548571D01*
X83057714Y-146120000D01*
X83057714Y-146834286D01*
X82914857Y-147405714D01*
X82772000Y-147691429D01*
X82629143Y-147834286D01*
X82343429Y-147977143D01*
X82057714Y-147977143D01*
X81772000Y-147834286D01*
X81629143Y-147691429D01*
X81486286Y-147405714D01*
X81343429Y-146834286D01*
X81343429Y-146120000D01*
X81486286Y-145548571D01*
X81629143Y-145262857D01*
X81772000Y-145120000D01*
X82057714Y-144977143D01*
X84772000Y-146262857D02*
X84486286Y-146120000D01*
X84343429Y-145977143D01*
X84200572Y-145691429D01*
X84200572Y-145548571D01*
X84343429Y-145262857D01*
X84486286Y-145120000D01*
X84772000Y-144977143D01*
X85343429Y-144977143D01*
X85629143Y-145120000D01*
X85772000Y-145262857D01*
X85914857Y-145548571D01*
X85914857Y-145691429D01*
X85772000Y-145977143D01*
X85629143Y-146120000D01*
X85343429Y-146262857D01*
X84772000Y-146262857D01*
X84486286Y-146405714D01*
X84343429Y-146548571D01*
X84200572Y-146834286D01*
X84200572Y-147405714D01*
X84343429Y-147691429D01*
X84486286Y-147834286D01*
X84772000Y-147977143D01*
X85343429Y-147977143D01*
X85629143Y-147834286D01*
X85772000Y-147691429D01*
X85914857Y-147405714D01*
X85914857Y-146834286D01*
X85772000Y-146548571D01*
X85629143Y-146405714D01*
X85343429Y-146262857D01*
X87200572Y-146834286D02*
X89486286Y-146834286D01*
X92486286Y-147977143D02*
X90772001Y-147977143D01*
X91629143Y-147977143D02*
X91629143Y-144977143D01*
X91343429Y-145405714D01*
X91057715Y-145691429D01*
X90772001Y-145834286D01*
X93914858Y-147977143D02*
X94486286Y-147977143D01*
X94772001Y-147834286D01*
X94914858Y-147691429D01*
X95200572Y-147262857D01*
X95343429Y-146691429D01*
X95343429Y-145548571D01*
X95200572Y-145262857D01*
X95057715Y-145120000D01*
X94772001Y-144977143D01*
X94200572Y-144977143D01*
X93914858Y-145120000D01*
X93772001Y-145262857D01*
X93629144Y-145548571D01*
X93629144Y-146262857D01*
X93772001Y-146548571D01*
X93914858Y-146691429D01*
X94200572Y-146834286D01*
X94772001Y-146834286D01*
X95057715Y-146691429D01*
X95200572Y-146548571D01*
X95343429Y-146262857D01*
D13*
X63186858Y-92563143D02*
X64329715Y-92563143D01*
X63758286Y-93134571D02*
X63758286Y-91991714D01*
X65544001Y-92348857D02*
X65758287Y-92420286D01*
X65829715Y-92491714D01*
X65901144Y-92634571D01*
X65901144Y-92848857D01*
X65829715Y-92991714D01*
X65758287Y-93063143D01*
X65615429Y-93134571D01*
X65044001Y-93134571D01*
X65044001Y-91634571D01*
X65544001Y-91634571D01*
X65686858Y-91706000D01*
X65758287Y-91777429D01*
X65829715Y-91920286D01*
X65829715Y-92063143D01*
X65758287Y-92206000D01*
X65686858Y-92277429D01*
X65544001Y-92348857D01*
X65044001Y-92348857D01*
X66472572Y-92706000D02*
X67186858Y-92706000D01*
X66329715Y-93134571D02*
X66829715Y-91634571D01*
X67329715Y-93134571D01*
X67615429Y-91634571D02*
X68472572Y-91634571D01*
X68044001Y-93134571D02*
X68044001Y-91634571D01*
X68758286Y-91634571D02*
X69615429Y-91634571D01*
X69186858Y-93134571D02*
X69186858Y-91634571D01*
X42894572Y-78212143D02*
X44037429Y-78212143D01*
X43466000Y-78783571D02*
X43466000Y-77640714D01*
X44608858Y-77283571D02*
X45537429Y-77283571D01*
X45037429Y-77855000D01*
X45251715Y-77855000D01*
X45394572Y-77926429D01*
X45466001Y-77997857D01*
X45537429Y-78140714D01*
X45537429Y-78497857D01*
X45466001Y-78640714D01*
X45394572Y-78712143D01*
X45251715Y-78783571D01*
X44823143Y-78783571D01*
X44680286Y-78712143D01*
X44608858Y-78640714D01*
X46037429Y-77783571D02*
X46394572Y-78783571D01*
X46751714Y-77783571D01*
X47180286Y-77283571D02*
X48108857Y-77283571D01*
X47608857Y-77855000D01*
X47823143Y-77855000D01*
X47966000Y-77926429D01*
X48037429Y-77997857D01*
X48108857Y-78140714D01*
X48108857Y-78497857D01*
X48037429Y-78640714D01*
X47966000Y-78712143D01*
X47823143Y-78783571D01*
X47394571Y-78783571D01*
X47251714Y-78712143D01*
X47180286Y-78640714D01*
X43942143Y-79895000D02*
X43799286Y-79823571D01*
X43585000Y-79823571D01*
X43370715Y-79895000D01*
X43227857Y-80037857D01*
X43156429Y-80180714D01*
X43085000Y-80466429D01*
X43085000Y-80680714D01*
X43156429Y-80966429D01*
X43227857Y-81109286D01*
X43370715Y-81252143D01*
X43585000Y-81323571D01*
X43727857Y-81323571D01*
X43942143Y-81252143D01*
X44013572Y-81180714D01*
X44013572Y-80680714D01*
X43727857Y-80680714D01*
X44656429Y-81323571D02*
X44656429Y-79823571D01*
X45513572Y-81323571D01*
X45513572Y-79823571D01*
X46227858Y-81323571D02*
X46227858Y-79823571D01*
X46585001Y-79823571D01*
X46799286Y-79895000D01*
X46942144Y-80037857D01*
X47013572Y-80180714D01*
X47085001Y-80466429D01*
X47085001Y-80680714D01*
X47013572Y-80966429D01*
X46942144Y-81109286D01*
X46799286Y-81252143D01*
X46585001Y-81323571D01*
X46227858Y-81323571D01*
D14*
X191285953Y-89600143D02*
X191238334Y-89647762D01*
X191095477Y-89695381D01*
X191000239Y-89695381D01*
X190857381Y-89647762D01*
X190762143Y-89552524D01*
X190714524Y-89457286D01*
X190666905Y-89266810D01*
X190666905Y-89123952D01*
X190714524Y-88933476D01*
X190762143Y-88838238D01*
X190857381Y-88743000D01*
X191000239Y-88695381D01*
X191095477Y-88695381D01*
X191238334Y-88743000D01*
X191285953Y-88790619D01*
X191905000Y-88695381D02*
X192095477Y-88695381D01*
X192190715Y-88743000D01*
X192285953Y-88838238D01*
X192333572Y-89028714D01*
X192333572Y-89362048D01*
X192285953Y-89552524D01*
X192190715Y-89647762D01*
X192095477Y-89695381D01*
X191905000Y-89695381D01*
X191809762Y-89647762D01*
X191714524Y-89552524D01*
X191666905Y-89362048D01*
X191666905Y-89028714D01*
X191714524Y-88838238D01*
X191809762Y-88743000D01*
X191905000Y-88695381D01*
X192762143Y-89695381D02*
X192762143Y-88695381D01*
X193333572Y-89695381D01*
X193333572Y-88695381D01*
X193666905Y-88695381D02*
X194238334Y-88695381D01*
X193952619Y-89695381D02*
X193952619Y-88695381D01*
X191714524Y-91200143D02*
X191666905Y-91247762D01*
X191524048Y-91295381D01*
X191428810Y-91295381D01*
X191285952Y-91247762D01*
X191190714Y-91152524D01*
X191143095Y-91057286D01*
X191095476Y-90866810D01*
X191095476Y-90723952D01*
X191143095Y-90533476D01*
X191190714Y-90438238D01*
X191285952Y-90343000D01*
X191428810Y-90295381D01*
X191524048Y-90295381D01*
X191666905Y-90343000D01*
X191714524Y-90390619D01*
X192143095Y-91295381D02*
X192143095Y-90295381D01*
X192143095Y-90771571D02*
X192714524Y-90771571D01*
X192714524Y-91295381D02*
X192714524Y-90295381D01*
X193619286Y-90628714D02*
X193619286Y-91295381D01*
X193381190Y-90247762D02*
X193143095Y-90962048D01*
X193762143Y-90962048D01*
X172997953Y-103316143D02*
X172950334Y-103363762D01*
X172807477Y-103411381D01*
X172712239Y-103411381D01*
X172569381Y-103363762D01*
X172474143Y-103268524D01*
X172426524Y-103173286D01*
X172378905Y-102982810D01*
X172378905Y-102839952D01*
X172426524Y-102649476D01*
X172474143Y-102554238D01*
X172569381Y-102459000D01*
X172712239Y-102411381D01*
X172807477Y-102411381D01*
X172950334Y-102459000D01*
X172997953Y-102506619D01*
X173617000Y-102411381D02*
X173807477Y-102411381D01*
X173902715Y-102459000D01*
X173997953Y-102554238D01*
X174045572Y-102744714D01*
X174045572Y-103078048D01*
X173997953Y-103268524D01*
X173902715Y-103363762D01*
X173807477Y-103411381D01*
X173617000Y-103411381D01*
X173521762Y-103363762D01*
X173426524Y-103268524D01*
X173378905Y-103078048D01*
X173378905Y-102744714D01*
X173426524Y-102554238D01*
X173521762Y-102459000D01*
X173617000Y-102411381D01*
X174474143Y-103411381D02*
X174474143Y-102411381D01*
X175045572Y-103411381D01*
X175045572Y-102411381D01*
X175378905Y-102411381D02*
X175950334Y-102411381D01*
X175664619Y-103411381D02*
X175664619Y-102411381D01*
X173426524Y-104916143D02*
X173378905Y-104963762D01*
X173236048Y-105011381D01*
X173140810Y-105011381D01*
X172997952Y-104963762D01*
X172902714Y-104868524D01*
X172855095Y-104773286D01*
X172807476Y-104582810D01*
X172807476Y-104439952D01*
X172855095Y-104249476D01*
X172902714Y-104154238D01*
X172997952Y-104059000D01*
X173140810Y-104011381D01*
X173236048Y-104011381D01*
X173378905Y-104059000D01*
X173426524Y-104106619D01*
X173855095Y-105011381D02*
X173855095Y-104011381D01*
X173855095Y-104487571D02*
X174426524Y-104487571D01*
X174426524Y-105011381D02*
X174426524Y-104011381D01*
X175331286Y-104344714D02*
X175331286Y-105011381D01*
X175093190Y-103963762D02*
X174855095Y-104678048D01*
X175474143Y-104678048D01*
X178165429Y-105640143D02*
X178117810Y-105687762D01*
X177974953Y-105735381D01*
X177879715Y-105735381D01*
X177736857Y-105687762D01*
X177641619Y-105592524D01*
X177594000Y-105497286D01*
X177546381Y-105306810D01*
X177546381Y-105163952D01*
X177594000Y-104973476D01*
X177641619Y-104878238D01*
X177736857Y-104783000D01*
X177879715Y-104735381D01*
X177974953Y-104735381D01*
X178117810Y-104783000D01*
X178165429Y-104830619D01*
X178594000Y-105735381D02*
X178594000Y-104735381D01*
X178594000Y-105211571D02*
X179165429Y-105211571D01*
X179165429Y-105735381D02*
X179165429Y-104735381D01*
X180070191Y-105068714D02*
X180070191Y-105735381D01*
X179832095Y-104687762D02*
X179594000Y-105402048D01*
X180213048Y-105402048D01*
X181832096Y-105735381D02*
X181355905Y-105735381D01*
X181355905Y-104735381D01*
X182165429Y-105211571D02*
X182498763Y-105211571D01*
X182641620Y-105735381D02*
X182165429Y-105735381D01*
X182165429Y-104735381D01*
X182641620Y-104735381D01*
X183070191Y-105735381D02*
X183070191Y-104735381D01*
X183308286Y-104735381D01*
X183451144Y-104783000D01*
X183546382Y-104878238D01*
X183594001Y-104973476D01*
X183641620Y-105163952D01*
X183641620Y-105306810D01*
X183594001Y-105497286D01*
X183546382Y-105592524D01*
X183451144Y-105687762D01*
X183308286Y-105735381D01*
X183070191Y-105735381D01*
X162925429Y-105513143D02*
X162877810Y-105560762D01*
X162734953Y-105608381D01*
X162639715Y-105608381D01*
X162496857Y-105560762D01*
X162401619Y-105465524D01*
X162354000Y-105370286D01*
X162306381Y-105179810D01*
X162306381Y-105036952D01*
X162354000Y-104846476D01*
X162401619Y-104751238D01*
X162496857Y-104656000D01*
X162639715Y-104608381D01*
X162734953Y-104608381D01*
X162877810Y-104656000D01*
X162925429Y-104703619D01*
X163354000Y-105608381D02*
X163354000Y-104608381D01*
X163354000Y-105084571D02*
X163925429Y-105084571D01*
X163925429Y-105608381D02*
X163925429Y-104608381D01*
X164306381Y-104608381D02*
X164925429Y-104608381D01*
X164592095Y-104989333D01*
X164734953Y-104989333D01*
X164830191Y-105036952D01*
X164877810Y-105084571D01*
X164925429Y-105179810D01*
X164925429Y-105417905D01*
X164877810Y-105513143D01*
X164830191Y-105560762D01*
X164734953Y-105608381D01*
X164449238Y-105608381D01*
X164354000Y-105560762D01*
X164306381Y-105513143D01*
X166592096Y-105608381D02*
X166115905Y-105608381D01*
X166115905Y-104608381D01*
X166925429Y-105084571D02*
X167258763Y-105084571D01*
X167401620Y-105608381D02*
X166925429Y-105608381D01*
X166925429Y-104608381D01*
X167401620Y-104608381D01*
X167830191Y-105608381D02*
X167830191Y-104608381D01*
X168068286Y-104608381D01*
X168211144Y-104656000D01*
X168306382Y-104751238D01*
X168354001Y-104846476D01*
X168401620Y-105036952D01*
X168401620Y-105179810D01*
X168354001Y-105370286D01*
X168306382Y-105465524D01*
X168211144Y-105560762D01*
X168068286Y-105608381D01*
X167830191Y-105608381D01*
X158646953Y-103443143D02*
X158599334Y-103490762D01*
X158456477Y-103538381D01*
X158361239Y-103538381D01*
X158218381Y-103490762D01*
X158123143Y-103395524D01*
X158075524Y-103300286D01*
X158027905Y-103109810D01*
X158027905Y-102966952D01*
X158075524Y-102776476D01*
X158123143Y-102681238D01*
X158218381Y-102586000D01*
X158361239Y-102538381D01*
X158456477Y-102538381D01*
X158599334Y-102586000D01*
X158646953Y-102633619D01*
X159266000Y-102538381D02*
X159456477Y-102538381D01*
X159551715Y-102586000D01*
X159646953Y-102681238D01*
X159694572Y-102871714D01*
X159694572Y-103205048D01*
X159646953Y-103395524D01*
X159551715Y-103490762D01*
X159456477Y-103538381D01*
X159266000Y-103538381D01*
X159170762Y-103490762D01*
X159075524Y-103395524D01*
X159027905Y-103205048D01*
X159027905Y-102871714D01*
X159075524Y-102681238D01*
X159170762Y-102586000D01*
X159266000Y-102538381D01*
X160123143Y-103538381D02*
X160123143Y-102538381D01*
X160694572Y-103538381D01*
X160694572Y-102538381D01*
X161027905Y-102538381D02*
X161599334Y-102538381D01*
X161313619Y-103538381D02*
X161313619Y-102538381D01*
X159075524Y-105043143D02*
X159027905Y-105090762D01*
X158885048Y-105138381D01*
X158789810Y-105138381D01*
X158646952Y-105090762D01*
X158551714Y-104995524D01*
X158504095Y-104900286D01*
X158456476Y-104709810D01*
X158456476Y-104566952D01*
X158504095Y-104376476D01*
X158551714Y-104281238D01*
X158646952Y-104186000D01*
X158789810Y-104138381D01*
X158885048Y-104138381D01*
X159027905Y-104186000D01*
X159075524Y-104233619D01*
X159504095Y-105138381D02*
X159504095Y-104138381D01*
X159504095Y-104614571D02*
X160075524Y-104614571D01*
X160075524Y-105138381D02*
X160075524Y-104138381D01*
X160504095Y-104233619D02*
X160551714Y-104186000D01*
X160646952Y-104138381D01*
X160885048Y-104138381D01*
X160980286Y-104186000D01*
X161027905Y-104233619D01*
X161075524Y-104328857D01*
X161075524Y-104424095D01*
X161027905Y-104566952D01*
X160456476Y-105138381D01*
X161075524Y-105138381D01*
X149590429Y-105386143D02*
X149542810Y-105433762D01*
X149399953Y-105481381D01*
X149304715Y-105481381D01*
X149161857Y-105433762D01*
X149066619Y-105338524D01*
X149019000Y-105243286D01*
X148971381Y-105052810D01*
X148971381Y-104909952D01*
X149019000Y-104719476D01*
X149066619Y-104624238D01*
X149161857Y-104529000D01*
X149304715Y-104481381D01*
X149399953Y-104481381D01*
X149542810Y-104529000D01*
X149590429Y-104576619D01*
X150019000Y-105481381D02*
X150019000Y-104481381D01*
X150019000Y-104957571D02*
X150590429Y-104957571D01*
X150590429Y-105481381D02*
X150590429Y-104481381D01*
X151019000Y-104576619D02*
X151066619Y-104529000D01*
X151161857Y-104481381D01*
X151399953Y-104481381D01*
X151495191Y-104529000D01*
X151542810Y-104576619D01*
X151590429Y-104671857D01*
X151590429Y-104767095D01*
X151542810Y-104909952D01*
X150971381Y-105481381D01*
X151590429Y-105481381D01*
X153257096Y-105481381D02*
X152780905Y-105481381D01*
X152780905Y-104481381D01*
X153590429Y-104957571D02*
X153923763Y-104957571D01*
X154066620Y-105481381D02*
X153590429Y-105481381D01*
X153590429Y-104481381D01*
X154066620Y-104481381D01*
X154495191Y-105481381D02*
X154495191Y-104481381D01*
X154733286Y-104481381D01*
X154876144Y-104529000D01*
X154971382Y-104624238D01*
X155019001Y-104719476D01*
X155066620Y-104909952D01*
X155066620Y-105052810D01*
X155019001Y-105243286D01*
X154971382Y-105338524D01*
X154876144Y-105433762D01*
X154733286Y-105481381D01*
X154495191Y-105481381D01*
X144422953Y-103443143D02*
X144375334Y-103490762D01*
X144232477Y-103538381D01*
X144137239Y-103538381D01*
X143994381Y-103490762D01*
X143899143Y-103395524D01*
X143851524Y-103300286D01*
X143803905Y-103109810D01*
X143803905Y-102966952D01*
X143851524Y-102776476D01*
X143899143Y-102681238D01*
X143994381Y-102586000D01*
X144137239Y-102538381D01*
X144232477Y-102538381D01*
X144375334Y-102586000D01*
X144422953Y-102633619D01*
X145042000Y-102538381D02*
X145232477Y-102538381D01*
X145327715Y-102586000D01*
X145422953Y-102681238D01*
X145470572Y-102871714D01*
X145470572Y-103205048D01*
X145422953Y-103395524D01*
X145327715Y-103490762D01*
X145232477Y-103538381D01*
X145042000Y-103538381D01*
X144946762Y-103490762D01*
X144851524Y-103395524D01*
X144803905Y-103205048D01*
X144803905Y-102871714D01*
X144851524Y-102681238D01*
X144946762Y-102586000D01*
X145042000Y-102538381D01*
X145899143Y-103538381D02*
X145899143Y-102538381D01*
X146470572Y-103538381D01*
X146470572Y-102538381D01*
X146803905Y-102538381D02*
X147375334Y-102538381D01*
X147089619Y-103538381D02*
X147089619Y-102538381D01*
X144851524Y-105043143D02*
X144803905Y-105090762D01*
X144661048Y-105138381D01*
X144565810Y-105138381D01*
X144422952Y-105090762D01*
X144327714Y-104995524D01*
X144280095Y-104900286D01*
X144232476Y-104709810D01*
X144232476Y-104566952D01*
X144280095Y-104376476D01*
X144327714Y-104281238D01*
X144422952Y-104186000D01*
X144565810Y-104138381D01*
X144661048Y-104138381D01*
X144803905Y-104186000D01*
X144851524Y-104233619D01*
X145280095Y-105138381D02*
X145280095Y-104138381D01*
X145280095Y-104614571D02*
X145851524Y-104614571D01*
X145851524Y-105138381D02*
X145851524Y-104138381D01*
X146851524Y-105138381D02*
X146280095Y-105138381D01*
X146565809Y-105138381D02*
X146565809Y-104138381D01*
X146470571Y-104281238D01*
X146375333Y-104376476D01*
X146280095Y-104424095D01*
X137358524Y-103951143D02*
X137310905Y-103998762D01*
X137168048Y-104046381D01*
X137072810Y-104046381D01*
X136929952Y-103998762D01*
X136834714Y-103903524D01*
X136787095Y-103808286D01*
X136739476Y-103617810D01*
X136739476Y-103474952D01*
X136787095Y-103284476D01*
X136834714Y-103189238D01*
X136929952Y-103094000D01*
X137072810Y-103046381D01*
X137168048Y-103046381D01*
X137310905Y-103094000D01*
X137358524Y-103141619D01*
X137787095Y-104046381D02*
X137787095Y-103046381D01*
X137787095Y-103522571D02*
X138358524Y-103522571D01*
X138358524Y-104046381D02*
X138358524Y-103046381D01*
X139358524Y-104046381D02*
X138787095Y-104046381D01*
X139072809Y-104046381D02*
X139072809Y-103046381D01*
X138977571Y-103189238D01*
X138882333Y-103284476D01*
X138787095Y-103332095D01*
X137406143Y-105646381D02*
X136929952Y-105646381D01*
X136929952Y-104646381D01*
X137739476Y-105122571D02*
X138072810Y-105122571D01*
X138215667Y-105646381D02*
X137739476Y-105646381D01*
X137739476Y-104646381D01*
X138215667Y-104646381D01*
X138644238Y-105646381D02*
X138644238Y-104646381D01*
X138882333Y-104646381D01*
X139025191Y-104694000D01*
X139120429Y-104789238D01*
X139168048Y-104884476D01*
X139215667Y-105074952D01*
X139215667Y-105217810D01*
X139168048Y-105408286D01*
X139120429Y-105503524D01*
X139025191Y-105598762D01*
X138882333Y-105646381D01*
X138644238Y-105646381D01*
X125595238Y-101760381D02*
X125261904Y-101284190D01*
X125023809Y-101760381D02*
X125023809Y-100760381D01*
X125404762Y-100760381D01*
X125500000Y-100808000D01*
X125547619Y-100855619D01*
X125595238Y-100950857D01*
X125595238Y-101093714D01*
X125547619Y-101188952D01*
X125500000Y-101236571D01*
X125404762Y-101284190D01*
X125023809Y-101284190D01*
X126023809Y-101236571D02*
X126357143Y-101236571D01*
X126500000Y-101760381D02*
X126023809Y-101760381D01*
X126023809Y-100760381D01*
X126500000Y-100760381D01*
X127404762Y-101760381D02*
X126928571Y-101760381D01*
X126928571Y-100760381D01*
X127690476Y-101474667D02*
X128166667Y-101474667D01*
X127595238Y-101760381D02*
X127928571Y-100760381D01*
X128261905Y-101760381D01*
X128785714Y-101284190D02*
X128785714Y-101760381D01*
X128452381Y-100760381D02*
X128785714Y-101284190D01*
X129119048Y-100760381D01*
X124809524Y-103312762D02*
X124952381Y-103360381D01*
X125190477Y-103360381D01*
X125285715Y-103312762D01*
X125333334Y-103265143D01*
X125380953Y-103169905D01*
X125380953Y-103074667D01*
X125333334Y-102979429D01*
X125285715Y-102931810D01*
X125190477Y-102884190D01*
X125000000Y-102836571D01*
X124904762Y-102788952D01*
X124857143Y-102741333D01*
X124809524Y-102646095D01*
X124809524Y-102550857D01*
X124857143Y-102455619D01*
X124904762Y-102408000D01*
X125000000Y-102360381D01*
X125238096Y-102360381D01*
X125380953Y-102408000D01*
X125809524Y-102836571D02*
X126142858Y-102836571D01*
X126285715Y-103360381D02*
X125809524Y-103360381D01*
X125809524Y-102360381D01*
X126285715Y-102360381D01*
X126714286Y-103360381D02*
X126714286Y-102360381D01*
X127285715Y-103360381D01*
X127285715Y-102360381D01*
X127714286Y-103312762D02*
X127857143Y-103360381D01*
X128095239Y-103360381D01*
X128190477Y-103312762D01*
X128238096Y-103265143D01*
X128285715Y-103169905D01*
X128285715Y-103074667D01*
X128238096Y-102979429D01*
X128190477Y-102931810D01*
X128095239Y-102884190D01*
X127904762Y-102836571D01*
X127809524Y-102788952D01*
X127761905Y-102741333D01*
X127714286Y-102646095D01*
X127714286Y-102550857D01*
X127761905Y-102455619D01*
X127809524Y-102408000D01*
X127904762Y-102360381D01*
X128142858Y-102360381D01*
X128285715Y-102408000D01*
X128714286Y-102836571D02*
X129047620Y-102836571D01*
X129190477Y-103360381D02*
X128714286Y-103360381D01*
X128714286Y-102360381D01*
X129190477Y-102360381D01*
X116252858Y-100093571D02*
X115919524Y-100093571D01*
X115919524Y-100617381D02*
X115919524Y-99617381D01*
X116395715Y-99617381D01*
X116776667Y-100617381D02*
X116776667Y-99617381D01*
X117824286Y-100617381D02*
X117490952Y-100141190D01*
X117252857Y-100617381D02*
X117252857Y-99617381D01*
X117633810Y-99617381D01*
X117729048Y-99665000D01*
X117776667Y-99712619D01*
X117824286Y-99807857D01*
X117824286Y-99950714D01*
X117776667Y-100045952D01*
X117729048Y-100093571D01*
X117633810Y-100141190D01*
X117252857Y-100141190D01*
X118252857Y-100617381D02*
X118252857Y-99617381D01*
X118729047Y-100617381D02*
X118729047Y-99617381D01*
X119300476Y-100617381D01*
X119300476Y-99617381D01*
X120300476Y-99665000D02*
X120205238Y-99617381D01*
X120062381Y-99617381D01*
X119919523Y-99665000D01*
X119824285Y-99760238D01*
X119776666Y-99855476D01*
X119729047Y-100045952D01*
X119729047Y-100188810D01*
X119776666Y-100379286D01*
X119824285Y-100474524D01*
X119919523Y-100569762D01*
X120062381Y-100617381D01*
X120157619Y-100617381D01*
X120300476Y-100569762D01*
X120348095Y-100522143D01*
X120348095Y-100188810D01*
X120157619Y-100188810D01*
X116752857Y-102217381D02*
X116752857Y-101217381D01*
X116990952Y-101217381D01*
X117133810Y-101265000D01*
X117229048Y-101360238D01*
X117276667Y-101455476D01*
X117324286Y-101645952D01*
X117324286Y-101788810D01*
X117276667Y-101979286D01*
X117229048Y-102074524D01*
X117133810Y-102169762D01*
X116990952Y-102217381D01*
X116752857Y-102217381D01*
X117752857Y-102217381D02*
X117752857Y-101217381D01*
X118181428Y-102169762D02*
X118324285Y-102217381D01*
X118562381Y-102217381D01*
X118657619Y-102169762D01*
X118705238Y-102122143D01*
X118752857Y-102026905D01*
X118752857Y-101931667D01*
X118705238Y-101836429D01*
X118657619Y-101788810D01*
X118562381Y-101741190D01*
X118371904Y-101693571D01*
X118276666Y-101645952D01*
X118229047Y-101598333D01*
X118181428Y-101503095D01*
X118181428Y-101407857D01*
X118229047Y-101312619D01*
X118276666Y-101265000D01*
X118371904Y-101217381D01*
X118610000Y-101217381D01*
X118752857Y-101265000D01*
X119038571Y-101217381D02*
X119610000Y-101217381D01*
X119324285Y-102217381D02*
X119324285Y-101217381D01*
X114514762Y-96315381D02*
X114514762Y-97124905D01*
X114562381Y-97220143D01*
X114610000Y-97267762D01*
X114705238Y-97315381D01*
X114895715Y-97315381D01*
X114990953Y-97267762D01*
X115038572Y-97220143D01*
X115086191Y-97124905D01*
X115086191Y-96315381D01*
X115562381Y-97315381D02*
X115562381Y-96315381D01*
X115943334Y-96315381D01*
X116038572Y-96363000D01*
X116086191Y-96410619D01*
X116133810Y-96505857D01*
X116133810Y-96648714D01*
X116086191Y-96743952D01*
X116038572Y-96791571D01*
X115943334Y-96839190D01*
X115562381Y-96839190D01*
X116514762Y-97267762D02*
X116657619Y-97315381D01*
X116895715Y-97315381D01*
X116990953Y-97267762D01*
X117038572Y-97220143D01*
X117086191Y-97124905D01*
X117086191Y-97029667D01*
X117038572Y-96934429D01*
X116990953Y-96886810D01*
X116895715Y-96839190D01*
X116705238Y-96791571D01*
X116610000Y-96743952D01*
X116562381Y-96696333D01*
X116514762Y-96601095D01*
X116514762Y-96505857D01*
X116562381Y-96410619D01*
X116610000Y-96363000D01*
X116705238Y-96315381D01*
X116943334Y-96315381D01*
X117086191Y-96363000D01*
X117371905Y-96315381D02*
X117943334Y-96315381D01*
X117657619Y-97315381D02*
X117657619Y-96315381D01*
X118848096Y-97315381D02*
X118514762Y-96839190D01*
X118276667Y-97315381D02*
X118276667Y-96315381D01*
X118657620Y-96315381D01*
X118752858Y-96363000D01*
X118800477Y-96410619D01*
X118848096Y-96505857D01*
X118848096Y-96648714D01*
X118800477Y-96743952D01*
X118752858Y-96791571D01*
X118657620Y-96839190D01*
X118276667Y-96839190D01*
X119276667Y-96791571D02*
X119610001Y-96791571D01*
X119752858Y-97315381D02*
X119276667Y-97315381D01*
X119276667Y-96315381D01*
X119752858Y-96315381D01*
X120133810Y-97029667D02*
X120610001Y-97029667D01*
X120038572Y-97315381D02*
X120371905Y-96315381D01*
X120705239Y-97315381D01*
X121038572Y-97315381D02*
X121038572Y-96315381D01*
X121371906Y-97029667D01*
X121705239Y-96315381D01*
X121705239Y-97315381D01*
X116705238Y-98915381D02*
X116371904Y-98439190D01*
X116133809Y-98915381D02*
X116133809Y-97915381D01*
X116514762Y-97915381D01*
X116610000Y-97963000D01*
X116657619Y-98010619D01*
X116705238Y-98105857D01*
X116705238Y-98248714D01*
X116657619Y-98343952D01*
X116610000Y-98391571D01*
X116514762Y-98439190D01*
X116133809Y-98439190D01*
X117133809Y-98391571D02*
X117467143Y-98391571D01*
X117610000Y-98915381D02*
X117133809Y-98915381D01*
X117133809Y-97915381D01*
X117610000Y-97915381D01*
X118514762Y-98915381D02*
X118038571Y-98915381D01*
X118038571Y-97915381D01*
X118800476Y-98629667D02*
X119276667Y-98629667D01*
X118705238Y-98915381D02*
X119038571Y-97915381D01*
X119371905Y-98915381D01*
X119895714Y-98439190D02*
X119895714Y-98915381D01*
X119562381Y-97915381D02*
X119895714Y-98439190D01*
X120229048Y-97915381D01*
D13*
X174478286Y-62257714D02*
X174406857Y-62329143D01*
X174192571Y-62400571D01*
X174049714Y-62400571D01*
X173835429Y-62329143D01*
X173692571Y-62186286D01*
X173621143Y-62043429D01*
X173549714Y-61757714D01*
X173549714Y-61543429D01*
X173621143Y-61257714D01*
X173692571Y-61114857D01*
X173835429Y-60972000D01*
X174049714Y-60900571D01*
X174192571Y-60900571D01*
X174406857Y-60972000D01*
X174478286Y-61043429D01*
X175121143Y-62400571D02*
X175121143Y-60900571D01*
X175121143Y-61614857D02*
X175978286Y-61614857D01*
X175978286Y-62400571D02*
X175978286Y-60900571D01*
X177335429Y-61400571D02*
X177335429Y-62400571D01*
X176978286Y-60829143D02*
X176621143Y-61900571D01*
X177549715Y-61900571D01*
X156698286Y-62257714D02*
X156626857Y-62329143D01*
X156412571Y-62400571D01*
X156269714Y-62400571D01*
X156055429Y-62329143D01*
X155912571Y-62186286D01*
X155841143Y-62043429D01*
X155769714Y-61757714D01*
X155769714Y-61543429D01*
X155841143Y-61257714D01*
X155912571Y-61114857D01*
X156055429Y-60972000D01*
X156269714Y-60900571D01*
X156412571Y-60900571D01*
X156626857Y-60972000D01*
X156698286Y-61043429D01*
X157341143Y-62400571D02*
X157341143Y-60900571D01*
X157341143Y-61614857D02*
X158198286Y-61614857D01*
X158198286Y-62400571D02*
X158198286Y-60900571D01*
X158769715Y-60900571D02*
X159698286Y-60900571D01*
X159198286Y-61472000D01*
X159412572Y-61472000D01*
X159555429Y-61543429D01*
X159626858Y-61614857D01*
X159698286Y-61757714D01*
X159698286Y-62114857D01*
X159626858Y-62257714D01*
X159555429Y-62329143D01*
X159412572Y-62400571D01*
X158984000Y-62400571D01*
X158841143Y-62329143D01*
X158769715Y-62257714D01*
X139045286Y-62257714D02*
X138973857Y-62329143D01*
X138759571Y-62400571D01*
X138616714Y-62400571D01*
X138402429Y-62329143D01*
X138259571Y-62186286D01*
X138188143Y-62043429D01*
X138116714Y-61757714D01*
X138116714Y-61543429D01*
X138188143Y-61257714D01*
X138259571Y-61114857D01*
X138402429Y-60972000D01*
X138616714Y-60900571D01*
X138759571Y-60900571D01*
X138973857Y-60972000D01*
X139045286Y-61043429D01*
X139688143Y-62400571D02*
X139688143Y-60900571D01*
X139688143Y-61614857D02*
X140545286Y-61614857D01*
X140545286Y-62400571D02*
X140545286Y-60900571D01*
X141188143Y-61043429D02*
X141259572Y-60972000D01*
X141402429Y-60900571D01*
X141759572Y-60900571D01*
X141902429Y-60972000D01*
X141973858Y-61043429D01*
X142045286Y-61186286D01*
X142045286Y-61329143D01*
X141973858Y-61543429D01*
X141116715Y-62400571D01*
X142045286Y-62400571D01*
X121011286Y-62130714D02*
X120939857Y-62202143D01*
X120725571Y-62273571D01*
X120582714Y-62273571D01*
X120368429Y-62202143D01*
X120225571Y-62059286D01*
X120154143Y-61916429D01*
X120082714Y-61630714D01*
X120082714Y-61416429D01*
X120154143Y-61130714D01*
X120225571Y-60987857D01*
X120368429Y-60845000D01*
X120582714Y-60773571D01*
X120725571Y-60773571D01*
X120939857Y-60845000D01*
X121011286Y-60916429D01*
X121654143Y-62273571D02*
X121654143Y-60773571D01*
X121654143Y-61487857D02*
X122511286Y-61487857D01*
X122511286Y-62273571D02*
X122511286Y-60773571D01*
X124011286Y-62273571D02*
X123154143Y-62273571D01*
X123582715Y-62273571D02*
X123582715Y-60773571D01*
X123439858Y-60987857D01*
X123297000Y-61130714D01*
X123154143Y-61202143D01*
X95397286Y-84855857D02*
X95611572Y-84927286D01*
X95683000Y-84998714D01*
X95754429Y-85141571D01*
X95754429Y-85355857D01*
X95683000Y-85498714D01*
X95611572Y-85570143D01*
X95468714Y-85641571D01*
X94897286Y-85641571D01*
X94897286Y-84141571D01*
X95397286Y-84141571D01*
X95540143Y-84213000D01*
X95611572Y-84284429D01*
X95683000Y-84427286D01*
X95683000Y-84570143D01*
X95611572Y-84713000D01*
X95540143Y-84784429D01*
X95397286Y-84855857D01*
X94897286Y-84855857D01*
X96397286Y-84141571D02*
X96397286Y-85355857D01*
X96468714Y-85498714D01*
X96540143Y-85570143D01*
X96683000Y-85641571D01*
X96968714Y-85641571D01*
X97111572Y-85570143D01*
X97183000Y-85498714D01*
X97254429Y-85355857D01*
X97254429Y-84141571D01*
X97825858Y-84141571D02*
X98825858Y-84141571D01*
X97825858Y-85641571D01*
X98825858Y-85641571D01*
X99254429Y-84141571D02*
X100254429Y-84141571D01*
X99254429Y-85641571D01*
X100254429Y-85641571D01*
X100825857Y-84855857D02*
X101325857Y-84855857D01*
X101540143Y-85641571D02*
X100825857Y-85641571D01*
X100825857Y-84141571D01*
X101540143Y-84141571D01*
X103040143Y-85641571D02*
X102540143Y-84927286D01*
X102183000Y-85641571D02*
X102183000Y-84141571D01*
X102754428Y-84141571D01*
X102897286Y-84213000D01*
X102968714Y-84284429D01*
X103040143Y-84427286D01*
X103040143Y-84641571D01*
X102968714Y-84784429D01*
X102897286Y-84855857D01*
X102754428Y-84927286D01*
X102183000Y-84927286D01*
X77811429Y-100824571D02*
X76954286Y-100824571D01*
X77382858Y-100824571D02*
X77382858Y-99324571D01*
X77240001Y-99538857D01*
X77097143Y-99681714D01*
X76954286Y-99753143D01*
X79168572Y-99324571D02*
X78454286Y-99324571D01*
X78382857Y-100038857D01*
X78454286Y-99967429D01*
X78597143Y-99896000D01*
X78954286Y-99896000D01*
X79097143Y-99967429D01*
X79168572Y-100038857D01*
X79240000Y-100181714D01*
X79240000Y-100538857D01*
X79168572Y-100681714D01*
X79097143Y-100753143D01*
X78954286Y-100824571D01*
X78597143Y-100824571D01*
X78454286Y-100753143D01*
X78382857Y-100681714D01*
X79811428Y-100396000D02*
X80525714Y-100396000D01*
X79668571Y-100824571D02*
X80168571Y-99324571D01*
X80668571Y-100824571D01*
X73347144Y-101724571D02*
X73061430Y-101724571D01*
X72918573Y-101796000D01*
X72847144Y-101867429D01*
X72704287Y-102081714D01*
X72632858Y-102367429D01*
X72632858Y-102938857D01*
X72704287Y-103081714D01*
X72775715Y-103153143D01*
X72918573Y-103224571D01*
X73204287Y-103224571D01*
X73347144Y-103153143D01*
X73418573Y-103081714D01*
X73490001Y-102938857D01*
X73490001Y-102581714D01*
X73418573Y-102438857D01*
X73347144Y-102367429D01*
X73204287Y-102296000D01*
X72918573Y-102296000D01*
X72775715Y-102367429D01*
X72704287Y-102438857D01*
X72632858Y-102581714D01*
X74132858Y-103081714D02*
X74204286Y-103153143D01*
X74132858Y-103224571D01*
X74061429Y-103153143D01*
X74132858Y-103081714D01*
X74132858Y-103224571D01*
X74704287Y-101724571D02*
X75632858Y-101724571D01*
X75132858Y-102296000D01*
X75347144Y-102296000D01*
X75490001Y-102367429D01*
X75561430Y-102438857D01*
X75632858Y-102581714D01*
X75632858Y-102938857D01*
X75561430Y-103081714D01*
X75490001Y-103153143D01*
X75347144Y-103224571D01*
X74918572Y-103224571D01*
X74775715Y-103153143D01*
X74704287Y-103081714D01*
X76132858Y-103224571D02*
X76918572Y-102224571D01*
X76132858Y-102224571D02*
X76918572Y-103224571D01*
X77347144Y-101724571D02*
X78275715Y-101724571D01*
X77775715Y-102296000D01*
X77990001Y-102296000D01*
X78132858Y-102367429D01*
X78204287Y-102438857D01*
X78275715Y-102581714D01*
X78275715Y-102938857D01*
X78204287Y-103081714D01*
X78132858Y-103153143D01*
X77990001Y-103224571D01*
X77561429Y-103224571D01*
X77418572Y-103153143D01*
X77347144Y-103081714D01*
X78847143Y-101867429D02*
X78918572Y-101796000D01*
X79061429Y-101724571D01*
X79418572Y-101724571D01*
X79561429Y-101796000D01*
X79632858Y-101867429D01*
X79704286Y-102010286D01*
X79704286Y-102153143D01*
X79632858Y-102367429D01*
X78775715Y-103224571D01*
X79704286Y-103224571D01*
X81490000Y-103224571D02*
X81490000Y-102224571D01*
X81490000Y-102367429D02*
X81561428Y-102296000D01*
X81704286Y-102224571D01*
X81918571Y-102224571D01*
X82061428Y-102296000D01*
X82132857Y-102438857D01*
X82132857Y-103224571D01*
X82132857Y-102438857D02*
X82204286Y-102296000D01*
X82347143Y-102224571D01*
X82561428Y-102224571D01*
X82704286Y-102296000D01*
X82775714Y-102438857D01*
X82775714Y-103224571D01*
X83490000Y-103224571D02*
X83490000Y-102224571D01*
X83490000Y-102367429D02*
X83561428Y-102296000D01*
X83704286Y-102224571D01*
X83918571Y-102224571D01*
X84061428Y-102296000D01*
X84132857Y-102438857D01*
X84132857Y-103224571D01*
X84132857Y-102438857D02*
X84204286Y-102296000D01*
X84347143Y-102224571D01*
X84561428Y-102224571D01*
X84704286Y-102296000D01*
X84775714Y-102438857D01*
X84775714Y-103224571D01*
X79315571Y-77223713D02*
X79315571Y-76295142D01*
X79887000Y-76795142D01*
X79887000Y-76580856D01*
X79958429Y-76437999D01*
X80029857Y-76366570D01*
X80172714Y-76295142D01*
X80529857Y-76295142D01*
X80672714Y-76366570D01*
X80744143Y-76437999D01*
X80815571Y-76580856D01*
X80815571Y-77009428D01*
X80744143Y-77152285D01*
X80672714Y-77223713D01*
X79815571Y-75795142D02*
X80815571Y-75437999D01*
X79815571Y-75080857D01*
X79315571Y-74652285D02*
X79315571Y-73723714D01*
X79887000Y-74223714D01*
X79887000Y-74009428D01*
X79958429Y-73866571D01*
X80029857Y-73795142D01*
X80172714Y-73723714D01*
X80529857Y-73723714D01*
X80672714Y-73795142D01*
X80744143Y-73866571D01*
X80815571Y-74009428D01*
X80815571Y-74438000D01*
X80744143Y-74580857D01*
X80672714Y-74652285D01*
X64369429Y-76116571D02*
X63869429Y-75402286D01*
X63512286Y-76116571D02*
X63512286Y-74616571D01*
X64083714Y-74616571D01*
X64226572Y-74688000D01*
X64298000Y-74759429D01*
X64369429Y-74902286D01*
X64369429Y-75116571D01*
X64298000Y-75259429D01*
X64226572Y-75330857D01*
X64083714Y-75402286D01*
X63512286Y-75402286D01*
X65012286Y-75330857D02*
X65512286Y-75330857D01*
X65726572Y-76116571D02*
X65012286Y-76116571D01*
X65012286Y-74616571D01*
X65726572Y-74616571D01*
X66298000Y-76045143D02*
X66512286Y-76116571D01*
X66869429Y-76116571D01*
X67012286Y-76045143D01*
X67083715Y-75973714D01*
X67155143Y-75830857D01*
X67155143Y-75688000D01*
X67083715Y-75545143D01*
X67012286Y-75473714D01*
X66869429Y-75402286D01*
X66583715Y-75330857D01*
X66440857Y-75259429D01*
X66369429Y-75188000D01*
X66298000Y-75045143D01*
X66298000Y-74902286D01*
X66369429Y-74759429D01*
X66440857Y-74688000D01*
X66583715Y-74616571D01*
X66940857Y-74616571D01*
X67155143Y-74688000D01*
X67798000Y-75330857D02*
X68298000Y-75330857D01*
X68512286Y-76116571D02*
X67798000Y-76116571D01*
X67798000Y-74616571D01*
X68512286Y-74616571D01*
X68940857Y-74616571D02*
X69798000Y-74616571D01*
X69369429Y-76116571D02*
X69369429Y-74616571D01*
X40573001Y-102508857D02*
X40787287Y-102580286D01*
X40858715Y-102651714D01*
X40930144Y-102794571D01*
X40930144Y-103008857D01*
X40858715Y-103151714D01*
X40787287Y-103223143D01*
X40644429Y-103294571D01*
X40073001Y-103294571D01*
X40073001Y-101794571D01*
X40573001Y-101794571D01*
X40715858Y-101866000D01*
X40787287Y-101937429D01*
X40858715Y-102080286D01*
X40858715Y-102223143D01*
X40787287Y-102366000D01*
X40715858Y-102437429D01*
X40573001Y-102508857D01*
X40073001Y-102508857D01*
X41501572Y-102866000D02*
X42215858Y-102866000D01*
X41358715Y-103294571D02*
X41858715Y-101794571D01*
X42358715Y-103294571D01*
X42644429Y-101794571D02*
X43501572Y-101794571D01*
X43073001Y-103294571D02*
X43073001Y-101794571D01*
X43787286Y-101794571D02*
X44644429Y-101794571D01*
X44215858Y-103294571D02*
X44215858Y-101794571D01*
X45144429Y-102508857D02*
X45644429Y-102508857D01*
X45858715Y-103294571D02*
X45144429Y-103294571D01*
X45144429Y-101794571D01*
X45858715Y-101794571D01*
X47358715Y-103294571D02*
X46858715Y-102580286D01*
X46501572Y-103294571D02*
X46501572Y-101794571D01*
X47073000Y-101794571D01*
X47215858Y-101866000D01*
X47287286Y-101937429D01*
X47358715Y-102080286D01*
X47358715Y-102294571D01*
X47287286Y-102437429D01*
X47215858Y-102508857D01*
X47073000Y-102580286D01*
X46501572Y-102580286D01*
X48287286Y-102580286D02*
X48287286Y-103294571D01*
X47787286Y-101794571D02*
X48287286Y-102580286D01*
X48787286Y-101794571D01*
X44323571Y-69719000D02*
X45037857Y-69719000D01*
X44180714Y-70147571D02*
X44680714Y-68647571D01*
X45180714Y-70147571D01*
X46537857Y-70147571D02*
X46037857Y-69433286D01*
X45680714Y-70147571D02*
X45680714Y-68647571D01*
X46252142Y-68647571D01*
X46395000Y-68719000D01*
X46466428Y-68790429D01*
X46537857Y-68933286D01*
X46537857Y-69147571D01*
X46466428Y-69290429D01*
X46395000Y-69361857D01*
X46252142Y-69433286D01*
X45680714Y-69433286D01*
X47180714Y-70147571D02*
X47180714Y-68647571D01*
X47680714Y-69719000D01*
X48180714Y-68647571D01*
X48180714Y-70147571D01*
X50752143Y-70147571D02*
X50037857Y-70147571D01*
X50037857Y-68647571D01*
X51252143Y-69361857D02*
X51752143Y-69361857D01*
X51966429Y-70147571D02*
X51252143Y-70147571D01*
X51252143Y-68647571D01*
X51966429Y-68647571D01*
X52609286Y-70147571D02*
X52609286Y-68647571D01*
X52966429Y-68647571D01*
X53180714Y-68719000D01*
X53323572Y-68861857D01*
X53395000Y-69004714D01*
X53466429Y-69290429D01*
X53466429Y-69504714D01*
X53395000Y-69790429D01*
X53323572Y-69933286D01*
X53180714Y-70076143D01*
X52966429Y-70147571D01*
X52609286Y-70147571D01*
D15*
X40555000Y-134015000D02*
X40555000Y-106015000D01*
X204555000Y-106015000D02*
X204555000Y-134015000D01*
X204555000Y-134015000D02*
X40555000Y-134015000D01*
X40555000Y-106015000D02*
X204555000Y-106015000D01*
X77732000Y-91274000D02*
X78732000Y-91274000D01*
X78732000Y-89574000D02*
X77732000Y-89574000D01*
X72255000Y-76366000D02*
X71255000Y-76366000D01*
X71255000Y-78066000D02*
X72255000Y-78066000D01*
X77605000Y-93306000D02*
X78605000Y-93306000D01*
X78605000Y-91606000D02*
X77605000Y-91606000D01*
X65095500Y-81368000D02*
X66095500Y-81368000D01*
X66095500Y-79668000D02*
X65095500Y-79668000D01*
X67603000Y-85733000D02*
X67603000Y-86733000D01*
X69303000Y-86733000D02*
X69303000Y-85733000D01*
X65571000Y-85733000D02*
X65571000Y-86733000D01*
X67271000Y-86733000D02*
X67271000Y-85733000D01*
X83146000Y-80510000D02*
X83146000Y-79510000D01*
X81446000Y-79510000D02*
X81446000Y-80510000D01*
X79366000Y-61103000D02*
X79366000Y-63103000D01*
X81416000Y-63103000D02*
X81416000Y-61103000D01*
X81954000Y-61666500D02*
X81954000Y-62666500D01*
X83654000Y-62666500D02*
X83654000Y-61666500D01*
X85432000Y-80510000D02*
X85432000Y-79510000D01*
X83732000Y-79510000D02*
X83732000Y-80510000D01*
X59348000Y-86495000D02*
X59348000Y-87495000D01*
X61048000Y-87495000D02*
X61048000Y-86495000D01*
X61048000Y-83685000D02*
X61048000Y-82685000D01*
X59348000Y-82685000D02*
X59348000Y-83685000D01*
X48014000Y-95464000D02*
X49014000Y-95464000D01*
X49014000Y-96814000D02*
X48014000Y-96814000D01*
X71366000Y-60746000D02*
X70366000Y-60746000D01*
X70366000Y-59396000D02*
X71366000Y-59396000D01*
D16*
X123506000Y-94604000D02*
X123506000Y-96404000D01*
D15*
X123306000Y-94404000D02*
X123306000Y-96604000D01*
X123306000Y-96604000D02*
X123706000Y-96604000D01*
X123706000Y-96604000D02*
X123706000Y-94404000D01*
X123706000Y-94404000D02*
X123306000Y-94404000D01*
X125806000Y-96204000D02*
X125806000Y-96604000D01*
X125806000Y-96604000D02*
X122406000Y-96604000D01*
X122406000Y-96604000D02*
X122406000Y-96204000D01*
X122406000Y-94804000D02*
X122406000Y-94404000D01*
X122406000Y-94404000D02*
X125806000Y-94404000D01*
X125806000Y-94404000D02*
X125806000Y-94804000D01*
D16*
X164908000Y-93715000D02*
X164908000Y-95515000D01*
D15*
X164708000Y-93515000D02*
X164708000Y-95715000D01*
X164708000Y-95715000D02*
X165108000Y-95715000D01*
X165108000Y-95715000D02*
X165108000Y-93515000D01*
X165108000Y-93515000D02*
X164708000Y-93515000D01*
X167208000Y-95315000D02*
X167208000Y-95715000D01*
X167208000Y-95715000D02*
X163808000Y-95715000D01*
X163808000Y-95715000D02*
X163808000Y-95315000D01*
X163808000Y-93915000D02*
X163808000Y-93515000D01*
X163808000Y-93515000D02*
X167208000Y-93515000D01*
X167208000Y-93515000D02*
X167208000Y-93915000D01*
X157234000Y-54697000D02*
X158234000Y-54697000D01*
X158234000Y-56047000D02*
X157234000Y-56047000D01*
D16*
X138492000Y-94096000D02*
X138492000Y-95896000D01*
D15*
X138292000Y-93896000D02*
X138292000Y-96096000D01*
X138292000Y-96096000D02*
X138692000Y-96096000D01*
X138692000Y-96096000D02*
X138692000Y-93896000D01*
X138692000Y-93896000D02*
X138292000Y-93896000D01*
X140792000Y-95696000D02*
X140792000Y-96096000D01*
X140792000Y-96096000D02*
X137392000Y-96096000D01*
X137392000Y-96096000D02*
X137392000Y-95696000D01*
X137392000Y-94296000D02*
X137392000Y-93896000D01*
X137392000Y-93896000D02*
X140792000Y-93896000D01*
X140792000Y-93896000D02*
X140792000Y-94296000D01*
X121674000Y-54697000D02*
X122674000Y-54697000D01*
X122674000Y-56047000D02*
X121674000Y-56047000D01*
D16*
X179005000Y-93969000D02*
X179005000Y-95769000D01*
D15*
X178805000Y-93769000D02*
X178805000Y-95969000D01*
X178805000Y-95969000D02*
X179205000Y-95969000D01*
X179205000Y-95969000D02*
X179205000Y-93769000D01*
X179205000Y-93769000D02*
X178805000Y-93769000D01*
X181305000Y-95569000D02*
X181305000Y-95969000D01*
X181305000Y-95969000D02*
X177905000Y-95969000D01*
X177905000Y-95969000D02*
X177905000Y-95569000D01*
X177905000Y-94169000D02*
X177905000Y-93769000D01*
X177905000Y-93769000D02*
X181305000Y-93769000D01*
X181305000Y-93769000D02*
X181305000Y-94169000D01*
X175014000Y-54697000D02*
X176014000Y-54697000D01*
X176014000Y-56047000D02*
X175014000Y-56047000D01*
D16*
X151192000Y-93588000D02*
X151192000Y-95388000D01*
D15*
X150992000Y-93388000D02*
X150992000Y-95588000D01*
X150992000Y-95588000D02*
X151392000Y-95588000D01*
X151392000Y-95588000D02*
X151392000Y-93388000D01*
X151392000Y-93388000D02*
X150992000Y-93388000D01*
X153492000Y-95188000D02*
X153492000Y-95588000D01*
X153492000Y-95588000D02*
X150092000Y-95588000D01*
X150092000Y-95588000D02*
X150092000Y-95188000D01*
X150092000Y-93788000D02*
X150092000Y-93388000D01*
X150092000Y-93388000D02*
X153492000Y-93388000D01*
X153492000Y-93388000D02*
X153492000Y-93788000D01*
X139454000Y-54697000D02*
X140454000Y-54697000D01*
X140454000Y-56047000D02*
X139454000Y-56047000D01*
X95758000Y-97155000D02*
X95758000Y-95885000D01*
X95758000Y-95885000D02*
X88138000Y-95885000D01*
X88138000Y-95885000D02*
X88138000Y-97155000D01*
X88138000Y-103505000D02*
X88138000Y-104775000D01*
X88138000Y-104775000D02*
X95758000Y-104775000D01*
X95758000Y-104775000D02*
X95758000Y-103505000D01*
X61468000Y-103505000D02*
X61468000Y-104775000D01*
X61468000Y-104775000D02*
X69088000Y-104775000D01*
X69088000Y-104775000D02*
X69088000Y-103505000D01*
X61468000Y-97155000D02*
X61468000Y-95885000D01*
X61468000Y-95885000D02*
X69088000Y-95885000D01*
X69088000Y-95885000D02*
X69088000Y-97155000D01*
X61468000Y-103505000D02*
X61468000Y-97155000D01*
X61468000Y-97155000D02*
X95758000Y-97155000D01*
X95758000Y-97155000D02*
X95758000Y-103505000D01*
X95758000Y-103505000D02*
X61468000Y-103505000D01*
X121746000Y-93058000D02*
X121746000Y-63058000D01*
X121746000Y-63058000D02*
X134246000Y-63058000D01*
X134246000Y-63058000D02*
X134246000Y-93058000D01*
X134246000Y-93058000D02*
X121746000Y-93058000D01*
X163656000Y-93058000D02*
X163656000Y-63058000D01*
X163656000Y-63058000D02*
X176156000Y-63058000D01*
X176156000Y-63058000D02*
X176156000Y-93058000D01*
X176156000Y-93058000D02*
X163656000Y-93058000D01*
X135716000Y-93058000D02*
X135716000Y-63058000D01*
X135716000Y-63058000D02*
X148216000Y-63058000D01*
X148216000Y-63058000D02*
X148216000Y-93058000D01*
X148216000Y-93058000D02*
X135716000Y-93058000D01*
X177626000Y-93058000D02*
X177626000Y-63058000D01*
X177626000Y-63058000D02*
X190126000Y-63058000D01*
X190126000Y-63058000D02*
X190126000Y-93058000D01*
X190126000Y-93058000D02*
X177626000Y-93058000D01*
X149686000Y-93058000D02*
X149686000Y-63058000D01*
X149686000Y-63058000D02*
X162186000Y-63058000D01*
X162186000Y-63058000D02*
X162186000Y-93058000D01*
X162186000Y-93058000D02*
X149686000Y-93058000D01*
X129950160Y-94853760D02*
X129901900Y-94853760D01*
X127151180Y-95554800D02*
X127151180Y-94853760D01*
X127151180Y-94853760D02*
X127400100Y-94853760D01*
X129950160Y-94853760D02*
X130150820Y-94853760D01*
X130150820Y-94853760D02*
X130150820Y-95554800D01*
X171479160Y-94599760D02*
X171430900Y-94599760D01*
X168680180Y-95300800D02*
X168680180Y-94599760D01*
X168680180Y-94599760D02*
X168929100Y-94599760D01*
X171479160Y-94599760D02*
X171679820Y-94599760D01*
X171679820Y-94599760D02*
X171679820Y-95300800D01*
X144555160Y-94853760D02*
X144506900Y-94853760D01*
X141756180Y-95554800D02*
X141756180Y-94853760D01*
X141756180Y-94853760D02*
X142005100Y-94853760D01*
X144555160Y-94853760D02*
X144755820Y-94853760D01*
X144755820Y-94853760D02*
X144755820Y-95554800D01*
X185449160Y-94599760D02*
X185400900Y-94599760D01*
X182650180Y-95300800D02*
X182650180Y-94599760D01*
X182650180Y-94599760D02*
X182899100Y-94599760D01*
X185449160Y-94599760D02*
X185649820Y-94599760D01*
X185649820Y-94599760D02*
X185649820Y-95300800D01*
X157890160Y-94853760D02*
X157841900Y-94853760D01*
X155091180Y-95554800D02*
X155091180Y-94853760D01*
X155091180Y-94853760D02*
X155340100Y-94853760D01*
X157890160Y-94853760D02*
X158090820Y-94853760D01*
X158090820Y-94853760D02*
X158090820Y-95554800D01*
X57644000Y-82458000D02*
X57644000Y-83658000D01*
X55894000Y-83658000D02*
X55894000Y-82458000D01*
X53862000Y-83658000D02*
X53862000Y-82458000D01*
X55612000Y-82458000D02*
X55612000Y-83658000D01*
X54829000Y-73519000D02*
X53629000Y-73519000D01*
X53629000Y-71769000D02*
X54829000Y-71769000D01*
X68164000Y-84187000D02*
X66964000Y-84187000D01*
X66964000Y-82437000D02*
X68164000Y-82437000D01*
X128051000Y-97804000D02*
X129251000Y-97804000D01*
X129251000Y-99554000D02*
X128051000Y-99554000D01*
X125441000Y-99554000D02*
X124241000Y-99554000D01*
X124241000Y-97804000D02*
X125441000Y-97804000D01*
X131988000Y-96153000D02*
X133188000Y-96153000D01*
X133188000Y-97903000D02*
X131988000Y-97903000D01*
X133188000Y-95871000D02*
X131988000Y-95871000D01*
X131988000Y-94121000D02*
X133188000Y-94121000D01*
X165008000Y-96153000D02*
X166208000Y-96153000D01*
X166208000Y-97903000D02*
X165008000Y-97903000D01*
X174357000Y-94650000D02*
X174357000Y-95850000D01*
X172607000Y-95850000D02*
X172607000Y-94650000D01*
X176389000Y-94650000D02*
X176389000Y-95850000D01*
X174639000Y-95850000D02*
X174639000Y-94650000D01*
X171034000Y-99173000D02*
X169834000Y-99173000D01*
X169834000Y-97423000D02*
X171034000Y-97423000D01*
X136511000Y-94269000D02*
X136511000Y-95469000D01*
X134761000Y-95469000D02*
X134761000Y-94269000D01*
X169834000Y-99455000D02*
X171034000Y-99455000D01*
X171034000Y-101205000D02*
X169834000Y-101205000D01*
X148957000Y-94904000D02*
X148957000Y-96104000D01*
X147207000Y-96104000D02*
X147207000Y-94904000D01*
X146925000Y-94904000D02*
X146925000Y-96104000D01*
X145175000Y-96104000D02*
X145175000Y-94904000D01*
X143348000Y-99427000D02*
X142148000Y-99427000D01*
X142148000Y-97677000D02*
X143348000Y-97677000D01*
X142148000Y-99709000D02*
X143348000Y-99709000D01*
X143348000Y-101459000D02*
X142148000Y-101459000D01*
X179105000Y-96407000D02*
X180305000Y-96407000D01*
X180305000Y-98157000D02*
X179105000Y-98157000D01*
X190740000Y-97063000D02*
X190740000Y-98263000D01*
X188990000Y-98263000D02*
X188990000Y-97063000D01*
X188433000Y-95490000D02*
X187233000Y-95490000D01*
X187233000Y-93740000D02*
X188433000Y-93740000D01*
X185004000Y-99173000D02*
X183804000Y-99173000D01*
X183804000Y-97423000D02*
X185004000Y-97423000D01*
X151292000Y-95899000D02*
X152492000Y-95899000D01*
X152492000Y-97649000D02*
X151292000Y-97649000D01*
X187946000Y-97063000D02*
X187946000Y-98263000D01*
X186196000Y-98263000D02*
X186196000Y-97063000D01*
X162546000Y-94904000D02*
X162546000Y-96104000D01*
X160796000Y-96104000D02*
X160796000Y-94904000D01*
X160641000Y-94904000D02*
X160641000Y-96104000D01*
X158891000Y-96104000D02*
X158891000Y-94904000D01*
X157191000Y-99554000D02*
X155991000Y-99554000D01*
X155991000Y-97804000D02*
X157191000Y-97804000D01*
X155991000Y-99709000D02*
X157191000Y-99709000D01*
X157191000Y-101459000D02*
X155991000Y-101459000D01*
X64719000Y-83062000D02*
X64719000Y-87662000D01*
X64519000Y-87862000D02*
X64719000Y-87662000D01*
X64519000Y-82862000D02*
X64719000Y-83062000D01*
X61519000Y-83012000D02*
X61519000Y-87712000D01*
X61719000Y-82862000D02*
X61519000Y-83012000D01*
X61719000Y-87862000D02*
X61519000Y-87712000D01*
X100187760Y-92934840D02*
X100187760Y-92983100D01*
X100888800Y-95733820D02*
X100187760Y-95733820D01*
X100187760Y-95733820D02*
X100187760Y-95484900D01*
X100187760Y-92934840D02*
X100187760Y-92734180D01*
X100187760Y-92734180D02*
X100888800Y-92734180D01*
X104507000Y-93634000D02*
X104507000Y-94834000D01*
X102757000Y-94834000D02*
X102757000Y-93634000D01*
X104789000Y-94834000D02*
X104789000Y-93634000D01*
X106539000Y-93634000D02*
X106539000Y-94834000D01*
X59205400Y-143725900D02*
G75*
G03X59205400Y-143725900I-3300000J0D01*
G01*
X191221900Y-143725900D02*
G75*
G03X191221900Y-143725900I-3300000J0D01*
G01*
X191221900Y-59715400D02*
G75*
G03X191221900Y-59715400I-3300000J0D01*
G01*
X59218100Y-59715400D02*
G75*
G03X59218100Y-59715400I-3300000J0D01*
G01*
D17*
X96768000Y-86427000D02*
X96768000Y-90727000D01*
X102368000Y-91827000D02*
X102368000Y-86427000D01*
X98968000Y-87627000D02*
X98968000Y-86427000D01*
X100168000Y-87627000D02*
X100168000Y-86427000D01*
X98968000Y-86427000D02*
X96768000Y-86427000D01*
X102368000Y-86427000D02*
X100168000Y-86427000D01*
X100168000Y-87627000D02*
X98968000Y-87627000D01*
X102368000Y-91827000D02*
X97868000Y-91827000D01*
X51495000Y-70987000D02*
X47195000Y-70987000D01*
X46095000Y-76587000D02*
X51495000Y-76587000D01*
X50295000Y-73187000D02*
X51495000Y-73187000D01*
X50295000Y-74387000D02*
X51495000Y-74387000D01*
X51495000Y-73187000D02*
X51495000Y-70987000D01*
X51495000Y-76587000D02*
X51495000Y-74387000D01*
X50295000Y-74387000D02*
X50295000Y-73187000D01*
X46095000Y-76587000D02*
X46095000Y-72087000D01*
X149092000Y-98238000D02*
X149092000Y-102538000D01*
X154692000Y-103638000D02*
X154692000Y-98238000D01*
X151292000Y-99438000D02*
X151292000Y-98238000D01*
X152492000Y-99438000D02*
X152492000Y-98238000D01*
X151292000Y-98238000D02*
X149092000Y-98238000D01*
X154692000Y-98238000D02*
X152492000Y-98238000D01*
X152492000Y-99438000D02*
X151292000Y-99438000D01*
X154692000Y-103638000D02*
X150192000Y-103638000D01*
X176905000Y-98873000D02*
X176905000Y-103173000D01*
X182505000Y-104273000D02*
X182505000Y-98873000D01*
X179105000Y-100073000D02*
X179105000Y-98873000D01*
X180305000Y-100073000D02*
X180305000Y-98873000D01*
X179105000Y-98873000D02*
X176905000Y-98873000D01*
X182505000Y-98873000D02*
X180305000Y-98873000D01*
X180305000Y-100073000D02*
X179105000Y-100073000D01*
X182505000Y-104273000D02*
X178005000Y-104273000D01*
X134995000Y-96968000D02*
X134995000Y-101268000D01*
X140595000Y-102368000D02*
X140595000Y-96968000D01*
X137195000Y-98168000D02*
X137195000Y-96968000D01*
X138395000Y-98168000D02*
X138395000Y-96968000D01*
X137195000Y-96968000D02*
X134995000Y-96968000D01*
X140595000Y-96968000D02*
X138395000Y-96968000D01*
X138395000Y-98168000D02*
X137195000Y-98168000D01*
X140595000Y-102368000D02*
X136095000Y-102368000D01*
X163062000Y-98492000D02*
X163062000Y-102792000D01*
X168662000Y-103892000D02*
X168662000Y-98492000D01*
X165262000Y-99692000D02*
X165262000Y-98492000D01*
X166462000Y-99692000D02*
X166462000Y-98492000D01*
X165262000Y-98492000D02*
X163062000Y-98492000D01*
X168662000Y-98492000D02*
X166462000Y-98492000D01*
X166462000Y-99692000D02*
X165262000Y-99692000D01*
X168662000Y-103892000D02*
X164162000Y-103892000D01*
D15*
X160828000Y-99652000D02*
X160828000Y-97452000D01*
X160928000Y-97452000D02*
X160928000Y-99652000D01*
X161028000Y-99652000D02*
X161028000Y-97452000D01*
X161128000Y-97452000D02*
X161128000Y-99652000D01*
X160528000Y-97452000D02*
X162028000Y-97452000D01*
X162028000Y-97452000D02*
X162028000Y-97752000D01*
X162028000Y-99352000D02*
X162028000Y-99652000D01*
X162028000Y-99652000D02*
X159028000Y-99652000D01*
X159028000Y-99652000D02*
X159028000Y-99352000D01*
X159028000Y-97752000D02*
X159028000Y-97452000D01*
X159028000Y-97452000D02*
X160528000Y-97452000D01*
X191051000Y-96820000D02*
X193251000Y-96820000D01*
X193251000Y-96920000D02*
X191051000Y-96920000D01*
X191051000Y-97020000D02*
X193251000Y-97020000D01*
X193251000Y-97120000D02*
X191051000Y-97120000D01*
X193251000Y-96520000D02*
X193251000Y-98020000D01*
X193251000Y-98020000D02*
X192951000Y-98020000D01*
X191351000Y-98020000D02*
X191051000Y-98020000D01*
X191051000Y-98020000D02*
X191051000Y-95020000D01*
X191051000Y-95020000D02*
X191351000Y-95020000D01*
X192951000Y-95020000D02*
X193251000Y-95020000D01*
X193251000Y-95020000D02*
X193251000Y-96520000D01*
X146858000Y-99652000D02*
X146858000Y-97452000D01*
X146958000Y-97452000D02*
X146958000Y-99652000D01*
X147058000Y-99652000D02*
X147058000Y-97452000D01*
X147158000Y-97452000D02*
X147158000Y-99652000D01*
X146558000Y-97452000D02*
X148058000Y-97452000D01*
X148058000Y-97452000D02*
X148058000Y-97752000D01*
X148058000Y-99352000D02*
X148058000Y-99652000D01*
X148058000Y-99652000D02*
X145058000Y-99652000D01*
X145058000Y-99652000D02*
X145058000Y-99352000D01*
X145058000Y-97752000D02*
X145058000Y-97452000D01*
X145058000Y-97452000D02*
X146558000Y-97452000D01*
X173944000Y-97198000D02*
X173944000Y-99398000D01*
X173844000Y-99398000D02*
X173844000Y-97198000D01*
X173744000Y-97198000D02*
X173744000Y-99398000D01*
X173644000Y-99398000D02*
X173644000Y-97198000D01*
X174244000Y-99398000D02*
X172744000Y-99398000D01*
X172744000Y-99398000D02*
X172744000Y-99098000D01*
X172744000Y-97498000D02*
X172744000Y-97198000D01*
X172744000Y-97198000D02*
X175744000Y-97198000D01*
X175744000Y-97198000D02*
X175744000Y-97498000D01*
X175744000Y-99098000D02*
X175744000Y-99398000D01*
X175744000Y-99398000D02*
X174244000Y-99398000D01*
X131996000Y-100884000D02*
X134196000Y-100884000D01*
X134196000Y-100984000D02*
X131996000Y-100984000D01*
X131996000Y-101084000D02*
X134196000Y-101084000D01*
X134196000Y-101184000D02*
X131996000Y-101184000D01*
X134196000Y-100584000D02*
X134196000Y-102084000D01*
X134196000Y-102084000D02*
X133896000Y-102084000D01*
X132296000Y-102084000D02*
X131996000Y-102084000D01*
X131996000Y-102084000D02*
X131996000Y-99084000D01*
X131996000Y-99084000D02*
X132296000Y-99084000D01*
X133896000Y-99084000D02*
X134196000Y-99084000D01*
X134196000Y-99084000D02*
X134196000Y-100584000D01*
X40555000Y-90436000D02*
X40555000Y-82836000D01*
X52155000Y-90436000D02*
X52155000Y-82836000D01*
X52155000Y-82836000D02*
X40555000Y-82836000D01*
X52155000Y-90436000D02*
X40555000Y-90436000D01*
X72192000Y-80570000D02*
X70942000Y-80570000D01*
X73692000Y-81320000D02*
G75*
G03X73692000Y-81320000I-500000J0D01*
G01*
X79192000Y-80320000D02*
X79192000Y-87320000D01*
X79192000Y-87320000D02*
X72192000Y-87320000D01*
X72192000Y-87320000D02*
X72192000Y-80320000D01*
X72192000Y-80320000D02*
X79192000Y-80320000D01*
X100964000Y-69976000D02*
X84964000Y-69976000D01*
X84964000Y-69976000D02*
X84964000Y-53976000D01*
X84964000Y-53976000D02*
X100964000Y-53976000D01*
X100964000Y-53976000D02*
X100964000Y-69976000D01*
X57404000Y-80391000D02*
X62484000Y-80391000D01*
X62484000Y-79565500D02*
X62484000Y-80391000D01*
X61023500Y-80391000D02*
X61023500Y-79565500D01*
X57404000Y-79565500D02*
X57404000Y-80391000D01*
X58864500Y-80391000D02*
X58864500Y-79565500D01*
X57404000Y-76136500D02*
X57404000Y-75311000D01*
X57404000Y-75311000D02*
X62484000Y-75311000D01*
X62484000Y-75311000D02*
X62484000Y-76136500D01*
X59944000Y-76136500D02*
X63119000Y-76136500D01*
X63119000Y-76136500D02*
X63119000Y-79565500D01*
X63119000Y-79565500D02*
X56769000Y-79565500D01*
X56769000Y-79565500D02*
X56769000Y-76136500D01*
X56769000Y-76136500D02*
X59944000Y-76136500D01*
X68346000Y-61651000D02*
X70846000Y-61651000D01*
X73096000Y-66401000D02*
X73096000Y-63901000D01*
X68346000Y-68651000D02*
X70846000Y-68651000D01*
X66096000Y-63901000D02*
X66096000Y-66401000D01*
X71398776Y-65151000D02*
G75*
G03X71398776Y-65151000I-1802776J0D01*
G01*
X81419000Y-73838000D02*
X81419000Y-76538000D01*
X82919000Y-73838000D02*
X82919000Y-76538000D01*
X82019000Y-75338000D02*
X82269000Y-75338000D01*
X82269000Y-75338000D02*
X82119000Y-75188000D01*
X82519000Y-75088000D02*
X81819000Y-75088000D01*
X82169000Y-75438000D02*
X82169000Y-75788000D01*
X82169000Y-75088000D02*
X82519000Y-75438000D01*
X82519000Y-75438000D02*
X81819000Y-75438000D01*
X81819000Y-75438000D02*
X82169000Y-75088000D01*
X82792000Y-89865000D02*
X82792000Y-87165000D01*
X81292000Y-89865000D02*
X81292000Y-87165000D01*
X82192000Y-88365000D02*
X81942000Y-88365000D01*
X81942000Y-88365000D02*
X82092000Y-88515000D01*
X81692000Y-88615000D02*
X82392000Y-88615000D01*
X82042000Y-88265000D02*
X82042000Y-87915000D01*
X82042000Y-88615000D02*
X81692000Y-88265000D01*
X81692000Y-88265000D02*
X82392000Y-88265000D01*
X82392000Y-88265000D02*
X82042000Y-88615000D01*
X84824000Y-89865000D02*
X84824000Y-87165000D01*
X83324000Y-89865000D02*
X83324000Y-87165000D01*
X84224000Y-88365000D02*
X83974000Y-88365000D01*
X83974000Y-88365000D02*
X84124000Y-88515000D01*
X83724000Y-88615000D02*
X84424000Y-88615000D01*
X84074000Y-88265000D02*
X84074000Y-87915000D01*
X84074000Y-88615000D02*
X83724000Y-88265000D01*
X83724000Y-88265000D02*
X84424000Y-88265000D01*
X84424000Y-88265000D02*
X84074000Y-88615000D01*
X83326000Y-76038000D02*
X83326000Y-74838000D01*
X85076000Y-74838000D02*
X85076000Y-76038000D01*
X81167000Y-92421000D02*
X81167000Y-91221000D01*
X82917000Y-91221000D02*
X82917000Y-92421000D01*
X83199000Y-92421000D02*
X83199000Y-91221000D01*
X84949000Y-91221000D02*
X84949000Y-92421000D01*
D18*
G36*
X197240232Y-99705130D02*
X197360778Y-99776634D01*
X197541116Y-99891457D01*
X197773651Y-100044290D01*
X198050790Y-100229825D01*
X198364939Y-100442754D01*
X198708502Y-100677768D01*
X199073885Y-100929561D01*
X199453496Y-101192823D01*
X199839738Y-101462247D01*
X200225018Y-101732524D01*
X200601741Y-101998347D01*
X200962314Y-102254406D01*
X201299141Y-102495394D01*
X201604630Y-102716004D01*
X201871184Y-102910925D01*
X202091211Y-103074852D01*
X202257116Y-103202474D01*
X202361304Y-103288485D01*
X202393758Y-103321544D01*
X202466200Y-103465760D01*
X202481349Y-103586393D01*
X202438848Y-103663833D01*
X202400253Y-103679472D01*
X202346559Y-103657132D01*
X202226656Y-103587423D01*
X202049737Y-103476323D01*
X201824993Y-103329808D01*
X201561618Y-103153853D01*
X201268804Y-102954436D01*
X201014798Y-102778728D01*
X200631747Y-102512072D01*
X200206789Y-102216465D01*
X199762939Y-101907903D01*
X199323211Y-101602379D01*
X198910619Y-101315888D01*
X198548179Y-101064426D01*
X198511432Y-101038946D01*
X198212038Y-100829551D01*
X197932703Y-100630734D01*
X197683803Y-100450147D01*
X197475718Y-100295447D01*
X197318824Y-100174286D01*
X197223500Y-100094320D01*
X197204350Y-100074894D01*
X197129200Y-99949092D01*
X197102114Y-99824003D01*
X197124247Y-99725853D01*
X197187073Y-99682252D01*
X197240232Y-99705130D01*
X197240232Y-99705130D01*
G37*
X197240232Y-99705130D02*
X197360778Y-99776634D01*
X197541116Y-99891457D01*
X197773651Y-100044290D01*
X198050790Y-100229825D01*
X198364939Y-100442754D01*
X198708502Y-100677768D01*
X199073885Y-100929561D01*
X199453496Y-101192823D01*
X199839738Y-101462247D01*
X200225018Y-101732524D01*
X200601741Y-101998347D01*
X200962314Y-102254406D01*
X201299141Y-102495394D01*
X201604630Y-102716004D01*
X201871184Y-102910925D01*
X202091211Y-103074852D01*
X202257116Y-103202474D01*
X202361304Y-103288485D01*
X202393758Y-103321544D01*
X202466200Y-103465760D01*
X202481349Y-103586393D01*
X202438848Y-103663833D01*
X202400253Y-103679472D01*
X202346559Y-103657132D01*
X202226656Y-103587423D01*
X202049737Y-103476323D01*
X201824993Y-103329808D01*
X201561618Y-103153853D01*
X201268804Y-102954436D01*
X201014798Y-102778728D01*
X200631747Y-102512072D01*
X200206789Y-102216465D01*
X199762939Y-101907903D01*
X199323211Y-101602379D01*
X198910619Y-101315888D01*
X198548179Y-101064426D01*
X198511432Y-101038946D01*
X198212038Y-100829551D01*
X197932703Y-100630734D01*
X197683803Y-100450147D01*
X197475718Y-100295447D01*
X197318824Y-100174286D01*
X197223500Y-100094320D01*
X197204350Y-100074894D01*
X197129200Y-99949092D01*
X197102114Y-99824003D01*
X197124247Y-99725853D01*
X197187073Y-99682252D01*
X197240232Y-99705130D01*
G36*
X197196364Y-98018521D02*
X197248357Y-98047054D01*
X197368293Y-98123171D01*
X197548416Y-98241532D01*
X197780973Y-98396797D01*
X198058207Y-98583626D01*
X198372365Y-98796678D01*
X198715692Y-99030614D01*
X199080433Y-99280092D01*
X199458833Y-99539773D01*
X199843139Y-99804317D01*
X200225595Y-100068382D01*
X200598446Y-100326629D01*
X200953938Y-100573718D01*
X201284317Y-100804308D01*
X201581827Y-101013059D01*
X201838714Y-101194630D01*
X202047224Y-101343683D01*
X202199601Y-101454875D01*
X202288091Y-101522867D01*
X202300231Y-101533315D01*
X202394450Y-101654226D01*
X202457648Y-101800743D01*
X202480617Y-101941334D01*
X202454149Y-102044468D01*
X202450762Y-102048807D01*
X202386713Y-102107500D01*
X202357471Y-102119545D01*
X202314544Y-102093882D01*
X202202235Y-102019818D01*
X202026952Y-101901742D01*
X201795103Y-101744041D01*
X201513097Y-101551104D01*
X201187343Y-101327319D01*
X200824250Y-101077074D01*
X200430226Y-100804758D01*
X200011680Y-100514758D01*
X199857762Y-100407935D01*
X199427507Y-100108580D01*
X199016520Y-99821445D01*
X198631643Y-99551383D01*
X198279713Y-99303250D01*
X197967572Y-99081901D01*
X197702057Y-98892190D01*
X197490008Y-98738971D01*
X197338266Y-98627101D01*
X197253669Y-98561433D01*
X197242545Y-98551603D01*
X197142517Y-98436826D01*
X197099743Y-98321338D01*
X197092455Y-98202739D01*
X197096915Y-98077208D01*
X197118633Y-98021745D01*
X197170118Y-98014175D01*
X197196364Y-98018521D01*
X197196364Y-98018521D01*
G37*
X197196364Y-98018521D02*
X197248357Y-98047054D01*
X197368293Y-98123171D01*
X197548416Y-98241532D01*
X197780973Y-98396797D01*
X198058207Y-98583626D01*
X198372365Y-98796678D01*
X198715692Y-99030614D01*
X199080433Y-99280092D01*
X199458833Y-99539773D01*
X199843139Y-99804317D01*
X200225595Y-100068382D01*
X200598446Y-100326629D01*
X200953938Y-100573718D01*
X201284317Y-100804308D01*
X201581827Y-101013059D01*
X201838714Y-101194630D01*
X202047224Y-101343683D01*
X202199601Y-101454875D01*
X202288091Y-101522867D01*
X202300231Y-101533315D01*
X202394450Y-101654226D01*
X202457648Y-101800743D01*
X202480617Y-101941334D01*
X202454149Y-102044468D01*
X202450762Y-102048807D01*
X202386713Y-102107500D01*
X202357471Y-102119545D01*
X202314544Y-102093882D01*
X202202235Y-102019818D01*
X202026952Y-101901742D01*
X201795103Y-101744041D01*
X201513097Y-101551104D01*
X201187343Y-101327319D01*
X200824250Y-101077074D01*
X200430226Y-100804758D01*
X200011680Y-100514758D01*
X199857762Y-100407935D01*
X199427507Y-100108580D01*
X199016520Y-99821445D01*
X198631643Y-99551383D01*
X198279713Y-99303250D01*
X197967572Y-99081901D01*
X197702057Y-98892190D01*
X197490008Y-98738971D01*
X197338266Y-98627101D01*
X197253669Y-98561433D01*
X197242545Y-98551603D01*
X197142517Y-98436826D01*
X197099743Y-98321338D01*
X197092455Y-98202739D01*
X197096915Y-98077208D01*
X197118633Y-98021745D01*
X197170118Y-98014175D01*
X197196364Y-98018521D01*
G36*
X197309681Y-96260210D02*
X197422786Y-96311346D01*
X197572675Y-96394703D01*
X197764739Y-96513102D01*
X198004368Y-96669367D01*
X198296951Y-96866321D01*
X198647881Y-97106787D01*
X199062545Y-97393588D01*
X199546337Y-97729546D01*
X199678636Y-97821491D01*
X200093840Y-98110297D01*
X200490691Y-98386810D01*
X200861940Y-98645947D01*
X201200339Y-98882628D01*
X201498640Y-99091771D01*
X201749594Y-99268294D01*
X201945952Y-99407115D01*
X202080467Y-99503154D01*
X202144009Y-99549852D01*
X202309747Y-99722256D01*
X202431600Y-99934157D01*
X202491510Y-100151802D01*
X202494713Y-100205309D01*
X202472474Y-100335559D01*
X202415152Y-100429129D01*
X202354354Y-100457000D01*
X202312127Y-100431355D01*
X202200480Y-100357343D01*
X202025810Y-100239350D01*
X201794514Y-100081758D01*
X201512991Y-99888954D01*
X201187638Y-99665322D01*
X200824851Y-99415245D01*
X200431030Y-99143110D01*
X200012571Y-98853300D01*
X199858227Y-98746250D01*
X199427666Y-98446658D01*
X199016331Y-98158809D01*
X198631080Y-97887606D01*
X198278767Y-97637953D01*
X197966249Y-97414751D01*
X197700381Y-97222905D01*
X197488021Y-97067317D01*
X197336024Y-96952890D01*
X197251245Y-96884527D01*
X197240197Y-96874002D01*
X197148972Y-96766723D01*
X197106571Y-96671858D01*
X197098304Y-96546776D01*
X197101652Y-96471934D01*
X197107251Y-96389030D01*
X197117292Y-96321409D01*
X197137165Y-96271894D01*
X197172260Y-96243307D01*
X197227969Y-96238472D01*
X197309681Y-96260210D01*
X197309681Y-96260210D01*
G37*
X197309681Y-96260210D02*
X197422786Y-96311346D01*
X197572675Y-96394703D01*
X197764739Y-96513102D01*
X198004368Y-96669367D01*
X198296951Y-96866321D01*
X198647881Y-97106787D01*
X199062545Y-97393588D01*
X199546337Y-97729546D01*
X199678636Y-97821491D01*
X200093840Y-98110297D01*
X200490691Y-98386810D01*
X200861940Y-98645947D01*
X201200339Y-98882628D01*
X201498640Y-99091771D01*
X201749594Y-99268294D01*
X201945952Y-99407115D01*
X202080467Y-99503154D01*
X202144009Y-99549852D01*
X202309747Y-99722256D01*
X202431600Y-99934157D01*
X202491510Y-100151802D01*
X202494713Y-100205309D01*
X202472474Y-100335559D01*
X202415152Y-100429129D01*
X202354354Y-100457000D01*
X202312127Y-100431355D01*
X202200480Y-100357343D01*
X202025810Y-100239350D01*
X201794514Y-100081758D01*
X201512991Y-99888954D01*
X201187638Y-99665322D01*
X200824851Y-99415245D01*
X200431030Y-99143110D01*
X200012571Y-98853300D01*
X199858227Y-98746250D01*
X199427666Y-98446658D01*
X199016331Y-98158809D01*
X198631080Y-97887606D01*
X198278767Y-97637953D01*
X197966249Y-97414751D01*
X197700381Y-97222905D01*
X197488021Y-97067317D01*
X197336024Y-96952890D01*
X197251245Y-96884527D01*
X197240197Y-96874002D01*
X197148972Y-96766723D01*
X197106571Y-96671858D01*
X197098304Y-96546776D01*
X197101652Y-96471934D01*
X197107251Y-96389030D01*
X197117292Y-96321409D01*
X197137165Y-96271894D01*
X197172260Y-96243307D01*
X197227969Y-96238472D01*
X197309681Y-96260210D01*
G36*
X197274465Y-94196933D02*
X197354614Y-94235526D01*
X197475777Y-94305287D01*
X197642286Y-94409071D01*
X197858473Y-94549732D01*
X198128670Y-94730127D01*
X198457208Y-94953110D01*
X198848419Y-95221535D01*
X199306633Y-95538259D01*
X199771000Y-95860775D01*
X200196466Y-96157238D01*
X200601912Y-96440627D01*
X200980548Y-96706139D01*
X201325589Y-96948974D01*
X201630244Y-97164330D01*
X201887727Y-97347407D01*
X202091249Y-97493403D01*
X202234022Y-97597517D01*
X202309260Y-97654948D01*
X202316395Y-97661140D01*
X202408334Y-97786409D01*
X202468976Y-97946038D01*
X202497963Y-98118656D01*
X202494939Y-98282891D01*
X202459550Y-98417370D01*
X202391439Y-98500721D01*
X202330651Y-98517364D01*
X202284354Y-98491662D01*
X202168728Y-98417466D01*
X201990188Y-98299136D01*
X201755150Y-98141033D01*
X201470030Y-97947518D01*
X201141243Y-97722952D01*
X200775205Y-97471696D01*
X200378331Y-97198111D01*
X199957038Y-96906557D01*
X199771352Y-96777710D01*
X199194240Y-96375646D01*
X198687642Y-96020002D01*
X198252468Y-95711438D01*
X197889631Y-95450617D01*
X197600042Y-95238199D01*
X197384612Y-95074845D01*
X197244252Y-94961219D01*
X197179874Y-94897980D01*
X197178447Y-94895800D01*
X197122719Y-94769379D01*
X197101482Y-94610170D01*
X197103072Y-94476455D01*
X197113106Y-94321986D01*
X197132156Y-94237200D01*
X197170232Y-94199422D01*
X197231000Y-94186653D01*
X197274465Y-94196933D01*
X197274465Y-94196933D01*
G37*
X197274465Y-94196933D02*
X197354614Y-94235526D01*
X197475777Y-94305287D01*
X197642286Y-94409071D01*
X197858473Y-94549732D01*
X198128670Y-94730127D01*
X198457208Y-94953110D01*
X198848419Y-95221535D01*
X199306633Y-95538259D01*
X199771000Y-95860775D01*
X200196466Y-96157238D01*
X200601912Y-96440627D01*
X200980548Y-96706139D01*
X201325589Y-96948974D01*
X201630244Y-97164330D01*
X201887727Y-97347407D01*
X202091249Y-97493403D01*
X202234022Y-97597517D01*
X202309260Y-97654948D01*
X202316395Y-97661140D01*
X202408334Y-97786409D01*
X202468976Y-97946038D01*
X202497963Y-98118656D01*
X202494939Y-98282891D01*
X202459550Y-98417370D01*
X202391439Y-98500721D01*
X202330651Y-98517364D01*
X202284354Y-98491662D01*
X202168728Y-98417466D01*
X201990188Y-98299136D01*
X201755150Y-98141033D01*
X201470030Y-97947518D01*
X201141243Y-97722952D01*
X200775205Y-97471696D01*
X200378331Y-97198111D01*
X199957038Y-96906557D01*
X199771352Y-96777710D01*
X199194240Y-96375646D01*
X198687642Y-96020002D01*
X198252468Y-95711438D01*
X197889631Y-95450617D01*
X197600042Y-95238199D01*
X197384612Y-95074845D01*
X197244252Y-94961219D01*
X197179874Y-94897980D01*
X197178447Y-94895800D01*
X197122719Y-94769379D01*
X197101482Y-94610170D01*
X197103072Y-94476455D01*
X197113106Y-94321986D01*
X197132156Y-94237200D01*
X197170232Y-94199422D01*
X197231000Y-94186653D01*
X197274465Y-94196933D01*
G36*
X197289098Y-92055829D02*
X197414345Y-92130082D01*
X197599376Y-92247180D01*
X197836452Y-92401772D01*
X198117838Y-92588506D01*
X198435796Y-92802032D01*
X198782588Y-93036999D01*
X199150477Y-93288055D01*
X199531726Y-93549849D01*
X199918598Y-93817030D01*
X200303356Y-94084248D01*
X200678261Y-94346151D01*
X201035578Y-94597388D01*
X201367568Y-94832608D01*
X201666495Y-95046460D01*
X201924621Y-95233593D01*
X202134209Y-95388655D01*
X202287521Y-95506296D01*
X202376821Y-95581165D01*
X202395133Y-95601016D01*
X202438976Y-95714604D01*
X202472402Y-95886677D01*
X202492027Y-96083625D01*
X202494469Y-96271839D01*
X202477061Y-96414904D01*
X202421893Y-96510073D01*
X202360790Y-96531545D01*
X202305192Y-96505943D01*
X202182377Y-96432813D01*
X202000739Y-96317670D01*
X201768675Y-96166031D01*
X201494582Y-95983411D01*
X201186855Y-95775325D01*
X200853889Y-95547289D01*
X200687579Y-95432373D01*
X200097591Y-95023417D01*
X199578900Y-94663541D01*
X199126790Y-94349356D01*
X198736545Y-94077473D01*
X198403449Y-93844502D01*
X198122786Y-93647055D01*
X197889841Y-93481741D01*
X197699896Y-93345172D01*
X197548237Y-93233958D01*
X197430147Y-93144710D01*
X197340911Y-93074039D01*
X197275811Y-93018556D01*
X197230133Y-92974870D01*
X197199160Y-92939594D01*
X197179169Y-92910958D01*
X197132282Y-92814043D01*
X197107392Y-92697132D01*
X197100422Y-92532731D01*
X197103201Y-92398273D01*
X197110671Y-92215043D01*
X197122313Y-92105369D01*
X197144658Y-92050477D01*
X197184238Y-92031588D01*
X197231372Y-92029771D01*
X197289098Y-92055829D01*
X197289098Y-92055829D01*
G37*
X197289098Y-92055829D02*
X197414345Y-92130082D01*
X197599376Y-92247180D01*
X197836452Y-92401772D01*
X198117838Y-92588506D01*
X198435796Y-92802032D01*
X198782588Y-93036999D01*
X199150477Y-93288055D01*
X199531726Y-93549849D01*
X199918598Y-93817030D01*
X200303356Y-94084248D01*
X200678261Y-94346151D01*
X201035578Y-94597388D01*
X201367568Y-94832608D01*
X201666495Y-95046460D01*
X201924621Y-95233593D01*
X202134209Y-95388655D01*
X202287521Y-95506296D01*
X202376821Y-95581165D01*
X202395133Y-95601016D01*
X202438976Y-95714604D01*
X202472402Y-95886677D01*
X202492027Y-96083625D01*
X202494469Y-96271839D01*
X202477061Y-96414904D01*
X202421893Y-96510073D01*
X202360790Y-96531545D01*
X202305192Y-96505943D01*
X202182377Y-96432813D01*
X202000739Y-96317670D01*
X201768675Y-96166031D01*
X201494582Y-95983411D01*
X201186855Y-95775325D01*
X200853889Y-95547289D01*
X200687579Y-95432373D01*
X200097591Y-95023417D01*
X199578900Y-94663541D01*
X199126790Y-94349356D01*
X198736545Y-94077473D01*
X198403449Y-93844502D01*
X198122786Y-93647055D01*
X197889841Y-93481741D01*
X197699896Y-93345172D01*
X197548237Y-93233958D01*
X197430147Y-93144710D01*
X197340911Y-93074039D01*
X197275811Y-93018556D01*
X197230133Y-92974870D01*
X197199160Y-92939594D01*
X197179169Y-92910958D01*
X197132282Y-92814043D01*
X197107392Y-92697132D01*
X197100422Y-92532731D01*
X197103201Y-92398273D01*
X197110671Y-92215043D01*
X197122313Y-92105369D01*
X197144658Y-92050477D01*
X197184238Y-92031588D01*
X197231372Y-92029771D01*
X197289098Y-92055829D01*
G36*
X199818148Y-69870864D02*
X199856544Y-69909193D01*
X199896035Y-69966819D01*
X199975571Y-70095764D01*
X200089896Y-70286854D01*
X200233759Y-70530916D01*
X200401905Y-70818776D01*
X200589081Y-71141260D01*
X200790033Y-71489193D01*
X200999509Y-71853403D01*
X201212254Y-72224715D01*
X201423015Y-72593955D01*
X201626539Y-72951949D01*
X201817572Y-73289524D01*
X201990860Y-73597506D01*
X202141151Y-73866719D01*
X202263190Y-74087992D01*
X202351724Y-74252149D01*
X202401501Y-74350018D01*
X202407769Y-74364273D01*
X202415337Y-74394020D01*
X202422345Y-74446435D01*
X202428818Y-74525011D01*
X202434786Y-74633243D01*
X202440273Y-74774625D01*
X202445308Y-74952654D01*
X202449918Y-75170822D01*
X202454128Y-75432626D01*
X202457968Y-75741559D01*
X202461463Y-76101116D01*
X202464640Y-76514792D01*
X202467527Y-76986082D01*
X202470150Y-77518481D01*
X202472537Y-78115482D01*
X202474714Y-78780581D01*
X202476710Y-79517273D01*
X202478549Y-80329051D01*
X202480260Y-81219412D01*
X202481870Y-82191849D01*
X202483406Y-83249857D01*
X202484811Y-84329860D01*
X202486191Y-85591809D01*
X202487079Y-86762549D01*
X202487471Y-87843234D01*
X202487362Y-88835017D01*
X202486749Y-89739052D01*
X202485628Y-90556492D01*
X202483993Y-91288491D01*
X202481842Y-91936202D01*
X202479169Y-92500779D01*
X202475970Y-92983376D01*
X202472242Y-93385146D01*
X202467979Y-93707242D01*
X202463178Y-93950819D01*
X202457835Y-94117029D01*
X202451945Y-94207026D01*
X202448550Y-94224315D01*
X202377378Y-94296528D01*
X202320921Y-94313485D01*
X202270303Y-94287492D01*
X202150513Y-94212901D01*
X201968041Y-94094088D01*
X201729375Y-93935431D01*
X201441004Y-93741306D01*
X201109417Y-93516092D01*
X200741102Y-93264166D01*
X200342550Y-92989905D01*
X199920248Y-92697686D01*
X199736596Y-92570121D01*
X199208866Y-92202474D01*
X198753128Y-91883434D01*
X198364943Y-91609746D01*
X198039872Y-91378158D01*
X197773479Y-91185414D01*
X197561323Y-91028261D01*
X197398967Y-90903446D01*
X197281972Y-90807713D01*
X197205901Y-90737810D01*
X197166314Y-90690483D01*
X197161959Y-90682566D01*
X197153087Y-90655904D01*
X197144991Y-90612075D01*
X197137639Y-90547070D01*
X197130996Y-90456880D01*
X197125029Y-90337495D01*
X197119704Y-90184908D01*
X197114987Y-89995109D01*
X197110844Y-89764089D01*
X197107241Y-89487840D01*
X197104144Y-89162352D01*
X197101520Y-88783617D01*
X197099335Y-88347627D01*
X197097555Y-87850371D01*
X197096146Y-87287842D01*
X197095689Y-87018091D01*
X198385545Y-87018091D01*
X198385545Y-90435545D01*
X199032091Y-90435545D01*
X199032091Y-89050091D01*
X200833182Y-89050091D01*
X200833182Y-88495909D01*
X199032091Y-88495909D01*
X199032091Y-87572273D01*
X201110273Y-87572273D01*
X201110273Y-87018091D01*
X198385545Y-87018091D01*
X197095689Y-87018091D01*
X197095074Y-86656030D01*
X197094306Y-85950927D01*
X197093807Y-85168523D01*
X197093794Y-85124636D01*
X198372189Y-85124636D01*
X198400582Y-85428685D01*
X198453510Y-85710775D01*
X198551213Y-85924252D01*
X198690049Y-86062105D01*
X198743863Y-86089637D01*
X198973341Y-86157262D01*
X199267076Y-86203404D01*
X199599143Y-86226545D01*
X199943618Y-86225172D01*
X200274580Y-86197768D01*
X200365981Y-86184468D01*
X200633527Y-86126234D01*
X200827413Y-86042161D01*
X200959698Y-85918078D01*
X201042437Y-85739811D01*
X201087687Y-85493187D01*
X201101128Y-85320276D01*
X201099815Y-84973922D01*
X201054186Y-84705297D01*
X200964595Y-84515845D01*
X200884512Y-84436927D01*
X200755769Y-84369536D01*
X200572604Y-84313153D01*
X200324371Y-84265522D01*
X200000427Y-84224388D01*
X199782025Y-84203355D01*
X199564471Y-84180855D01*
X199374897Y-84155142D01*
X199235963Y-84129661D01*
X199175303Y-84111134D01*
X199108521Y-84028956D01*
X199068458Y-83885122D01*
X199060337Y-83707800D01*
X199076547Y-83578381D01*
X199126879Y-83462934D01*
X199230305Y-83383174D01*
X199397882Y-83334648D01*
X199640668Y-83312907D01*
X199741145Y-83310835D01*
X199981356Y-83312731D01*
X200146466Y-83327899D01*
X200253541Y-83363582D01*
X200319645Y-83427023D01*
X200361844Y-83525466D01*
X200376975Y-83580698D01*
X200428510Y-83785364D01*
X201062324Y-83785364D01*
X201035044Y-83566000D01*
X200975109Y-83301959D01*
X200871851Y-83087567D01*
X200740818Y-82947097D01*
X200591242Y-82878110D01*
X200371958Y-82825379D01*
X200104440Y-82790424D01*
X199810162Y-82774765D01*
X199510596Y-82779923D01*
X199227216Y-82807417D01*
X199095417Y-82830619D01*
X198839848Y-82901835D01*
X198658814Y-82997027D01*
X198535549Y-83126173D01*
X198501374Y-83184277D01*
X198433497Y-83380826D01*
X198400767Y-83620141D01*
X198401525Y-83875660D01*
X198434114Y-84120816D01*
X198496875Y-84329046D01*
X198581430Y-84466876D01*
X198701195Y-84554667D01*
X198884662Y-84626588D01*
X199139787Y-84684676D01*
X199474527Y-84730968D01*
X199696079Y-84752191D01*
X199979178Y-84779343D01*
X200182897Y-84810834D01*
X200320158Y-84854504D01*
X200403879Y-84918194D01*
X200446980Y-85009744D01*
X200462378Y-85136994D01*
X200463727Y-85218065D01*
X200454353Y-85400911D01*
X200422274Y-85518107D01*
X200378569Y-85579249D01*
X200262874Y-85643615D01*
X200082996Y-85686589D01*
X199864576Y-85708163D01*
X199633252Y-85708327D01*
X199414666Y-85687071D01*
X199234456Y-85644386D01*
X199118264Y-85580261D01*
X199117728Y-85579728D01*
X199049231Y-85450842D01*
X199032091Y-85309364D01*
X199032091Y-85124636D01*
X198372189Y-85124636D01*
X197093794Y-85124636D01*
X197093544Y-84304810D01*
X197093483Y-83355779D01*
X197093551Y-82577657D01*
X197094103Y-78566818D01*
X198379530Y-78566818D01*
X198394083Y-79986909D01*
X198398878Y-80397163D01*
X198404342Y-80725324D01*
X198411071Y-80981660D01*
X198419663Y-81176442D01*
X198430715Y-81319940D01*
X198444824Y-81422424D01*
X198462587Y-81494163D01*
X198484602Y-81545428D01*
X198484726Y-81545654D01*
X198620467Y-81732840D01*
X198798778Y-81857961D01*
X198947524Y-81915676D01*
X199100202Y-81945785D01*
X199319143Y-81966659D01*
X199578681Y-81978023D01*
X199853151Y-81979604D01*
X200116888Y-81971126D01*
X200344227Y-81952317D01*
X200472205Y-81931958D01*
X200721020Y-81837091D01*
X200914634Y-81676716D01*
X201040617Y-81462000D01*
X201059073Y-81404833D01*
X201074985Y-81298234D01*
X201088253Y-81107222D01*
X201098610Y-80839717D01*
X201105790Y-80503640D01*
X201109524Y-80106909D01*
X201110015Y-79894545D01*
X201110273Y-78566818D01*
X200463727Y-78566818D01*
X200463727Y-79877884D01*
X200464383Y-80294501D01*
X200463500Y-80627997D01*
X200456805Y-80887574D01*
X200440026Y-81082435D01*
X200408889Y-81221781D01*
X200359120Y-81314814D01*
X200286447Y-81370738D01*
X200186596Y-81398752D01*
X200055294Y-81408061D01*
X199888268Y-81407866D01*
X199753639Y-81407000D01*
X199515318Y-81404932D01*
X199351500Y-81397139D01*
X199244384Y-81381242D01*
X199176170Y-81354859D01*
X199137649Y-81324605D01*
X199113560Y-81293555D01*
X199094381Y-81246967D01*
X199079403Y-81174409D01*
X199067917Y-81065451D01*
X199059213Y-80909661D01*
X199052582Y-80696608D01*
X199047313Y-80415861D01*
X199042697Y-80056989D01*
X199041035Y-79904515D01*
X199026889Y-78566818D01*
X198379530Y-78566818D01*
X197094103Y-78566818D01*
X197094469Y-75906747D01*
X198393182Y-75906747D01*
X198400229Y-76238635D01*
X198419474Y-76562491D01*
X198450495Y-76858458D01*
X198492871Y-77106679D01*
X198546109Y-77287127D01*
X198654398Y-77469166D01*
X198812555Y-77599872D01*
X199034550Y-77688045D01*
X199251542Y-77731586D01*
X199801754Y-77773310D01*
X200345912Y-77733518D01*
X200626217Y-77674148D01*
X200833052Y-77580333D01*
X200977943Y-77439382D01*
X201072415Y-77238609D01*
X201127996Y-76965322D01*
X201139504Y-76859906D01*
X201169718Y-76534818D01*
X200520551Y-76534818D01*
X200488665Y-76790030D01*
X200457411Y-76952548D01*
X200400596Y-77063408D01*
X200301546Y-77134583D01*
X200143585Y-77178043D01*
X199910042Y-77205758D01*
X199909545Y-77205801D01*
X199602423Y-77212462D01*
X199370749Y-77171915D01*
X199209759Y-77082745D01*
X199127727Y-76973545D01*
X199103170Y-76874906D01*
X199083765Y-76703670D01*
X199069663Y-76479468D01*
X199061016Y-76221931D01*
X199057976Y-75950692D01*
X199060696Y-75685380D01*
X199069327Y-75445627D01*
X199084021Y-75251065D01*
X199104930Y-75121325D01*
X199113186Y-75096163D01*
X199197584Y-74987285D01*
X199346948Y-74916318D01*
X199568296Y-74881349D01*
X199868647Y-74880467D01*
X199899255Y-74881965D01*
X200141576Y-74905405D01*
X200305843Y-74952180D01*
X200405353Y-75031973D01*
X200453402Y-75154465D01*
X200463727Y-75293025D01*
X200463727Y-75472636D01*
X201122918Y-75472636D01*
X201099464Y-75180447D01*
X201056830Y-74896073D01*
X200976178Y-74684956D01*
X200849965Y-74533164D01*
X200697962Y-74438858D01*
X200597636Y-74397973D01*
X200491510Y-74370161D01*
X200359173Y-74353033D01*
X200180212Y-74344199D01*
X199934216Y-74341271D01*
X199863364Y-74341182D01*
X199485723Y-74350188D01*
X199186776Y-74380506D01*
X198954313Y-74437089D01*
X198776126Y-74524888D01*
X198640004Y-74648855D01*
X198533739Y-74813941D01*
X198495391Y-74895994D01*
X198449437Y-75061449D01*
X198417365Y-75298297D01*
X198398753Y-75586682D01*
X198393182Y-75906747D01*
X197094469Y-75906747D01*
X197094647Y-74618273D01*
X197201001Y-74364273D01*
X197244104Y-74274721D01*
X197325889Y-74117508D01*
X197441218Y-73901826D01*
X197584953Y-73636867D01*
X197751957Y-73331822D01*
X197937091Y-72995882D01*
X198135217Y-72638239D01*
X198341197Y-72268084D01*
X198549894Y-71894609D01*
X198756169Y-71527005D01*
X198954884Y-71174464D01*
X199140902Y-70846176D01*
X199309085Y-70551335D01*
X199454293Y-70299130D01*
X199571390Y-70098754D01*
X199655238Y-69959397D01*
X199700698Y-69890252D01*
X199704278Y-69886102D01*
X199761981Y-69845458D01*
X199818148Y-69870864D01*
X199818148Y-69870864D01*
G37*
X199818148Y-69870864D02*
X199856544Y-69909193D01*
X199896035Y-69966819D01*
X199975571Y-70095764D01*
X200089896Y-70286854D01*
X200233759Y-70530916D01*
X200401905Y-70818776D01*
X200589081Y-71141260D01*
X200790033Y-71489193D01*
X200999509Y-71853403D01*
X201212254Y-72224715D01*
X201423015Y-72593955D01*
X201626539Y-72951949D01*
X201817572Y-73289524D01*
X201990860Y-73597506D01*
X202141151Y-73866719D01*
X202263190Y-74087992D01*
X202351724Y-74252149D01*
X202401501Y-74350018D01*
X202407769Y-74364273D01*
X202415337Y-74394020D01*
X202422345Y-74446435D01*
X202428818Y-74525011D01*
X202434786Y-74633243D01*
X202440273Y-74774625D01*
X202445308Y-74952654D01*
X202449918Y-75170822D01*
X202454128Y-75432626D01*
X202457968Y-75741559D01*
X202461463Y-76101116D01*
X202464640Y-76514792D01*
X202467527Y-76986082D01*
X202470150Y-77518481D01*
X202472537Y-78115482D01*
X202474714Y-78780581D01*
X202476710Y-79517273D01*
X202478549Y-80329051D01*
X202480260Y-81219412D01*
X202481870Y-82191849D01*
X202483406Y-83249857D01*
X202484811Y-84329860D01*
X202486191Y-85591809D01*
X202487079Y-86762549D01*
X202487471Y-87843234D01*
X202487362Y-88835017D01*
X202486749Y-89739052D01*
X202485628Y-90556492D01*
X202483993Y-91288491D01*
X202481842Y-91936202D01*
X202479169Y-92500779D01*
X202475970Y-92983376D01*
X202472242Y-93385146D01*
X202467979Y-93707242D01*
X202463178Y-93950819D01*
X202457835Y-94117029D01*
X202451945Y-94207026D01*
X202448550Y-94224315D01*
X202377378Y-94296528D01*
X202320921Y-94313485D01*
X202270303Y-94287492D01*
X202150513Y-94212901D01*
X201968041Y-94094088D01*
X201729375Y-93935431D01*
X201441004Y-93741306D01*
X201109417Y-93516092D01*
X200741102Y-93264166D01*
X200342550Y-92989905D01*
X199920248Y-92697686D01*
X199736596Y-92570121D01*
X199208866Y-92202474D01*
X198753128Y-91883434D01*
X198364943Y-91609746D01*
X198039872Y-91378158D01*
X197773479Y-91185414D01*
X197561323Y-91028261D01*
X197398967Y-90903446D01*
X197281972Y-90807713D01*
X197205901Y-90737810D01*
X197166314Y-90690483D01*
X197161959Y-90682566D01*
X197153087Y-90655904D01*
X197144991Y-90612075D01*
X197137639Y-90547070D01*
X197130996Y-90456880D01*
X197125029Y-90337495D01*
X197119704Y-90184908D01*
X197114987Y-89995109D01*
X197110844Y-89764089D01*
X197107241Y-89487840D01*
X197104144Y-89162352D01*
X197101520Y-88783617D01*
X197099335Y-88347627D01*
X197097555Y-87850371D01*
X197096146Y-87287842D01*
X197095689Y-87018091D01*
X198385545Y-87018091D01*
X198385545Y-90435545D01*
X199032091Y-90435545D01*
X199032091Y-89050091D01*
X200833182Y-89050091D01*
X200833182Y-88495909D01*
X199032091Y-88495909D01*
X199032091Y-87572273D01*
X201110273Y-87572273D01*
X201110273Y-87018091D01*
X198385545Y-87018091D01*
X197095689Y-87018091D01*
X197095074Y-86656030D01*
X197094306Y-85950927D01*
X197093807Y-85168523D01*
X197093794Y-85124636D01*
X198372189Y-85124636D01*
X198400582Y-85428685D01*
X198453510Y-85710775D01*
X198551213Y-85924252D01*
X198690049Y-86062105D01*
X198743863Y-86089637D01*
X198973341Y-86157262D01*
X199267076Y-86203404D01*
X199599143Y-86226545D01*
X199943618Y-86225172D01*
X200274580Y-86197768D01*
X200365981Y-86184468D01*
X200633527Y-86126234D01*
X200827413Y-86042161D01*
X200959698Y-85918078D01*
X201042437Y-85739811D01*
X201087687Y-85493187D01*
X201101128Y-85320276D01*
X201099815Y-84973922D01*
X201054186Y-84705297D01*
X200964595Y-84515845D01*
X200884512Y-84436927D01*
X200755769Y-84369536D01*
X200572604Y-84313153D01*
X200324371Y-84265522D01*
X200000427Y-84224388D01*
X199782025Y-84203355D01*
X199564471Y-84180855D01*
X199374897Y-84155142D01*
X199235963Y-84129661D01*
X199175303Y-84111134D01*
X199108521Y-84028956D01*
X199068458Y-83885122D01*
X199060337Y-83707800D01*
X199076547Y-83578381D01*
X199126879Y-83462934D01*
X199230305Y-83383174D01*
X199397882Y-83334648D01*
X199640668Y-83312907D01*
X199741145Y-83310835D01*
X199981356Y-83312731D01*
X200146466Y-83327899D01*
X200253541Y-83363582D01*
X200319645Y-83427023D01*
X200361844Y-83525466D01*
X200376975Y-83580698D01*
X200428510Y-83785364D01*
X201062324Y-83785364D01*
X201035044Y-83566000D01*
X200975109Y-83301959D01*
X200871851Y-83087567D01*
X200740818Y-82947097D01*
X200591242Y-82878110D01*
X200371958Y-82825379D01*
X200104440Y-82790424D01*
X199810162Y-82774765D01*
X199510596Y-82779923D01*
X199227216Y-82807417D01*
X199095417Y-82830619D01*
X198839848Y-82901835D01*
X198658814Y-82997027D01*
X198535549Y-83126173D01*
X198501374Y-83184277D01*
X198433497Y-83380826D01*
X198400767Y-83620141D01*
X198401525Y-83875660D01*
X198434114Y-84120816D01*
X198496875Y-84329046D01*
X198581430Y-84466876D01*
X198701195Y-84554667D01*
X198884662Y-84626588D01*
X199139787Y-84684676D01*
X199474527Y-84730968D01*
X199696079Y-84752191D01*
X199979178Y-84779343D01*
X200182897Y-84810834D01*
X200320158Y-84854504D01*
X200403879Y-84918194D01*
X200446980Y-85009744D01*
X200462378Y-85136994D01*
X200463727Y-85218065D01*
X200454353Y-85400911D01*
X200422274Y-85518107D01*
X200378569Y-85579249D01*
X200262874Y-85643615D01*
X200082996Y-85686589D01*
X199864576Y-85708163D01*
X199633252Y-85708327D01*
X199414666Y-85687071D01*
X199234456Y-85644386D01*
X199118264Y-85580261D01*
X199117728Y-85579728D01*
X199049231Y-85450842D01*
X199032091Y-85309364D01*
X199032091Y-85124636D01*
X198372189Y-85124636D01*
X197093794Y-85124636D01*
X197093544Y-84304810D01*
X197093483Y-83355779D01*
X197093551Y-82577657D01*
X197094103Y-78566818D01*
X198379530Y-78566818D01*
X198394083Y-79986909D01*
X198398878Y-80397163D01*
X198404342Y-80725324D01*
X198411071Y-80981660D01*
X198419663Y-81176442D01*
X198430715Y-81319940D01*
X198444824Y-81422424D01*
X198462587Y-81494163D01*
X198484602Y-81545428D01*
X198484726Y-81545654D01*
X198620467Y-81732840D01*
X198798778Y-81857961D01*
X198947524Y-81915676D01*
X199100202Y-81945785D01*
X199319143Y-81966659D01*
X199578681Y-81978023D01*
X199853151Y-81979604D01*
X200116888Y-81971126D01*
X200344227Y-81952317D01*
X200472205Y-81931958D01*
X200721020Y-81837091D01*
X200914634Y-81676716D01*
X201040617Y-81462000D01*
X201059073Y-81404833D01*
X201074985Y-81298234D01*
X201088253Y-81107222D01*
X201098610Y-80839717D01*
X201105790Y-80503640D01*
X201109524Y-80106909D01*
X201110015Y-79894545D01*
X201110273Y-78566818D01*
X200463727Y-78566818D01*
X200463727Y-79877884D01*
X200464383Y-80294501D01*
X200463500Y-80627997D01*
X200456805Y-80887574D01*
X200440026Y-81082435D01*
X200408889Y-81221781D01*
X200359120Y-81314814D01*
X200286447Y-81370738D01*
X200186596Y-81398752D01*
X200055294Y-81408061D01*
X199888268Y-81407866D01*
X199753639Y-81407000D01*
X199515318Y-81404932D01*
X199351500Y-81397139D01*
X199244384Y-81381242D01*
X199176170Y-81354859D01*
X199137649Y-81324605D01*
X199113560Y-81293555D01*
X199094381Y-81246967D01*
X199079403Y-81174409D01*
X199067917Y-81065451D01*
X199059213Y-80909661D01*
X199052582Y-80696608D01*
X199047313Y-80415861D01*
X199042697Y-80056989D01*
X199041035Y-79904515D01*
X199026889Y-78566818D01*
X198379530Y-78566818D01*
X197094103Y-78566818D01*
X197094469Y-75906747D01*
X198393182Y-75906747D01*
X198400229Y-76238635D01*
X198419474Y-76562491D01*
X198450495Y-76858458D01*
X198492871Y-77106679D01*
X198546109Y-77287127D01*
X198654398Y-77469166D01*
X198812555Y-77599872D01*
X199034550Y-77688045D01*
X199251542Y-77731586D01*
X199801754Y-77773310D01*
X200345912Y-77733518D01*
X200626217Y-77674148D01*
X200833052Y-77580333D01*
X200977943Y-77439382D01*
X201072415Y-77238609D01*
X201127996Y-76965322D01*
X201139504Y-76859906D01*
X201169718Y-76534818D01*
X200520551Y-76534818D01*
X200488665Y-76790030D01*
X200457411Y-76952548D01*
X200400596Y-77063408D01*
X200301546Y-77134583D01*
X200143585Y-77178043D01*
X199910042Y-77205758D01*
X199909545Y-77205801D01*
X199602423Y-77212462D01*
X199370749Y-77171915D01*
X199209759Y-77082745D01*
X199127727Y-76973545D01*
X199103170Y-76874906D01*
X199083765Y-76703670D01*
X199069663Y-76479468D01*
X199061016Y-76221931D01*
X199057976Y-75950692D01*
X199060696Y-75685380D01*
X199069327Y-75445627D01*
X199084021Y-75251065D01*
X199104930Y-75121325D01*
X199113186Y-75096163D01*
X199197584Y-74987285D01*
X199346948Y-74916318D01*
X199568296Y-74881349D01*
X199868647Y-74880467D01*
X199899255Y-74881965D01*
X200141576Y-74905405D01*
X200305843Y-74952180D01*
X200405353Y-75031973D01*
X200453402Y-75154465D01*
X200463727Y-75293025D01*
X200463727Y-75472636D01*
X201122918Y-75472636D01*
X201099464Y-75180447D01*
X201056830Y-74896073D01*
X200976178Y-74684956D01*
X200849965Y-74533164D01*
X200697962Y-74438858D01*
X200597636Y-74397973D01*
X200491510Y-74370161D01*
X200359173Y-74353033D01*
X200180212Y-74344199D01*
X199934216Y-74341271D01*
X199863364Y-74341182D01*
X199485723Y-74350188D01*
X199186776Y-74380506D01*
X198954313Y-74437089D01*
X198776126Y-74524888D01*
X198640004Y-74648855D01*
X198533739Y-74813941D01*
X198495391Y-74895994D01*
X198449437Y-75061449D01*
X198417365Y-75298297D01*
X198398753Y-75586682D01*
X198393182Y-75906747D01*
X197094469Y-75906747D01*
X197094647Y-74618273D01*
X197201001Y-74364273D01*
X197244104Y-74274721D01*
X197325889Y-74117508D01*
X197441218Y-73901826D01*
X197584953Y-73636867D01*
X197751957Y-73331822D01*
X197937091Y-72995882D01*
X198135217Y-72638239D01*
X198341197Y-72268084D01*
X198549894Y-71894609D01*
X198756169Y-71527005D01*
X198954884Y-71174464D01*
X199140902Y-70846176D01*
X199309085Y-70551335D01*
X199454293Y-70299130D01*
X199571390Y-70098754D01*
X199655238Y-69959397D01*
X199700698Y-69890252D01*
X199704278Y-69886102D01*
X199761981Y-69845458D01*
X199818148Y-69870864D01*
D15*
X45720000Y-96139000D02*
X46990000Y-96139000D01*
X40132000Y-96139000D02*
X41148000Y-96139000D01*
X50546000Y-95631000D02*
X50546000Y-96647000D01*
X50038000Y-96139000D02*
X51054000Y-96139000D01*
X55880000Y-96139000D02*
X56896000Y-96139000D01*
X56388000Y-95631000D02*
X56388000Y-96647000D01*
X56388000Y-99949000D02*
X56388000Y-100965000D01*
X55880000Y-100457000D02*
X56896000Y-100457000D01*
X56388000Y-91313000D02*
X56388000Y-92329000D01*
X55880000Y-91821000D02*
X56896000Y-91821000D01*
X50038000Y-100457000D02*
X51054000Y-100457000D01*
X50546000Y-99949000D02*
X50546000Y-100965000D01*
X50546000Y-91313000D02*
X50546000Y-92329000D01*
X50038000Y-91821000D02*
X51054000Y-91821000D01*
X45720000Y-100711000D02*
X46990000Y-100711000D01*
X45720000Y-91567000D02*
X46990000Y-91567000D01*
X40132000Y-100711000D02*
X41148000Y-100711000D01*
X40132000Y-91567000D02*
X41148000Y-91567000D01*
X39624000Y-91059000D02*
X57404000Y-91059000D01*
X57404000Y-91059000D02*
X57404000Y-101219000D01*
X57404000Y-101219000D02*
X39624000Y-101219000D01*
X39624000Y-101219000D02*
X39624000Y-91059000D01*
X154940000Y-55372000D02*
X156210000Y-55372000D01*
X149352000Y-55372000D02*
X150368000Y-55372000D01*
X159766000Y-54864000D02*
X159766000Y-55880000D01*
X159258000Y-55372000D02*
X160274000Y-55372000D01*
X165100000Y-55372000D02*
X166116000Y-55372000D01*
X165608000Y-54864000D02*
X165608000Y-55880000D01*
X165608000Y-59182000D02*
X165608000Y-60198000D01*
X165100000Y-59690000D02*
X166116000Y-59690000D01*
X165608000Y-50546000D02*
X165608000Y-51562000D01*
X165100000Y-51054000D02*
X166116000Y-51054000D01*
X159258000Y-59690000D02*
X160274000Y-59690000D01*
X159766000Y-59182000D02*
X159766000Y-60198000D01*
X159766000Y-50546000D02*
X159766000Y-51562000D01*
X159258000Y-51054000D02*
X160274000Y-51054000D01*
X154940000Y-59944000D02*
X156210000Y-59944000D01*
X154940000Y-50800000D02*
X156210000Y-50800000D01*
X149352000Y-59944000D02*
X150368000Y-59944000D01*
X149352000Y-50800000D02*
X150368000Y-50800000D01*
X148844000Y-50292000D02*
X166624000Y-50292000D01*
X166624000Y-50292000D02*
X166624000Y-60452000D01*
X166624000Y-60452000D02*
X148844000Y-60452000D01*
X148844000Y-60452000D02*
X148844000Y-50292000D01*
X119380000Y-55372000D02*
X120650000Y-55372000D01*
X113792000Y-55372000D02*
X114808000Y-55372000D01*
X124206000Y-54864000D02*
X124206000Y-55880000D01*
X123698000Y-55372000D02*
X124714000Y-55372000D01*
X129540000Y-55372000D02*
X130556000Y-55372000D01*
X130048000Y-54864000D02*
X130048000Y-55880000D01*
X130048000Y-59182000D02*
X130048000Y-60198000D01*
X129540000Y-59690000D02*
X130556000Y-59690000D01*
X130048000Y-50546000D02*
X130048000Y-51562000D01*
X129540000Y-51054000D02*
X130556000Y-51054000D01*
X123698000Y-59690000D02*
X124714000Y-59690000D01*
X124206000Y-59182000D02*
X124206000Y-60198000D01*
X124206000Y-50546000D02*
X124206000Y-51562000D01*
X123698000Y-51054000D02*
X124714000Y-51054000D01*
X119380000Y-59944000D02*
X120650000Y-59944000D01*
X119380000Y-50800000D02*
X120650000Y-50800000D01*
X113792000Y-59944000D02*
X114808000Y-59944000D01*
X113792000Y-50800000D02*
X114808000Y-50800000D01*
X113284000Y-50292000D02*
X131064000Y-50292000D01*
X131064000Y-50292000D02*
X131064000Y-60452000D01*
X131064000Y-60452000D02*
X113284000Y-60452000D01*
X113284000Y-60452000D02*
X113284000Y-50292000D01*
X172720000Y-55372000D02*
X173990000Y-55372000D01*
X167132000Y-55372000D02*
X168148000Y-55372000D01*
X177546000Y-54864000D02*
X177546000Y-55880000D01*
X177038000Y-55372000D02*
X178054000Y-55372000D01*
X182880000Y-55372000D02*
X183896000Y-55372000D01*
X183388000Y-54864000D02*
X183388000Y-55880000D01*
X183388000Y-59182000D02*
X183388000Y-60198000D01*
X182880000Y-59690000D02*
X183896000Y-59690000D01*
X183388000Y-50546000D02*
X183388000Y-51562000D01*
X182880000Y-51054000D02*
X183896000Y-51054000D01*
X177038000Y-59690000D02*
X178054000Y-59690000D01*
X177546000Y-59182000D02*
X177546000Y-60198000D01*
X177546000Y-50546000D02*
X177546000Y-51562000D01*
X177038000Y-51054000D02*
X178054000Y-51054000D01*
X172720000Y-59944000D02*
X173990000Y-59944000D01*
X172720000Y-50800000D02*
X173990000Y-50800000D01*
X167132000Y-59944000D02*
X168148000Y-59944000D01*
X167132000Y-50800000D02*
X168148000Y-50800000D01*
X166624000Y-50292000D02*
X184404000Y-50292000D01*
X184404000Y-50292000D02*
X184404000Y-60452000D01*
X184404000Y-60452000D02*
X166624000Y-60452000D01*
X166624000Y-60452000D02*
X166624000Y-50292000D01*
X137160000Y-55372000D02*
X138430000Y-55372000D01*
X131572000Y-55372000D02*
X132588000Y-55372000D01*
X141986000Y-54864000D02*
X141986000Y-55880000D01*
X141478000Y-55372000D02*
X142494000Y-55372000D01*
X147320000Y-55372000D02*
X148336000Y-55372000D01*
X147828000Y-54864000D02*
X147828000Y-55880000D01*
X147828000Y-59182000D02*
X147828000Y-60198000D01*
X147320000Y-59690000D02*
X148336000Y-59690000D01*
X147828000Y-50546000D02*
X147828000Y-51562000D01*
X147320000Y-51054000D02*
X148336000Y-51054000D01*
X141478000Y-59690000D02*
X142494000Y-59690000D01*
X141986000Y-59182000D02*
X141986000Y-60198000D01*
X141986000Y-50546000D02*
X141986000Y-51562000D01*
X141478000Y-51054000D02*
X142494000Y-51054000D01*
X137160000Y-59944000D02*
X138430000Y-59944000D01*
X137160000Y-50800000D02*
X138430000Y-50800000D01*
X131572000Y-59944000D02*
X132588000Y-59944000D01*
X131572000Y-50800000D02*
X132588000Y-50800000D01*
X131064000Y-50292000D02*
X148844000Y-50292000D01*
X148844000Y-50292000D02*
X148844000Y-60452000D01*
X148844000Y-60452000D02*
X131064000Y-60452000D01*
X131064000Y-60452000D02*
X131064000Y-50292000D01*
M02*
