  0
SECTION
  2
HEADER
  9
$ANGBASE
  50
0.0
  9
$ANGDIR
  70
  1
  9
$MEASUREMENT
  70
0
  0
ENDSEC
  0
SECTION
  2
TABLES
  0
TABLE
  2
LTYPE
  70
1
  0
LTYPE
  2
CONTINUOUS
  70
0
  3
Solid line
  72
65
  73
0
  40
0.0
  0
ENDTAB
  0
TABLE
  2
STYLE
  70
4
  0
STYLE
  2
KICAD
  70
0
  40
0
  41
1
  42
1
  50
0
  71
0
  3
isocp.shx
  0
STYLE
  2
KICADB
  70
0
  40
0
  41
1
  42
1
  50
0
  71
0
  3
isocp.shx
  0
STYLE
  2
KICADI
  70
0
  40
0
  41
1
  42
1
  50
15
  71
0
  3
isocp.shx
  0
STYLE
  2
KICADBI
  70
0
  40
0
  41
1
  42
1
  50
15
  71
0
  3
isocp.shx
  0
ENDTAB
  0
TABLE
  2
LAYER
  70
30
  0
LAYER
  2
BLACK
  70
0
  62
7
  6
CONTINUOUS
  0
LAYER
  2
GRAY1
  70
0
  62
251
  6
CONTINUOUS
  0
LAYER
  2
GRAY2
  70
0
  62
8
  6
CONTINUOUS
  0
LAYER
  2
GRAY3
  70
0
  62
9
  6
CONTINUOUS
  0
LAYER
  2
WHITE
  70
0
  62
7
  6
CONTINUOUS
  0
LAYER
  2
LYELLOW
  70
0
  62
51
  6
CONTINUOUS
  0
LAYER
  2
BLUE1
  70
0
  62
178
  6
CONTINUOUS
  0
LAYER
  2
GREEN1
  70
0
  62
98
  6
CONTINUOUS
  0
LAYER
  2
CYAN1
  70
0
  62
138
  6
CONTINUOUS
  0
LAYER
  2
RED1
  70
0
  62
18
  6
CONTINUOUS
  0
LAYER
  2
MAGENTA1
  70
0
  62
228
  6
CONTINUOUS
  0
LAYER
  2
BROWN1
  70
0
  62
58
  6
CONTINUOUS
  0
LAYER
  2
BLUE2
  70
0
  62
5
  6
CONTINUOUS
  0
LAYER
  2
GREEN2
  70
0
  62
3
  6
CONTINUOUS
  0
LAYER
  2
CYAN2
  70
0
  62
4
  6
CONTINUOUS
  0
LAYER
  2
RED2
  70
0
  62
1
  6
CONTINUOUS
  0
LAYER
  2
MAGENTA2
  70
0
  62
6
  6
CONTINUOUS
  0
LAYER
  2
BROWN2
  70
0
  62
54
  6
CONTINUOUS
  0
LAYER
  2
BLUE3
  70
0
  62
171
  6
CONTINUOUS
  0
LAYER
  2
GREEN3
  70
0
  62
91
  6
CONTINUOUS
  0
LAYER
  2
CYAN3
  70
0
  62
131
  6
CONTINUOUS
  0
LAYER
  2
RED3
  70
0
  62
11
  6
CONTINUOUS
  0
LAYER
  2
MAGENTA3
  70
0
  62
221
  6
CONTINUOUS
  0
LAYER
  2
YELLOW3
  70
0
  62
2
  6
CONTINUOUS
  0
LAYER
  2
BLUE4
  70
0
  62
5
  6
CONTINUOUS
  0
LAYER
  2
GREEN4
  70
0
  62
3
  6
CONTINUOUS
  0
LAYER
  2
CYAN4
  70
0
  62
4
  6
CONTINUOUS
  0
LAYER
  2
RED4
  70
0
  62
1
  6
CONTINUOUS
  0
LAYER
  2
MAGENTA4
  70
0
  62
6
  6
CONTINUOUS
  0
LAYER
  2
YELLOW4
  70
0
  62
2
  6
CONTINUOUS
  0
ENDTAB
  0
ENDSEC
  0
SECTION
  2
ENTITIES
0
LINE
8
Black
10
188.488
20
-188.488
11
188.987
21
-188.987
0
LINE
8
Black
10
188.987
20
-188.987
11
189.356
21
-189.356
0
LINE
8
Black
10
189.356
20
-189.356
11
189.553
21
-189.553
0
LINE
8
Black
10
189.553
20
-189.553
11
189.356
21
-189.356
0
LINE
8
Black
10
189.356
20
-189.356
11
188.987
21
-188.987
0
LINE
8
Black
10
188.987
20
-188.987
11
188.488
21
-188.488
0
LINE
8
Black
10
188.488
20
-188.488
11
187.922
21
-187.922
0
LINE
8
Black
10
187.922
20
-187.922
11
187.355
21
-187.355
0
LINE
8
Black
10
187.355
20
-187.355
11
186.857
21
-186.857
0
LINE
8
Black
10
186.857
20
-186.857
11
186.487
21
-186.487
0
LINE
8
Black
10
186.487
20
-186.487
11
186.291
21
-186.291
0
LINE
8
Black
10
186.291
20
-186.291
11
186.487
21
-186.487
0
LINE
8
Black
10
186.487
20
-186.487
11
186.857
21
-186.857
0
LINE
8
Black
10
186.857
20
-186.857
11
187.355
21
-187.355
0
LINE
8
Black
10
187.355
20
-187.355
11
187.922
21
-187.922
0
LINE
8
Black
10
187.922
20
-187.922
11
188.488
21
-188.488
0
LINE
8
Black
10
56.4719
20
-56.4719
11
56.9701
21
-56.9701
0
LINE
8
Black
10
56.9701
20
-56.9701
11
57.3398
21
-57.3398
0
LINE
8
Black
10
57.3398
20
-57.3398
11
57.5365
21
-57.5365
0
LINE
8
Black
10
57.5365
20
-57.5365
11
57.3398
21
-57.3398
0
LINE
8
Black
10
57.3398
20
-57.3398
11
56.9701
21
-56.9701
0
LINE
8
Black
10
56.9701
20
-56.9701
11
56.4719
21
-56.4719
0
LINE
8
Black
10
56.4719
20
-56.4719
11
55.9054
21
-55.9054
0
LINE
8
Black
10
55.9054
20
-55.9054
11
55.3389
21
-55.3389
0
LINE
8
Black
10
55.3389
20
-55.3389
11
54.8407
21
-54.8407
0
LINE
8
Black
10
54.8407
20
-54.8407
11
54.471
21
-54.471
0
LINE
8
Black
10
54.471
20
-54.471
11
54.2743
21
-54.2743
0
LINE
8
Black
10
54.2743
20
-54.2743
11
54.471
21
-54.471
0
LINE
8
Black
10
54.471
20
-54.471
11
54.8407
21
-54.8407
0
LINE
8
Black
10
54.8407
20
-54.8407
11
55.3389
21
-55.3389
0
LINE
8
Black
10
55.3389
20
-55.3389
11
55.9054
21
-55.9054
0
LINE
8
Black
10
55.9054
20
-55.9054
11
56.4719
21
-56.4719
0
LINE
8
Black
10
133.696
20
-133.696
11
132.496
21
-132.496
0
LINE
8
Black
10
132.496
20
-132.496
11
133.696
21
-133.696
0
LINE
8
Black
10
144.048
20
-144.048
11
143.348
21
-143.348
0
LINE
8
Black
10
143.348
20
-143.348
11
144.048
21
-144.048
0
LINE
8
Black
10
142.148
20
-142.148
11
141.448
21
-141.448
0
LINE
8
Black
10
141.448
20
-141.448
11
142.148
21
-142.148
0
LINE
8
Black
10
157.891
20
-157.891
11
157.191
21
-157.191
0
LINE
8
Black
10
157.191
20
-157.191
11
157.891
21
-157.891
0
LINE
8
Black
10
155.991
20
-155.991
11
155.291
21
-155.291
0
LINE
8
Black
10
155.291
20
-155.291
11
155.991
21
-155.991
0
LINE
8
Black
10
171.734
20
-171.734
11
171.034
21
-171.034
0
LINE
8
Black
10
171.034
20
-171.034
11
171.734
21
-171.734
0
LINE
8
Black
10
169.834
20
-169.834
11
169.134
21
-169.134
0
LINE
8
Black
10
169.134
20
-169.134
11
169.834
21
-169.834
0
LINE
8
Black
10
133.696
20
-133.696
11
132.496
21
-132.496
0
LINE
8
Black
10
132.496
20
-132.496
11
133.696
21
-133.696
0
LINE
8
Black
10
126.141
20
-126.141
11
125.441
21
-125.441
0
LINE
8
Black
10
125.441
20
-125.441
11
126.141
21
-126.141
0
LINE
8
Black
10
155.991
20
-155.991
11
155.291
21
-155.291
0
LINE
8
Black
10
155.291
20
-155.291
11
155.991
21
-155.991
0
LINE
8
Black
10
129.951
20
-129.951
11
129.251
21
-129.251
0
LINE
8
Black
10
129.251
20
-129.251
11
129.951
21
-129.951
0
LINE
8
Black
10
157.891
20
-157.891
11
157.191
21
-157.191
0
LINE
8
Black
10
157.191
20
-157.191
11
157.891
21
-157.891
0
LINE
8
Black
10
128.051
20
-128.051
11
127.351
21
-127.351
0
LINE
8
Black
10
127.351
20
-127.351
11
128.051
21
-128.051
0
LINE
8
Black
10
124.241
20
-124.241
11
123.541
21
-123.541
0
LINE
8
Black
10
123.541
20
-123.541
11
124.241
21
-124.241
0
LINE
8
Black
10
142.148
20
-142.148
11
141.448
21
-141.448
0
LINE
8
Black
10
141.448
20
-141.448
11
142.148
21
-142.148
0
LINE
8
Black
10
144.048
20
-144.048
11
143.348
21
-143.348
0
LINE
8
Black
10
143.348
20
-143.348
11
144.048
21
-144.048
0
LINE
8
Black
10
145.758
20
-145.758
11
144.558
21
-144.558
0
LINE
8
Black
10
144.558
20
-144.558
11
145.758
21
-145.758
0
LINE
8
Black
10
162.528
20
-162.528
11
161.328
21
-161.328
0
LINE
8
Black
10
161.328
20
-161.328
11
162.528
21
-162.528
0
LINE
8
Black
10
159.728
20
-159.728
11
158.528
21
-158.528
0
LINE
8
Black
10
158.528
20
-158.528
11
159.728
21
-159.728
0
LINE
8
Black
10
148.558
20
-148.558
11
147.358
21
-147.358
0
LINE
8
Black
10
147.358
20
-147.358
11
148.558
21
-148.558
0
LINE
8
Black
10
187.721
20
-187.721
11
186.421
21
-186.421
0
LINE
8
Black
10
186.421
20
-186.421
11
187.721
21
-187.721
0
LINE
8
Black
10
190.515
20
-190.515
11
189.215
21
-189.215
0
LINE
8
Black
10
189.215
20
-189.215
11
190.515
21
-190.515
0
LINE
8
Black
10
183.804
20
-183.804
11
183.104
21
-183.104
0
LINE
8
Black
10
183.104
20
-183.104
11
183.804
21
-183.804
0
LINE
8
Black
10
169.834
20
-169.834
11
169.134
21
-169.134
0
LINE
8
Black
10
169.134
20
-169.134
11
169.834
21
-169.834
0
LINE
8
Black
10
171.734
20
-171.734
11
171.034
21
-171.034
0
LINE
8
Black
10
171.034
20
-171.034
11
171.734
21
-171.734
0
LINE
8
Black
10
185.704
20
-185.704
11
185.004
21
-185.004
0
LINE
8
Black
10
185.004
20
-185.004
11
185.704
21
-185.704
0
LINE
8
Black
10
173.444
20
-173.444
11
172.244
21
-172.244
0
LINE
8
Black
10
172.244
20
-172.244
11
173.444
21
-173.444
0
LINE
8
Black
10
176.244
20
-176.244
11
175.044
21
-175.044
0
LINE
8
Black
10
175.044
20
-175.044
11
176.244
21
-176.244
0
LINE
8
Black
10
192.751
20
-192.751
11
191.551
21
-191.551
0
LINE
8
Black
10
191.551
20
-191.551
11
192.751
21
-192.751
0
LINE
8
Black
10
181.005
20
-181.005
11
180.305
21
-180.305
0
LINE
8
Black
10
180.305
20
-180.305
11
181.005
21
-181.005
0
LINE
8
Black
10
179.105
20
-179.105
11
178.405
21
-178.405
0
LINE
8
Black
10
178.405
20
-178.405
11
179.105
21
-179.105
0
LINE
8
Black
10
166.908
20
-166.908
11
166.208
21
-166.208
0
LINE
8
Black
10
166.208
20
-166.208
11
166.908
21
-166.908
0
LINE
8
Black
10
131.988
20
-131.988
11
131.288
21
-131.288
0
LINE
8
Black
10
131.288
20
-131.288
11
131.988
21
-131.988
0
LINE
8
Black
10
165.008
20
-165.008
11
164.308
21
-164.308
0
LINE
8
Black
10
164.308
20
-164.308
11
165.008
21
-165.008
0
LINE
8
Black
10
133.888
20
-133.888
11
133.188
21
-133.188
0
LINE
8
Black
10
133.188
20
-133.188
11
133.888
21
-133.888
0
LINE
8
Black
10
151.292
20
-151.292
11
150.592
21
-150.592
0
LINE
8
Black
10
150.592
20
-150.592
11
151.292
21
-151.292
0
LINE
8
Black
10
153.192
20
-153.192
11
152.492
21
-152.492
0
LINE
8
Black
10
152.492
20
-152.492
11
153.192
21
-153.192
0
LINE
8
Black
10
187.721
20
-187.721
11
186.421
21
-186.421
0
LINE
8
Black
10
186.421
20
-186.421
11
187.721
21
-187.721
0
LINE
8
Black
10
190.515
20
-190.515
11
189.215
21
-189.215
0
LINE
8
Black
10
189.215
20
-189.215
11
190.515
21
-190.515
0
LINE
8
Black
10
157.941
20
-157.941
11
157.141
21
-157.141
0
LINE
8
Black
10
157.141
20
-157.141
11
157.941
21
-157.941
0
LINE
8
Black
10
156.041
20
-156.041
11
155.241
21
-155.241
0
LINE
8
Black
10
155.241
20
-155.241
11
156.041
21
-156.041
0
LINE
8
Black
10
128.101
20
-128.101
11
127.301
21
-127.301
0
LINE
8
Black
10
127.301
20
-127.301
11
128.101
21
-128.101
0
LINE
8
Black
10
130.001
20
-130.001
11
129.201
21
-129.201
0
LINE
8
Black
10
129.201
20
-129.201
11
130.001
21
-130.001
0
LINE
8
Black
10
144.606
20
-144.606
11
143.806
21
-143.806
0
LINE
8
Black
10
143.806
20
-143.806
11
144.606
21
-144.606
0
LINE
8
Black
10
142.706
20
-142.706
11
141.906
21
-141.906
0
LINE
8
Black
10
141.906
20
-141.906
11
142.706
21
-142.706
0
LINE
8
Black
10
160.416
20
-160.416
11
159.116
21
-159.116
0
LINE
8
Black
10
159.116
20
-159.116
11
160.416
21
-160.416
0
LINE
8
Black
10
148.732
20
-148.732
11
147.432
21
-147.432
0
LINE
8
Black
10
147.432
20
-147.432
11
148.732
21
-148.732
0
LINE
8
Black
10
146.7
20
-146.7
11
145.4
21
-145.4
0
LINE
8
Black
10
145.4
20
-145.4
11
146.7
21
-146.7
0
LINE
8
Black
10
162.321
20
-162.321
11
161.021
21
-161.021
0
LINE
8
Black
10
161.021
20
-161.021
11
162.321
21
-162.321
0
LINE
8
Black
10
171.53
20
-171.53
11
170.73
21
-170.73
0
LINE
8
Black
10
170.73
20
-170.73
11
171.53
21
-171.53
0
LINE
8
Black
10
169.63
20
-169.63
11
168.83
21
-168.83
0
LINE
8
Black
10
168.83
20
-168.83
11
169.63
21
-169.63
0
LINE
8
Black
10
183.6
20
-183.6
11
182.8
21
-182.8
0
LINE
8
Black
10
182.8
20
-182.8
11
183.6
21
-183.6
0
LINE
8
Black
10
185.5
20
-185.5
11
184.7
21
-184.7
0
LINE
8
Black
10
184.7
20
-184.7
11
185.5
21
-185.5
0
LINE
8
Black
10
49.514
20
-49.514
11
49.014
21
-49.014
0
LINE
8
Black
10
49.014
20
-49.014
11
49.514
21
-49.514
0
LINE
8
Black
10
48.014
20
-48.014
11
47.514
21
-47.514
0
LINE
8
Black
10
47.514
20
-47.514
11
48.014
21
-48.014
0
LINE
8
Black
10
176.164
20
-176.164
11
174.864
21
-174.864
0
LINE
8
Black
10
174.864
20
-174.864
11
176.164
21
-176.164
0
LINE
8
Black
10
174.132
20
-174.132
11
172.832
21
-172.832
0
LINE
8
Black
10
172.832
20
-172.832
11
174.132
21
-174.132
0
LINE
8
Black
10
136.286
20
-136.286
11
134.986
21
-134.986
0
LINE
8
Black
10
134.986
20
-134.986
11
136.286
21
-136.286
0
LINE
8
Black
10
122.916
20
-122.916
11
122.006
21
-122.006
0
LINE
8
Black
10
122.006
20
-122.006
11
122.916
21
-122.916
0
LINE
8
Black
10
126.186
20
-126.186
11
125.276
21
-125.276
0
LINE
8
Black
10
125.276
20
-125.276
11
126.186
21
-126.186
0
LINE
8
Black
10
192.751
20
-192.751
11
191.551
21
-191.551
0
LINE
8
Black
10
191.551
20
-191.551
11
192.751
21
-192.751
0
LINE
8
Black
10
131.988
20
-131.988
11
131.288
21
-131.288
0
LINE
8
Black
10
131.288
20
-131.288
11
131.988
21
-131.988
0
LINE
8
Black
10
133.888
20
-133.888
11
133.188
21
-133.188
0
LINE
8
Black
10
133.188
20
-133.188
11
133.888
21
-133.888
0
LINE
8
Black
10
137.902
20
-137.902
11
136.992
21
-136.992
0
LINE
8
Black
10
136.992
20
-136.992
11
137.902
21
-137.902
0
LINE
8
Black
10
141.172
20
-141.172
11
140.262
21
-140.262
0
LINE
8
Black
10
140.262
20
-140.262
11
141.172
21
-141.172
0
LINE
8
Black
10
102.239
20
-102.239
11
101.439
21
-101.439
0
LINE
8
Black
10
101.439
20
-101.439
11
102.239
21
-102.239
0
LINE
8
Black
10
104.282
20
-104.282
11
102.982
21
-102.982
0
LINE
8
Black
10
102.982
20
-102.982
11
104.282
21
-104.282
0
LINE
8
Black
10
106.314
20
-106.314
11
105.014
21
-105.014
0
LINE
8
Black
10
105.014
20
-105.014
11
106.314
21
-106.314
0
LINE
8
Black
10
178.415
20
-178.415
11
177.505
21
-177.505
0
LINE
8
Black
10
177.505
20
-177.505
11
178.415
21
-178.415
0
LINE
8
Black
10
181.685
20
-181.685
11
180.775
21
-180.775
0
LINE
8
Black
10
180.775
20
-180.775
11
181.685
21
-181.685
0
LINE
8
Black
10
187.233
20
-187.233
11
186.533
21
-186.533
0
LINE
8
Black
10
186.533
20
-186.533
11
187.233
21
-187.233
0
LINE
8
Black
10
189.133
20
-189.133
11
188.433
21
-188.433
0
LINE
8
Black
10
188.433
20
-188.433
11
189.133
21
-189.133
0
LINE
8
Black
10
164.318
20
-164.318
11
163.408
21
-163.408
0
LINE
8
Black
10
163.408
20
-163.408
11
164.318
21
-164.318
0
LINE
8
Black
10
167.588
20
-167.588
11
166.678
21
-166.678
0
LINE
8
Black
10
166.678
20
-166.678
11
167.588
21
-167.588
0
LINE
8
Black
10
153.872
20
-153.872
11
152.962
21
-152.962
0
LINE
8
Black
10
152.962
20
-152.962
11
153.872
21
-153.872
0
LINE
8
Black
10
150.602
20
-150.602
11
149.692
21
-149.692
0
LINE
8
Black
10
149.692
20
-149.692
11
150.602
21
-150.602
0
LINE
8
Black
10
129.051
20
-129.051
11
128.251
21
-128.251
0
LINE
8
Black
10
128.251
20
-128.251
11
129.051
21
-129.051
0
LINE
8
Black
10
156.991
20
-156.991
11
156.191
21
-156.191
0
LINE
8
Black
10
156.191
20
-156.191
11
156.991
21
-156.991
0
LINE
8
Black
10
143.656
20
-143.656
11
142.856
21
-142.856
0
LINE
8
Black
10
142.856
20
-142.856
11
143.656
21
-143.656
0
LINE
8
Black
10
146.7
20
-146.7
11
145.4
21
-145.4
0
LINE
8
Black
10
145.4
20
-145.4
11
146.7
21
-146.7
0
LINE
8
Black
10
148.732
20
-148.732
11
147.432
21
-147.432
0
LINE
8
Black
10
147.432
20
-147.432
11
148.732
21
-148.732
0
LINE
8
Black
10
160.416
20
-160.416
11
159.116
21
-159.116
0
LINE
8
Black
10
159.116
20
-159.116
11
160.416
21
-160.416
0
LINE
8
Black
10
162.321
20
-162.321
11
161.021
21
-161.021
0
LINE
8
Black
10
161.021
20
-161.021
11
162.321
21
-162.321
0
LINE
8
Black
10
184.55
20
-184.55
11
183.75
21
-183.75
0
LINE
8
Black
10
183.75
20
-183.75
11
184.55
21
-184.55
0
LINE
8
Black
10
170.58
20
-170.58
11
169.78
21
-169.78
0
LINE
8
Black
10
169.78
20
-169.78
11
170.58
21
-170.58
0
LINE
8
Black
10
174.132
20
-174.132
11
172.832
21
-172.832
0
LINE
8
Black
10
172.832
20
-172.832
11
174.132
21
-174.132
0
LINE
8
Black
10
176.164
20
-176.164
11
174.864
21
-174.864
0
LINE
8
Black
10
174.864
20
-174.864
11
176.164
21
-176.164
0
LINE
8
Black
10
100.24
20
-100.24
11
99.4397
21
-99.4397
0
LINE
8
Black
10
99.4397
20
-99.4397
11
100.24
21
-100.24
0
LINE
8
Black
10
136.286
20
-136.286
11
134.986
21
-134.986
0
LINE
8
Black
10
134.986
20
-134.986
11
136.286
21
-136.286
0
LINE
8
Black
10
102.239
20
-102.239
11
101.439
21
-101.439
0
LINE
8
Black
10
101.439
20
-101.439
11
102.239
21
-102.239
0
LINE
8
Black
10
104.282
20
-104.282
11
102.982
21
-102.982
0
LINE
8
Black
10
102.982
20
-102.982
11
104.282
21
-104.282
0
LINE
8
Black
10
106.314
20
-106.314
11
105.014
21
-105.014
0
LINE
8
Black
10
105.014
20
-105.014
11
106.314
21
-106.314
0
LINE
8
Black
10
84.724
20
-84.724
11
83.424
21
-83.424
0
LINE
8
Black
10
83.424
20
-83.424
11
84.724
21
-84.724
0
LINE
8
Black
10
82.692
20
-82.692
11
81.392
21
-81.392
0
LINE
8
Black
10
81.392
20
-81.392
11
82.692
21
-82.692
0
LINE
8
Black
10
77.605
20
-77.605
11
76.605
21
-76.605
0
LINE
8
Black
10
76.605
20
-76.605
11
77.605
21
-77.605
0
LINE
8
Black
10
79.605
20
-79.605
11
78.605
21
-78.605
0
LINE
8
Black
10
78.605
20
-78.605
11
79.605
21
-79.605
0
LINE
8
Black
10
84.724
20
-84.724
11
83.424
21
-83.424
0
LINE
8
Black
10
83.424
20
-83.424
11
84.724
21
-84.724
0
LINE
8
Black
10
82.692
20
-82.692
11
81.392
21
-81.392
0
LINE
8
Black
10
81.392
20
-81.392
11
82.692
21
-82.692
0
LINE
8
Black
10
79.732
20
-79.732
11
78.732
21
-78.732
0
LINE
8
Black
10
78.732
20
-78.732
11
79.732
21
-79.732
0
LINE
8
Black
10
77.732
20
-77.732
11
76.732
21
-76.732
0
LINE
8
Black
10
76.732
20
-76.732
11
77.732
21
-77.732
0
LINE
8
Black
10
84.6734
20
-84.6734
11
83.4746
21
-83.4746
0
LINE
8
Black
10
83.4746
20
-83.4746
11
84.6734
21
-84.6734
0
LINE
8
Black
10
82.6414
20
-82.6414
11
81.4426
21
-81.4426
0
LINE
8
Black
10
81.4426
20
-81.4426
11
82.6414
21
-82.6414
0
LINE
8
Black
10
64.369
20
-64.369
11
61.869
21
-61.869
0
LINE
8
Black
10
61.869
20
-61.869
11
64.369
21
-64.369
0
LINE
8
Black
10
77.592
20
-77.592
11
77.292
21
-77.292
0
LINE
8
Black
10
77.292
20
-77.292
11
77.592
21
-77.592
0
LINE
8
Black
10
77.092
20
-77.092
11
76.792
21
-76.792
0
LINE
8
Black
10
76.792
20
-76.792
11
77.092
21
-77.092
0
LINE
8
Black
10
76.592
20
-76.592
11
76.292
21
-76.292
0
LINE
8
Black
10
76.292
20
-76.292
11
76.592
21
-76.592
0
LINE
8
Black
10
76.092
20
-76.092
11
75.792
21
-75.792
0
LINE
8
Black
10
75.792
20
-75.792
11
76.092
21
-76.092
0
LINE
8
Black
10
75.592
20
-75.592
11
75.292
21
-75.292
0
LINE
8
Black
10
75.292
20
-75.292
11
75.592
21
-75.592
0
LINE
8
Black
10
74.592
20
-74.592
11
74.292
21
-74.292
0
LINE
8
Black
10
74.292
20
-74.292
11
74.592
21
-74.592
0
LINE
8
Black
10
74.092
20
-74.092
11
73.792
21
-73.792
0
LINE
8
Black
10
73.792
20
-73.792
11
74.092
21
-74.092
0
LINE
8
Black
10
73.592
20
-73.592
11
73.292
21
-73.292
0
LINE
8
Black
10
73.292
20
-73.292
11
73.592
21
-73.592
0
LINE
8
Black
10
73.092
20
-73.092
11
72.792
21
-72.792
0
LINE
8
Black
10
72.792
20
-72.792
11
73.092
21
-73.092
0
LINE
8
Black
10
78.092
20
-78.092
11
77.792
21
-77.792
0
LINE
8
Black
10
77.792
20
-77.792
11
78.092
21
-78.092
0
LINE
8
Black
10
78.592
20
-78.592
11
78.292
21
-78.292
0
LINE
8
Black
10
78.292
20
-78.292
11
78.592
21
-78.592
0
LINE
8
Black
10
75.092
20
-75.092
11
74.792
21
-74.792
0
LINE
8
Black
10
74.792
20
-74.792
11
75.092
21
-75.092
0
LINE
8
Black
10
60.823
20
-60.823
11
59.573
21
-59.573
0
LINE
8
Black
10
59.573
20
-59.573
11
60.823
21
-60.823
0
LINE
8
Black
10
84.6734
20
-84.6734
11
83.4746
21
-83.4746
0
LINE
8
Black
10
83.4746
20
-83.4746
11
84.6734
21
-84.6734
0
LINE
8
Black
10
82.6414
20
-82.6414
11
81.4426
21
-81.4426
0
LINE
8
Black
10
81.4426
20
-81.4426
11
82.6414
21
-82.6414
0
LINE
8
Black
10
69.078
20
-69.078
11
67.828
21
-67.828
0
LINE
8
Black
10
67.828
20
-67.828
11
69.078
21
-69.078
0
LINE
8
Black
10
67.046
20
-67.046
11
65.796
21
-65.796
0
LINE
8
Black
10
65.796
20
-65.796
11
67.046
21
-67.046
0
LINE
8
Black
10
80.542
20
-80.542
11
79.342
21
-79.342
0
LINE
8
Black
10
79.342
20
-79.342
11
80.542
21
-80.542
0
LINE
8
Black
10
72.042
20
-72.042
11
70.842
21
-70.842
0
LINE
8
Black
10
70.842
20
-70.842
11
72.042
21
-72.042
0
LINE
8
Black
10
60.823
20
-60.823
11
59.573
21
-59.573
0
LINE
8
Black
10
59.573
20
-59.573
11
60.823
21
-60.823
0
LINE
8
Black
10
80.542
20
-80.542
11
79.342
21
-79.342
0
LINE
8
Black
10
79.342
20
-79.342
11
80.542
21
-80.542
0
LINE
8
Black
10
72.042
20
-72.042
11
70.842
21
-70.842
0
LINE
8
Black
10
70.842
20
-70.842
11
72.042
21
-72.042
0
LINE
8
Black
10
69.078
20
-69.078
11
67.828
21
-67.828
0
LINE
8
Black
10
67.828
20
-67.828
11
69.078
21
-69.078
0
LINE
8
Black
10
67.046
20
-67.046
11
65.796
21
-65.796
0
LINE
8
Black
10
65.796
20
-65.796
11
67.046
21
-67.046
0
LINE
8
Black
10
80.542
20
-80.542
11
79.342
21
-79.342
0
LINE
8
Black
10
79.342
20
-79.342
11
80.542
21
-80.542
0
LINE
8
Black
10
72.042
20
-72.042
11
70.842
21
-70.842
0
LINE
8
Black
10
70.842
20
-70.842
11
72.042
21
-72.042
0
LINE
8
Black
10
80.542
20
-80.542
11
79.342
21
-79.342
0
LINE
8
Black
10
79.342
20
-79.342
11
80.542
21
-80.542
0
LINE
8
Black
10
72.042
20
-72.042
11
70.842
21
-70.842
0
LINE
8
Black
10
70.842
20
-70.842
11
72.042
21
-72.042
0
LINE
8
Black
10
72.042
20
-72.042
11
70.842
21
-70.842
0
LINE
8
Black
10
70.842
20
-70.842
11
72.042
21
-72.042
0
LINE
8
Black
10
80.542
20
-80.542
11
79.342
21
-79.342
0
LINE
8
Black
10
79.342
20
-79.342
11
80.542
21
-80.542
0
LINE
8
Black
10
60.823
20
-60.823
11
59.573
21
-59.573
0
LINE
8
Black
10
59.573
20
-59.573
11
60.823
21
-60.823
0
LINE
8
Black
10
57.419
20
-57.419
11
56.119
21
-56.119
0
LINE
8
Black
10
56.119
20
-56.119
11
57.419
21
-57.419
0
LINE
8
Black
10
55.387
20
-55.387
11
54.087
21
-54.087
0
LINE
8
Black
10
54.087
20
-54.087
11
55.387
21
-55.387
0
LINE
8
Black
10
64.369
20
-64.369
11
61.869
21
-61.869
0
LINE
8
Black
10
61.869
20
-61.869
11
64.369
21
-64.369
0
LINE
8
Black
10
72.042
20
-72.042
11
70.842
21
-70.842
0
LINE
8
Black
10
70.842
20
-70.842
11
72.042
21
-72.042
0
LINE
8
Black
10
80.542
20
-80.542
11
79.342
21
-79.342
0
LINE
8
Black
10
79.342
20
-79.342
11
80.542
21
-80.542
0
LINE
8
Black
10
68.864
20
-68.864
11
68.164
21
-68.164
0
LINE
8
Black
10
68.164
20
-68.164
11
68.864
21
-68.864
0
LINE
8
Black
10
66.964
20
-66.964
11
66.264
21
-66.264
0
LINE
8
Black
10
66.264
20
-66.264
11
66.964
21
-66.964
0
LINE
8
Black
10
80.542
20
-80.542
11
79.342
21
-79.342
0
LINE
8
Black
10
79.342
20
-79.342
11
80.542
21
-80.542
0
LINE
8
Black
10
72.042
20
-72.042
11
70.842
21
-70.842
0
LINE
8
Black
10
70.842
20
-70.842
11
72.042
21
-72.042
0
LINE
8
Black
10
72.042
20
-72.042
11
70.842
21
-70.842
0
LINE
8
Black
10
70.842
20
-70.842
11
72.042
21
-72.042
0
LINE
8
Black
10
80.542
20
-80.542
11
79.342
21
-79.342
0
LINE
8
Black
10
79.342
20
-79.342
11
80.542
21
-80.542
0
LINE
8
Black
10
72.042
20
-72.042
11
70.842
21
-70.842
0
LINE
8
Black
10
70.842
20
-70.842
11
72.042
21
-72.042
0
LINE
8
Black
10
80.542
20
-80.542
11
79.342
21
-79.342
0
LINE
8
Black
10
79.342
20
-79.342
11
80.542
21
-80.542
0
LINE
8
Black
10
60.823
20
-60.823
11
59.573
21
-59.573
0
LINE
8
Black
10
59.573
20
-59.573
11
60.823
21
-60.823
0
LINE
8
Black
10
57.419
20
-57.419
11
56.119
21
-56.119
0
LINE
8
Black
10
56.119
20
-56.119
11
57.419
21
-57.419
0
LINE
8
Black
10
55.387
20
-55.387
11
54.087
21
-54.087
0
LINE
8
Black
10
54.087
20
-54.087
11
55.387
21
-55.387
0
LINE
8
Black
10
80.542
20
-80.542
11
79.342
21
-79.342
0
LINE
8
Black
10
79.342
20
-79.342
11
80.542
21
-80.542
0
LINE
8
Black
10
72.042
20
-72.042
11
70.842
21
-70.842
0
LINE
8
Black
10
70.842
20
-70.842
11
72.042
21
-72.042
0
LINE
8
Black
10
80.542
20
-80.542
11
79.342
21
-79.342
0
LINE
8
Black
10
79.342
20
-79.342
11
80.542
21
-80.542
0
LINE
8
Black
10
72.042
20
-72.042
11
70.842
21
-70.842
0
LINE
8
Black
10
70.842
20
-70.842
11
72.042
21
-72.042
0
LINE
8
Black
10
85.207
20
-85.207
11
83.957
21
-83.957
0
LINE
8
Black
10
83.957
20
-83.957
11
85.207
21
-85.207
0
LINE
8
Black
10
82.921
20
-82.921
11
81.671
21
-81.671
0
LINE
8
Black
10
81.671
20
-81.671
11
82.921
21
-82.921
0
LINE
8
Black
10
80.542
20
-80.542
11
79.342
21
-79.342
0
LINE
8
Black
10
79.342
20
-79.342
11
80.542
21
-80.542
0
LINE
8
Black
10
72.042
20
-72.042
11
70.842
21
-70.842
0
LINE
8
Black
10
70.842
20
-70.842
11
72.042
21
-72.042
0
LINE
8
Black
10
65.0955
20
-65.0955
11
64.0955
21
-64.0955
0
LINE
8
Black
10
64.0955
20
-64.0955
11
65.0955
21
-65.0955
0
LINE
8
Black
10
67.0955
20
-67.0955
11
66.0955
21
-66.0955
0
LINE
8
Black
10
66.0955
20
-66.0955
11
67.0955
21
-67.0955
0
LINE
8
Black
10
75.592
20
-75.592
11
75.292
21
-75.292
0
LINE
8
Black
10
75.292
20
-75.292
11
75.592
21
-75.592
0
LINE
8
Black
10
76.092
20
-76.092
11
75.792
21
-75.792
0
LINE
8
Black
10
75.792
20
-75.792
11
76.092
21
-76.092
0
LINE
8
Black
10
76.592
20
-76.592
11
76.292
21
-76.292
0
LINE
8
Black
10
76.292
20
-76.292
11
76.592
21
-76.592
0
LINE
8
Black
10
77.092
20
-77.092
11
76.792
21
-76.792
0
LINE
8
Black
10
76.792
20
-76.792
11
77.092
21
-77.092
0
LINE
8
Black
10
77.592
20
-77.592
11
77.292
21
-77.292
0
LINE
8
Black
10
77.292
20
-77.292
11
77.592
21
-77.592
0
LINE
8
Black
10
78.092
20
-78.092
11
77.792
21
-77.792
0
LINE
8
Black
10
77.792
20
-77.792
11
78.092
21
-78.092
0
LINE
8
Black
10
78.592
20
-78.592
11
78.292
21
-78.292
0
LINE
8
Black
10
78.292
20
-78.292
11
78.592
21
-78.592
0
LINE
8
Black
10
75.092
20
-75.092
11
74.792
21
-74.792
0
LINE
8
Black
10
74.792
20
-74.792
11
75.092
21
-75.092
0
LINE
8
Black
10
74.592
20
-74.592
11
74.292
21
-74.292
0
LINE
8
Black
10
74.292
20
-74.292
11
74.592
21
-74.592
0
LINE
8
Black
10
74.092
20
-74.092
11
73.792
21
-73.792
0
LINE
8
Black
10
73.792
20
-73.792
11
74.092
21
-74.092
0
LINE
8
Black
10
73.592
20
-73.592
11
73.292
21
-73.292
0
LINE
8
Black
10
73.292
20
-73.292
11
73.592
21
-73.592
0
LINE
8
Black
10
73.092
20
-73.092
11
72.792
21
-72.792
0
LINE
8
Black
10
72.792
20
-72.792
11
73.092
21
-73.092
0
LINE
8
Black
10
85.207
20
-85.207
11
83.957
21
-83.957
0
LINE
8
Black
10
83.957
20
-83.957
11
85.207
21
-85.207
0
LINE
8
Black
10
82.921
20
-82.921
11
81.671
21
-81.671
0
LINE
8
Black
10
81.671
20
-81.671
11
82.921
21
-82.921
0
LINE
8
Black
10
71.255
20
-71.255
11
70.255
21
-70.255
0
LINE
8
Black
10
70.255
20
-70.255
11
71.255
21
-71.255
0
LINE
8
Black
10
73.255
20
-73.255
11
72.255
21
-72.255
0
LINE
8
Black
10
72.255
20
-72.255
11
73.255
21
-73.255
0
LINE
8
Black
10
82.7684
20
-82.7684
11
81.5696
21
-81.5696
0
LINE
8
Black
10
81.5696
20
-81.5696
11
82.7684
21
-82.7684
0
LINE
8
Black
10
84.851
20
-84.851
11
83.551
21
-83.551
0
LINE
8
Black
10
83.551
20
-83.551
11
84.851
21
-84.851
0
LINE
8
Black
10
82.7684
20
-82.7684
11
81.5696
21
-81.5696
0
LINE
8
Black
10
81.5696
20
-81.5696
11
82.7684
21
-82.7684
0
LINE
8
Black
10
84.851
20
-84.851
11
83.551
21
-83.551
0
LINE
8
Black
10
83.551
20
-83.551
11
84.851
21
-84.851
0
LINE
8
Black
10
55.529
20
-55.529
11
54.829
21
-54.829
0
LINE
8
Black
10
54.829
20
-54.829
11
55.529
21
-55.529
0
LINE
8
Black
10
53.629
20
-53.629
11
52.929
21
-52.929
0
LINE
8
Black
10
52.929
20
-52.929
11
53.629
21
-53.629
0
LINE
8
Black
10
101.464
20
-101.464
11
98.964
21
-98.964
0
LINE
8
Black
10
98.964
20
-98.964
11
101.464
21
-101.464
0
LINE
8
Black
10
86.964
20
-86.964
11
84.464
21
-84.464
0
LINE
8
Black
10
84.464
20
-84.464
11
86.964
21
-86.964
0
LINE
8
Black
10
101.464
20
-101.464
11
98.964
21
-98.964
0
LINE
8
Black
10
98.964
20
-98.964
11
101.464
21
-101.464
0
LINE
8
Black
10
86.964
20
-86.964
11
84.464
21
-84.464
0
LINE
8
Black
10
84.464
20
-84.464
11
86.964
21
-86.964
0
LINE
8
Black
10
101.464
20
-101.464
11
98.964
21
-98.964
0
LINE
8
Black
10
98.964
20
-98.964
11
101.464
21
-101.464
0
LINE
8
Black
10
86.964
20
-86.964
11
84.464
21
-84.464
0
LINE
8
Black
10
84.464
20
-84.464
11
86.964
21
-86.964
0
LINE
8
Black
10
81.191
20
-81.191
11
79.591
21
-79.591
0
LINE
8
Black
10
79.591
20
-79.591
11
81.191
21
-81.191
0
LINE
8
Black
10
83.429
20
-83.429
11
82.179
21
-82.179
0
LINE
8
Black
10
82.179
20
-82.179
11
83.429
21
-83.429
0
LINE
8
Black
10
101.464
20
-101.464
11
98.964
21
-98.964
0
LINE
8
Black
10
98.964
20
-98.964
11
101.464
21
-101.464
0
LINE
8
Black
10
86.964
20
-86.964
11
84.464
21
-84.464
0
LINE
8
Black
10
84.464
20
-84.464
11
86.964
21
-86.964
0
LINE
8
Black
10
83.429
20
-83.429
11
82.179
21
-82.179
0
LINE
8
Black
10
82.179
20
-82.179
11
83.429
21
-83.429
0
LINE
8
Black
10
101.464
20
-101.464
11
98.964
21
-98.964
0
LINE
8
Black
10
98.964
20
-98.964
11
101.464
21
-101.464
0
LINE
8
Black
10
86.964
20
-86.964
11
84.464
21
-84.464
0
LINE
8
Black
10
84.464
20
-84.464
11
86.964
21
-86.964
0
LINE
8
Black
10
188.488
20
-188.488
11
188.987
21
-188.987
0
LINE
8
Black
10
188.987
20
-188.987
11
189.356
21
-189.356
0
LINE
8
Black
10
189.356
20
-189.356
11
189.553
21
-189.553
0
LINE
8
Black
10
189.553
20
-189.553
11
189.356
21
-189.356
0
LINE
8
Black
10
189.356
20
-189.356
11
188.987
21
-188.987
0
LINE
8
Black
10
188.987
20
-188.987
11
188.488
21
-188.488
0
LINE
8
Black
10
188.488
20
-188.488
11
187.922
21
-187.922
0
LINE
8
Black
10
187.922
20
-187.922
11
187.355
21
-187.355
0
LINE
8
Black
10
187.355
20
-187.355
11
186.857
21
-186.857
0
LINE
8
Black
10
186.857
20
-186.857
11
186.487
21
-186.487
0
LINE
8
Black
10
186.487
20
-186.487
11
186.291
21
-186.291
0
LINE
8
Black
10
186.291
20
-186.291
11
186.487
21
-186.487
0
LINE
8
Black
10
186.487
20
-186.487
11
186.857
21
-186.857
0
LINE
8
Black
10
186.857
20
-186.857
11
187.355
21
-187.355
0
LINE
8
Black
10
187.355
20
-187.355
11
187.922
21
-187.922
0
LINE
8
Black
10
187.922
20
-187.922
11
188.488
21
-188.488
0
LINE
8
Black
10
56.4846
20
-56.4846
11
56.9828
21
-56.9828
0
LINE
8
Black
10
56.9828
20
-56.9828
11
57.3525
21
-57.3525
0
LINE
8
Black
10
57.3525
20
-57.3525
11
57.5492
21
-57.5492
0
LINE
8
Black
10
57.5492
20
-57.5492
11
57.3525
21
-57.3525
0
LINE
8
Black
10
57.3525
20
-57.3525
11
56.9828
21
-56.9828
0
LINE
8
Black
10
56.9828
20
-56.9828
11
56.4846
21
-56.4846
0
LINE
8
Black
10
56.4846
20
-56.4846
11
55.9181
21
-55.9181
0
LINE
8
Black
10
55.9181
20
-55.9181
11
55.3516
21
-55.3516
0
LINE
8
Black
10
55.3516
20
-55.3516
11
54.8534
21
-54.8534
0
LINE
8
Black
10
54.8534
20
-54.8534
11
54.4837
21
-54.4837
0
LINE
8
Black
10
54.4837
20
-54.4837
11
54.287
21
-54.287
0
LINE
8
Black
10
54.287
20
-54.287
11
54.4837
21
-54.4837
0
LINE
8
Black
10
54.4837
20
-54.4837
11
54.8534
21
-54.8534
0
LINE
8
Black
10
54.8534
20
-54.8534
11
55.3516
21
-55.3516
0
LINE
8
Black
10
55.3516
20
-55.3516
11
55.9181
21
-55.9181
0
LINE
8
Black
10
55.9181
20
-55.9181
11
56.4846
21
-56.4846
0
LINE
8
Black
10
81.191
20
-81.191
11
79.591
21
-79.591
0
LINE
8
Black
10
79.591
20
-79.591
11
81.191
21
-81.191
0
LINE
8
Black
10
71.866
20
-71.866
11
71.366
21
-71.366
0
LINE
8
Black
10
71.366
20
-71.366
11
71.866
21
-71.866
0
LINE
8
Black
10
70.366
20
-70.366
11
69.866
21
-69.866
0
LINE
8
Black
10
69.866
20
-69.866
11
70.366
21
-70.366
0
LINE
8
Black
10
86.964
20
-86.964
11
84.464
21
-84.464
0
LINE
8
Black
10
84.464
20
-84.464
11
86.964
21
-86.964
0
LINE
8
Black
10
101.464
20
-101.464
11
98.964
21
-98.964
0
LINE
8
Black
10
98.964
20
-98.964
11
101.464
21
-101.464
0
LINE
8
Black
10
86.964
20
-86.964
11
84.464
21
-84.464
0
LINE
8
Black
10
84.464
20
-84.464
11
86.964
21
-86.964
0
LINE
8
Black
10
101.464
20
-101.464
11
98.964
21
-98.964
0
LINE
8
Black
10
98.964
20
-98.964
11
101.464
21
-101.464
0
LINE
8
Black
10
139.454
20
-139.454
11
138.954
21
-138.954
0
LINE
8
Black
10
138.954
20
-138.954
11
139.454
21
-139.454
0
LINE
8
Black
10
140.954
20
-140.954
11
140.454
21
-140.454
0
LINE
8
Black
10
140.454
20
-140.454
11
140.954
21
-140.954
0
LINE
8
Black
10
175.014
20
-175.014
11
174.514
21
-174.514
0
LINE
8
Black
10
174.514
20
-174.514
11
175.014
21
-175.014
0
LINE
8
Black
10
176.514
20
-176.514
11
176.014
21
-176.014
0
LINE
8
Black
10
176.014
20
-176.014
11
176.514
21
-176.514
0
LINE
8
Black
10
121.674
20
-121.674
11
121.174
21
-121.174
0
LINE
8
Black
10
121.174
20
-121.174
11
121.674
21
-121.674
0
LINE
8
Black
10
123.174
20
-123.174
11
122.674
21
-122.674
0
LINE
8
Black
10
122.674
20
-122.674
11
123.174
21
-123.174
0
LINE
8
Black
10
157.234
20
-157.234
11
156.734
21
-156.734
0
LINE
8
Black
10
156.734
20
-156.734
11
157.234
21
-157.234
0
LINE
8
Black
10
158.734
20
-158.734
11
158.234
21
-158.234
0
LINE
8
Black
10
158.234
20
-158.234
11
158.734
21
-158.734
0
LINE
8
Black
10
101.464
20
-101.464
11
98.964
21
-98.964
0
LINE
8
Black
10
98.964
20
-98.964
11
101.464
21
-101.464
0
LINE
8
Black
10
86.964
20
-86.964
11
84.464
21
-84.464
0
LINE
8
Black
10
84.464
20
-84.464
11
86.964
21
-86.964
0
LINE
8
Black
10
46.9508
20
-46.9508
11
46.9523
21
-46.9523
0
LINE
8
Black
10
46.9523
20
-46.9523
11
46.953
21
-46.953
0
LINE
8
Black
10
46.953
20
-46.953
11
46.9552
21
-46.9552
0
LINE
8
Black
10
46.9552
20
-46.9552
11
46.9567
21
-46.9567
0
LINE
8
Black
10
46.9567
20
-46.9567
11
46.9595
21
-46.9595
0
LINE
8
Black
10
46.9595
20
-46.9595
11
46.9617
21
-46.9617
0
LINE
8
Black
10
46.9617
20
-46.9617
11
46.965
21
-46.965
0
LINE
8
Black
10
46.965
20
-46.965
11
46.9679
21
-46.9679
0
LINE
8
Black
10
46.9679
20
-46.9679
11
46.9716
21
-46.9716
0
LINE
8
Black
10
46.9716
20
-46.9716
11
46.975
21
-46.975
0
LINE
8
Black
10
46.975
20
-46.975
11
46.9791
21
-46.9791
0
LINE
8
Black
10
46.9791
20
-46.9791
11
46.9829
21
-46.9829
0
LINE
8
Black
10
46.9829
20
-46.9829
11
46.9872
21
-46.9872
0
LINE
8
Black
10
46.9872
20
-46.9872
11
46.9913
21
-46.9913
0
LINE
8
Black
10
46.9913
20
-46.9913
11
46.9957
21
-46.9957
0
LINE
8
Black
10
46.9957
20
-46.9957
11
47
21
-47
0
LINE
8
Black
10
47
20
-47
11
196.9
21
-196.9
0
LINE
8
Black
10
196.9
20
-196.9
11
196.904
21
-196.904
0
LINE
8
Black
10
196.904
20
-196.904
11
196.909
21
-196.909
0
LINE
8
Black
10
196.909
20
-196.909
11
196.913
21
-196.913
0
LINE
8
Black
10
196.913
20
-196.913
11
196.917
21
-196.917
0
LINE
8
Black
10
196.917
20
-196.917
11
196.921
21
-196.921
0
LINE
8
Black
10
196.921
20
-196.921
11
196.925
21
-196.925
0
LINE
8
Black
10
196.925
20
-196.925
11
196.928
21
-196.928
0
LINE
8
Black
10
196.928
20
-196.928
11
196.932
21
-196.932
0
LINE
8
Black
10
196.932
20
-196.932
11
196.935
21
-196.935
0
LINE
8
Black
10
196.935
20
-196.935
11
196.938
21
-196.938
0
LINE
8
Black
10
196.938
20
-196.938
11
196.94
21
-196.94
0
LINE
8
Black
10
196.94
20
-196.94
11
196.943
21
-196.943
0
LINE
8
Black
10
196.943
20
-196.943
11
196.945
21
-196.945
0
LINE
8
Black
10
196.945
20
-196.945
11
196.947
21
-196.947
0
LINE
8
Black
10
196.947
20
-196.947
11
196.948
21
-196.948
0
LINE
8
Black
10
196.948
20
-196.948
11
196.949
21
-196.949
0
LINE
8
Black
10
196.949
20
-196.949
11
196.95
21
-196.95
0
LINE
8
Black
10
196.95
20
-196.95
11
197.037
21
-197.037
0
LINE
8
Black
10
197.037
20
-197.037
11
197.721
21
-197.721
0
LINE
8
Black
10
197.721
20
-197.721
11
199.004
21
-199.004
0
LINE
8
Black
10
199.004
20
-199.004
11
200.734
21
-200.734
0
LINE
8
Black
10
200.734
20
-200.734
11
202.704
21
-202.704
0
LINE
8
Black
10
202.704
20
-202.704
11
205.9
21
-205.9
0
LINE
8
Black
10
205.9
20
-205.9
11
205.904
21
-205.904
0
LINE
8
Black
10
205.904
20
-205.904
11
205.909
21
-205.909
0
LINE
8
Black
10
205.909
20
-205.909
11
205.913
21
-205.913
0
LINE
8
Black
10
205.913
20
-205.913
11
205.917
21
-205.917
0
LINE
8
Black
10
205.917
20
-205.917
11
205.921
21
-205.921
0
LINE
8
Black
10
205.921
20
-205.921
11
205.925
21
-205.925
0
LINE
8
Black
10
205.925
20
-205.925
11
205.928
21
-205.928
0
LINE
8
Black
10
205.928
20
-205.928
11
205.932
21
-205.932
0
LINE
8
Black
10
205.932
20
-205.932
11
205.935
21
-205.935
0
LINE
8
Black
10
205.935
20
-205.935
11
205.938
21
-205.938
0
LINE
8
Black
10
205.938
20
-205.938
11
205.94
21
-205.94
0
LINE
8
Black
10
205.94
20
-205.94
11
205.943
21
-205.943
0
LINE
8
Black
10
205.943
20
-205.943
11
205.945
21
-205.945
0
LINE
8
Black
10
205.945
20
-205.945
11
205.947
21
-205.947
0
LINE
8
Black
10
205.947
20
-205.947
11
205.948
21
-205.948
0
LINE
8
Black
10
205.948
20
-205.948
11
205.949
21
-205.949
0
LINE
8
Black
10
205.949
20
-205.949
11
205.95
21
-205.95
0
LINE
8
Black
10
205.95
20
-205.95
11
205.949
21
-205.949
0
LINE
8
Black
10
205.949
20
-205.949
11
205.948
21
-205.948
0
LINE
8
Black
10
205.948
20
-205.948
11
205.947
21
-205.947
0
LINE
8
Black
10
205.947
20
-205.947
11
205.945
21
-205.945
0
LINE
8
Black
10
205.945
20
-205.945
11
205.943
21
-205.943
0
LINE
8
Black
10
205.943
20
-205.943
11
205.94
21
-205.94
0
LINE
8
Black
10
205.94
20
-205.94
11
205.938
21
-205.938
0
LINE
8
Black
10
205.938
20
-205.938
11
205.935
21
-205.935
0
LINE
8
Black
10
205.935
20
-205.935
11
205.932
21
-205.932
0
LINE
8
Black
10
205.932
20
-205.932
11
205.928
21
-205.928
0
LINE
8
Black
10
205.928
20
-205.928
11
205.925
21
-205.925
0
LINE
8
Black
10
205.925
20
-205.925
11
205.921
21
-205.921
0
LINE
8
Black
10
205.921
20
-205.921
11
205.917
21
-205.917
0
LINE
8
Black
10
205.917
20
-205.917
11
205.913
21
-205.913
0
LINE
8
Black
10
205.913
20
-205.913
11
205.909
21
-205.909
0
LINE
8
Black
10
205.909
20
-205.909
11
205.904
21
-205.904
0
LINE
8
Black
10
205.904
20
-205.904
11
205.9
21
-205.9
0
LINE
8
Black
10
205.9
20
-205.9
11
202.702
21
-202.702
0
LINE
8
Black
10
202.702
20
-202.702
11
201.704
21
-201.704
0
LINE
8
Black
10
201.704
20
-201.704
11
199.825
21
-199.825
0
LINE
8
Black
10
199.825
20
-199.825
11
198.296
21
-198.296
0
LINE
8
Black
10
198.296
20
-198.296
11
197.297
21
-197.297
0
LINE
8
Black
10
197.297
20
-197.297
11
196.95
21
-196.95
0
LINE
8
Black
10
196.95
20
-196.95
11
196.949
21
-196.949
0
LINE
8
Black
10
196.949
20
-196.949
11
196.948
21
-196.948
0
LINE
8
Black
10
196.948
20
-196.948
11
196.947
21
-196.947
0
LINE
8
Black
10
196.947
20
-196.947
11
196.945
21
-196.945
0
LINE
8
Black
10
196.945
20
-196.945
11
196.943
21
-196.943
0
LINE
8
Black
10
196.943
20
-196.943
11
196.94
21
-196.94
0
LINE
8
Black
10
196.94
20
-196.94
11
196.938
21
-196.938
0
LINE
8
Black
10
196.938
20
-196.938
11
196.935
21
-196.935
0
LINE
8
Black
10
196.935
20
-196.935
11
196.932
21
-196.932
0
LINE
8
Black
10
196.932
20
-196.932
11
196.928
21
-196.928
0
LINE
8
Black
10
196.928
20
-196.928
11
196.925
21
-196.925
0
LINE
8
Black
10
196.925
20
-196.925
11
196.921
21
-196.921
0
LINE
8
Black
10
196.921
20
-196.921
11
196.917
21
-196.917
0
LINE
8
Black
10
196.917
20
-196.917
11
196.913
21
-196.913
0
LINE
8
Black
10
196.913
20
-196.913
11
196.909
21
-196.909
0
LINE
8
Black
10
196.909
20
-196.909
11
196.904
21
-196.904
0
LINE
8
Black
10
196.904
20
-196.904
11
196.9
21
-196.9
0
LINE
8
Black
10
196.9
20
-196.9
11
47
21
-47
0
LINE
8
Black
10
47
20
-47
11
46.9957
21
-46.9957
0
LINE
8
Black
10
46.9957
20
-46.9957
11
46.9913
21
-46.9913
0
LINE
8
Black
10
46.9913
20
-46.9913
11
46.9872
21
-46.9872
0
LINE
8
Black
10
46.9872
20
-46.9872
11
46.9829
21
-46.9829
0
LINE
8
Black
10
46.9829
20
-46.9829
11
46.9791
21
-46.9791
0
LINE
8
Black
10
46.9791
20
-46.9791
11
46.975
21
-46.975
0
LINE
8
Black
10
46.975
20
-46.975
11
46.9716
21
-46.9716
0
LINE
8
Black
10
46.9716
20
-46.9716
11
46.9679
21
-46.9679
0
LINE
8
Black
10
46.9679
20
-46.9679
11
46.965
21
-46.965
0
LINE
8
Black
10
46.965
20
-46.965
11
46.9617
21
-46.9617
0
LINE
8
Black
10
46.9617
20
-46.9617
11
46.9595
21
-46.9595
0
LINE
8
Black
10
46.9595
20
-46.9595
11
46.9567
21
-46.9567
0
LINE
8
Black
10
46.9567
20
-46.9567
11
46.9552
21
-46.9552
0
LINE
8
Black
10
46.9552
20
-46.9552
11
46.953
21
-46.953
0
LINE
8
Black
10
46.953
20
-46.953
11
46.9523
21
-46.9523
0
LINE
8
Black
10
46.9523
20
-46.9523
11
46.9508
21
-46.9508
0
LINE
8
Black
10
46.9508
20
-46.9508
11
46.95
21
-46.95
0
LINE
8
Black
10
46.95
20
-46.95
11
46.8626
21
-46.8626
0
LINE
8
Black
10
46.8626
20
-46.8626
11
46.179
21
-46.179
0
LINE
8
Black
10
46.179
20
-46.179
11
44.8955
21
-44.8955
0
LINE
8
Black
10
44.8955
20
-44.8955
11
43.1664
21
-43.1664
0
LINE
8
Black
10
43.1664
20
-43.1664
11
41.1956
21
-41.1956
0
LINE
8
Black
10
41.1956
20
-41.1956
11
38
21
-38
0
LINE
8
Black
10
38
20
-38
11
37.9957
21
-37.9957
0
LINE
8
Black
10
37.9957
20
-37.9957
11
37.9913
21
-37.9913
0
LINE
8
Black
10
37.9913
20
-37.9913
11
37.9872
21
-37.9872
0
LINE
8
Black
10
37.9872
20
-37.9872
11
37.9829
21
-37.9829
0
LINE
8
Black
10
37.9829
20
-37.9829
11
37.9791
21
-37.9791
0
LINE
8
Black
10
37.9791
20
-37.9791
11
37.975
21
-37.975
0
LINE
8
Black
10
37.975
20
-37.975
11
37.9716
21
-37.9716
0
LINE
8
Black
10
37.9716
20
-37.9716
11
37.9679
21
-37.9679
0
LINE
8
Black
10
37.9679
20
-37.9679
11
37.965
21
-37.965
0
LINE
8
Black
10
37.965
20
-37.965
11
37.9617
21
-37.9617
0
LINE
8
Black
10
37.9617
20
-37.9617
11
37.9595
21
-37.9595
0
LINE
8
Black
10
37.9595
20
-37.9595
11
37.9567
21
-37.9567
0
LINE
8
Black
10
37.9567
20
-37.9567
11
37.9552
21
-37.9552
0
LINE
8
Black
10
37.9552
20
-37.9552
11
37.953
21
-37.953
0
LINE
8
Black
10
37.953
20
-37.953
11
37.9523
21
-37.9523
0
LINE
8
Black
10
37.9523
20
-37.9523
11
37.9508
21
-37.9508
0
LINE
8
Black
10
37.9508
20
-37.9508
11
37.95
21
-37.95
0
LINE
8
Black
10
37.95
20
-37.95
11
37.9508
21
-37.9508
0
LINE
8
Black
10
37.9508
20
-37.9508
11
37.9523
21
-37.9523
0
LINE
8
Black
10
37.9523
20
-37.9523
11
37.953
21
-37.953
0
LINE
8
Black
10
37.953
20
-37.953
11
37.9552
21
-37.9552
0
LINE
8
Black
10
37.9552
20
-37.9552
11
37.9567
21
-37.9567
0
LINE
8
Black
10
37.9567
20
-37.9567
11
37.9595
21
-37.9595
0
LINE
8
Black
10
37.9595
20
-37.9595
11
37.9617
21
-37.9617
0
LINE
8
Black
10
37.9617
20
-37.9617
11
37.965
21
-37.965
0
LINE
8
Black
10
37.965
20
-37.965
11
37.9679
21
-37.9679
0
LINE
8
Black
10
37.9679
20
-37.9679
11
37.9716
21
-37.9716
0
LINE
8
Black
10
37.9716
20
-37.9716
11
37.975
21
-37.975
0
LINE
8
Black
10
37.975
20
-37.975
11
37.9791
21
-37.9791
0
LINE
8
Black
10
37.9791
20
-37.9791
11
37.9829
21
-37.9829
0
LINE
8
Black
10
37.9829
20
-37.9829
11
37.9872
21
-37.9872
0
LINE
8
Black
10
37.9872
20
-37.9872
11
37.9913
21
-37.9913
0
LINE
8
Black
10
37.9913
20
-37.9913
11
37.9957
21
-37.9957
0
LINE
8
Black
10
37.9957
20
-37.9957
11
38
21
-38
0
LINE
8
Black
10
38
20
-38
11
41.1978
21
-41.1978
0
LINE
8
Black
10
41.1978
20
-41.1978
11
42.1962
21
-42.1962
0
LINE
8
Black
10
42.1962
20
-42.1962
11
44.0746
21
-44.0746
0
LINE
8
Black
10
44.0746
20
-44.0746
11
45.6042
21
-45.6042
0
LINE
8
Black
10
45.6042
20
-45.6042
11
46.6025
21
-46.6025
0
LINE
8
Black
10
46.6025
20
-46.6025
11
46.95
21
-46.95
0
LINE
8
Black
10
46.95
20
-46.95
11
46.9508
21
-46.9508
0
LINE
8
Black
10
193.004
20
-193.004
11
193.009
21
-193.009
0
LINE
8
Black
10
193.009
20
-193.009
11
193.013
21
-193.013
0
LINE
8
Black
10
193.013
20
-193.013
11
193.017
21
-193.017
0
LINE
8
Black
10
193.017
20
-193.017
11
193.021
21
-193.021
0
LINE
8
Black
10
193.021
20
-193.021
11
193.025
21
-193.025
0
LINE
8
Black
10
193.025
20
-193.025
11
193.028
21
-193.028
0
LINE
8
Black
10
193.028
20
-193.028
11
193.032
21
-193.032
0
LINE
8
Black
10
193.032
20
-193.032
11
193.035
21
-193.035
0
LINE
8
Black
10
193.035
20
-193.035
11
193.038
21
-193.038
0
LINE
8
Black
10
193.038
20
-193.038
11
193.04
21
-193.04
0
LINE
8
Black
10
193.04
20
-193.04
11
193.043
21
-193.043
0
LINE
8
Black
10
193.043
20
-193.043
11
193.045
21
-193.045
0
LINE
8
Black
10
193.045
20
-193.045
11
193.047
21
-193.047
0
LINE
8
Black
10
193.047
20
-193.047
11
193.048
21
-193.048
0
LINE
8
Black
10
193.048
20
-193.048
11
193.049
21
-193.049
0
LINE
8
Black
10
193.049
20
-193.049
11
193.05
21
-193.05
0
LINE
8
Black
10
193.05
20
-193.05
11
193.049
21
-193.049
0
LINE
8
Black
10
193.049
20
-193.049
11
193.048
21
-193.048
0
LINE
8
Black
10
193.048
20
-193.048
11
193.047
21
-193.047
0
LINE
8
Black
10
193.047
20
-193.047
11
193.045
21
-193.045
0
LINE
8
Black
10
193.045
20
-193.045
11
193.043
21
-193.043
0
LINE
8
Black
10
193.043
20
-193.043
11
193.04
21
-193.04
0
LINE
8
Black
10
193.04
20
-193.04
11
193.038
21
-193.038
0
LINE
8
Black
10
193.038
20
-193.038
11
193.035
21
-193.035
0
LINE
8
Black
10
193.035
20
-193.035
11
193.032
21
-193.032
0
LINE
8
Black
10
193.032
20
-193.032
11
193.028
21
-193.028
0
LINE
8
Black
10
193.028
20
-193.028
11
193.025
21
-193.025
0
LINE
8
Black
10
193.025
20
-193.025
11
193.021
21
-193.021
0
LINE
8
Black
10
193.021
20
-193.021
11
193.017
21
-193.017
0
LINE
8
Black
10
193.017
20
-193.017
11
193.013
21
-193.013
0
LINE
8
Black
10
193.013
20
-193.013
11
193.009
21
-193.009
0
LINE
8
Black
10
193.009
20
-193.009
11
193.004
21
-193.004
0
LINE
8
Black
10
193.004
20
-193.004
11
193
21
-193
0
LINE
8
Black
10
193
20
-193
11
185
21
-185
0
LINE
8
Black
10
185
20
-185
11
184.996
21
-184.996
0
LINE
8
Black
10
184.996
20
-184.996
11
184.991
21
-184.991
0
LINE
8
Black
10
184.991
20
-184.991
11
184.987
21
-184.987
0
LINE
8
Black
10
184.987
20
-184.987
11
184.983
21
-184.983
0
LINE
8
Black
10
184.983
20
-184.983
11
184.979
21
-184.979
0
LINE
8
Black
10
184.979
20
-184.979
11
184.975
21
-184.975
0
LINE
8
Black
10
184.975
20
-184.975
11
184.972
21
-184.972
0
LINE
8
Black
10
184.972
20
-184.972
11
184.968
21
-184.968
0
LINE
8
Black
10
184.968
20
-184.968
11
184.965
21
-184.965
0
LINE
8
Black
10
184.965
20
-184.965
11
184.962
21
-184.962
0
LINE
8
Black
10
184.962
20
-184.962
11
184.96
21
-184.96
0
LINE
8
Black
10
184.96
20
-184.96
11
184.957
21
-184.957
0
LINE
8
Black
10
184.957
20
-184.957
11
184.955
21
-184.955
0
LINE
8
Black
10
184.955
20
-184.955
11
184.953
21
-184.953
0
LINE
8
Black
10
184.953
20
-184.953
11
184.952
21
-184.952
0
LINE
8
Black
10
184.952
20
-184.952
11
184.951
21
-184.951
0
LINE
8
Black
10
184.951
20
-184.951
11
184.95
21
-184.95
0
LINE
8
Black
10
184.95
20
-184.95
11
184.951
21
-184.951
0
LINE
8
Black
10
184.951
20
-184.951
11
184.952
21
-184.952
0
LINE
8
Black
10
184.952
20
-184.952
11
184.953
21
-184.953
0
LINE
8
Black
10
184.953
20
-184.953
11
184.955
21
-184.955
0
LINE
8
Black
10
184.955
20
-184.955
11
184.957
21
-184.957
0
LINE
8
Black
10
184.957
20
-184.957
11
184.96
21
-184.96
0
LINE
8
Black
10
184.96
20
-184.96
11
184.962
21
-184.962
0
LINE
8
Black
10
184.962
20
-184.962
11
184.965
21
-184.965
0
LINE
8
Black
10
184.965
20
-184.965
11
184.968
21
-184.968
0
LINE
8
Black
10
184.968
20
-184.968
11
184.972
21
-184.972
0
LINE
8
Black
10
184.972
20
-184.972
11
184.975
21
-184.975
0
LINE
8
Black
10
184.975
20
-184.975
11
184.979
21
-184.979
0
LINE
8
Black
10
184.979
20
-184.979
11
184.983
21
-184.983
0
LINE
8
Black
10
184.983
20
-184.983
11
184.987
21
-184.987
0
LINE
8
Black
10
184.987
20
-184.987
11
184.991
21
-184.991
0
LINE
8
Black
10
184.991
20
-184.991
11
184.996
21
-184.996
0
LINE
8
Black
10
184.996
20
-184.996
11
185
21
-185
0
LINE
8
Black
10
185
20
-185
11
193
21
-193
0
LINE
8
Black
10
193
20
-193
11
193.004
21
-193.004
0
LINE
8
Black
10
111.004
20
-111.004
11
111.009
21
-111.009
0
LINE
8
Black
10
111.009
20
-111.009
11
111.013
21
-111.013
0
LINE
8
Black
10
111.013
20
-111.013
11
111.017
21
-111.017
0
LINE
8
Black
10
111.017
20
-111.017
11
111.021
21
-111.021
0
LINE
8
Black
10
111.021
20
-111.021
11
111.025
21
-111.025
0
LINE
8
Black
10
111.025
20
-111.025
11
111.028
21
-111.028
0
LINE
8
Black
10
111.028
20
-111.028
11
111.032
21
-111.032
0
LINE
8
Black
10
111.032
20
-111.032
11
111.035
21
-111.035
0
LINE
8
Black
10
111.035
20
-111.035
11
111.038
21
-111.038
0
LINE
8
Black
10
111.038
20
-111.038
11
111.04
21
-111.04
0
LINE
8
Black
10
111.04
20
-111.04
11
111.043
21
-111.043
0
LINE
8
Black
10
111.043
20
-111.043
11
111.045
21
-111.045
0
LINE
8
Black
10
111.045
20
-111.045
11
111.047
21
-111.047
0
LINE
8
Black
10
111.047
20
-111.047
11
111.048
21
-111.048
0
LINE
8
Black
10
111.048
20
-111.048
11
111.049
21
-111.049
0
LINE
8
Black
10
111.049
20
-111.049
11
111.05
21
-111.05
0
LINE
8
Black
10
111.05
20
-111.05
11
111.049
21
-111.049
0
LINE
8
Black
10
111.049
20
-111.049
11
111.048
21
-111.048
0
LINE
8
Black
10
111.048
20
-111.048
11
111.047
21
-111.047
0
LINE
8
Black
10
111.047
20
-111.047
11
111.045
21
-111.045
0
LINE
8
Black
10
111.045
20
-111.045
11
111.043
21
-111.043
0
LINE
8
Black
10
111.043
20
-111.043
11
111.04
21
-111.04
0
LINE
8
Black
10
111.04
20
-111.04
11
111.038
21
-111.038
0
LINE
8
Black
10
111.038
20
-111.038
11
111.035
21
-111.035
0
LINE
8
Black
10
111.035
20
-111.035
11
111.032
21
-111.032
0
LINE
8
Black
10
111.032
20
-111.032
11
111.028
21
-111.028
0
LINE
8
Black
10
111.028
20
-111.028
11
111.025
21
-111.025
0
LINE
8
Black
10
111.025
20
-111.025
11
111.021
21
-111.021
0
LINE
8
Black
10
111.021
20
-111.021
11
111.017
21
-111.017
0
LINE
8
Black
10
111.017
20
-111.017
11
111.013
21
-111.013
0
LINE
8
Black
10
111.013
20
-111.013
11
111.009
21
-111.009
0
LINE
8
Black
10
111.009
20
-111.009
11
111.004
21
-111.004
0
LINE
8
Black
10
111.004
20
-111.004
11
111
21
-111
0
LINE
8
Black
10
111
20
-111
11
103
21
-103
0
LINE
8
Black
10
103
20
-103
11
102.996
21
-102.996
0
LINE
8
Black
10
102.996
20
-102.996
11
102.991
21
-102.991
0
LINE
8
Black
10
102.991
20
-102.991
11
102.987
21
-102.987
0
LINE
8
Black
10
102.987
20
-102.987
11
102.983
21
-102.983
0
LINE
8
Black
10
102.983
20
-102.983
11
102.979
21
-102.979
0
LINE
8
Black
10
102.979
20
-102.979
11
102.975
21
-102.975
0
LINE
8
Black
10
102.975
20
-102.975
11
102.972
21
-102.972
0
LINE
8
Black
10
102.972
20
-102.972
11
102.968
21
-102.968
0
LINE
8
Black
10
102.968
20
-102.968
11
102.965
21
-102.965
0
LINE
8
Black
10
102.965
20
-102.965
11
102.962
21
-102.962
0
LINE
8
Black
10
102.962
20
-102.962
11
102.96
21
-102.96
0
LINE
8
Black
10
102.96
20
-102.96
11
102.957
21
-102.957
0
LINE
8
Black
10
102.957
20
-102.957
11
102.955
21
-102.955
0
LINE
8
Black
10
102.955
20
-102.955
11
102.953
21
-102.953
0
LINE
8
Black
10
102.953
20
-102.953
11
102.952
21
-102.952
0
LINE
8
Black
10
102.952
20
-102.952
11
102.951
21
-102.951
0
LINE
8
Black
10
102.951
20
-102.951
11
102.95
21
-102.95
0
LINE
8
Black
10
102.95
20
-102.95
11
102.951
21
-102.951
0
LINE
8
Black
10
102.951
20
-102.951
11
102.952
21
-102.952
0
LINE
8
Black
10
102.952
20
-102.952
11
102.953
21
-102.953
0
LINE
8
Black
10
102.953
20
-102.953
11
102.955
21
-102.955
0
LINE
8
Black
10
102.955
20
-102.955
11
102.957
21
-102.957
0
LINE
8
Black
10
102.957
20
-102.957
11
102.96
21
-102.96
0
LINE
8
Black
10
102.96
20
-102.96
11
102.962
21
-102.962
0
LINE
8
Black
10
102.962
20
-102.962
11
102.965
21
-102.965
0
LINE
8
Black
10
102.965
20
-102.965
11
102.968
21
-102.968
0
LINE
8
Black
10
102.968
20
-102.968
11
102.972
21
-102.972
0
LINE
8
Black
10
102.972
20
-102.972
11
102.975
21
-102.975
0
LINE
8
Black
10
102.975
20
-102.975
11
102.979
21
-102.979
0
LINE
8
Black
10
102.979
20
-102.979
11
102.983
21
-102.983
0
LINE
8
Black
10
102.983
20
-102.983
11
102.987
21
-102.987
0
LINE
8
Black
10
102.987
20
-102.987
11
102.991
21
-102.991
0
LINE
8
Black
10
102.991
20
-102.991
11
102.996
21
-102.996
0
LINE
8
Black
10
102.996
20
-102.996
11
103
21
-103
0
LINE
8
Black
10
103
20
-103
11
111
21
-111
0
LINE
8
Black
10
111
20
-111
11
111.004
21
-111.004
0
LINE
8
Black
10
58.0043
20
-58.0043
11
58.0087
21
-58.0087
0
LINE
8
Black
10
58.0087
20
-58.0087
11
58.0128
21
-58.0128
0
LINE
8
Black
10
58.0128
20
-58.0128
11
58.0171
21
-58.0171
0
LINE
8
Black
10
58.0171
20
-58.0171
11
58.0209
21
-58.0209
0
LINE
8
Black
10
58.0209
20
-58.0209
11
58.025
21
-58.025
0
LINE
8
Black
10
58.025
20
-58.025
11
58.0284
21
-58.0284
0
LINE
8
Black
10
58.0284
20
-58.0284
11
58.0321
21
-58.0321
0
LINE
8
Black
10
58.0321
20
-58.0321
11
58.035
21
-58.035
0
LINE
8
Black
10
58.035
20
-58.035
11
58.0383
21
-58.0383
0
LINE
8
Black
10
58.0383
20
-58.0383
11
58.0405
21
-58.0405
0
LINE
8
Black
10
58.0405
20
-58.0405
11
58.0433
21
-58.0433
0
LINE
8
Black
10
58.0433
20
-58.0433
11
58.0448
21
-58.0448
0
LINE
8
Black
10
58.0448
20
-58.0448
11
58.047
21
-58.047
0
LINE
8
Black
10
58.047
20
-58.047
11
58.0477
21
-58.0477
0
LINE
8
Black
10
58.0477
20
-58.0477
11
58.0492
21
-58.0492
0
LINE
8
Black
10
58.0492
20
-58.0492
11
58.05
21
-58.05
0
LINE
8
Black
10
58.05
20
-58.05
11
58.0492
21
-58.0492
0
LINE
8
Black
10
58.0492
20
-58.0492
11
58.0477
21
-58.0477
0
LINE
8
Black
10
58.0477
20
-58.0477
11
58.047
21
-58.047
0
LINE
8
Black
10
58.047
20
-58.047
11
58.0448
21
-58.0448
0
LINE
8
Black
10
58.0448
20
-58.0448
11
58.0433
21
-58.0433
0
LINE
8
Black
10
58.0433
20
-58.0433
11
58.0405
21
-58.0405
0
LINE
8
Black
10
58.0405
20
-58.0405
11
58.0383
21
-58.0383
0
LINE
8
Black
10
58.0383
20
-58.0383
11
58.035
21
-58.035
0
LINE
8
Black
10
58.035
20
-58.035
11
58.0321
21
-58.0321
0
LINE
8
Black
10
58.0321
20
-58.0321
11
58.0284
21
-58.0284
0
LINE
8
Black
10
58.0284
20
-58.0284
11
58.025
21
-58.025
0
LINE
8
Black
10
58.025
20
-58.025
11
58.0209
21
-58.0209
0
LINE
8
Black
10
58.0209
20
-58.0209
11
58.0171
21
-58.0171
0
LINE
8
Black
10
58.0171
20
-58.0171
11
58.0128
21
-58.0128
0
LINE
8
Black
10
58.0128
20
-58.0128
11
58.0087
21
-58.0087
0
LINE
8
Black
10
58.0087
20
-58.0087
11
58.0043
21
-58.0043
0
LINE
8
Black
10
58.0043
20
-58.0043
11
58
21
-58
0
LINE
8
Black
10
58
20
-58
11
50
21
-50
0
LINE
8
Black
10
50
20
-50
11
49.9957
21
-49.9957
0
LINE
8
Black
10
49.9957
20
-49.9957
11
49.9913
21
-49.9913
0
LINE
8
Black
10
49.9913
20
-49.9913
11
49.9872
21
-49.9872
0
LINE
8
Black
10
49.9872
20
-49.9872
11
49.9829
21
-49.9829
0
LINE
8
Black
10
49.9829
20
-49.9829
11
49.9791
21
-49.9791
0
LINE
8
Black
10
49.9791
20
-49.9791
11
49.975
21
-49.975
0
LINE
8
Black
10
49.975
20
-49.975
11
49.9716
21
-49.9716
0
LINE
8
Black
10
49.9716
20
-49.9716
11
49.9679
21
-49.9679
0
LINE
8
Black
10
49.9679
20
-49.9679
11
49.965
21
-49.965
0
LINE
8
Black
10
49.965
20
-49.965
11
49.9617
21
-49.9617
0
LINE
8
Black
10
49.9617
20
-49.9617
11
49.9595
21
-49.9595
0
LINE
8
Black
10
49.9595
20
-49.9595
11
49.9567
21
-49.9567
0
LINE
8
Black
10
49.9567
20
-49.9567
11
49.9552
21
-49.9552
0
LINE
8
Black
10
49.9552
20
-49.9552
11
49.953
21
-49.953
0
LINE
8
Black
10
49.953
20
-49.953
11
49.9523
21
-49.9523
0
LINE
8
Black
10
49.9523
20
-49.9523
11
49.9508
21
-49.9508
0
LINE
8
Black
10
49.9508
20
-49.9508
11
49.95
21
-49.95
0
LINE
8
Black
10
49.95
20
-49.95
11
49.9508
21
-49.9508
0
LINE
8
Black
10
49.9508
20
-49.9508
11
49.9523
21
-49.9523
0
LINE
8
Black
10
49.9523
20
-49.9523
11
49.953
21
-49.953
0
LINE
8
Black
10
49.953
20
-49.953
11
49.9552
21
-49.9552
0
LINE
8
Black
10
49.9552
20
-49.9552
11
49.9567
21
-49.9567
0
LINE
8
Black
10
49.9567
20
-49.9567
11
49.9595
21
-49.9595
0
LINE
8
Black
10
49.9595
20
-49.9595
11
49.9617
21
-49.9617
0
LINE
8
Black
10
49.9617
20
-49.9617
11
49.965
21
-49.965
0
LINE
8
Black
10
49.965
20
-49.965
11
49.9679
21
-49.9679
0
LINE
8
Black
10
49.9679
20
-49.9679
11
49.9716
21
-49.9716
0
LINE
8
Black
10
49.9716
20
-49.9716
11
49.975
21
-49.975
0
LINE
8
Black
10
49.975
20
-49.975
11
49.9791
21
-49.9791
0
LINE
8
Black
10
49.9791
20
-49.9791
11
49.9829
21
-49.9829
0
LINE
8
Black
10
49.9829
20
-49.9829
11
49.9872
21
-49.9872
0
LINE
8
Black
10
49.9872
20
-49.9872
11
49.9913
21
-49.9913
0
LINE
8
Black
10
49.9913
20
-49.9913
11
49.9957
21
-49.9957
0
LINE
8
Black
10
49.9957
20
-49.9957
11
50
21
-50
0
LINE
8
Black
10
50
20
-50
11
58
21
-58
0
LINE
8
Black
10
58
20
-58
11
58.0043
21
-58.0043
0
LINE
8
Black
10
193.004
20
-193.004
11
193.009
21
-193.009
0
LINE
8
Black
10
193.009
20
-193.009
11
193.013
21
-193.013
0
LINE
8
Black
10
193.013
20
-193.013
11
193.017
21
-193.017
0
LINE
8
Black
10
193.017
20
-193.017
11
193.021
21
-193.021
0
LINE
8
Black
10
193.021
20
-193.021
11
193.025
21
-193.025
0
LINE
8
Black
10
193.025
20
-193.025
11
193.028
21
-193.028
0
LINE
8
Black
10
193.028
20
-193.028
11
193.032
21
-193.032
0
LINE
8
Black
10
193.032
20
-193.032
11
193.035
21
-193.035
0
LINE
8
Black
10
193.035
20
-193.035
11
193.038
21
-193.038
0
LINE
8
Black
10
193.038
20
-193.038
11
193.04
21
-193.04
0
LINE
8
Black
10
193.04
20
-193.04
11
193.043
21
-193.043
0
LINE
8
Black
10
193.043
20
-193.043
11
193.045
21
-193.045
0
LINE
8
Black
10
193.045
20
-193.045
11
193.047
21
-193.047
0
LINE
8
Black
10
193.047
20
-193.047
11
193.048
21
-193.048
0
LINE
8
Black
10
193.048
20
-193.048
11
193.049
21
-193.049
0
LINE
8
Black
10
193.049
20
-193.049
11
193.05
21
-193.05
0
LINE
8
Black
10
193.05
20
-193.05
11
193.049
21
-193.049
0
LINE
8
Black
10
193.049
20
-193.049
11
193.048
21
-193.048
0
LINE
8
Black
10
193.048
20
-193.048
11
193.047
21
-193.047
0
LINE
8
Black
10
193.047
20
-193.047
11
193.045
21
-193.045
0
LINE
8
Black
10
193.045
20
-193.045
11
193.043
21
-193.043
0
LINE
8
Black
10
193.043
20
-193.043
11
193.04
21
-193.04
0
LINE
8
Black
10
193.04
20
-193.04
11
193.038
21
-193.038
0
LINE
8
Black
10
193.038
20
-193.038
11
193.035
21
-193.035
0
LINE
8
Black
10
193.035
20
-193.035
11
193.032
21
-193.032
0
LINE
8
Black
10
193.032
20
-193.032
11
193.028
21
-193.028
0
LINE
8
Black
10
193.028
20
-193.028
11
193.025
21
-193.025
0
LINE
8
Black
10
193.025
20
-193.025
11
193.021
21
-193.021
0
LINE
8
Black
10
193.021
20
-193.021
11
193.017
21
-193.017
0
LINE
8
Black
10
193.017
20
-193.017
11
193.013
21
-193.013
0
LINE
8
Black
10
193.013
20
-193.013
11
193.009
21
-193.009
0
LINE
8
Black
10
193.009
20
-193.009
11
193.004
21
-193.004
0
LINE
8
Black
10
193.004
20
-193.004
11
193
21
-193
0
LINE
8
Black
10
193
20
-193
11
185
21
-185
0
LINE
8
Black
10
185
20
-185
11
184.996
21
-184.996
0
LINE
8
Black
10
184.996
20
-184.996
11
184.991
21
-184.991
0
LINE
8
Black
10
184.991
20
-184.991
11
184.987
21
-184.987
0
LINE
8
Black
10
184.987
20
-184.987
11
184.983
21
-184.983
0
LINE
8
Black
10
184.983
20
-184.983
11
184.979
21
-184.979
0
LINE
8
Black
10
184.979
20
-184.979
11
184.975
21
-184.975
0
LINE
8
Black
10
184.975
20
-184.975
11
184.972
21
-184.972
0
LINE
8
Black
10
184.972
20
-184.972
11
184.968
21
-184.968
0
LINE
8
Black
10
184.968
20
-184.968
11
184.965
21
-184.965
0
LINE
8
Black
10
184.965
20
-184.965
11
184.962
21
-184.962
0
LINE
8
Black
10
184.962
20
-184.962
11
184.96
21
-184.96
0
LINE
8
Black
10
184.96
20
-184.96
11
184.957
21
-184.957
0
LINE
8
Black
10
184.957
20
-184.957
11
184.955
21
-184.955
0
LINE
8
Black
10
184.955
20
-184.955
11
184.953
21
-184.953
0
LINE
8
Black
10
184.953
20
-184.953
11
184.952
21
-184.952
0
LINE
8
Black
10
184.952
20
-184.952
11
184.951
21
-184.951
0
LINE
8
Black
10
184.951
20
-184.951
11
184.95
21
-184.95
0
LINE
8
Black
10
184.95
20
-184.95
11
184.951
21
-184.951
0
LINE
8
Black
10
184.951
20
-184.951
11
184.952
21
-184.952
0
LINE
8
Black
10
184.952
20
-184.952
11
184.953
21
-184.953
0
LINE
8
Black
10
184.953
20
-184.953
11
184.955
21
-184.955
0
LINE
8
Black
10
184.955
20
-184.955
11
184.957
21
-184.957
0
LINE
8
Black
10
184.957
20
-184.957
11
184.96
21
-184.96
0
LINE
8
Black
10
184.96
20
-184.96
11
184.962
21
-184.962
0
LINE
8
Black
10
184.962
20
-184.962
11
184.965
21
-184.965
0
LINE
8
Black
10
184.965
20
-184.965
11
184.968
21
-184.968
0
LINE
8
Black
10
184.968
20
-184.968
11
184.972
21
-184.972
0
LINE
8
Black
10
184.972
20
-184.972
11
184.975
21
-184.975
0
LINE
8
Black
10
184.975
20
-184.975
11
184.979
21
-184.979
0
LINE
8
Black
10
184.979
20
-184.979
11
184.983
21
-184.983
0
LINE
8
Black
10
184.983
20
-184.983
11
184.987
21
-184.987
0
LINE
8
Black
10
184.987
20
-184.987
11
184.991
21
-184.991
0
LINE
8
Black
10
184.991
20
-184.991
11
184.996
21
-184.996
0
LINE
8
Black
10
184.996
20
-184.996
11
185
21
-185
0
LINE
8
Black
10
185
20
-185
11
193
21
-193
0
LINE
8
Black
10
193
20
-193
11
193.004
21
-193.004
0
LINE
8
Black
10
111.004
20
-111.004
11
111.009
21
-111.009
0
LINE
8
Black
10
111.009
20
-111.009
11
111.013
21
-111.013
0
LINE
8
Black
10
111.013
20
-111.013
11
111.017
21
-111.017
0
LINE
8
Black
10
111.017
20
-111.017
11
111.021
21
-111.021
0
LINE
8
Black
10
111.021
20
-111.021
11
111.025
21
-111.025
0
LINE
8
Black
10
111.025
20
-111.025
11
111.028
21
-111.028
0
LINE
8
Black
10
111.028
20
-111.028
11
111.032
21
-111.032
0
LINE
8
Black
10
111.032
20
-111.032
11
111.035
21
-111.035
0
LINE
8
Black
10
111.035
20
-111.035
11
111.038
21
-111.038
0
LINE
8
Black
10
111.038
20
-111.038
11
111.04
21
-111.04
0
LINE
8
Black
10
111.04
20
-111.04
11
111.043
21
-111.043
0
LINE
8
Black
10
111.043
20
-111.043
11
111.045
21
-111.045
0
LINE
8
Black
10
111.045
20
-111.045
11
111.047
21
-111.047
0
LINE
8
Black
10
111.047
20
-111.047
11
111.048
21
-111.048
0
LINE
8
Black
10
111.048
20
-111.048
11
111.049
21
-111.049
0
LINE
8
Black
10
111.049
20
-111.049
11
111.05
21
-111.05
0
LINE
8
Black
10
111.05
20
-111.05
11
111.049
21
-111.049
0
LINE
8
Black
10
111.049
20
-111.049
11
111.048
21
-111.048
0
LINE
8
Black
10
111.048
20
-111.048
11
111.047
21
-111.047
0
LINE
8
Black
10
111.047
20
-111.047
11
111.045
21
-111.045
0
LINE
8
Black
10
111.045
20
-111.045
11
111.043
21
-111.043
0
LINE
8
Black
10
111.043
20
-111.043
11
111.04
21
-111.04
0
LINE
8
Black
10
111.04
20
-111.04
11
111.038
21
-111.038
0
LINE
8
Black
10
111.038
20
-111.038
11
111.035
21
-111.035
0
LINE
8
Black
10
111.035
20
-111.035
11
111.032
21
-111.032
0
LINE
8
Black
10
111.032
20
-111.032
11
111.028
21
-111.028
0
LINE
8
Black
10
111.028
20
-111.028
11
111.025
21
-111.025
0
LINE
8
Black
10
111.025
20
-111.025
11
111.021
21
-111.021
0
LINE
8
Black
10
111.021
20
-111.021
11
111.017
21
-111.017
0
LINE
8
Black
10
111.017
20
-111.017
11
111.013
21
-111.013
0
LINE
8
Black
10
111.013
20
-111.013
11
111.009
21
-111.009
0
LINE
8
Black
10
111.009
20
-111.009
11
111.004
21
-111.004
0
LINE
8
Black
10
111.004
20
-111.004
11
111
21
-111
0
LINE
8
Black
10
111
20
-111
11
103
21
-103
0
LINE
8
Black
10
103
20
-103
11
102.996
21
-102.996
0
LINE
8
Black
10
102.996
20
-102.996
11
102.991
21
-102.991
0
LINE
8
Black
10
102.991
20
-102.991
11
102.987
21
-102.987
0
LINE
8
Black
10
102.987
20
-102.987
11
102.983
21
-102.983
0
LINE
8
Black
10
102.983
20
-102.983
11
102.979
21
-102.979
0
LINE
8
Black
10
102.979
20
-102.979
11
102.975
21
-102.975
0
LINE
8
Black
10
102.975
20
-102.975
11
102.972
21
-102.972
0
LINE
8
Black
10
102.972
20
-102.972
11
102.968
21
-102.968
0
LINE
8
Black
10
102.968
20
-102.968
11
102.965
21
-102.965
0
LINE
8
Black
10
102.965
20
-102.965
11
102.962
21
-102.962
0
LINE
8
Black
10
102.962
20
-102.962
11
102.96
21
-102.96
0
LINE
8
Black
10
102.96
20
-102.96
11
102.957
21
-102.957
0
LINE
8
Black
10
102.957
20
-102.957
11
102.955
21
-102.955
0
LINE
8
Black
10
102.955
20
-102.955
11
102.953
21
-102.953
0
LINE
8
Black
10
102.953
20
-102.953
11
102.952
21
-102.952
0
LINE
8
Black
10
102.952
20
-102.952
11
102.951
21
-102.951
0
LINE
8
Black
10
102.951
20
-102.951
11
102.95
21
-102.95
0
LINE
8
Black
10
102.95
20
-102.95
11
102.951
21
-102.951
0
LINE
8
Black
10
102.951
20
-102.951
11
102.952
21
-102.952
0
LINE
8
Black
10
102.952
20
-102.952
11
102.953
21
-102.953
0
LINE
8
Black
10
102.953
20
-102.953
11
102.955
21
-102.955
0
LINE
8
Black
10
102.955
20
-102.955
11
102.957
21
-102.957
0
LINE
8
Black
10
102.957
20
-102.957
11
102.96
21
-102.96
0
LINE
8
Black
10
102.96
20
-102.96
11
102.962
21
-102.962
0
LINE
8
Black
10
102.962
20
-102.962
11
102.965
21
-102.965
0
LINE
8
Black
10
102.965
20
-102.965
11
102.968
21
-102.968
0
LINE
8
Black
10
102.968
20
-102.968
11
102.972
21
-102.972
0
LINE
8
Black
10
102.972
20
-102.972
11
102.975
21
-102.975
0
LINE
8
Black
10
102.975
20
-102.975
11
102.979
21
-102.979
0
LINE
8
Black
10
102.979
20
-102.979
11
102.983
21
-102.983
0
LINE
8
Black
10
102.983
20
-102.983
11
102.987
21
-102.987
0
LINE
8
Black
10
102.987
20
-102.987
11
102.991
21
-102.991
0
LINE
8
Black
10
102.991
20
-102.991
11
102.996
21
-102.996
0
LINE
8
Black
10
102.996
20
-102.996
11
103
21
-103
0
LINE
8
Black
10
103
20
-103
11
111
21
-111
0
LINE
8
Black
10
111
20
-111
11
111.004
21
-111.004
0
LINE
8
Black
10
58.0043
20
-58.0043
11
58.0087
21
-58.0087
0
LINE
8
Black
10
58.0087
20
-58.0087
11
58.0128
21
-58.0128
0
LINE
8
Black
10
58.0128
20
-58.0128
11
58.0171
21
-58.0171
0
LINE
8
Black
10
58.0171
20
-58.0171
11
58.0209
21
-58.0209
0
LINE
8
Black
10
58.0209
20
-58.0209
11
58.025
21
-58.025
0
LINE
8
Black
10
58.025
20
-58.025
11
58.0284
21
-58.0284
0
LINE
8
Black
10
58.0284
20
-58.0284
11
58.0321
21
-58.0321
0
LINE
8
Black
10
58.0321
20
-58.0321
11
58.035
21
-58.035
0
LINE
8
Black
10
58.035
20
-58.035
11
58.0383
21
-58.0383
0
LINE
8
Black
10
58.0383
20
-58.0383
11
58.0405
21
-58.0405
0
LINE
8
Black
10
58.0405
20
-58.0405
11
58.0433
21
-58.0433
0
LINE
8
Black
10
58.0433
20
-58.0433
11
58.0448
21
-58.0448
0
LINE
8
Black
10
58.0448
20
-58.0448
11
58.047
21
-58.047
0
LINE
8
Black
10
58.047
20
-58.047
11
58.0477
21
-58.0477
0
LINE
8
Black
10
58.0477
20
-58.0477
11
58.0492
21
-58.0492
0
LINE
8
Black
10
58.0492
20
-58.0492
11
58.05
21
-58.05
0
LINE
8
Black
10
58.05
20
-58.05
11
58.0492
21
-58.0492
0
LINE
8
Black
10
58.0492
20
-58.0492
11
58.0477
21
-58.0477
0
LINE
8
Black
10
58.0477
20
-58.0477
11
58.047
21
-58.047
0
LINE
8
Black
10
58.047
20
-58.047
11
58.0448
21
-58.0448
0
LINE
8
Black
10
58.0448
20
-58.0448
11
58.0433
21
-58.0433
0
LINE
8
Black
10
58.0433
20
-58.0433
11
58.0405
21
-58.0405
0
LINE
8
Black
10
58.0405
20
-58.0405
11
58.0383
21
-58.0383
0
LINE
8
Black
10
58.0383
20
-58.0383
11
58.035
21
-58.035
0
LINE
8
Black
10
58.035
20
-58.035
11
58.0321
21
-58.0321
0
LINE
8
Black
10
58.0321
20
-58.0321
11
58.0284
21
-58.0284
0
LINE
8
Black
10
58.0284
20
-58.0284
11
58.025
21
-58.025
0
LINE
8
Black
10
58.025
20
-58.025
11
58.0209
21
-58.0209
0
LINE
8
Black
10
58.0209
20
-58.0209
11
58.0171
21
-58.0171
0
LINE
8
Black
10
58.0171
20
-58.0171
11
58.0128
21
-58.0128
0
LINE
8
Black
10
58.0128
20
-58.0128
11
58.0087
21
-58.0087
0
LINE
8
Black
10
58.0087
20
-58.0087
11
58.0043
21
-58.0043
0
LINE
8
Black
10
58.0043
20
-58.0043
11
58
21
-58
0
LINE
8
Black
10
58
20
-58
11
50
21
-50
0
LINE
8
Black
10
50
20
-50
11
49.9957
21
-49.9957
0
LINE
8
Black
10
49.9957
20
-49.9957
11
49.9913
21
-49.9913
0
LINE
8
Black
10
49.9913
20
-49.9913
11
49.9872
21
-49.9872
0
LINE
8
Black
10
49.9872
20
-49.9872
11
49.9829
21
-49.9829
0
LINE
8
Black
10
49.9829
20
-49.9829
11
49.9791
21
-49.9791
0
LINE
8
Black
10
49.9791
20
-49.9791
11
49.975
21
-49.975
0
LINE
8
Black
10
49.975
20
-49.975
11
49.9716
21
-49.9716
0
LINE
8
Black
10
49.9716
20
-49.9716
11
49.9679
21
-49.9679
0
LINE
8
Black
10
49.9679
20
-49.9679
11
49.965
21
-49.965
0
LINE
8
Black
10
49.965
20
-49.965
11
49.9617
21
-49.9617
0
LINE
8
Black
10
49.9617
20
-49.9617
11
49.9595
21
-49.9595
0
LINE
8
Black
10
49.9595
20
-49.9595
11
49.9567
21
-49.9567
0
LINE
8
Black
10
49.9567
20
-49.9567
11
49.9552
21
-49.9552
0
LINE
8
Black
10
49.9552
20
-49.9552
11
49.953
21
-49.953
0
LINE
8
Black
10
49.953
20
-49.953
11
49.9523
21
-49.9523
0
LINE
8
Black
10
49.9523
20
-49.9523
11
49.9508
21
-49.9508
0
LINE
8
Black
10
49.9508
20
-49.9508
11
49.95
21
-49.95
0
LINE
8
Black
10
49.95
20
-49.95
11
49.9508
21
-49.9508
0
LINE
8
Black
10
49.9508
20
-49.9508
11
49.9523
21
-49.9523
0
LINE
8
Black
10
49.9523
20
-49.9523
11
49.953
21
-49.953
0
LINE
8
Black
10
49.953
20
-49.953
11
49.9552
21
-49.9552
0
LINE
8
Black
10
49.9552
20
-49.9552
11
49.9567
21
-49.9567
0
LINE
8
Black
10
49.9567
20
-49.9567
11
49.9595
21
-49.9595
0
LINE
8
Black
10
49.9595
20
-49.9595
11
49.9617
21
-49.9617
0
LINE
8
Black
10
49.9617
20
-49.9617
11
49.965
21
-49.965
0
LINE
8
Black
10
49.965
20
-49.965
11
49.9679
21
-49.9679
0
LINE
8
Black
10
49.9679
20
-49.9679
11
49.9716
21
-49.9716
0
LINE
8
Black
10
49.9716
20
-49.9716
11
49.975
21
-49.975
0
LINE
8
Black
10
49.975
20
-49.975
11
49.9791
21
-49.9791
0
LINE
8
Black
10
49.9791
20
-49.9791
11
49.9829
21
-49.9829
0
LINE
8
Black
10
49.9829
20
-49.9829
11
49.9872
21
-49.9872
0
LINE
8
Black
10
49.9872
20
-49.9872
11
49.9913
21
-49.9913
0
LINE
8
Black
10
49.9913
20
-49.9913
11
49.9957
21
-49.9957
0
LINE
8
Black
10
49.9957
20
-49.9957
11
50
21
-50
0
LINE
8
Black
10
50
20
-50
11
58
21
-58
0
LINE
8
Black
10
58
20
-58
11
58.0043
21
-58.0043
  0
ENDSEC
  0
EOF
