M48
;DRILL file {KiCad 0.201507280910+6003~25~ubuntu14.04.1-product} date Thu 20 Aug 2015 03:59:09 BST
;FORMAT={-:-/ absolute / inch / decimal}
FMAT,2
INCH,TZ
T1C0.024
T2C0.047
T3C0.130
%
G90
G05
M72
T1
X2.1026Y-5.6585
X2.1031Y-2.351
X2.1301Y-5.5876
X2.1301Y-5.7294
X2.1306Y-2.2801
X2.1306Y-2.4219
X2.201Y-5.5601
X2.201Y-5.7569
X2.2015Y-2.2526
X2.2015Y-2.4494
X2.2719Y-5.5876
X2.2719Y-5.7294
X2.2724Y-2.2801
X2.2724Y-2.4219
X2.2994Y-5.6585
X2.2999Y-2.351
X7.3001Y-2.351
X7.3001Y-5.6585
X7.3276Y-2.2801
X7.3276Y-2.4219
X7.3276Y-5.5876
X7.3276Y-5.7294
X7.3985Y-2.2526
X7.3985Y-2.4494
X7.3985Y-5.5601
X7.3985Y-5.7569
X7.4694Y-2.2801
X7.4694Y-2.4219
X7.4694Y-5.5876
X7.4694Y-5.7294
X7.4969Y-2.351
X7.4969Y-5.6585
T2
X1.8266Y-2.8066
X3.8216Y-3.6034
X5.3266Y-4.0184
X5.8816Y-4.0684
X6.4316Y-4.0784
X6.9766Y-4.0934
T3
X2.201Y-5.6585
X2.2015Y-2.351
X7.3985Y-2.351
X7.3985Y-5.6585
T0
M30
