G04 #@! TF.FileFunction,Profile,NP*
%FSLAX46Y46*%
G04 Gerber Fmt 4.6, Leading zero omitted, Abs format (unit mm)*
G04 Created by KiCad (PCBNEW 0.201507280910+6003~25~ubuntu14.04.1-product) date Thu 20 Aug 2015 04:30:47 BST*
%MOMM*%
G01*
G04 APERTURE LIST*
%ADD10C,0.100000*%
G04 APERTURE END LIST*
D10*
X185000000Y-135000000D02*
X193000000Y-135000000D01*
X193000000Y-135000000D02*
X193000000Y-138000000D01*
X193000000Y-138000000D02*
X185000000Y-138000000D01*
X185000000Y-138000000D02*
X185000000Y-135000000D01*
X185000000Y-105000000D02*
X185000000Y-102000000D01*
X193000000Y-105000000D02*
X185000000Y-105000000D01*
X193000000Y-102000000D02*
X193000000Y-105000000D01*
X185000000Y-102000000D02*
X193000000Y-102000000D01*
X103000000Y-102000000D02*
X111000000Y-102000000D01*
X111000000Y-102000000D02*
X111000000Y-105000000D01*
X111000000Y-105000000D02*
X103000000Y-105000000D01*
X103000000Y-105000000D02*
X103000000Y-102000000D01*
X50000000Y-102000000D02*
X58000000Y-102000000D01*
X58000000Y-135000000D02*
X58000000Y-138000000D01*
X50000000Y-138000000D02*
X50000000Y-135000000D01*
X58000000Y-138000000D02*
X50000000Y-138000000D01*
X50000000Y-135000000D02*
X58000000Y-135000000D01*
X103000000Y-138000000D02*
X103000000Y-135000000D01*
X111000000Y-138000000D02*
X103000000Y-138000000D01*
X111000000Y-135000000D02*
X111000000Y-138000000D01*
X103000000Y-135000000D02*
X111000000Y-135000000D01*
X58000000Y-102000000D02*
X58000000Y-105000000D01*
X58000000Y-105000000D02*
X50000000Y-105000000D01*
X50000000Y-105000000D02*
X50000000Y-102000000D01*
X41200000Y-68000000D02*
X38000000Y-68000000D01*
X47000000Y-62200000D02*
X47000000Y-60000000D01*
X41200000Y-68000000D02*
G75*
G03X47000000Y-62200000I0J5800000D01*
G01*
X47000000Y-49000000D02*
X47000000Y-60000000D01*
X196900000Y-49000000D02*
X47000000Y-49000000D01*
X196900000Y-62200000D02*
X196900000Y-49000000D01*
X202700000Y-68000000D02*
X205900000Y-68000000D01*
X196900000Y-62200000D02*
G75*
G03X202700000Y-68000000I5800000J0D01*
G01*
X205900000Y-135900000D02*
X205900000Y-68000000D01*
X202700000Y-135900000D02*
X205900000Y-135900000D01*
X196900000Y-141700000D02*
X196900000Y-154900000D01*
X202700000Y-135900000D02*
G75*
G03X196900000Y-141700000I0J-5800000D01*
G01*
X47000000Y-154900000D02*
X196900000Y-154900000D01*
X47000000Y-141700000D02*
X47000000Y-154900000D01*
X41300000Y-135900000D02*
X38000000Y-135900000D01*
X47000000Y-141700000D02*
G75*
G03X41200000Y-135900000I-5800000J0D01*
G01*
X38000000Y-68000000D02*
X38000000Y-135900000D01*
M02*
