M48
;DRILL file {KiCad 0.201507280910+6003~25~ubuntu14.04.1-product} date Thu 20 Aug 2015 03:53:47 BST
;FORMAT={-:-/ absolute / inch / decimal}
FMAT,2
INCH,TZ
T1C0.016
T2C0.024
T3C0.024
T4C0.025
T5C0.031
T6C0.035
T7C0.039
T8C0.047
T9C0.051
T10C0.059
T11C0.063
T12C0.067
T13C0.079
T14C0.130
%
G90
G05
M72
T1
X1.59Y-2.85
X1.62Y-3.5
X1.74Y-4.12
X1.7717Y-4.7244
X1.805Y-2.945
X1.94Y-3.155
X1.94Y-3.51
X1.99Y-2.09
X2.Y-2.57
X2.Y-2.81
X2.07Y-2.99
X2.1Y-3.28
X2.235Y-3.355
X2.26Y-4.24
X2.28Y-2.84
X2.295Y-3.175
X2.325Y-3.35
X2.36Y-2.09
X2.3622Y-5.315
X2.4Y-2.55
X2.455Y-3.175
X2.495Y-2.85
X2.5Y-2.4
X2.565Y-3.395
X2.57Y-3.77
X2.575Y-3.505
X2.58Y-4.14
X2.6Y-2.2
X2.61Y-2.88
X2.625Y-3.04
X2.655Y-3.505
X2.66Y-2.88
X2.675Y-3.04
X2.69Y-3.195
X2.695Y-3.085
X2.71Y-2.88
X2.75Y-2.05
X2.79Y-3.5
X2.815Y-3.13
X2.83Y-2.985
X2.87Y-2.89
X2.87Y-3.31
X2.9Y-2.3
X2.92Y-3.97
X2.93Y-3.295
X2.935Y-2.95
X2.95Y-2.05
X2.9528Y-4.7244
X2.9528Y-5.9055
X3.Y-2.5
X3.04Y-3.69
X3.045Y-3.345
X3.085Y-3.255
X3.1Y-2.25
X3.14Y-3.
X3.15Y-2.05
X3.28Y-3.97
X3.35Y-2.05
X3.37Y-2.97
X3.38Y-3.19
X3.425Y-3.475
X3.49Y-3.78
X3.5Y-3.22
X3.5433Y-5.315
X3.55Y-2.05
X3.56Y-3.05
X3.64Y-4.18
X3.685Y-2.715
X3.69Y-2.34
X3.69Y-2.565
X3.72Y-3.22
X3.74Y-3.66
X3.74Y-3.78
X3.75Y-2.05
X3.76Y-2.91
X3.78Y-3.53
X3.88Y-3.06
X3.96Y-3.84
X3.96Y-4.04
X4.01Y-3.625
X4.03Y-2.91
X4.09Y-3.22
X4.12Y-3.62
X4.1339Y-4.7244
X4.1339Y-5.9055
X4.14Y-3.295
X4.14Y-3.435
X4.17Y-2.77
X4.19Y-3.315
X4.19Y-3.485
X4.2Y-3.96
X4.24Y-3.06
X4.245Y-3.335
X4.245Y-3.53
X4.26Y-3.68
X4.29Y-2.165
X4.29Y-2.505
X4.295Y-3.375
X4.295Y-3.575
X4.31Y-2.63
X4.35Y-3.25
X4.37Y-2.94
X4.42Y-3.82
X4.42Y-3.98
X4.5Y-2.87
X4.52Y-2.63
X4.55Y-3.25
X4.55Y-3.45
X4.65Y-3.05
X4.7Y-2.87
X4.7244Y-5.315
X4.75Y-2.63
X4.75Y-3.65
X4.8Y-3.25
X4.9Y-2.44
X4.9Y-3.7
X4.99Y-3.94
X5.06Y-2.66
X5.06Y-2.88
X5.06Y-3.24
X5.06Y-3.54
X5.24Y-3.965
X5.24Y-4.275
X5.26Y-3.685
X5.315Y-4.7244
X5.315Y-5.9055
X5.43Y-3.845
X5.495Y-4.02
X5.5Y-3.245
X5.565Y-2.435
X5.565Y-2.665
X5.565Y-2.885
X5.59Y-3.555
X5.745Y-4.06
X5.77Y-3.89
X5.825Y-4.075
X5.825Y-4.275
X5.905Y-2.655
X5.9055Y-5.315
X5.915Y-2.865
X5.915Y-3.905
X5.955Y-3.24
X6.075Y-4.05
X6.135Y-3.565
X6.16Y-2.46
X6.295Y-4.09
X6.375Y-4.115
X6.375Y-4.28
X6.455Y-2.655
X6.46Y-3.92
X6.48Y-2.87
X6.49Y-3.22
X6.4961Y-4.7244
X6.4961Y-5.9055
X6.595Y-4.075
X6.655Y-4.135
X6.655Y-4.28
X6.69Y-3.555
X6.795Y-2.465
X6.86Y-3.905
X6.95Y-4.03
X6.98Y-2.66
X7.045Y-2.875
X7.065Y-3.245
X7.075Y-3.76
X7.0866Y-5.315
X7.225Y-2.455
X7.235Y-3.55
X7.6Y-2.1
X7.6772Y-4.7244
X7.75Y-2.9
X7.75Y-3.5
X7.75Y-4.1
T2
X2.1026Y-5.6585
X2.1031Y-2.351
X2.1301Y-5.5876
X2.1301Y-5.7294
X2.1306Y-2.2801
X2.1306Y-2.4219
X2.201Y-5.5601
X2.201Y-5.7569
X2.2015Y-2.2526
X2.2015Y-2.4494
X2.2719Y-5.5876
X2.2719Y-5.7294
X2.2724Y-2.2801
X2.2724Y-2.4219
X2.2994Y-5.6585
X2.2999Y-2.351
X7.3001Y-2.351
X7.3001Y-5.6585
X7.3276Y-2.2801
X7.3276Y-2.4219
X7.3276Y-5.5876
X7.3276Y-5.7294
X7.3985Y-2.2526
X7.3985Y-2.4494
X7.3985Y-5.5601
X7.3985Y-5.7569
X7.4694Y-2.2801
X7.4694Y-2.4219
X7.4694Y-5.5876
X7.4694Y-5.7294
X7.4969Y-2.351
X7.4969Y-5.6585
T3
X3.1Y-2.385
X3.2869Y-2.2431
X3.46Y-2.245
X3.855Y-2.165
X3.855Y-2.715
X4.03Y-2.165
X5.12Y-3.745
X5.69Y-3.69
X6.22Y-3.745
X6.76Y-3.735
X7.305Y-3.735
T4
X2.26Y-3.04
X2.26Y-3.09
X2.31Y-3.04
X2.31Y-3.09
X2.36Y-3.04
X2.36Y-3.09
X2.41Y-3.04
X2.41Y-3.09
X2.46Y-3.04
X2.46Y-3.09
T5
X1.8935Y-2.8656
X1.8935Y-2.9444
X3.8806Y-3.5365
X3.9594Y-3.5365
X5.3856Y-3.9515
X5.4644Y-3.9515
X5.9406Y-4.0015
X6.0194Y-4.0015
X6.4906Y-4.0115
X6.5694Y-4.0115
X7.0356Y-4.0265
X7.1144Y-4.0265
T6
X1.725Y-3.34
X1.825Y-3.34
X1.925Y-3.34
T7
X1.63Y-3.055
X1.63Y-3.17
X2.43Y-3.645
X2.56Y-3.06
X4.79Y-3.885
X4.79Y-3.98
X5.14Y-4.01
X5.75Y-3.98
X6.315Y-3.985
X6.86Y-3.98
X7.565Y-3.655
T8
X1.8266Y-2.8066
X3.8216Y-3.6034
X5.3266Y-4.0184
X5.8816Y-4.0684
X6.4316Y-4.0784
X6.9766Y-4.0934
T9
X4.8916Y-2.5676
X4.8916Y-2.7661
X4.8916Y-2.9645
X4.8916Y-3.5653
X5.1869Y-2.5676
X5.1869Y-2.7661
X5.1869Y-2.9645
X5.1869Y-3.5653
X5.4416Y-2.5676
X5.4416Y-2.7661
X5.4416Y-2.9645
X5.4416Y-3.5653
X5.7369Y-2.5676
X5.7369Y-2.7661
X5.7369Y-2.9645
X5.7369Y-3.5653
X5.9916Y-2.5676
X5.9916Y-2.7661
X5.9916Y-2.9645
X5.9916Y-3.5653
X6.2869Y-2.5676
X6.2869Y-2.7661
X6.2869Y-2.9645
X6.2869Y-3.5653
X6.5416Y-2.5676
X6.5416Y-2.7661
X6.5416Y-2.9645
X6.5416Y-3.5653
X6.8369Y-2.5676
X6.8369Y-2.7661
X6.8369Y-2.9645
X6.8369Y-3.5653
X7.0916Y-2.5676
X7.0916Y-2.7661
X7.0916Y-2.9645
X7.0916Y-3.5653
X7.3869Y-2.5676
X7.3869Y-2.7661
X7.3869Y-2.9645
X7.3869Y-3.5653
T10
X2.74Y-2.565
T11
X1.71Y-3.685
X1.71Y-3.785
X1.71Y-3.885
X2.11Y-3.685
X2.11Y-3.785
X2.11Y-3.885
X4.61Y-2.08
X4.61Y-2.18
X4.61Y-2.28
X5.01Y-2.08
X5.01Y-2.18
X5.01Y-2.28
X5.31Y-2.08
X5.31Y-2.18
X5.31Y-2.28
X5.71Y-2.08
X5.71Y-2.18
X5.71Y-2.28
X6.01Y-2.08
X6.01Y-2.18
X6.01Y-2.28
X6.41Y-2.08
X6.41Y-2.18
X6.41Y-2.28
X6.71Y-2.08
X6.71Y-2.18
X6.71Y-2.28
X7.11Y-2.08
X7.11Y-2.18
X7.11Y-2.28
T12
X2.64Y-2.465
X2.64Y-2.665
X2.84Y-2.465
X2.84Y-2.665
T13
X2.42Y-3.95
X2.72Y-3.95
X3.4672Y-3.95
X3.7669Y-3.95
T14
X2.201Y-5.6585
X2.2015Y-2.351
X7.3985Y-2.351
X7.3985Y-5.6585
T0
M30
