M48
;DRILL file {KiCad 0.201508190901+6103~28~ubuntu14.04.1-product} date Wed 19 Aug 2015 17:02:12 BST
;FORMAT={-:-/ absolute / inch / decimal}
FMAT,2
INCH,TZ
T1C0.016
T2C0.024
T3C0.025
T4C0.031
T5C0.035
T6C0.039
T7C0.051
T8C0.059
T9C0.063
T10C0.067
T11C0.079
%
G90
G05
M72
T1
X2.1Y-3.28
X2.235Y-3.355
X2.325Y-3.35
X2.565Y-3.395
X2.575Y-3.505
X2.61Y-2.88
X2.625Y-3.04
X2.655Y-3.505
X2.66Y-2.88
X2.675Y-3.04
X2.69Y-3.195
X2.695Y-3.085
X2.71Y-2.88
X2.815Y-3.13
X2.83Y-2.985
X2.87Y-3.31
X3.04Y-3.69
X3.085Y-3.255
X3.38Y-3.19
X4.01Y-3.625
X4.14Y-3.295
X4.14Y-3.435
X4.19Y-3.315
X4.19Y-3.485
X4.245Y-3.335
X4.245Y-3.53
X4.295Y-3.375
X4.295Y-3.575
X5.24Y-3.965
X5.24Y-4.275
X5.26Y-3.685
X5.825Y-4.075
X5.825Y-4.275
X6.375Y-4.115
X6.375Y-4.28
X6.655Y-4.135
X6.655Y-4.28
T2
X3.1Y-2.385
X3.2869Y-2.2431
X3.46Y-2.245
X3.855Y-2.165
X3.855Y-2.715
X4.03Y-2.165
X5.12Y-3.745
X5.69Y-3.69
X6.22Y-3.745
X6.76Y-3.735
X7.305Y-3.735
T3
X2.26Y-3.04
X2.26Y-3.09
X2.31Y-3.04
X2.31Y-3.09
X2.36Y-3.04
X2.36Y-3.09
X2.41Y-3.04
X2.41Y-3.09
X2.46Y-3.04
X2.46Y-3.09
T4
X1.8935Y-2.8656
X1.8935Y-2.9444
X3.8806Y-3.5365
X3.9594Y-3.5365
X5.3856Y-3.9515
X5.4644Y-3.9515
X5.9406Y-3.9915
X6.0194Y-3.9915
X6.4906Y-4.0115
X6.5694Y-4.0115
X7.0356Y-4.0265
X7.1144Y-4.0265
T5
X1.725Y-3.34
X1.825Y-3.34
X1.925Y-3.34
T6
X1.63Y-3.055
X1.63Y-3.17
X2.43Y-3.645
X2.56Y-3.06
X4.79Y-3.885
X4.79Y-3.98
X5.14Y-4.01
X5.75Y-3.98
X6.315Y-3.985
X6.86Y-3.98
X7.565Y-3.655
T7
X4.8916Y-2.5576
X4.8916Y-2.7561
X4.8916Y-2.9545
X4.8916Y-3.5553
X5.1869Y-2.5576
X5.1869Y-2.7561
X5.1869Y-2.9545
X5.1869Y-3.5553
X5.4416Y-2.5576
X5.4416Y-2.7561
X5.4416Y-2.9545
X5.4416Y-3.5553
X5.7369Y-2.5576
X5.7369Y-2.7561
X5.7369Y-2.9545
X5.7369Y-3.5553
X5.9916Y-2.5576
X5.9916Y-2.7561
X5.9916Y-2.9545
X5.9916Y-3.5553
X6.2869Y-2.5576
X6.2869Y-2.7561
X6.2869Y-2.9545
X6.2869Y-3.5553
X6.5416Y-2.5576
X6.5416Y-2.7561
X6.5416Y-2.9545
X6.5416Y-3.5553
X6.8369Y-2.5576
X6.8369Y-2.7561
X6.8369Y-2.9545
X6.8369Y-3.5553
X7.0916Y-2.5576
X7.0916Y-2.7561
X7.0916Y-2.9545
X7.0916Y-3.5553
X7.3869Y-2.5576
X7.3869Y-2.7561
X7.3869Y-2.9545
X7.3869Y-3.5553
T8
X2.74Y-2.565
T9
X1.71Y-3.685
X1.71Y-3.785
X1.71Y-3.885
X2.11Y-3.685
X2.11Y-3.785
X2.11Y-3.885
X4.61Y-2.08
X4.61Y-2.18
X4.61Y-2.28
X5.01Y-2.08
X5.01Y-2.18
X5.01Y-2.28
X5.31Y-2.08
X5.31Y-2.18
X5.31Y-2.28
X5.71Y-2.08
X5.71Y-2.18
X5.71Y-2.28
X6.01Y-2.08
X6.01Y-2.18
X6.01Y-2.28
X6.41Y-2.08
X6.41Y-2.18
X6.41Y-2.28
X6.71Y-2.08
X6.71Y-2.18
X6.71Y-2.28
X7.11Y-2.08
X7.11Y-2.18
X7.11Y-2.28
T10
X2.64Y-2.465
X2.64Y-2.665
X2.84Y-2.465
X2.84Y-2.665
T11
X2.42Y-3.95
X2.72Y-3.95
X3.4672Y-3.95
X3.7669Y-3.95
T0
M30
