<?xml version="1.0" encoding="UTF-8" standalone="no"?>
<!-- Created with Inkscape (http://www.inkscape.org/) -->

<svg
   xmlns:dc="http://purl.org/dc/elements/1.1/"
   xmlns:cc="http://creativecommons.org/ns#"
   xmlns:rdf="http://www.w3.org/1999/02/22-rdf-syntax-ns#"
   xmlns:svg="http://www.w3.org/2000/svg"
   xmlns="http://www.w3.org/2000/svg"
   xmlns:sodipodi="http://sodipodi.sourceforge.net/DTD/sodipodi-0.dtd"
   xmlns:inkscape="http://www.inkscape.org/namespaces/inkscape"
   width="1052.3622"
   height="744.09448"
   id="svg2"
   version="1.1"
   inkscape:version="0.48.4 r9939"
   sodipodi:docname="New document 1">
  <defs
     id="defs4" />
  <sodipodi:namedview
     id="base"
     pagecolor="#ffffff"
     bordercolor="#666666"
     borderopacity="1.0"
     inkscape:pageopacity="0.0"
     inkscape:pageshadow="2"
     inkscape:zoom="1"
     inkscape:cx="458.06329"
     inkscape:cy="391.66867"
     inkscape:document-units="px"
     inkscape:current-layer="layer1"
     showgrid="false"
     inkscape:window-width="1278"
     inkscape:window-height="779"
     inkscape:window-x="0"
     inkscape:window-y="19"
     inkscape:window-maximized="0" />
  <metadata
     id="metadata7">
    <rdf:RDF>
      <cc:Work
         rdf:about="">
        <dc:format>image/svg+xml</dc:format>
        <dc:type
           rdf:resource="http://purl.org/dc/dcmitype/StillImage" />
        <dc:title></dc:title>
      </cc:Work>
    </rdf:RDF>
  </metadata>
  <g
     inkscape:label="Layer 1"
     inkscape:groupmode="layer"
     id="layer1"
     transform="translate(0,-308.26766)">
    <rect
       style="fill:#006300;fill-opacity:1;stroke:#000000;stroke-width:1.52715898;stroke-miterlimit:4;stroke-opacity:1;stroke-dasharray:none"
       id="rect3928"
       width="118.47485"
       height="119.07605"
       x="586.34943"
       y="701.00452"
       rx="14.549541"
       ry="16.029469" />
    <g
       id="g4134"
       transform="translate(10,0)">
      <rect
         y="501.987"
         x="196.73395"
         height="122.65294"
         width="122.65294"
         id="rect2985"
         style="fill:none;stroke:#ff0000;stroke-width:1.36281037;stroke-miterlimit:4;stroke-opacity:1;stroke-dasharray:none" />
      <path
         transform="matrix(3.5425095,0,0,3.5425095,100.54526,312.66308)"
         d="m 56.071429,70.755035 c 0,6.410448 -5.196694,11.607143 -11.607142,11.607143 -6.410448,0 -11.607143,-5.196695 -11.607143,-11.607143 0,-6.410447 5.196695,-11.607142 11.607143,-11.607142 6.410448,0 11.607142,5.196695 11.607142,11.607142 z"
         sodipodi:ry="11.607142"
         sodipodi:rx="11.607142"
         sodipodi:cy="70.755035"
         sodipodi:cx="44.464287"
         id="path3809"
         style="fill:none;stroke:#000000;stroke-width:0.5;stroke-miterlimit:4;stroke-opacity:1;stroke-dasharray:none"
         sodipodi:type="arc" />
    </g>
    <g
       id="g4138"
       transform="translate(-10,0)">
      <rect
         y="501.987"
         x="348.42358"
         height="122.65294"
         width="122.65294"
         id="rect2985-3"
         style="fill:none;stroke:#008200;stroke-width:1.36281037;stroke-miterlimit:4;stroke-opacity:1;stroke-dasharray:none" />
      <path
         transform="matrix(3.5425095,0,0,3.5425095,252.2349,312.66308)"
         d="m 56.071429,70.755035 c 0,6.410448 -5.196694,11.607143 -11.607142,11.607143 -6.410448,0 -11.607143,-5.196695 -11.607143,-11.607143 0,-6.410447 5.196695,-11.607142 11.607143,-11.607142 6.410448,0 11.607142,5.196695 11.607142,11.607142 z"
         sodipodi:ry="11.607142"
         sodipodi:rx="11.607142"
         sodipodi:cy="70.755035"
         sodipodi:cx="44.464287"
         id="path3809-7"
         style="fill:none;stroke:#000000;stroke-width:0.5;stroke-miterlimit:4;stroke-opacity:1;stroke-dasharray:none"
         sodipodi:type="arc" />
    </g>
    <g
       id="g4142"
       transform="translate(-30,0)">
      <rect
         y="501.987"
         x="500.11322"
         height="122.65294"
         width="122.65294"
         id="rect2985-3-4"
         style="fill:none;stroke:#0000ff;stroke-width:1.36281037;stroke-miterlimit:4;stroke-opacity:1;stroke-dasharray:none" />
      <path
         transform="matrix(3.5425095,0,0,3.5425095,403.92453,312.66308)"
         d="m 56.071429,70.755035 c 0,6.410448 -5.196694,11.607143 -11.607142,11.607143 -6.410448,0 -11.607143,-5.196695 -11.607143,-11.607143 0,-6.410447 5.196695,-11.607142 11.607143,-11.607142 6.410448,0 11.607142,5.196695 11.607142,11.607142 z"
         sodipodi:ry="11.607142"
         sodipodi:rx="11.607142"
         sodipodi:cy="70.755035"
         sodipodi:cx="44.464287"
         id="path3809-7-7"
         style="fill:none;stroke:#000000;stroke-width:0.5;stroke-miterlimit:4;stroke-opacity:1;stroke-dasharray:none"
         sodipodi:type="arc" />
    </g>
    <g
       id="g4146"
       transform="translate(-50,0)">
      <rect
         y="501.987"
         x="651.80292"
         height="122.65294"
         width="122.65294"
         id="rect2985-3-4-5"
         style="fill:none;stroke:#ababab;stroke-width:1.36281037;stroke-miterlimit:4;stroke-opacity:1;stroke-dasharray:none" />
      <path
         transform="matrix(3.5425095,0,0,3.5425095,555.61424,312.66308)"
         d="m 56.071429,70.755035 c 0,6.410448 -5.196694,11.607143 -11.607142,11.607143 -6.410448,0 -11.607143,-5.196695 -11.607143,-11.607143 0,-6.410447 5.196695,-11.607142 11.607143,-11.607142 6.410448,0 11.607142,5.196695 11.607142,11.607142 z"
         sodipodi:ry="11.607142"
         sodipodi:rx="11.607142"
         sodipodi:cy="70.755035"
         sodipodi:cx="44.464287"
         id="path3809-7-7-8"
         style="fill:none;stroke:#000000;stroke-width:0.5;stroke-miterlimit:4;stroke-opacity:1;stroke-dasharray:none"
         sodipodi:type="arc" />
    </g>
    <g
       id="g4150"
       transform="translate(50,0)">
      <rect
         y="712.49261"
         x="207.19832"
         height="131.07285"
         width="99.190269"
         id="rect3865"
         style="fill:none;stroke:#000000;stroke-width:1.77125478;stroke-miterlimit:4;stroke-opacity:1;stroke-dasharray:none" />
      <rect
         ry="17.712547"
         rx="17.712547"
         y="726.40967"
         x="221.74794"
         height="102.47974"
         width="71.48278"
         id="rect3867"
         style="fill:none;stroke:#000000;stroke-width:1.77125478;stroke-miterlimit:4;stroke-opacity:1;stroke-dasharray:none" />
      <text
         sodipodi:linespacing="125%"
         id="text3869"
         y="767.90759"
         x="248.94936"
         style="font-size:70.85018921px;font-style:normal;font-variant:normal;font-weight:bold;font-stretch:normal;line-height:125%;letter-spacing:0px;word-spacing:0px;fill:#000000;fill-opacity:1;stroke:none;font-family:Impact;-inkscape-font-specification:Impact Bold"
         xml:space="preserve"><tspan
           style="font-size:35.4250946px"
           y="767.90759"
           x="248.94936"
           id="tspan3871"
           sodipodi:role="line">1</tspan><tspan
           style="font-size:35.4250946px"
           id="tspan3873"
           y="812.18896"
           x="248.94936"
           sodipodi:role="line">0</tspan></text>
    </g>
    <path
       sodipodi:type="arc"
       style="fill:#ff0000;fill-opacity:1;stroke:#000000;stroke-width:0.5;stroke-miterlimit:4;stroke-opacity:1;stroke-dasharray:none"
       id="path3875"
       sodipodi:cx="178.03938"
       sodipodi:cy="134.89113"
       sodipodi:rx="3.0304577"
       sodipodi:ry="3.0304577"
       d="m 181.06984,134.89113 a 3.0304577,3.0304577 0 1 1 -6.06091,0 3.0304577,3.0304577 0 1 1 6.06091,0 z"
       transform="matrix(3.5425095,0,0,3.5425095,-158.15299,265.11024)" />
    <text
       xml:space="preserve"
       style="font-size:42.51011276px;font-style:normal;font-variant:normal;font-weight:bold;font-stretch:normal;text-align:center;line-height:86.00000143%;letter-spacing:0px;word-spacing:0px;text-anchor:middle;fill:#000000;fill-opacity:1;stroke:none;font-family:Impact;-inkscape-font-specification:Impact Bold"
       x="476.35977"
       y="796.6405"
       id="text3877"
       sodipodi:linespacing="86.000001%"><tspan
         sodipodi:role="line"
         id="tspan3879"
         x="476.35977"
         y="796.6405">ARM/</tspan><tspan
         sodipodi:role="line"
         x="476.35977"
         y="833.19922"
         id="tspan3881">DISARM</tspan></text>
    <text
       xml:space="preserve"
       style="font-size:42.51011276px;font-style:normal;font-variant:normal;font-weight:bold;font-stretch:normal;line-height:125%;letter-spacing:0px;word-spacing:0px;fill:#000000;fill-opacity:1;stroke:none;font-family:Impact;-inkscape-font-specification:Impact Bold"
       x="220.06477"
       y="673.1366"
       id="text3883"
       sodipodi:linespacing="125%"><tspan
         sodipodi:role="line"
         id="tspan3885"
         x="220.06477"
         y="673.1366">CH1</tspan></text>
    <text
       xml:space="preserve"
       style="font-size:42.51011276px;font-style:normal;font-variant:normal;font-weight:bold;font-stretch:normal;line-height:125%;letter-spacing:0px;word-spacing:0px;fill:#000000;fill-opacity:1;stroke:none;font-family:Impact;-inkscape-font-specification:Impact Bold"
       x="356.86877"
       y="670.49194"
       id="text3883-3"
       sodipodi:linespacing="125%"><tspan
         sodipodi:role="line"
         id="tspan3885-2"
         x="356.86877"
         y="670.49194">CH2</tspan></text>
    <text
       xml:space="preserve"
       style="font-size:42.51011276px;font-style:normal;font-variant:normal;font-weight:bold;font-stretch:normal;line-height:125%;letter-spacing:0px;word-spacing:0px;fill:#000000;fill-opacity:1;stroke:none;font-family:Impact;-inkscape-font-specification:Impact Bold"
       x="484.82422"
       y="671.49194"
       id="text3883-4"
       sodipodi:linespacing="125%"><tspan
         sodipodi:role="line"
         id="tspan3885-23"
         x="484.82422"
         y="671.49194">CH3</tspan></text>
    <text
       xml:space="preserve"
       style="font-size:42.51011276px;font-style:normal;font-variant:normal;font-weight:bold;font-stretch:normal;line-height:125%;letter-spacing:0px;word-spacing:0px;fill:#000000;fill-opacity:1;stroke:none;font-family:Impact;-inkscape-font-specification:Impact Bold"
       x="612.69458"
       y="669.49194"
       id="text3883-8"
       sodipodi:linespacing="125%"><tspan
         sodipodi:role="line"
         id="tspan3885-7"
         x="612.69458"
         y="669.49194">CH4</tspan></text>
    <path
       sodipodi:type="arc"
       style="fill:#006300;fill-opacity:1;stroke:#000000;stroke-width:0.5;stroke-miterlimit:4;stroke-opacity:1;stroke-dasharray:none"
       id="path3926"
       sodipodi:cx="230.53572"
       sodipodi:cy="135.75504"
       sodipodi:rx="11.607142"
       sodipodi:ry="11.607142"
       d="m 242.14286,135.75504 a 11.607142,11.607142 0 1 1 -23.21428,0 11.607142,11.607142 0 1 1 23.21428,0 z"
       transform="matrix(3.5425095,0,0,3.5425095,-171.25099,280.86379)" />
    <text
       xml:space="preserve"
       style="font-size:70.85018921px;font-style:normal;font-variant:normal;font-weight:bold;font-stretch:normal;line-height:125%;letter-spacing:0px;word-spacing:0px;fill:#000000;fill-opacity:1;stroke:none;font-family:Impact;-inkscape-font-specification:Impact Bold"
       x="581.02618"
       y="871.21558"
       id="text3930"
       sodipodi:linespacing="125%"><tspan
         sodipodi:role="line"
         id="tspan3932"
         x="581.02618"
         y="871.21558"
         style="font-size:42.51011276px">CHARGE</tspan></text>
    <path
       sodipodi:type="arc"
       style="fill:#ff0000;fill-opacity:1;stroke:#000000;stroke-width:0.5;stroke-miterlimit:4;stroke-opacity:1;stroke-dasharray:none"
       id="path3875-0"
       sodipodi:cx="178.03938"
       sodipodi:cy="134.89113"
       sodipodi:rx="3.0304577"
       sodipodi:ry="3.0304577"
       d="m 181.06984,134.89113 a 3.0304577,3.0304577 0 1 1 -6.06091,0 3.0304577,3.0304577 0 1 1 6.06091,0 z"
       transform="matrix(3.5425095,0,0,3.5425095,-322.58479,180.8604)" />
    <path
       sodipodi:type="arc"
       style="fill:#00ff00;fill-opacity:1;stroke:#000000;stroke-width:0.5;stroke-miterlimit:4;stroke-opacity:1;stroke-dasharray:none"
       id="path3875-1"
       sodipodi:cx="178.03938"
       sodipodi:cy="134.89113"
       sodipodi:rx="3.0304577"
       sodipodi:ry="3.0304577"
       d="m 181.06984,134.89113 a 3.0304577,3.0304577 0 1 1 -6.06091,0 3.0304577,3.0304577 0 1 1 6.06091,0 z"
       transform="matrix(3.5425095,0,0,3.5425095,-186.62939,177.8604)" />
    <path
       sodipodi:type="arc"
       style="fill:#0000ff;fill-opacity:1;stroke:#000000;stroke-width:0.5;stroke-miterlimit:4;stroke-opacity:1;stroke-dasharray:none"
       id="path3875-1-3"
       sodipodi:cx="178.03938"
       sodipodi:cy="134.89113"
       sodipodi:rx="3.0304577"
       sodipodi:ry="3.0304577"
       d="m 181.06984,134.89113 a 3.0304577,3.0304577 0 1 1 -6.06091,0 3.0304577,3.0304577 0 1 1 6.06091,0 z"
       transform="matrix(3.5425095,0,0,3.5425095,-54.372277,180.1256)" />
    <path
       sodipodi:type="arc"
       style="fill:#ffffff;fill-opacity:1;stroke:#000000;stroke-width:0.5;stroke-miterlimit:4;stroke-opacity:1;stroke-dasharray:none"
       id="path3875-1-3-6"
       sodipodi:cx="178.03938"
       sodipodi:cy="134.89113"
       sodipodi:rx="3.0304577"
       sodipodi:ry="3.0304577"
       d="m 181.06984,134.89113 a 3.0304577,3.0304577 0 1 1 -6.06091,0 3.0304577,3.0304577 0 1 1 6.06091,0 z"
       transform="matrix(3.5425095,0,0,3.5425095,72.48598,176.3544)" />
    <rect
       style="fill:none;stroke:#000000;stroke-width:1.57848275;stroke-miterlimit:4;stroke-opacity:1;stroke-dasharray:none"
       id="rect3995"
       width="636.2168"
       height="423.61838"
       x="148.28821"
       y="481.04578"
       rx="15.544563"
       ry="16.028805" />
    <rect
       style="fill:#006300;fill-opacity:1;stroke:#000000;stroke-width:1.77125478;stroke-miterlimit:4;stroke-opacity:1;stroke-dasharray:none"
       id="rect3928-2"
       width="144.23074"
       height="131.57892"
       x="1639.4269"
       y="712.95294"
       rx="17.712547"
       ry="17.712547" />
    <rect
       style="fill:none;stroke:#ff0000;stroke-width:1.77125478;stroke-miterlimit:4;stroke-opacity:1;stroke-dasharray:none"
       id="rect2985-8"
       width="159.41293"
       height="159.41293"
       x="1232.9067"
       y="500.38187" />
    <rect
       style="fill:none;stroke:#008200;stroke-width:1.77125478;stroke-miterlimit:4;stroke-opacity:1;stroke-dasharray:none"
       id="rect2985-3-7"
       width="159.41293"
       height="159.41293"
       x="1396.8743"
       y="502.15311" />
    <path
       sodipodi:type="arc"
       style="fill:none;stroke:#000000;stroke-width:0.5;stroke-miterlimit:4;stroke-opacity:1;stroke-dasharray:none"
       id="path3809-73"
       sodipodi:cx="44.464287"
       sodipodi:cy="70.755035"
       sodipodi:rx="11.607142"
       sodipodi:ry="11.607142"
       d="m 56.071429,70.755035 a 11.607142,11.607142 0 1 1 -23.214285,0 11.607142,11.607142 0 1 1 23.214285,0 z"
       transform="matrix(3.5425095,0,0,3.5425095,1159.0201,323.74455)" />
    <path
       sodipodi:type="arc"
       style="fill:none;stroke:#000000;stroke-width:0.5;stroke-miterlimit:4;stroke-opacity:1;stroke-dasharray:none"
       id="path3809-7-2"
       sodipodi:cx="44.464287"
       sodipodi:cy="70.755035"
       sodipodi:rx="11.607142"
       sodipodi:ry="11.607142"
       d="m 56.071429,70.755035 a 11.607142,11.607142 0 1 1 -23.214285,0 11.607142,11.607142 0 1 1 23.214285,0 z"
       transform="matrix(3.5425095,0,0,3.5425095,1321.596,330.19699)" />
    <g
       id="g4116"
       transform="matrix(3.5425095,0,0,3.5425095,812.20119,-244.35091)">
      <rect
         y="284.94171"
         x="120.40204"
         height="45"
         width="45"
         id="rect2985-3-4-51"
         style="fill:none;stroke:#0000ff;stroke-width:0.5;stroke-miterlimit:4;stroke-opacity:1;stroke-dasharray:none" />
      <path
         transform="translate(99.22347,237.1867)"
         d="m 56.071429,70.755035 c 0,6.410448 -5.196694,11.607143 -11.607142,11.607143 -6.410448,0 -11.607143,-5.196695 -11.607143,-11.607143 0,-6.410447 5.196695,-11.607142 11.607143,-11.607142 6.410448,0 11.607142,5.196695 11.607142,11.607142 z"
         sodipodi:ry="11.607142"
         sodipodi:rx="11.607142"
         sodipodi:cy="70.755035"
         sodipodi:cx="44.464287"
         id="path3809-7-7-9"
         style="fill:none;stroke:#000000;stroke-width:0.5;stroke-miterlimit:4;stroke-opacity:1;stroke-dasharray:none"
         sodipodi:type="arc" />
    </g>
    <g
       id="g4120"
       transform="matrix(3.5425095,0,0,3.5425095,812.20119,-244.35091)">
      <rect
         y="283.8703"
         x="165.3306"
         height="45"
         width="45"
         id="rect2985-3-4-5-8"
         style="fill:none;stroke:#ababab;stroke-width:0.5;stroke-miterlimit:4;stroke-opacity:1;stroke-dasharray:none" />
      <path
         transform="translate(143.86632,236.25812)"
         d="m 56.071429,70.755035 c 0,6.410448 -5.196694,11.607143 -11.607142,11.607143 -6.410448,0 -11.607143,-5.196695 -11.607143,-11.607143 0,-6.410447 5.196695,-11.607142 11.607143,-11.607142 6.410448,0 11.607142,5.196695 11.607142,11.607142 z"
         sodipodi:ry="11.607142"
         sodipodi:rx="11.607142"
         sodipodi:cy="70.755035"
         sodipodi:cx="44.464287"
         id="path3809-7-7-8-4"
         style="fill:none;stroke:#000000;stroke-width:0.5;stroke-miterlimit:4;stroke-opacity:1;stroke-dasharray:none"
         sodipodi:type="arc" />
    </g>
    <rect
       style="fill:none;stroke:#000000;stroke-width:1.77125478;stroke-miterlimit:4;stroke-opacity:1;stroke-dasharray:none"
       id="rect3865-7"
       width="99.190269"
       height="131.07285"
       x="1588.1698"
       y="540.10846" />
    <rect
       style="fill:none;stroke:#000000;stroke-width:1.77125478;stroke-miterlimit:4;stroke-opacity:1;stroke-dasharray:none"
       id="rect3867-5"
       width="71.48278"
       height="102.47974"
       x="1602.7194"
       y="554.02551"
       rx="17.712547"
       ry="17.712547" />
    <text
       xml:space="preserve"
       style="font-size:70.85018921px;font-style:normal;font-variant:normal;font-weight:bold;font-stretch:normal;line-height:125%;letter-spacing:0px;word-spacing:0px;fill:#000000;fill-opacity:1;stroke:none;font-family:Impact;-inkscape-font-specification:Impact Bold"
       x="1629.9208"
       y="595.5235"
       id="text3869-9"
       sodipodi:linespacing="125%"><tspan
         sodipodi:role="line"
         id="tspan3871-0"
         x="1629.9208"
         y="595.5235"
         style="font-size:35.4250946px">1</tspan><tspan
         sodipodi:role="line"
         x="1629.9208"
         y="639.80487"
         id="tspan3873-2"
         style="font-size:35.4250946px">0</tspan></text>
    <path
       sodipodi:type="arc"
       style="fill:#ff0000;fill-opacity:1;stroke:#000000;stroke-width:0.5;stroke-miterlimit:4;stroke-opacity:1;stroke-dasharray:none"
       id="path3875-6"
       sodipodi:cx="178.03938"
       sodipodi:cy="134.89113"
       sodipodi:rx="3.0304577"
       sodipodi:ry="3.0304577"
       d="m 181.06984,134.89113 a 3.0304577,3.0304577 0 1 1 -6.06091,0 3.0304577,3.0304577 0 1 1 6.06091,0 z"
       transform="matrix(3.5425095,0,0,3.5425095,1105.1182,85.641153)" />
    <text
       xml:space="preserve"
       style="font-size:42.51011276px;font-style:normal;font-variant:normal;font-weight:bold;font-stretch:normal;text-align:center;line-height:86.00000143%;letter-spacing:0px;word-spacing:0px;text-anchor:middle;fill:#000000;fill-opacity:1;stroke:none;font-family:Impact;-inkscape-font-specification:Impact Bold"
       x="1696.2594"
       y="617.17145"
       id="text3877-8"
       sodipodi:linespacing="86.000001%"><tspan
         sodipodi:role="line"
         id="tspan3879-9"
         x="1696.2594"
         y="617.17145"
         style="text-align:start;text-anchor:start">ARM/</tspan><tspan
         sodipodi:role="line"
         x="1696.2594"
         y="653.73016"
         id="tspan3881-7"
         style="text-align:start;text-anchor:start">DISARM</tspan></text>
    <text
       xml:space="preserve"
       style="font-size:42.51011276px;font-style:normal;font-variant:normal;font-weight:bold;font-stretch:normal;line-height:125%;letter-spacing:0px;word-spacing:0px;fill:#000000;fill-opacity:1;stroke:none;font-family:Impact;-inkscape-font-specification:Impact Bold"
       x="1260.1254"
       y="487.49753"
       id="text3883-32"
       sodipodi:linespacing="125%"><tspan
         sodipodi:role="line"
         id="tspan3885-1"
         x="1260.1254"
         y="487.49753">CH1</tspan></text>
    <text
       xml:space="preserve"
       style="font-size:42.51011276px;font-style:normal;font-variant:normal;font-weight:bold;font-stretch:normal;line-height:125%;letter-spacing:0px;word-spacing:0px;fill:#000000;fill-opacity:1;stroke:none;font-family:Impact;-inkscape-font-specification:Impact Bold"
       x="1459.3545"
       y="487.85281"
       id="text3883-3-7"
       sodipodi:linespacing="125%"><tspan
         sodipodi:role="line"
         id="tspan3885-2-7"
         x="1459.3545"
         y="487.85281">CH2</tspan></text>
    <path
       sodipodi:type="arc"
       style="fill:#006300;fill-opacity:1;stroke:#000000;stroke-width:0.5;stroke-miterlimit:4;stroke-opacity:1;stroke-dasharray:none"
       id="path3926-0"
       sodipodi:cx="230.53572"
       sodipodi:cy="135.75504"
       sodipodi:rx="11.607142"
       sodipodi:ry="11.607142"
       d="m 242.14286,135.75504 a 11.607142,11.607142 0 1 1 -23.21428,0 11.607142,11.607142 0 1 1 23.21428,0 z"
       transform="matrix(3.5425095,0,0,3.5425095,891.70439,296.69023)" />
    <text
       xml:space="preserve"
       style="font-size:70.85018921px;font-style:normal;font-variant:normal;font-weight:bold;font-stretch:normal;line-height:125%;letter-spacing:0px;word-spacing:0px;fill:#000000;fill-opacity:1;stroke:none;font-family:Impact;-inkscape-font-specification:Impact Bold"
       x="1643.9816"
       y="887.04199"
       id="text3930-5"
       sodipodi:linespacing="125%"><tspan
         sodipodi:role="line"
         id="tspan3932-7"
         x="1643.9816"
         y="887.04199"
         style="font-size:42.51011276px">CHARGE</tspan></text>
    <path
       sodipodi:type="arc"
       style="fill:#ff0000;fill-opacity:1;stroke:#000000;stroke-width:0.5;stroke-miterlimit:4;stroke-opacity:1;stroke-dasharray:none"
       id="path3875-0-8"
       sodipodi:cx="178.03938"
       sodipodi:cy="134.89113"
       sodipodi:rx="3.0304577"
       sodipodi:ry="3.0304577"
       d="m 181.06984,134.89113 a 3.0304577,3.0304577 0 1 1 -6.06091,0 3.0304577,3.0304577 0 1 1 6.06091,0 z"
       transform="matrix(3.5425095,0,0,3.5425095,717.47589,-4.7786866)" />
    <path
       sodipodi:type="arc"
       style="fill:#00ff00;fill-opacity:1;stroke:#000000;stroke-width:0.5;stroke-miterlimit:4;stroke-opacity:1;stroke-dasharray:none"
       id="path3875-1-2"
       sodipodi:cx="178.03938"
       sodipodi:cy="134.89113"
       sodipodi:rx="3.0304577"
       sodipodi:ry="3.0304577"
       d="m 181.06984,134.89113 a 3.0304577,3.0304577 0 1 1 -6.06091,0 3.0304577,3.0304577 0 1 1 6.06091,0 z"
       transform="matrix(3.5425095,0,0,3.5425095,809.58109,-4.7786866)" />
    <g
       id="g4124"
       transform="matrix(3.5425095,0,0,3.5425095,812.20119,-463.98654)">
      <text
         sodipodi:linespacing="125%"
         id="text3883-4-1"
         y="342.69067"
         x="128.68216"
         style="font-size:12px;font-style:normal;font-variant:normal;font-weight:bold;font-stretch:normal;line-height:125%;letter-spacing:0px;word-spacing:0px;fill:#000000;fill-opacity:1;stroke:none;font-family:Impact;-inkscape-font-specification:Impact Bold"
         xml:space="preserve"><tspan
           y="342.69067"
           x="128.68216"
           id="tspan3885-23-7"
           sodipodi:role="line">CH3</tspan></text>
      <path
         transform="translate(-23.52534,203.98497)"
         d="m 181.06984,134.89113 c 0,1.67367 -1.35678,3.03046 -3.03046,3.03046 -1.67367,0 -3.03045,-1.35679 -3.03045,-3.03046 0,-1.67368 1.35678,-3.03046 3.03045,-3.03046 1.67368,0 3.03046,1.35678 3.03046,3.03046 z"
         sodipodi:ry="3.0304577"
         sodipodi:rx="3.0304577"
         sodipodi:cy="134.89113"
         sodipodi:cx="178.03938"
         id="path3875-1-3-2"
         style="fill:#0000ff;fill-opacity:1;stroke:#000000;stroke-width:0.5;stroke-miterlimit:4;stroke-opacity:1;stroke-dasharray:none"
         sodipodi:type="arc" />
    </g>
    <g
       id="g4129"
       transform="matrix(3.5425095,0,0,3.5425095,812.20119,-463.98654)">
      <text
         sodipodi:linespacing="125%"
         id="text3883-8-7"
         y="342.69067"
         x="186.68216"
         style="font-size:12px;font-style:normal;font-variant:normal;font-weight:bold;font-stretch:normal;line-height:125%;letter-spacing:0px;word-spacing:0px;fill:#000000;fill-opacity:1;stroke:none;font-family:Impact;-inkscape-font-specification:Impact Bold"
         xml:space="preserve"><tspan
           y="342.69067"
           x="186.68216"
           id="tspan3885-7-2"
           sodipodi:role="line">CH4</tspan></text>
      <path
         transform="translate(0.18895,203.48497)"
         d="m 181.06984,134.89113 c 0,1.67367 -1.35678,3.03046 -3.03046,3.03046 -1.67367,0 -3.03045,-1.35679 -3.03045,-3.03046 0,-1.67368 1.35678,-3.03046 3.03045,-3.03046 1.67368,0 3.03046,1.35678 3.03046,3.03046 z"
         sodipodi:ry="3.0304577"
         sodipodi:rx="3.0304577"
         sodipodi:cy="134.89113"
         sodipodi:cx="178.03938"
         id="path3875-1-3-6-2"
         style="fill:#ffffff;fill-opacity:1;stroke:#000000;stroke-width:0.5;stroke-miterlimit:4;stroke-opacity:1;stroke-dasharray:none"
         sodipodi:type="arc" />
    </g>
    <rect
       style="fill:none;stroke:#000000;stroke-width:1.77125478;stroke-miterlimit:4;stroke-opacity:1;stroke-dasharray:none"
       id="rect4114"
       width="672.7533"
       height="500.98651"
       x="1198.6765"
       y="435.58267"
       rx="17.712547"
       ry="17.712547" />
  </g>
</svg>
