G04 #@! TF.FileFunction,Legend,Top*
%FSLAX46Y46*%
G04 Gerber Fmt 4.6, Leading zero omitted, Abs format (unit mm)*
G04 Created by KiCad (PCBNEW 0.201507280910+6003~25~ubuntu14.04.1-product) date Wed 19 Aug 2015 23:33:17 BST*
%MOMM*%
G01*
G04 APERTURE LIST*
%ADD10C,0.100000*%
%ADD11C,0.300000*%
%ADD12C,0.254000*%
%ADD13C,0.450000*%
%ADD14C,0.200000*%
%ADD15C,0.150000*%
G04 APERTURE END LIST*
D10*
D11*
X204156571Y-109434285D02*
X204156571Y-110148571D01*
X204870857Y-110220000D01*
X204799429Y-110148571D01*
X204728000Y-110005714D01*
X204728000Y-109648571D01*
X204799429Y-109505714D01*
X204870857Y-109434285D01*
X205013714Y-109362857D01*
X205370857Y-109362857D01*
X205513714Y-109434285D01*
X205585143Y-109505714D01*
X205656571Y-109648571D01*
X205656571Y-110005714D01*
X205585143Y-110148571D01*
X205513714Y-110220000D01*
X204656571Y-108862857D02*
X205656571Y-108505714D01*
X204656571Y-108148572D01*
X197806571Y-110751713D02*
X197806571Y-109823142D01*
X198378000Y-110323142D01*
X198378000Y-110108856D01*
X198449429Y-109965999D01*
X198520857Y-109894570D01*
X198663714Y-109823142D01*
X199020857Y-109823142D01*
X199163714Y-109894570D01*
X199235143Y-109965999D01*
X199306571Y-110108856D01*
X199306571Y-110537428D01*
X199235143Y-110680285D01*
X199163714Y-110751713D01*
X198306571Y-109323142D02*
X199306571Y-108965999D01*
X198306571Y-108608857D01*
X197806571Y-108180285D02*
X197806571Y-107251714D01*
X198378000Y-107751714D01*
X198378000Y-107537428D01*
X198449429Y-107394571D01*
X198520857Y-107323142D01*
X198663714Y-107251714D01*
X199020857Y-107251714D01*
X199163714Y-107323142D01*
X199235143Y-107394571D01*
X199306571Y-107537428D01*
X199306571Y-107966000D01*
X199235143Y-108108857D01*
X199163714Y-108180285D01*
D12*
X181023381Y-83009619D02*
X180684715Y-82525810D01*
X180442810Y-83009619D02*
X180442810Y-81993619D01*
X180829857Y-81993619D01*
X180926619Y-82042000D01*
X180975000Y-82090381D01*
X181023381Y-82187143D01*
X181023381Y-82332286D01*
X180975000Y-82429048D01*
X180926619Y-82477429D01*
X180829857Y-82525810D01*
X180442810Y-82525810D01*
X181458810Y-82477429D02*
X181797476Y-82477429D01*
X181942619Y-83009619D02*
X181458810Y-83009619D01*
X181458810Y-81993619D01*
X181942619Y-81993619D01*
X182329667Y-82961238D02*
X182474810Y-83009619D01*
X182716714Y-83009619D01*
X182813476Y-82961238D01*
X182861857Y-82912857D01*
X182910238Y-82816095D01*
X182910238Y-82719333D01*
X182861857Y-82622571D01*
X182813476Y-82574190D01*
X182716714Y-82525810D01*
X182523191Y-82477429D01*
X182426429Y-82429048D01*
X182378048Y-82380667D01*
X182329667Y-82283905D01*
X182329667Y-82187143D01*
X182378048Y-82090381D01*
X182426429Y-82042000D01*
X182523191Y-81993619D01*
X182765095Y-81993619D01*
X182910238Y-82042000D01*
X183345667Y-82477429D02*
X183684333Y-82477429D01*
X183829476Y-83009619D02*
X183345667Y-83009619D01*
X183345667Y-81993619D01*
X183829476Y-81993619D01*
X184119762Y-81993619D02*
X184700333Y-81993619D01*
X184410048Y-83009619D02*
X184410048Y-81993619D01*
D11*
X133966001Y-93966571D02*
X133966001Y-92466571D01*
X134323144Y-92466571D01*
X134537429Y-92538000D01*
X134680287Y-92680857D01*
X134751715Y-92823714D01*
X134823144Y-93109429D01*
X134823144Y-93323714D01*
X134751715Y-93609429D01*
X134680287Y-93752286D01*
X134537429Y-93895143D01*
X134323144Y-93966571D01*
X133966001Y-93966571D01*
X136108858Y-93966571D02*
X136108858Y-93180857D01*
X136037429Y-93038000D01*
X135894572Y-92966571D01*
X135608858Y-92966571D01*
X135466001Y-93038000D01*
X136108858Y-93895143D02*
X135966001Y-93966571D01*
X135608858Y-93966571D01*
X135466001Y-93895143D01*
X135394572Y-93752286D01*
X135394572Y-93609429D01*
X135466001Y-93466571D01*
X135608858Y-93395143D01*
X135966001Y-93395143D01*
X136108858Y-93323714D01*
X136680287Y-92966571D02*
X137037430Y-93966571D01*
X137394572Y-92966571D01*
X137966001Y-93966571D02*
X137966001Y-92966571D01*
X137966001Y-92466571D02*
X137894572Y-92538000D01*
X137966001Y-92609429D01*
X138037429Y-92538000D01*
X137966001Y-92466571D01*
X137966001Y-92609429D01*
X139323144Y-93966571D02*
X139323144Y-92466571D01*
X139323144Y-93895143D02*
X139180287Y-93966571D01*
X138894573Y-93966571D01*
X138751715Y-93895143D01*
X138680287Y-93823714D01*
X138608858Y-93680857D01*
X138608858Y-93252286D01*
X138680287Y-93109429D01*
X138751715Y-93038000D01*
X138894573Y-92966571D01*
X139180287Y-92966571D01*
X139323144Y-93038000D01*
X140966001Y-92466571D02*
X141823144Y-92466571D01*
X141394573Y-93966571D02*
X141394573Y-92466571D01*
X142966001Y-92966571D02*
X142966001Y-93966571D01*
X142323144Y-92966571D02*
X142323144Y-93752286D01*
X142394572Y-93895143D01*
X142537430Y-93966571D01*
X142751715Y-93966571D01*
X142894572Y-93895143D01*
X142966001Y-93823714D01*
X143680287Y-93966571D02*
X143680287Y-92966571D01*
X143680287Y-93252286D02*
X143751715Y-93109429D01*
X143823144Y-93038000D01*
X143966001Y-92966571D01*
X144108858Y-92966571D01*
X144608858Y-92966571D02*
X144608858Y-93966571D01*
X144608858Y-93109429D02*
X144680286Y-93038000D01*
X144823144Y-92966571D01*
X145037429Y-92966571D01*
X145180286Y-93038000D01*
X145251715Y-93180857D01*
X145251715Y-93966571D01*
X146537429Y-93895143D02*
X146394572Y-93966571D01*
X146108858Y-93966571D01*
X145966001Y-93895143D01*
X145894572Y-93752286D01*
X145894572Y-93180857D01*
X145966001Y-93038000D01*
X146108858Y-92966571D01*
X146394572Y-92966571D01*
X146537429Y-93038000D01*
X146608858Y-93180857D01*
X146608858Y-93323714D01*
X145894572Y-93466571D01*
X147251715Y-93966571D02*
X147251715Y-92966571D01*
X147251715Y-93252286D02*
X147323143Y-93109429D01*
X147394572Y-93038000D01*
X147537429Y-92966571D01*
X147680286Y-92966571D01*
X133430287Y-95009429D02*
X133501716Y-94938000D01*
X133644573Y-94866571D01*
X134001716Y-94866571D01*
X134144573Y-94938000D01*
X134216002Y-95009429D01*
X134287430Y-95152286D01*
X134287430Y-95295143D01*
X134216002Y-95509429D01*
X133358859Y-96366571D01*
X134287430Y-96366571D01*
X135216001Y-94866571D02*
X135358858Y-94866571D01*
X135501715Y-94938000D01*
X135573144Y-95009429D01*
X135644573Y-95152286D01*
X135716001Y-95438000D01*
X135716001Y-95795143D01*
X135644573Y-96080857D01*
X135573144Y-96223714D01*
X135501715Y-96295143D01*
X135358858Y-96366571D01*
X135216001Y-96366571D01*
X135073144Y-96295143D01*
X135001715Y-96223714D01*
X134930287Y-96080857D01*
X134858858Y-95795143D01*
X134858858Y-95438000D01*
X134930287Y-95152286D01*
X135001715Y-95009429D01*
X135073144Y-94938000D01*
X135216001Y-94866571D01*
X137144572Y-96366571D02*
X136287429Y-96366571D01*
X136716001Y-96366571D02*
X136716001Y-94866571D01*
X136573144Y-95080857D01*
X136430286Y-95223714D01*
X136287429Y-95295143D01*
X138501715Y-94866571D02*
X137787429Y-94866571D01*
X137716000Y-95580857D01*
X137787429Y-95509429D01*
X137930286Y-95438000D01*
X138287429Y-95438000D01*
X138430286Y-95509429D01*
X138501715Y-95580857D01*
X138573143Y-95723714D01*
X138573143Y-96080857D01*
X138501715Y-96223714D01*
X138430286Y-96295143D01*
X138287429Y-96366571D01*
X137930286Y-96366571D01*
X137787429Y-96295143D01*
X137716000Y-96223714D01*
X139216000Y-95795143D02*
X140358857Y-95795143D01*
X141358857Y-94866571D02*
X141501714Y-94866571D01*
X141644571Y-94938000D01*
X141716000Y-95009429D01*
X141787429Y-95152286D01*
X141858857Y-95438000D01*
X141858857Y-95795143D01*
X141787429Y-96080857D01*
X141716000Y-96223714D01*
X141644571Y-96295143D01*
X141501714Y-96366571D01*
X141358857Y-96366571D01*
X141216000Y-96295143D01*
X141144571Y-96223714D01*
X141073143Y-96080857D01*
X141001714Y-95795143D01*
X141001714Y-95438000D01*
X141073143Y-95152286D01*
X141144571Y-95009429D01*
X141216000Y-94938000D01*
X141358857Y-94866571D01*
X142716000Y-95509429D02*
X142573142Y-95438000D01*
X142501714Y-95366571D01*
X142430285Y-95223714D01*
X142430285Y-95152286D01*
X142501714Y-95009429D01*
X142573142Y-94938000D01*
X142716000Y-94866571D01*
X143001714Y-94866571D01*
X143144571Y-94938000D01*
X143216000Y-95009429D01*
X143287428Y-95152286D01*
X143287428Y-95223714D01*
X143216000Y-95366571D01*
X143144571Y-95438000D01*
X143001714Y-95509429D01*
X142716000Y-95509429D01*
X142573142Y-95580857D01*
X142501714Y-95652286D01*
X142430285Y-95795143D01*
X142430285Y-96080857D01*
X142501714Y-96223714D01*
X142573142Y-96295143D01*
X142716000Y-96366571D01*
X143001714Y-96366571D01*
X143144571Y-96295143D01*
X143216000Y-96223714D01*
X143287428Y-96080857D01*
X143287428Y-95795143D01*
X143216000Y-95652286D01*
X143144571Y-95580857D01*
X143001714Y-95509429D01*
X143930285Y-95795143D02*
X145073142Y-95795143D01*
X146573142Y-96366571D02*
X145715999Y-96366571D01*
X146144571Y-96366571D02*
X146144571Y-94866571D01*
X146001714Y-95080857D01*
X145858856Y-95223714D01*
X145715999Y-95295143D01*
X147287427Y-96366571D02*
X147573142Y-96366571D01*
X147715999Y-96295143D01*
X147787427Y-96223714D01*
X147930285Y-96009429D01*
X148001713Y-95723714D01*
X148001713Y-95152286D01*
X147930285Y-95009429D01*
X147858856Y-94938000D01*
X147715999Y-94866571D01*
X147430285Y-94866571D01*
X147287427Y-94938000D01*
X147215999Y-95009429D01*
X147144570Y-95152286D01*
X147144570Y-95509429D01*
X147215999Y-95652286D01*
X147287427Y-95723714D01*
X147430285Y-95795143D01*
X147715999Y-95795143D01*
X147858856Y-95723714D01*
X147930285Y-95652286D01*
X148001713Y-95509429D01*
D13*
X136812858Y-85159286D02*
X137155715Y-85159286D01*
X137327143Y-85245000D01*
X137498572Y-85416429D01*
X137584286Y-85759286D01*
X137584286Y-86359286D01*
X137498572Y-86702143D01*
X137327143Y-86873571D01*
X137155715Y-86959286D01*
X136812858Y-86959286D01*
X136641429Y-86873571D01*
X136470000Y-86702143D01*
X136384286Y-86359286D01*
X136384286Y-85759286D01*
X136470000Y-85416429D01*
X136641429Y-85245000D01*
X136812858Y-85159286D01*
X138355714Y-86959286D02*
X138355714Y-85159286D01*
X138527143Y-86273571D02*
X139041429Y-86959286D01*
X139041429Y-85759286D02*
X138355714Y-86445000D01*
X140755715Y-85245000D02*
X140584286Y-85159286D01*
X140327143Y-85159286D01*
X140070000Y-85245000D01*
X139898572Y-85416429D01*
X139812857Y-85587857D01*
X139727143Y-85930714D01*
X139727143Y-86187857D01*
X139812857Y-86530714D01*
X139898572Y-86702143D01*
X140070000Y-86873571D01*
X140327143Y-86959286D01*
X140498572Y-86959286D01*
X140755715Y-86873571D01*
X140841429Y-86787857D01*
X140841429Y-86187857D01*
X140498572Y-86187857D01*
X141870000Y-86959286D02*
X141698572Y-86873571D01*
X141612857Y-86787857D01*
X141527143Y-86616429D01*
X141527143Y-86102143D01*
X141612857Y-85930714D01*
X141698572Y-85845000D01*
X141870000Y-85759286D01*
X142127143Y-85759286D01*
X142298572Y-85845000D01*
X142384286Y-85930714D01*
X142470000Y-86102143D01*
X142470000Y-86616429D01*
X142384286Y-86787857D01*
X142298572Y-86873571D01*
X142127143Y-86959286D01*
X141870000Y-86959286D01*
X144527143Y-85330714D02*
X144612857Y-85245000D01*
X144784286Y-85159286D01*
X145212857Y-85159286D01*
X145384286Y-85245000D01*
X145470000Y-85330714D01*
X145555715Y-85502143D01*
X145555715Y-85673571D01*
X145470000Y-85930714D01*
X144441429Y-86959286D01*
X145555715Y-86959286D01*
X136384286Y-89757857D02*
X136298572Y-89843571D01*
X136041429Y-89929286D01*
X135870000Y-89929286D01*
X135612857Y-89843571D01*
X135441429Y-89672143D01*
X135355714Y-89500714D01*
X135270000Y-89157857D01*
X135270000Y-88900714D01*
X135355714Y-88557857D01*
X135441429Y-88386429D01*
X135612857Y-88215000D01*
X135870000Y-88129286D01*
X136041429Y-88129286D01*
X136298572Y-88215000D01*
X136384286Y-88300714D01*
X137498572Y-88129286D02*
X137841429Y-88129286D01*
X138012857Y-88215000D01*
X138184286Y-88386429D01*
X138270000Y-88729286D01*
X138270000Y-89329286D01*
X138184286Y-89672143D01*
X138012857Y-89843571D01*
X137841429Y-89929286D01*
X137498572Y-89929286D01*
X137327143Y-89843571D01*
X137155714Y-89672143D01*
X137070000Y-89329286D01*
X137070000Y-88729286D01*
X137155714Y-88386429D01*
X137327143Y-88215000D01*
X137498572Y-88129286D01*
X139041428Y-89929286D02*
X139041428Y-88129286D01*
X140070000Y-89929286D01*
X140070000Y-88129286D01*
X140670000Y-88129286D02*
X141698571Y-88129286D01*
X141184285Y-89929286D02*
X141184285Y-88129286D01*
X143327143Y-89929286D02*
X142727143Y-89072143D01*
X142298571Y-89929286D02*
X142298571Y-88129286D01*
X142984286Y-88129286D01*
X143155714Y-88215000D01*
X143241429Y-88300714D01*
X143327143Y-88472143D01*
X143327143Y-88729286D01*
X143241429Y-88900714D01*
X143155714Y-88986429D01*
X142984286Y-89072143D01*
X142298571Y-89072143D01*
X144441429Y-88129286D02*
X144784286Y-88129286D01*
X144955714Y-88215000D01*
X145127143Y-88386429D01*
X145212857Y-88729286D01*
X145212857Y-89329286D01*
X145127143Y-89672143D01*
X144955714Y-89843571D01*
X144784286Y-89929286D01*
X144441429Y-89929286D01*
X144270000Y-89843571D01*
X144098571Y-89672143D01*
X144012857Y-89329286D01*
X144012857Y-88729286D01*
X144098571Y-88386429D01*
X144270000Y-88215000D01*
X144441429Y-88129286D01*
X146841428Y-89929286D02*
X145984285Y-89929286D01*
X145984285Y-88129286D01*
D14*
X206248000Y-113538000D02*
X212090000Y-113538000D01*
X206248000Y-87630000D02*
X206248000Y-113538000D01*
X211836000Y-87630000D02*
X206248000Y-87630000D01*
D11*
X207835715Y-90410571D02*
X207835715Y-88910571D01*
X208692858Y-90410571D02*
X208050001Y-89553429D01*
X208692858Y-88910571D02*
X207835715Y-89767714D01*
X209335715Y-89624857D02*
X209835715Y-89624857D01*
X210050001Y-90410571D02*
X209335715Y-90410571D01*
X209335715Y-88910571D01*
X210050001Y-88910571D01*
X210978572Y-89696286D02*
X210978572Y-90410571D01*
X210478572Y-88910571D02*
X210978572Y-89696286D01*
X211478572Y-88910571D01*
X208264286Y-92739143D02*
X208478572Y-92810571D01*
X208835715Y-92810571D01*
X208978572Y-92739143D01*
X209050001Y-92667714D01*
X209121429Y-92524857D01*
X209121429Y-92382000D01*
X209050001Y-92239143D01*
X208978572Y-92167714D01*
X208835715Y-92096286D01*
X208550001Y-92024857D01*
X208407143Y-91953429D01*
X208335715Y-91882000D01*
X208264286Y-91739143D01*
X208264286Y-91596286D01*
X208335715Y-91453429D01*
X208407143Y-91382000D01*
X208550001Y-91310571D01*
X208907143Y-91310571D01*
X209121429Y-91382000D01*
X209621429Y-91310571D02*
X209978572Y-92810571D01*
X210264286Y-91739143D01*
X210550000Y-92810571D01*
X210907143Y-91310571D01*
X207331714Y-96586000D02*
X208046000Y-96586000D01*
X207188857Y-97014571D02*
X207688857Y-95514571D01*
X208188857Y-97014571D01*
X209546000Y-97014571D02*
X209046000Y-96300286D01*
X208688857Y-97014571D02*
X208688857Y-95514571D01*
X209260285Y-95514571D01*
X209403143Y-95586000D01*
X209474571Y-95657429D01*
X209546000Y-95800286D01*
X209546000Y-96014571D01*
X209474571Y-96157429D01*
X209403143Y-96228857D01*
X209260285Y-96300286D01*
X208688857Y-96300286D01*
X210188857Y-97014571D02*
X210188857Y-95514571D01*
X210688857Y-96586000D01*
X211188857Y-95514571D01*
X211188857Y-97014571D01*
X208331715Y-99414571D02*
X207617429Y-99414571D01*
X207617429Y-97914571D01*
X208831715Y-98628857D02*
X209331715Y-98628857D01*
X209546001Y-99414571D02*
X208831715Y-99414571D01*
X208831715Y-97914571D01*
X209546001Y-97914571D01*
X210188858Y-99414571D02*
X210188858Y-97914571D01*
X210546001Y-97914571D01*
X210760286Y-97986000D01*
X210903144Y-98128857D01*
X210974572Y-98271714D01*
X211046001Y-98557429D01*
X211046001Y-98771714D01*
X210974572Y-99057429D01*
X210903144Y-99200286D01*
X210760286Y-99343143D01*
X210546001Y-99414571D01*
X210188858Y-99414571D01*
X207260286Y-103364571D02*
X207260286Y-101864571D01*
X207831714Y-101864571D01*
X207974572Y-101936000D01*
X208046000Y-102007429D01*
X208117429Y-102150286D01*
X208117429Y-102364571D01*
X208046000Y-102507429D01*
X207974572Y-102578857D01*
X207831714Y-102650286D01*
X207260286Y-102650286D01*
X209046000Y-101864571D02*
X209331714Y-101864571D01*
X209474572Y-101936000D01*
X209617429Y-102078857D01*
X209688857Y-102364571D01*
X209688857Y-102864571D01*
X209617429Y-103150286D01*
X209474572Y-103293143D01*
X209331714Y-103364571D01*
X209046000Y-103364571D01*
X208903143Y-103293143D01*
X208760286Y-103150286D01*
X208688857Y-102864571D01*
X208688857Y-102364571D01*
X208760286Y-102078857D01*
X208903143Y-101936000D01*
X209046000Y-101864571D01*
X210188858Y-101864571D02*
X210546001Y-103364571D01*
X210831715Y-102293143D01*
X211117429Y-103364571D01*
X211474572Y-101864571D01*
X208010286Y-105693143D02*
X208224572Y-105764571D01*
X208581715Y-105764571D01*
X208724572Y-105693143D01*
X208796001Y-105621714D01*
X208867429Y-105478857D01*
X208867429Y-105336000D01*
X208796001Y-105193143D01*
X208724572Y-105121714D01*
X208581715Y-105050286D01*
X208296001Y-104978857D01*
X208153143Y-104907429D01*
X208081715Y-104836000D01*
X208010286Y-104693143D01*
X208010286Y-104550286D01*
X208081715Y-104407429D01*
X208153143Y-104336000D01*
X208296001Y-104264571D01*
X208653143Y-104264571D01*
X208867429Y-104336000D01*
X209367429Y-104264571D02*
X209724572Y-105764571D01*
X210010286Y-104693143D01*
X210296000Y-105764571D01*
X210653143Y-104264571D01*
X207363429Y-110382857D02*
X207577715Y-110454286D01*
X207649143Y-110525714D01*
X207720572Y-110668571D01*
X207720572Y-110882857D01*
X207649143Y-111025714D01*
X207577715Y-111097143D01*
X207434857Y-111168571D01*
X206863429Y-111168571D01*
X206863429Y-109668571D01*
X207363429Y-109668571D01*
X207506286Y-109740000D01*
X207577715Y-109811429D01*
X207649143Y-109954286D01*
X207649143Y-110097143D01*
X207577715Y-110240000D01*
X207506286Y-110311429D01*
X207363429Y-110382857D01*
X206863429Y-110382857D01*
X208292000Y-110740000D02*
X209006286Y-110740000D01*
X208149143Y-111168571D02*
X208649143Y-109668571D01*
X209149143Y-111168571D01*
X209434857Y-109668571D02*
X210292000Y-109668571D01*
X209863429Y-111168571D02*
X209863429Y-109668571D01*
X210577714Y-109668571D02*
X211434857Y-109668571D01*
X211006286Y-111168571D02*
X211006286Y-109668571D01*
X197068714Y-117955143D02*
X197283000Y-118026571D01*
X197640143Y-118026571D01*
X197783000Y-117955143D01*
X197854429Y-117883714D01*
X197925857Y-117740857D01*
X197925857Y-117598000D01*
X197854429Y-117455143D01*
X197783000Y-117383714D01*
X197640143Y-117312286D01*
X197354429Y-117240857D01*
X197211571Y-117169429D01*
X197140143Y-117098000D01*
X197068714Y-116955143D01*
X197068714Y-116812286D01*
X197140143Y-116669429D01*
X197211571Y-116598000D01*
X197354429Y-116526571D01*
X197711571Y-116526571D01*
X197925857Y-116598000D01*
X198568714Y-117240857D02*
X199068714Y-117240857D01*
X199283000Y-118026571D02*
X198568714Y-118026571D01*
X198568714Y-116526571D01*
X199283000Y-116526571D01*
X200783000Y-118026571D02*
X200283000Y-117312286D01*
X199925857Y-118026571D02*
X199925857Y-116526571D01*
X200497285Y-116526571D01*
X200640143Y-116598000D01*
X200711571Y-116669429D01*
X200783000Y-116812286D01*
X200783000Y-117026571D01*
X200711571Y-117169429D01*
X200640143Y-117240857D01*
X200497285Y-117312286D01*
X199925857Y-117312286D01*
X201425857Y-118026571D02*
X201425857Y-116526571D01*
X202068714Y-117598000D02*
X202783000Y-117598000D01*
X201925857Y-118026571D02*
X202425857Y-116526571D01*
X202925857Y-118026571D01*
X204140143Y-118026571D02*
X203425857Y-118026571D01*
X203425857Y-116526571D01*
X187432286Y-115851714D02*
X187360857Y-115923143D01*
X187146571Y-115994571D01*
X187003714Y-115994571D01*
X186789429Y-115923143D01*
X186646571Y-115780286D01*
X186575143Y-115637429D01*
X186503714Y-115351714D01*
X186503714Y-115137429D01*
X186575143Y-114851714D01*
X186646571Y-114708857D01*
X186789429Y-114566000D01*
X187003714Y-114494571D01*
X187146571Y-114494571D01*
X187360857Y-114566000D01*
X187432286Y-114637429D01*
X188075143Y-115994571D02*
X188075143Y-114494571D01*
X188075143Y-115208857D02*
X188932286Y-115208857D01*
X188932286Y-115994571D02*
X188932286Y-114494571D01*
X190289429Y-114994571D02*
X190289429Y-115994571D01*
X189932286Y-114423143D02*
X189575143Y-115494571D01*
X190503715Y-115494571D01*
X177272286Y-115851714D02*
X177200857Y-115923143D01*
X176986571Y-115994571D01*
X176843714Y-115994571D01*
X176629429Y-115923143D01*
X176486571Y-115780286D01*
X176415143Y-115637429D01*
X176343714Y-115351714D01*
X176343714Y-115137429D01*
X176415143Y-114851714D01*
X176486571Y-114708857D01*
X176629429Y-114566000D01*
X176843714Y-114494571D01*
X176986571Y-114494571D01*
X177200857Y-114566000D01*
X177272286Y-114637429D01*
X177915143Y-115994571D02*
X177915143Y-114494571D01*
X177915143Y-115208857D02*
X178772286Y-115208857D01*
X178772286Y-115994571D02*
X178772286Y-114494571D01*
X179343715Y-114494571D02*
X180272286Y-114494571D01*
X179772286Y-115066000D01*
X179986572Y-115066000D01*
X180129429Y-115137429D01*
X180200858Y-115208857D01*
X180272286Y-115351714D01*
X180272286Y-115708857D01*
X180200858Y-115851714D01*
X180129429Y-115923143D01*
X179986572Y-115994571D01*
X179558000Y-115994571D01*
X179415143Y-115923143D01*
X179343715Y-115851714D01*
X167493286Y-115851714D02*
X167421857Y-115923143D01*
X167207571Y-115994571D01*
X167064714Y-115994571D01*
X166850429Y-115923143D01*
X166707571Y-115780286D01*
X166636143Y-115637429D01*
X166564714Y-115351714D01*
X166564714Y-115137429D01*
X166636143Y-114851714D01*
X166707571Y-114708857D01*
X166850429Y-114566000D01*
X167064714Y-114494571D01*
X167207571Y-114494571D01*
X167421857Y-114566000D01*
X167493286Y-114637429D01*
X168136143Y-115994571D02*
X168136143Y-114494571D01*
X168136143Y-115208857D02*
X168993286Y-115208857D01*
X168993286Y-115994571D02*
X168993286Y-114494571D01*
X169636143Y-114637429D02*
X169707572Y-114566000D01*
X169850429Y-114494571D01*
X170207572Y-114494571D01*
X170350429Y-114566000D01*
X170421858Y-114637429D01*
X170493286Y-114780286D01*
X170493286Y-114923143D01*
X170421858Y-115137429D01*
X169564715Y-115994571D01*
X170493286Y-115994571D01*
X155428286Y-115597714D02*
X155356857Y-115669143D01*
X155142571Y-115740571D01*
X154999714Y-115740571D01*
X154785429Y-115669143D01*
X154642571Y-115526286D01*
X154571143Y-115383429D01*
X154499714Y-115097714D01*
X154499714Y-114883429D01*
X154571143Y-114597714D01*
X154642571Y-114454857D01*
X154785429Y-114312000D01*
X154999714Y-114240571D01*
X155142571Y-114240571D01*
X155356857Y-114312000D01*
X155428286Y-114383429D01*
X156071143Y-115740571D02*
X156071143Y-114240571D01*
X156071143Y-114954857D02*
X156928286Y-114954857D01*
X156928286Y-115740571D02*
X156928286Y-114240571D01*
X158428286Y-115740571D02*
X157571143Y-115740571D01*
X157999715Y-115740571D02*
X157999715Y-114240571D01*
X157856858Y-114454857D01*
X157714000Y-114597714D01*
X157571143Y-114669143D01*
D15*
X159334000Y-97540000D02*
X159334000Y-102140000D01*
X159134000Y-102340000D02*
X159334000Y-102140000D01*
X159134000Y-97340000D02*
X159334000Y-97540000D01*
X156134000Y-97490000D02*
X156134000Y-102190000D01*
X156334000Y-97340000D02*
X156134000Y-97490000D01*
X156334000Y-102340000D02*
X156134000Y-102190000D01*
X190754000Y-84963000D02*
X190754000Y-90043000D01*
X193294000Y-87503000D02*
X188214000Y-87503000D01*
X193294000Y-87503000D02*
G75*
G03X193294000Y-87503000I-2540000J0D01*
G01*
X195834000Y-82423000D02*
X185674000Y-82423000D01*
X185674000Y-82423000D02*
X185674000Y-92583000D01*
X185674000Y-92583000D02*
X195834000Y-92583000D01*
X195834000Y-82423000D02*
X195834000Y-92583000D01*
X192137000Y-120304000D02*
X192137000Y-121504000D01*
X190387000Y-121504000D02*
X190387000Y-120304000D01*
X181469000Y-120050000D02*
X181469000Y-121250000D01*
X179719000Y-121250000D02*
X179719000Y-120050000D01*
X191354000Y-118223000D02*
X190154000Y-118223000D01*
X190154000Y-116473000D02*
X191354000Y-116473000D01*
X180686000Y-118477000D02*
X179486000Y-118477000D01*
X179486000Y-116727000D02*
X180686000Y-116727000D01*
X186598000Y-116473000D02*
X187798000Y-116473000D01*
X187798000Y-118223000D02*
X186598000Y-118223000D01*
X175930000Y-116727000D02*
X177130000Y-116727000D01*
X177130000Y-118477000D02*
X175930000Y-118477000D01*
X170801000Y-120050000D02*
X170801000Y-121250000D01*
X169051000Y-121250000D02*
X169051000Y-120050000D01*
X159879000Y-120050000D02*
X159879000Y-121250000D01*
X158129000Y-121250000D02*
X158129000Y-120050000D01*
X169764000Y-118477000D02*
X168564000Y-118477000D01*
X168564000Y-116727000D02*
X169764000Y-116727000D01*
X158334000Y-118223000D02*
X157134000Y-118223000D01*
X157134000Y-116473000D02*
X158334000Y-116473000D01*
X165008000Y-116727000D02*
X166208000Y-116727000D01*
X166208000Y-118477000D02*
X165008000Y-118477000D01*
X153578000Y-116473000D02*
X154778000Y-116473000D01*
X154778000Y-118223000D02*
X153578000Y-118223000D01*
X192899000Y-74330000D02*
X192899000Y-75530000D01*
X191149000Y-75530000D02*
X191149000Y-74330000D01*
X190613000Y-74330000D02*
X190613000Y-75530000D01*
X188863000Y-75530000D02*
X188863000Y-74330000D01*
X188073000Y-74330000D02*
X188073000Y-75530000D01*
X186323000Y-75530000D02*
X186323000Y-74330000D01*
X185279000Y-74330000D02*
X185279000Y-75530000D01*
X183529000Y-75530000D02*
X183529000Y-74330000D01*
X188249000Y-111647000D02*
X189449000Y-111647000D01*
X189449000Y-113397000D02*
X188249000Y-113397000D01*
X222137000Y-98136000D02*
X222137000Y-96936000D01*
X223887000Y-96936000D02*
X223887000Y-98136000D01*
X161452000Y-100852000D02*
X162652000Y-100852000D01*
X162652000Y-102602000D02*
X161452000Y-102602000D01*
X222137000Y-91278000D02*
X222137000Y-90078000D01*
X223887000Y-90078000D02*
X223887000Y-91278000D01*
X188497160Y-119745760D02*
X188448900Y-119745760D01*
X185698180Y-120446800D02*
X185698180Y-119745760D01*
X185698180Y-119745760D02*
X185947100Y-119745760D01*
X188497160Y-119745760D02*
X188697820Y-119745760D01*
X188697820Y-119745760D02*
X188697820Y-120446800D01*
X177829160Y-119999760D02*
X177780900Y-119999760D01*
X175030180Y-120700800D02*
X175030180Y-119999760D01*
X175030180Y-119999760D02*
X175279100Y-119999760D01*
X177829160Y-119999760D02*
X178029820Y-119999760D01*
X178029820Y-119999760D02*
X178029820Y-120700800D01*
X167415160Y-119999760D02*
X167366900Y-119999760D01*
X164616180Y-120700800D02*
X164616180Y-119999760D01*
X164616180Y-119999760D02*
X164865100Y-119999760D01*
X167415160Y-119999760D02*
X167615820Y-119999760D01*
X167615820Y-119999760D02*
X167615820Y-120700800D01*
X156747160Y-119999760D02*
X156698900Y-119999760D01*
X153948180Y-120700800D02*
X153948180Y-119999760D01*
X153948180Y-119999760D02*
X154197100Y-119999760D01*
X156747160Y-119999760D02*
X156947820Y-119999760D01*
X156947820Y-119999760D02*
X156947820Y-120700800D01*
X197779000Y-120404000D02*
X197779000Y-121404000D01*
X196429000Y-121404000D02*
X196429000Y-120404000D01*
X200065000Y-120404000D02*
X200065000Y-121404000D01*
X198715000Y-121404000D02*
X198715000Y-120404000D01*
X202351000Y-120404000D02*
X202351000Y-121404000D01*
X201001000Y-121404000D02*
X201001000Y-120404000D01*
X166124000Y-73493000D02*
X167124000Y-73493000D01*
X167124000Y-74843000D02*
X166124000Y-74843000D01*
X222083000Y-111244000D02*
X222083000Y-110244000D01*
X223433000Y-110244000D02*
X223433000Y-111244000D01*
X208431500Y-128389000D02*
X208431500Y-127389000D01*
X206731500Y-127389000D02*
X206731500Y-128389000D01*
X217067500Y-128452500D02*
X217067500Y-127452500D01*
X215367500Y-127452500D02*
X215367500Y-128452500D01*
X156980000Y-75272000D02*
X157980000Y-75272000D01*
X157980000Y-73572000D02*
X156980000Y-73572000D01*
X155972000Y-72907000D02*
X157972000Y-72907000D01*
X157972000Y-70857000D02*
X155972000Y-70857000D01*
X155536000Y-98163000D02*
X155536000Y-97163000D01*
X153836000Y-97163000D02*
X153836000Y-98163000D01*
X153836000Y-101481000D02*
X153836000Y-102481000D01*
X155536000Y-102481000D02*
X155536000Y-101481000D01*
X161552000Y-104609000D02*
X162552000Y-104609000D01*
X162552000Y-102909000D02*
X161552000Y-102909000D01*
X180682000Y-99687000D02*
X180682000Y-98687000D01*
X178982000Y-98687000D02*
X178982000Y-99687000D01*
X178650000Y-99687000D02*
X178650000Y-98687000D01*
X176950000Y-98687000D02*
X176950000Y-99687000D01*
X160186000Y-106053000D02*
X160186000Y-107053000D01*
X161886000Y-107053000D02*
X161886000Y-106053000D01*
X162218000Y-106053000D02*
X162218000Y-107053000D01*
X163918000Y-107053000D02*
X163918000Y-106053000D01*
X168013000Y-93003000D02*
X167013000Y-93003000D01*
X167013000Y-94703000D02*
X168013000Y-94703000D01*
X168013000Y-95035000D02*
X167013000Y-95035000D01*
X167013000Y-96735000D02*
X168013000Y-96735000D01*
X173363000Y-110705000D02*
X174363000Y-110705000D01*
X174363000Y-109005000D02*
X173363000Y-109005000D01*
X141222000Y-80264000D02*
G75*
G03X141222000Y-80264000I-3300000J0D01*
G01*
X141222000Y-120396000D02*
G75*
G03X141222000Y-120396000I-3300000J0D01*
G01*
X223010000Y-120396000D02*
G75*
G03X223010000Y-120396000I-3300000J0D01*
G01*
X223010000Y-80264000D02*
G75*
G03X223010000Y-80264000I-3300000J0D01*
G01*
X184947000Y-111647000D02*
X186147000Y-111647000D01*
X186147000Y-113397000D02*
X184947000Y-113397000D01*
X208696000Y-113933000D02*
X209896000Y-113933000D01*
X209896000Y-115683000D02*
X208696000Y-115683000D01*
X211061632Y-126498500D02*
G75*
G03X211061632Y-126498500I-212132J0D01*
G01*
X210224500Y-126023500D02*
X210224500Y-126273500D01*
X213574500Y-126023500D02*
X213574500Y-126273500D01*
X213574500Y-129373500D02*
X213574500Y-129123500D01*
X210224500Y-129373500D02*
X210224500Y-129123500D01*
X210224500Y-126023500D02*
X213574500Y-126023500D01*
X210224500Y-129373500D02*
X213574500Y-129373500D01*
X210224500Y-126273500D02*
X208974500Y-126273500D01*
D14*
X203438000Y-124198000D02*
X203138000Y-124198000D01*
X201138000Y-124198000D02*
X201738000Y-124198000D01*
X199138000Y-124198000D02*
X199738000Y-124198000D01*
X197138000Y-124198000D02*
X197738000Y-124198000D01*
X195438000Y-124198000D02*
X195738000Y-124198000D01*
X194438000Y-120198000D02*
X195438000Y-120198000D01*
X195438000Y-120198000D02*
X195438000Y-124198000D01*
X204438000Y-120198000D02*
X203438000Y-120198000D01*
X203438000Y-120198000D02*
X203438000Y-124198000D01*
X194438000Y-131898000D02*
X204438000Y-131898000D01*
X194438000Y-126698000D02*
X194438000Y-131898000D01*
X194438000Y-120198000D02*
X194438000Y-124898000D01*
X204438000Y-124898000D02*
X204438000Y-120198000D01*
X204438000Y-131898000D02*
X204438000Y-126698000D01*
X160766000Y-124198000D02*
X160466000Y-124198000D01*
X158466000Y-124198000D02*
X159066000Y-124198000D01*
X156466000Y-124198000D02*
X157066000Y-124198000D01*
X154466000Y-124198000D02*
X155066000Y-124198000D01*
X152766000Y-124198000D02*
X153066000Y-124198000D01*
X151766000Y-120198000D02*
X152766000Y-120198000D01*
X152766000Y-120198000D02*
X152766000Y-124198000D01*
X161766000Y-120198000D02*
X160766000Y-120198000D01*
X160766000Y-120198000D02*
X160766000Y-124198000D01*
X151766000Y-131898000D02*
X161766000Y-131898000D01*
X151766000Y-126698000D02*
X151766000Y-131898000D01*
X151766000Y-120198000D02*
X151766000Y-124898000D01*
X161766000Y-124898000D02*
X161766000Y-120198000D01*
X161766000Y-131898000D02*
X161766000Y-126698000D01*
X171434000Y-124198000D02*
X171134000Y-124198000D01*
X169134000Y-124198000D02*
X169734000Y-124198000D01*
X167134000Y-124198000D02*
X167734000Y-124198000D01*
X165134000Y-124198000D02*
X165734000Y-124198000D01*
X163434000Y-124198000D02*
X163734000Y-124198000D01*
X162434000Y-120198000D02*
X163434000Y-120198000D01*
X163434000Y-120198000D02*
X163434000Y-124198000D01*
X172434000Y-120198000D02*
X171434000Y-120198000D01*
X171434000Y-120198000D02*
X171434000Y-124198000D01*
X162434000Y-131898000D02*
X172434000Y-131898000D01*
X162434000Y-126698000D02*
X162434000Y-131898000D01*
X162434000Y-120198000D02*
X162434000Y-124898000D01*
X172434000Y-124898000D02*
X172434000Y-120198000D01*
X172434000Y-131898000D02*
X172434000Y-126698000D01*
X182102000Y-124198000D02*
X181802000Y-124198000D01*
X179802000Y-124198000D02*
X180402000Y-124198000D01*
X177802000Y-124198000D02*
X178402000Y-124198000D01*
X175802000Y-124198000D02*
X176402000Y-124198000D01*
X174102000Y-124198000D02*
X174402000Y-124198000D01*
X173102000Y-120198000D02*
X174102000Y-120198000D01*
X174102000Y-120198000D02*
X174102000Y-124198000D01*
X183102000Y-120198000D02*
X182102000Y-120198000D01*
X182102000Y-120198000D02*
X182102000Y-124198000D01*
X173102000Y-131898000D02*
X183102000Y-131898000D01*
X173102000Y-126698000D02*
X173102000Y-131898000D01*
X173102000Y-120198000D02*
X173102000Y-124898000D01*
X183102000Y-124898000D02*
X183102000Y-120198000D01*
X183102000Y-131898000D02*
X183102000Y-126698000D01*
X192770000Y-124198000D02*
X192470000Y-124198000D01*
X190470000Y-124198000D02*
X191070000Y-124198000D01*
X188470000Y-124198000D02*
X189070000Y-124198000D01*
X186470000Y-124198000D02*
X187070000Y-124198000D01*
X184770000Y-124198000D02*
X185070000Y-124198000D01*
X183770000Y-120198000D02*
X184770000Y-120198000D01*
X184770000Y-120198000D02*
X184770000Y-124198000D01*
X193770000Y-120198000D02*
X192770000Y-120198000D01*
X192770000Y-120198000D02*
X192770000Y-124198000D01*
X183770000Y-131898000D02*
X193770000Y-131898000D01*
X183770000Y-126698000D02*
X183770000Y-131898000D01*
X183770000Y-120198000D02*
X183770000Y-124898000D01*
X193770000Y-124898000D02*
X193770000Y-120198000D01*
X193770000Y-131898000D02*
X193770000Y-126698000D01*
X219845000Y-88821000D02*
X219845000Y-89121000D01*
X219845000Y-91121000D02*
X219845000Y-90521000D01*
X219845000Y-92821000D02*
X219845000Y-92521000D01*
X223845000Y-87821000D02*
X223845000Y-88821000D01*
X223845000Y-88821000D02*
X219845000Y-88821000D01*
X223845000Y-93821000D02*
X223845000Y-92821000D01*
X223845000Y-92821000D02*
X219845000Y-92821000D01*
X212145000Y-87821000D02*
X212145000Y-93821000D01*
X217345000Y-87821000D02*
X212145000Y-87821000D01*
X223845000Y-87821000D02*
X219145000Y-87821000D01*
X219145000Y-93821000D02*
X223845000Y-93821000D01*
X212145000Y-93821000D02*
X217345000Y-93821000D01*
X219845000Y-108633000D02*
X219845000Y-108933000D01*
X219845000Y-110933000D02*
X219845000Y-110333000D01*
X219845000Y-112633000D02*
X219845000Y-112333000D01*
X223845000Y-107633000D02*
X223845000Y-108633000D01*
X223845000Y-108633000D02*
X219845000Y-108633000D01*
X223845000Y-113633000D02*
X223845000Y-112633000D01*
X223845000Y-112633000D02*
X219845000Y-112633000D01*
X212145000Y-107633000D02*
X212145000Y-113633000D01*
X217345000Y-107633000D02*
X212145000Y-107633000D01*
X223845000Y-107633000D02*
X219145000Y-107633000D01*
X219145000Y-113633000D02*
X223845000Y-113633000D01*
X212145000Y-113633000D02*
X217345000Y-113633000D01*
X219845000Y-95425000D02*
X219845000Y-95725000D01*
X219845000Y-97725000D02*
X219845000Y-97125000D01*
X219845000Y-99425000D02*
X219845000Y-99125000D01*
X223845000Y-94425000D02*
X223845000Y-95425000D01*
X223845000Y-95425000D02*
X219845000Y-95425000D01*
X223845000Y-100425000D02*
X223845000Y-99425000D01*
X223845000Y-99425000D02*
X219845000Y-99425000D01*
X212145000Y-94425000D02*
X212145000Y-100425000D01*
X217345000Y-94425000D02*
X212145000Y-94425000D01*
X223845000Y-94425000D02*
X219145000Y-94425000D01*
X219145000Y-100425000D02*
X223845000Y-100425000D01*
X212145000Y-100425000D02*
X217345000Y-100425000D01*
X219845000Y-102029000D02*
X219845000Y-102329000D01*
X219845000Y-104329000D02*
X219845000Y-103729000D01*
X219845000Y-106029000D02*
X219845000Y-105729000D01*
X223845000Y-101029000D02*
X223845000Y-102029000D01*
X223845000Y-102029000D02*
X219845000Y-102029000D01*
X223845000Y-107029000D02*
X223845000Y-106029000D01*
X223845000Y-106029000D02*
X219845000Y-106029000D01*
X212145000Y-101029000D02*
X212145000Y-107029000D01*
X217345000Y-101029000D02*
X212145000Y-101029000D01*
X223845000Y-101029000D02*
X219145000Y-101029000D01*
X219145000Y-107029000D02*
X223845000Y-107029000D01*
X212145000Y-107029000D02*
X217345000Y-107029000D01*
D15*
X167188000Y-99620000D02*
X165938000Y-99620000D01*
X168688000Y-100370000D02*
G75*
G03X168688000Y-100370000I-500000J0D01*
G01*
X174188000Y-99370000D02*
X174188000Y-106370000D01*
X174188000Y-106370000D02*
X167188000Y-106370000D01*
X167188000Y-106370000D02*
X167188000Y-99370000D01*
X167188000Y-99370000D02*
X174188000Y-99370000D01*
X148718000Y-92709000D02*
X148718000Y-76709000D01*
X148718000Y-76709000D02*
X164718000Y-76709000D01*
X164718000Y-76709000D02*
X164718000Y-92709000D01*
X164718000Y-92709000D02*
X148718000Y-92709000D01*
X167062000Y-67831000D02*
X168962000Y-67831000D01*
X162762000Y-67831000D02*
X164662000Y-67831000D01*
X175006000Y-88265000D02*
X180086000Y-88265000D01*
X180086000Y-87439500D02*
X180086000Y-88265000D01*
X178625500Y-88265000D02*
X178625500Y-87439500D01*
X175006000Y-87439500D02*
X175006000Y-88265000D01*
X176466500Y-88265000D02*
X176466500Y-87439500D01*
X175006000Y-84010500D02*
X175006000Y-83185000D01*
X175006000Y-83185000D02*
X180086000Y-83185000D01*
X180086000Y-83185000D02*
X180086000Y-84010500D01*
X177546000Y-84010500D02*
X180721000Y-84010500D01*
X180721000Y-84010500D02*
X180721000Y-87439500D01*
X180721000Y-87439500D02*
X174371000Y-87439500D01*
X174371000Y-87439500D02*
X174371000Y-84010500D01*
X174371000Y-84010500D02*
X177546000Y-84010500D01*
X147316000Y-120330000D02*
G75*
G03X147316000Y-120330000I-3500000J0D01*
G01*
X147316000Y-80330000D02*
G75*
G03X147316000Y-80330000I-3500000J0D01*
G01*
X217316000Y-120330000D02*
G75*
G03X217316000Y-120330000I-3500000J0D01*
G01*
X217316000Y-80330000D02*
G75*
G03X217316000Y-80330000I-3500000J0D01*
G01*
D10*
G36*
X141954250Y-116111520D02*
X141945287Y-116178669D01*
X141909068Y-116201469D01*
X141882812Y-116202108D01*
X141843477Y-116183778D01*
X141757504Y-116132255D01*
X141630106Y-116051006D01*
X141466494Y-115943499D01*
X141271879Y-115813202D01*
X141051473Y-115663583D01*
X140810487Y-115498107D01*
X140554133Y-115320244D01*
X140487068Y-115273421D01*
X140226574Y-115090916D01*
X139979905Y-114917332D01*
X139752364Y-114756454D01*
X139549252Y-114612063D01*
X139375868Y-114487945D01*
X139237515Y-114387882D01*
X139139492Y-114315657D01*
X139087101Y-114275055D01*
X139082131Y-114270653D01*
X139014215Y-114168568D01*
X139001500Y-114088090D01*
X139011215Y-114010354D01*
X139046870Y-113985669D01*
X139118227Y-114009112D01*
X139137923Y-114019293D01*
X139190400Y-114051623D01*
X139287069Y-114115425D01*
X139421821Y-114206424D01*
X139588542Y-114320343D01*
X139781121Y-114452907D01*
X139993445Y-114599840D01*
X140219401Y-114756865D01*
X140452879Y-114919707D01*
X140687765Y-115084089D01*
X140917948Y-115245736D01*
X141137315Y-115400372D01*
X141339754Y-115543720D01*
X141519153Y-115671506D01*
X141669400Y-115779451D01*
X141784383Y-115863282D01*
X141857988Y-115918721D01*
X141882812Y-115939577D01*
X141935309Y-116026618D01*
X141954250Y-116111520D01*
X141954250Y-116111520D01*
X141954250Y-116111520D01*
G37*
X141954250Y-116111520D02*
X141945287Y-116178669D01*
X141909068Y-116201469D01*
X141882812Y-116202108D01*
X141843477Y-116183778D01*
X141757504Y-116132255D01*
X141630106Y-116051006D01*
X141466494Y-115943499D01*
X141271879Y-115813202D01*
X141051473Y-115663583D01*
X140810487Y-115498107D01*
X140554133Y-115320244D01*
X140487068Y-115273421D01*
X140226574Y-115090916D01*
X139979905Y-114917332D01*
X139752364Y-114756454D01*
X139549252Y-114612063D01*
X139375868Y-114487945D01*
X139237515Y-114387882D01*
X139139492Y-114315657D01*
X139087101Y-114275055D01*
X139082131Y-114270653D01*
X139014215Y-114168568D01*
X139001500Y-114088090D01*
X139011215Y-114010354D01*
X139046870Y-113985669D01*
X139118227Y-114009112D01*
X139137923Y-114019293D01*
X139190400Y-114051623D01*
X139287069Y-114115425D01*
X139421821Y-114206424D01*
X139588542Y-114320343D01*
X139781121Y-114452907D01*
X139993445Y-114599840D01*
X140219401Y-114756865D01*
X140452879Y-114919707D01*
X140687765Y-115084089D01*
X140917948Y-115245736D01*
X141137315Y-115400372D01*
X141339754Y-115543720D01*
X141519153Y-115671506D01*
X141669400Y-115779451D01*
X141784383Y-115863282D01*
X141857988Y-115918721D01*
X141882812Y-115939577D01*
X141935309Y-116026618D01*
X141954250Y-116111520D01*
X141954250Y-116111520D01*
G36*
X141954250Y-115223441D02*
X141948218Y-115306215D01*
X141925097Y-115342071D01*
X141895153Y-115347750D01*
X141858297Y-115330084D01*
X141774578Y-115279359D01*
X141649120Y-115198984D01*
X141487043Y-115092367D01*
X141293471Y-114962916D01*
X141073526Y-114814041D01*
X140832329Y-114649150D01*
X140575004Y-114471651D01*
X140489755Y-114412513D01*
X140227277Y-114229857D01*
X139978972Y-114056449D01*
X139750056Y-113895973D01*
X139545744Y-113752115D01*
X139371254Y-113628560D01*
X139231800Y-113528994D01*
X139132600Y-113457102D01*
X139078868Y-113416569D01*
X139072476Y-113411151D01*
X139021824Y-113340821D01*
X139002459Y-113242226D01*
X139001500Y-113203388D01*
X139010161Y-113103364D01*
X139035815Y-113062648D01*
X139041879Y-113061750D01*
X139074924Y-113079357D01*
X139153988Y-113129462D01*
X139273179Y-113207987D01*
X139426607Y-113310854D01*
X139608381Y-113433987D01*
X139812610Y-113573307D01*
X140033404Y-113724737D01*
X140264872Y-113884200D01*
X140501124Y-114047618D01*
X140736267Y-114210914D01*
X140964413Y-114370011D01*
X141179669Y-114520831D01*
X141376146Y-114659297D01*
X141547953Y-114781331D01*
X141689198Y-114882856D01*
X141793991Y-114959794D01*
X141856442Y-115008069D01*
X141866937Y-115017185D01*
X141932173Y-115100792D01*
X141953854Y-115202028D01*
X141954250Y-115223441D01*
X141954250Y-115223441D01*
X141954250Y-115223441D01*
G37*
X141954250Y-115223441D02*
X141948218Y-115306215D01*
X141925097Y-115342071D01*
X141895153Y-115347750D01*
X141858297Y-115330084D01*
X141774578Y-115279359D01*
X141649120Y-115198984D01*
X141487043Y-115092367D01*
X141293471Y-114962916D01*
X141073526Y-114814041D01*
X140832329Y-114649150D01*
X140575004Y-114471651D01*
X140489755Y-114412513D01*
X140227277Y-114229857D01*
X139978972Y-114056449D01*
X139750056Y-113895973D01*
X139545744Y-113752115D01*
X139371254Y-113628560D01*
X139231800Y-113528994D01*
X139132600Y-113457102D01*
X139078868Y-113416569D01*
X139072476Y-113411151D01*
X139021824Y-113340821D01*
X139002459Y-113242226D01*
X139001500Y-113203388D01*
X139010161Y-113103364D01*
X139035815Y-113062648D01*
X139041879Y-113061750D01*
X139074924Y-113079357D01*
X139153988Y-113129462D01*
X139273179Y-113207987D01*
X139426607Y-113310854D01*
X139608381Y-113433987D01*
X139812610Y-113573307D01*
X140033404Y-113724737D01*
X140264872Y-113884200D01*
X140501124Y-114047618D01*
X140736267Y-114210914D01*
X140964413Y-114370011D01*
X141179669Y-114520831D01*
X141376146Y-114659297D01*
X141547953Y-114781331D01*
X141689198Y-114882856D01*
X141793991Y-114959794D01*
X141856442Y-115008069D01*
X141866937Y-115017185D01*
X141932173Y-115100792D01*
X141953854Y-115202028D01*
X141954250Y-115223441D01*
X141954250Y-115223441D01*
G36*
X141954250Y-114285618D02*
X141950607Y-114373393D01*
X141934018Y-114414421D01*
X141895994Y-114425297D01*
X141882812Y-114425266D01*
X141842543Y-114407133D01*
X141755579Y-114355737D01*
X141627073Y-114274479D01*
X141462178Y-114166759D01*
X141266046Y-114035977D01*
X141043831Y-113885533D01*
X140800685Y-113718826D01*
X140571636Y-113560079D01*
X140315827Y-113381829D01*
X140070737Y-113210889D01*
X139842374Y-113051461D01*
X139636746Y-112907745D01*
X139459858Y-112783942D01*
X139317718Y-112684252D01*
X139216334Y-112612877D01*
X139165146Y-112576499D01*
X138998395Y-112456374D01*
X139007884Y-112274874D01*
X139015736Y-112171885D01*
X139029914Y-112117364D01*
X139057098Y-112096284D01*
X139088544Y-112093375D01*
X139130854Y-112111297D01*
X139218606Y-112162280D01*
X139345806Y-112242149D01*
X139506459Y-112346729D01*
X139694571Y-112471846D01*
X139904146Y-112613324D01*
X140129192Y-112766989D01*
X140363712Y-112928666D01*
X140601713Y-113094179D01*
X140837199Y-113259354D01*
X141064178Y-113420016D01*
X141276653Y-113571991D01*
X141468630Y-113711103D01*
X141634115Y-113833177D01*
X141767114Y-113934039D01*
X141861631Y-114009513D01*
X141911673Y-114055425D01*
X141917509Y-114063601D01*
X141940778Y-114146849D01*
X141953463Y-114254822D01*
X141954250Y-114285618D01*
X141954250Y-114285618D01*
X141954250Y-114285618D01*
G37*
X141954250Y-114285618D02*
X141950607Y-114373393D01*
X141934018Y-114414421D01*
X141895994Y-114425297D01*
X141882812Y-114425266D01*
X141842543Y-114407133D01*
X141755579Y-114355737D01*
X141627073Y-114274479D01*
X141462178Y-114166759D01*
X141266046Y-114035977D01*
X141043831Y-113885533D01*
X140800685Y-113718826D01*
X140571636Y-113560079D01*
X140315827Y-113381829D01*
X140070737Y-113210889D01*
X139842374Y-113051461D01*
X139636746Y-112907745D01*
X139459858Y-112783942D01*
X139317718Y-112684252D01*
X139216334Y-112612877D01*
X139165146Y-112576499D01*
X138998395Y-112456374D01*
X139007884Y-112274874D01*
X139015736Y-112171885D01*
X139029914Y-112117364D01*
X139057098Y-112096284D01*
X139088544Y-112093375D01*
X139130854Y-112111297D01*
X139218606Y-112162280D01*
X139345806Y-112242149D01*
X139506459Y-112346729D01*
X139694571Y-112471846D01*
X139904146Y-112613324D01*
X140129192Y-112766989D01*
X140363712Y-112928666D01*
X140601713Y-113094179D01*
X140837199Y-113259354D01*
X141064178Y-113420016D01*
X141276653Y-113571991D01*
X141468630Y-113711103D01*
X141634115Y-113833177D01*
X141767114Y-113934039D01*
X141861631Y-114009513D01*
X141911673Y-114055425D01*
X141917509Y-114063601D01*
X141940778Y-114146849D01*
X141953463Y-114254822D01*
X141954250Y-114285618D01*
X141954250Y-114285618D01*
G36*
X141954250Y-113171431D02*
X141952642Y-113283021D01*
X141944565Y-113345275D01*
X141925134Y-113372336D01*
X141889465Y-113378348D01*
X141882812Y-113378314D01*
X141842464Y-113360293D01*
X141754782Y-113308618D01*
X141624296Y-113226277D01*
X141455532Y-113116257D01*
X141253020Y-112981546D01*
X141021287Y-112825133D01*
X140764863Y-112650003D01*
X140488275Y-112459146D01*
X140462000Y-112440919D01*
X140199632Y-112258298D01*
X139951915Y-112084837D01*
X139723998Y-111924213D01*
X139521030Y-111780104D01*
X139348160Y-111656187D01*
X139210538Y-111556140D01*
X139113312Y-111483641D01*
X139061633Y-111442367D01*
X139055682Y-111436508D01*
X139022430Y-111366205D01*
X139005434Y-111267439D01*
X139003986Y-111159448D01*
X139017381Y-111061466D01*
X139044913Y-110992731D01*
X139072723Y-110972219D01*
X139106998Y-110988014D01*
X139187311Y-111036228D01*
X139307723Y-111112799D01*
X139462295Y-111213667D01*
X139645087Y-111334774D01*
X139850160Y-111472058D01*
X140071577Y-111621459D01*
X140303396Y-111778918D01*
X140539680Y-111940374D01*
X140774489Y-112101767D01*
X141001885Y-112259037D01*
X141215927Y-112408124D01*
X141410678Y-112544968D01*
X141580198Y-112665508D01*
X141718547Y-112765685D01*
X141819788Y-112841438D01*
X141877980Y-112888708D01*
X141882812Y-112893271D01*
X141923236Y-112944068D01*
X141945081Y-113008515D01*
X141953483Y-113106611D01*
X141954250Y-113171431D01*
X141954250Y-113171431D01*
X141954250Y-113171431D01*
G37*
X141954250Y-113171431D02*
X141952642Y-113283021D01*
X141944565Y-113345275D01*
X141925134Y-113372336D01*
X141889465Y-113378348D01*
X141882812Y-113378314D01*
X141842464Y-113360293D01*
X141754782Y-113308618D01*
X141624296Y-113226277D01*
X141455532Y-113116257D01*
X141253020Y-112981546D01*
X141021287Y-112825133D01*
X140764863Y-112650003D01*
X140488275Y-112459146D01*
X140462000Y-112440919D01*
X140199632Y-112258298D01*
X139951915Y-112084837D01*
X139723998Y-111924213D01*
X139521030Y-111780104D01*
X139348160Y-111656187D01*
X139210538Y-111556140D01*
X139113312Y-111483641D01*
X139061633Y-111442367D01*
X139055682Y-111436508D01*
X139022430Y-111366205D01*
X139005434Y-111267439D01*
X139003986Y-111159448D01*
X139017381Y-111061466D01*
X139044913Y-110992731D01*
X139072723Y-110972219D01*
X139106998Y-110988014D01*
X139187311Y-111036228D01*
X139307723Y-111112799D01*
X139462295Y-111213667D01*
X139645087Y-111334774D01*
X139850160Y-111472058D01*
X140071577Y-111621459D01*
X140303396Y-111778918D01*
X140539680Y-111940374D01*
X140774489Y-112101767D01*
X141001885Y-112259037D01*
X141215927Y-112408124D01*
X141410678Y-112544968D01*
X141580198Y-112665508D01*
X141718547Y-112765685D01*
X141819788Y-112841438D01*
X141877980Y-112888708D01*
X141882812Y-112893271D01*
X141923236Y-112944068D01*
X141945081Y-113008515D01*
X141953483Y-113106611D01*
X141954250Y-113171431D01*
X141954250Y-113171431D01*
G36*
X141954250Y-112049267D02*
X141953183Y-112174265D01*
X141947512Y-112248664D01*
X141933530Y-112285355D01*
X141907531Y-112297233D01*
X141882812Y-112297765D01*
X141833110Y-112279441D01*
X141742722Y-112230179D01*
X141622317Y-112156391D01*
X141482560Y-112064490D01*
X141398625Y-112006668D01*
X141268238Y-111915501D01*
X141095995Y-111795315D01*
X140892210Y-111653292D01*
X140667197Y-111496617D01*
X140431269Y-111332471D01*
X140194739Y-111168038D01*
X140096875Y-111100046D01*
X139881482Y-110949675D01*
X139678762Y-110806715D01*
X139495689Y-110676193D01*
X139339233Y-110563135D01*
X139216368Y-110472567D01*
X139134067Y-110409517D01*
X139104687Y-110384790D01*
X139052644Y-110331922D01*
X139021893Y-110283144D01*
X139006848Y-110219749D01*
X139001922Y-110123031D01*
X139001500Y-110039271D01*
X139002603Y-109915064D01*
X139008426Y-109841341D01*
X139022734Y-109805093D01*
X139049295Y-109793312D01*
X139072937Y-109792579D01*
X139110791Y-109810401D01*
X139194541Y-109860741D01*
X139318207Y-109939491D01*
X139475810Y-110042548D01*
X139661370Y-110165806D01*
X139868909Y-110305158D01*
X140092446Y-110456500D01*
X140326003Y-110615725D01*
X140563599Y-110778729D01*
X140799256Y-110941405D01*
X141026994Y-111099648D01*
X141240834Y-111249354D01*
X141434796Y-111386415D01*
X141602901Y-111506726D01*
X141739169Y-111606183D01*
X141837621Y-111680679D01*
X141892278Y-111726108D01*
X141898687Y-111732783D01*
X141929318Y-111786660D01*
X141946797Y-111867900D01*
X141953788Y-111991668D01*
X141954250Y-112049267D01*
X141954250Y-112049267D01*
X141954250Y-112049267D01*
G37*
X141954250Y-112049267D02*
X141953183Y-112174265D01*
X141947512Y-112248664D01*
X141933530Y-112285355D01*
X141907531Y-112297233D01*
X141882812Y-112297765D01*
X141833110Y-112279441D01*
X141742722Y-112230179D01*
X141622317Y-112156391D01*
X141482560Y-112064490D01*
X141398625Y-112006668D01*
X141268238Y-111915501D01*
X141095995Y-111795315D01*
X140892210Y-111653292D01*
X140667197Y-111496617D01*
X140431269Y-111332471D01*
X140194739Y-111168038D01*
X140096875Y-111100046D01*
X139881482Y-110949675D01*
X139678762Y-110806715D01*
X139495689Y-110676193D01*
X139339233Y-110563135D01*
X139216368Y-110472567D01*
X139134067Y-110409517D01*
X139104687Y-110384790D01*
X139052644Y-110331922D01*
X139021893Y-110283144D01*
X139006848Y-110219749D01*
X139001922Y-110123031D01*
X139001500Y-110039271D01*
X139002603Y-109915064D01*
X139008426Y-109841341D01*
X139022734Y-109805093D01*
X139049295Y-109793312D01*
X139072937Y-109792579D01*
X139110791Y-109810401D01*
X139194541Y-109860741D01*
X139318207Y-109939491D01*
X139475810Y-110042548D01*
X139661370Y-110165806D01*
X139868909Y-110305158D01*
X140092446Y-110456500D01*
X140326003Y-110615725D01*
X140563599Y-110778729D01*
X140799256Y-110941405D01*
X141026994Y-111099648D01*
X141240834Y-111249354D01*
X141434796Y-111386415D01*
X141602901Y-111506726D01*
X141739169Y-111606183D01*
X141837621Y-111680679D01*
X141892278Y-111726108D01*
X141898687Y-111732783D01*
X141929318Y-111786660D01*
X141946797Y-111867900D01*
X141953788Y-111991668D01*
X141954250Y-112049267D01*
X141954250Y-112049267D01*
G36*
X141938375Y-105598241D02*
X141938337Y-106293253D01*
X141938207Y-106927510D01*
X141937961Y-107503757D01*
X141937572Y-108024740D01*
X141937017Y-108493203D01*
X141936269Y-108911892D01*
X141935304Y-109283551D01*
X141934096Y-109610927D01*
X141932621Y-109896763D01*
X141930854Y-110143806D01*
X141928769Y-110354800D01*
X141926341Y-110532490D01*
X141923546Y-110679621D01*
X141920357Y-110798940D01*
X141916751Y-110893190D01*
X141912702Y-110965116D01*
X141908184Y-111017465D01*
X141903174Y-111052981D01*
X141897645Y-111074409D01*
X141891573Y-111084495D01*
X141888240Y-111086159D01*
X141837552Y-111074192D01*
X141754640Y-111033442D01*
X141665990Y-110978333D01*
X141415216Y-110806680D01*
X141232819Y-110681222D01*
X141232819Y-101314250D01*
X141057913Y-101314250D01*
X140883008Y-101314250D01*
X140866593Y-101459886D01*
X140849049Y-101555745D01*
X140824077Y-101626640D01*
X140813287Y-101642448D01*
X140766056Y-101660529D01*
X140672077Y-101676489D01*
X140548102Y-101687776D01*
X140499724Y-101690190D01*
X140361152Y-101693850D01*
X140258777Y-101686980D01*
X140186863Y-101661401D01*
X140139674Y-101608938D01*
X140111475Y-101521412D01*
X140096529Y-101390647D01*
X140089100Y-101208464D01*
X140086537Y-101101137D01*
X140083107Y-100878011D01*
X140087391Y-100710382D01*
X140104183Y-100590315D01*
X140138279Y-100509873D01*
X140194472Y-100461122D01*
X140277557Y-100436125D01*
X140392328Y-100426947D01*
X140494622Y-100425683D01*
X140654919Y-100435515D01*
X140761687Y-100468603D01*
X140821970Y-100529149D01*
X140842812Y-100621352D01*
X140843000Y-100633425D01*
X140843000Y-100742750D01*
X141017625Y-100742750D01*
X141192250Y-100742750D01*
X141192250Y-100596735D01*
X141177941Y-100435846D01*
X141131237Y-100313152D01*
X141046469Y-100224746D01*
X140917966Y-100166720D01*
X140740061Y-100135166D01*
X140509625Y-100126167D01*
X140268101Y-100136090D01*
X140080833Y-100168067D01*
X139940683Y-100227922D01*
X139840516Y-100321476D01*
X139773196Y-100454553D01*
X139731588Y-100632975D01*
X139715083Y-100774500D01*
X139708883Y-100927161D01*
X139712805Y-101103736D01*
X139725276Y-101288149D01*
X139744721Y-101464325D01*
X139769566Y-101616190D01*
X139798237Y-101727668D01*
X139811556Y-101759585D01*
X139880860Y-101858213D01*
X139976858Y-101928898D01*
X140107677Y-101974186D01*
X140281444Y-101996620D01*
X140506285Y-101998746D01*
X140568274Y-101996537D01*
X140773864Y-101980964D01*
X140922640Y-101953625D01*
X140996899Y-101926577D01*
X141093868Y-101859563D01*
X141159457Y-101762731D01*
X141199813Y-101624146D01*
X141215843Y-101501460D01*
X141232819Y-101314250D01*
X141232819Y-110681222D01*
X141231285Y-110680166D01*
X141231285Y-102457250D01*
X141056462Y-102457250D01*
X140881640Y-102457250D01*
X140870153Y-103174514D01*
X140866279Y-103405682D01*
X140862412Y-103581732D01*
X140857624Y-103711038D01*
X140850984Y-103801976D01*
X140841563Y-103862921D01*
X140828432Y-103902247D01*
X140810661Y-103928329D01*
X140787320Y-103949542D01*
X140783816Y-103952389D01*
X140698966Y-103990875D01*
X140574751Y-104012610D01*
X140433056Y-104017597D01*
X140295766Y-104005837D01*
X140184765Y-103977331D01*
X140140079Y-103952345D01*
X140115913Y-103931174D01*
X140097458Y-103906306D01*
X140083792Y-103869366D01*
X140073995Y-103811979D01*
X140067146Y-103725771D01*
X140062324Y-103602367D01*
X140058609Y-103433391D01*
X140055078Y-103210468D01*
X140054546Y-103174470D01*
X140043968Y-102457250D01*
X139871984Y-102457250D01*
X139700000Y-102457250D01*
X139700000Y-103103791D01*
X139701932Y-103398346D01*
X139709155Y-103636315D01*
X139723805Y-103824532D01*
X139748020Y-103969833D01*
X139783936Y-104079052D01*
X139833692Y-104159025D01*
X139899423Y-104216586D01*
X139983268Y-104258571D01*
X140069969Y-104287003D01*
X140203744Y-104311014D01*
X140370519Y-104321071D01*
X140550522Y-104318080D01*
X140723982Y-104302946D01*
X140871129Y-104276575D01*
X140960275Y-104246233D01*
X141031525Y-104207568D01*
X141087663Y-104164595D01*
X141130637Y-104109532D01*
X141162394Y-104034598D01*
X141184882Y-103932012D01*
X141200048Y-103793992D01*
X141209839Y-103612756D01*
X141216202Y-103380523D01*
X141219216Y-103211500D01*
X141231285Y-102457250D01*
X141231285Y-110680166D01*
X141224000Y-110675156D01*
X141224000Y-107378500D01*
X141224000Y-107235625D01*
X141224000Y-107092750D01*
X141198942Y-107092750D01*
X141198942Y-106073276D01*
X141193711Y-105917491D01*
X141171350Y-105798420D01*
X141124163Y-105709951D01*
X141044456Y-105645968D01*
X140924533Y-105600357D01*
X140756700Y-105567004D01*
X140533260Y-105539795D01*
X140526689Y-105539119D01*
X140378337Y-105521442D01*
X140251547Y-105501731D01*
X140160748Y-105482526D01*
X140121876Y-105467899D01*
X140093224Y-105410480D01*
X140082391Y-105317808D01*
X140089082Y-105215490D01*
X140113002Y-105129134D01*
X140126050Y-105106505D01*
X140157003Y-105076000D01*
X140204794Y-105057423D01*
X140283824Y-105048002D01*
X140408493Y-105044962D01*
X140446047Y-105044875D01*
X140606514Y-105050619D01*
X140713715Y-105071254D01*
X140777127Y-105111879D01*
X140806224Y-105177595D01*
X140811250Y-105241443D01*
X140816693Y-105283512D01*
X140843312Y-105305423D01*
X140906542Y-105313655D01*
X140985875Y-105314750D01*
X141160500Y-105314750D01*
X141160500Y-105202605D01*
X141147358Y-105093209D01*
X141115581Y-104983017D01*
X141114017Y-104979212D01*
X141067877Y-104899516D01*
X140999811Y-104841258D01*
X140900801Y-104801536D01*
X140761829Y-104777448D01*
X140573879Y-104766090D01*
X140446125Y-104764217D01*
X140213206Y-104769497D01*
X140035757Y-104791158D01*
X139906670Y-104834801D01*
X139818837Y-104906028D01*
X139765150Y-105010440D01*
X139738500Y-105153639D01*
X139731750Y-105327169D01*
X139736688Y-105462955D01*
X139756278Y-105569219D01*
X139797684Y-105650554D01*
X139868069Y-105711554D01*
X139974597Y-105756813D01*
X140124433Y-105790924D01*
X140324738Y-105818481D01*
X140530376Y-105839289D01*
X140647781Y-105855359D01*
X140745244Y-105877899D01*
X140797413Y-105899689D01*
X140834620Y-105960281D01*
X140851423Y-106056196D01*
X140847783Y-106162611D01*
X140823655Y-106254701D01*
X140798081Y-106294025D01*
X140735934Y-106324238D01*
X140630058Y-106346244D01*
X140499871Y-106358525D01*
X140364791Y-106359561D01*
X140244237Y-106347836D01*
X140208000Y-106340165D01*
X140134460Y-106313324D01*
X140094010Y-106267557D01*
X140067545Y-106180944D01*
X140066964Y-106178363D01*
X140037054Y-106045000D01*
X139864922Y-106045000D01*
X139692789Y-106045000D01*
X139714970Y-106192911D01*
X139749329Y-106357091D01*
X139801633Y-106470697D01*
X139882837Y-106546266D01*
X140003901Y-106596340D01*
X140084818Y-106616162D01*
X140200931Y-106630734D01*
X140353229Y-106636066D01*
X140523142Y-106633048D01*
X140692100Y-106622566D01*
X140841533Y-106605509D01*
X140952870Y-106582764D01*
X140980017Y-106573368D01*
X141078787Y-106512471D01*
X141145397Y-106420646D01*
X141183951Y-106288513D01*
X141198557Y-106106695D01*
X141198942Y-106073276D01*
X141198942Y-107092750D01*
X140462000Y-107092750D01*
X139700000Y-107092750D01*
X139700000Y-108013500D01*
X139700000Y-108934250D01*
X139874625Y-108934250D01*
X140049250Y-108934250D01*
X140049250Y-108553250D01*
X140049250Y-108172250D01*
X140557250Y-108172250D01*
X141065250Y-108172250D01*
X141065250Y-108029375D01*
X141065250Y-107886500D01*
X140557250Y-107886500D01*
X140049250Y-107886500D01*
X140049250Y-107632500D01*
X140049250Y-107378500D01*
X140636625Y-107378500D01*
X141224000Y-107378500D01*
X141224000Y-110675156D01*
X141153382Y-110626583D01*
X140885780Y-110441752D01*
X140617702Y-110255897D01*
X140354442Y-110072728D01*
X140101290Y-109895954D01*
X139863539Y-109729285D01*
X139646482Y-109576431D01*
X139455411Y-109441103D01*
X139295618Y-109327009D01*
X139172396Y-109237860D01*
X139091037Y-109177365D01*
X139057062Y-109149504D01*
X139049282Y-109138012D01*
X139042262Y-109120137D01*
X139035962Y-109092744D01*
X139030345Y-109052697D01*
X139025370Y-108996861D01*
X139021000Y-108922099D01*
X139017195Y-108825276D01*
X139013916Y-108703257D01*
X139011125Y-108552907D01*
X139008783Y-108371088D01*
X139006852Y-108154667D01*
X139005291Y-107900506D01*
X139004063Y-107605471D01*
X139003128Y-107266427D01*
X139002449Y-106880236D01*
X139001985Y-106443765D01*
X139001698Y-105953877D01*
X139001550Y-105407436D01*
X139001501Y-104801308D01*
X139001500Y-104662424D01*
X139001709Y-103956948D01*
X139002340Y-103314167D01*
X139003401Y-102733276D01*
X139004895Y-102213470D01*
X139006830Y-101753946D01*
X139009211Y-101353898D01*
X139012045Y-101012523D01*
X139015337Y-100729017D01*
X139019093Y-100502574D01*
X139023320Y-100332391D01*
X139028023Y-100217663D01*
X139033208Y-100157586D01*
X139035068Y-100149504D01*
X139057370Y-100103428D01*
X139107416Y-100008207D01*
X139181819Y-99870038D01*
X139277188Y-99695120D01*
X139390137Y-99489651D01*
X139517275Y-99259830D01*
X139655215Y-99011855D01*
X139739934Y-98860188D01*
X139905016Y-98565811D01*
X140042446Y-98322594D01*
X140155041Y-98125982D01*
X140245617Y-97971422D01*
X140316990Y-97854360D01*
X140371977Y-97770243D01*
X140413394Y-97714517D01*
X140444057Y-97682628D01*
X140466782Y-97670022D01*
X140476302Y-97669563D01*
X140500914Y-97685980D01*
X140540164Y-97732453D01*
X140596271Y-97812554D01*
X140671452Y-97929855D01*
X140767926Y-98087929D01*
X140887911Y-98290348D01*
X141033624Y-98540684D01*
X141207283Y-98842511D01*
X141239875Y-98899427D01*
X141938375Y-100119979D01*
X141938375Y-105598241D01*
X141938375Y-105598241D01*
X141938375Y-105598241D01*
G37*
X141938375Y-105598241D02*
X141938337Y-106293253D01*
X141938207Y-106927510D01*
X141937961Y-107503757D01*
X141937572Y-108024740D01*
X141937017Y-108493203D01*
X141936269Y-108911892D01*
X141935304Y-109283551D01*
X141934096Y-109610927D01*
X141932621Y-109896763D01*
X141930854Y-110143806D01*
X141928769Y-110354800D01*
X141926341Y-110532490D01*
X141923546Y-110679621D01*
X141920357Y-110798940D01*
X141916751Y-110893190D01*
X141912702Y-110965116D01*
X141908184Y-111017465D01*
X141903174Y-111052981D01*
X141897645Y-111074409D01*
X141891573Y-111084495D01*
X141888240Y-111086159D01*
X141837552Y-111074192D01*
X141754640Y-111033442D01*
X141665990Y-110978333D01*
X141415216Y-110806680D01*
X141232819Y-110681222D01*
X141232819Y-101314250D01*
X141057913Y-101314250D01*
X140883008Y-101314250D01*
X140866593Y-101459886D01*
X140849049Y-101555745D01*
X140824077Y-101626640D01*
X140813287Y-101642448D01*
X140766056Y-101660529D01*
X140672077Y-101676489D01*
X140548102Y-101687776D01*
X140499724Y-101690190D01*
X140361152Y-101693850D01*
X140258777Y-101686980D01*
X140186863Y-101661401D01*
X140139674Y-101608938D01*
X140111475Y-101521412D01*
X140096529Y-101390647D01*
X140089100Y-101208464D01*
X140086537Y-101101137D01*
X140083107Y-100878011D01*
X140087391Y-100710382D01*
X140104183Y-100590315D01*
X140138279Y-100509873D01*
X140194472Y-100461122D01*
X140277557Y-100436125D01*
X140392328Y-100426947D01*
X140494622Y-100425683D01*
X140654919Y-100435515D01*
X140761687Y-100468603D01*
X140821970Y-100529149D01*
X140842812Y-100621352D01*
X140843000Y-100633425D01*
X140843000Y-100742750D01*
X141017625Y-100742750D01*
X141192250Y-100742750D01*
X141192250Y-100596735D01*
X141177941Y-100435846D01*
X141131237Y-100313152D01*
X141046469Y-100224746D01*
X140917966Y-100166720D01*
X140740061Y-100135166D01*
X140509625Y-100126167D01*
X140268101Y-100136090D01*
X140080833Y-100168067D01*
X139940683Y-100227922D01*
X139840516Y-100321476D01*
X139773196Y-100454553D01*
X139731588Y-100632975D01*
X139715083Y-100774500D01*
X139708883Y-100927161D01*
X139712805Y-101103736D01*
X139725276Y-101288149D01*
X139744721Y-101464325D01*
X139769566Y-101616190D01*
X139798237Y-101727668D01*
X139811556Y-101759585D01*
X139880860Y-101858213D01*
X139976858Y-101928898D01*
X140107677Y-101974186D01*
X140281444Y-101996620D01*
X140506285Y-101998746D01*
X140568274Y-101996537D01*
X140773864Y-101980964D01*
X140922640Y-101953625D01*
X140996899Y-101926577D01*
X141093868Y-101859563D01*
X141159457Y-101762731D01*
X141199813Y-101624146D01*
X141215843Y-101501460D01*
X141232819Y-101314250D01*
X141232819Y-110681222D01*
X141231285Y-110680166D01*
X141231285Y-102457250D01*
X141056462Y-102457250D01*
X140881640Y-102457250D01*
X140870153Y-103174514D01*
X140866279Y-103405682D01*
X140862412Y-103581732D01*
X140857624Y-103711038D01*
X140850984Y-103801976D01*
X140841563Y-103862921D01*
X140828432Y-103902247D01*
X140810661Y-103928329D01*
X140787320Y-103949542D01*
X140783816Y-103952389D01*
X140698966Y-103990875D01*
X140574751Y-104012610D01*
X140433056Y-104017597D01*
X140295766Y-104005837D01*
X140184765Y-103977331D01*
X140140079Y-103952345D01*
X140115913Y-103931174D01*
X140097458Y-103906306D01*
X140083792Y-103869366D01*
X140073995Y-103811979D01*
X140067146Y-103725771D01*
X140062324Y-103602367D01*
X140058609Y-103433391D01*
X140055078Y-103210468D01*
X140054546Y-103174470D01*
X140043968Y-102457250D01*
X139871984Y-102457250D01*
X139700000Y-102457250D01*
X139700000Y-103103791D01*
X139701932Y-103398346D01*
X139709155Y-103636315D01*
X139723805Y-103824532D01*
X139748020Y-103969833D01*
X139783936Y-104079052D01*
X139833692Y-104159025D01*
X139899423Y-104216586D01*
X139983268Y-104258571D01*
X140069969Y-104287003D01*
X140203744Y-104311014D01*
X140370519Y-104321071D01*
X140550522Y-104318080D01*
X140723982Y-104302946D01*
X140871129Y-104276575D01*
X140960275Y-104246233D01*
X141031525Y-104207568D01*
X141087663Y-104164595D01*
X141130637Y-104109532D01*
X141162394Y-104034598D01*
X141184882Y-103932012D01*
X141200048Y-103793992D01*
X141209839Y-103612756D01*
X141216202Y-103380523D01*
X141219216Y-103211500D01*
X141231285Y-102457250D01*
X141231285Y-110680166D01*
X141224000Y-110675156D01*
X141224000Y-107378500D01*
X141224000Y-107235625D01*
X141224000Y-107092750D01*
X141198942Y-107092750D01*
X141198942Y-106073276D01*
X141193711Y-105917491D01*
X141171350Y-105798420D01*
X141124163Y-105709951D01*
X141044456Y-105645968D01*
X140924533Y-105600357D01*
X140756700Y-105567004D01*
X140533260Y-105539795D01*
X140526689Y-105539119D01*
X140378337Y-105521442D01*
X140251547Y-105501731D01*
X140160748Y-105482526D01*
X140121876Y-105467899D01*
X140093224Y-105410480D01*
X140082391Y-105317808D01*
X140089082Y-105215490D01*
X140113002Y-105129134D01*
X140126050Y-105106505D01*
X140157003Y-105076000D01*
X140204794Y-105057423D01*
X140283824Y-105048002D01*
X140408493Y-105044962D01*
X140446047Y-105044875D01*
X140606514Y-105050619D01*
X140713715Y-105071254D01*
X140777127Y-105111879D01*
X140806224Y-105177595D01*
X140811250Y-105241443D01*
X140816693Y-105283512D01*
X140843312Y-105305423D01*
X140906542Y-105313655D01*
X140985875Y-105314750D01*
X141160500Y-105314750D01*
X141160500Y-105202605D01*
X141147358Y-105093209D01*
X141115581Y-104983017D01*
X141114017Y-104979212D01*
X141067877Y-104899516D01*
X140999811Y-104841258D01*
X140900801Y-104801536D01*
X140761829Y-104777448D01*
X140573879Y-104766090D01*
X140446125Y-104764217D01*
X140213206Y-104769497D01*
X140035757Y-104791158D01*
X139906670Y-104834801D01*
X139818837Y-104906028D01*
X139765150Y-105010440D01*
X139738500Y-105153639D01*
X139731750Y-105327169D01*
X139736688Y-105462955D01*
X139756278Y-105569219D01*
X139797684Y-105650554D01*
X139868069Y-105711554D01*
X139974597Y-105756813D01*
X140124433Y-105790924D01*
X140324738Y-105818481D01*
X140530376Y-105839289D01*
X140647781Y-105855359D01*
X140745244Y-105877899D01*
X140797413Y-105899689D01*
X140834620Y-105960281D01*
X140851423Y-106056196D01*
X140847783Y-106162611D01*
X140823655Y-106254701D01*
X140798081Y-106294025D01*
X140735934Y-106324238D01*
X140630058Y-106346244D01*
X140499871Y-106358525D01*
X140364791Y-106359561D01*
X140244237Y-106347836D01*
X140208000Y-106340165D01*
X140134460Y-106313324D01*
X140094010Y-106267557D01*
X140067545Y-106180944D01*
X140066964Y-106178363D01*
X140037054Y-106045000D01*
X139864922Y-106045000D01*
X139692789Y-106045000D01*
X139714970Y-106192911D01*
X139749329Y-106357091D01*
X139801633Y-106470697D01*
X139882837Y-106546266D01*
X140003901Y-106596340D01*
X140084818Y-106616162D01*
X140200931Y-106630734D01*
X140353229Y-106636066D01*
X140523142Y-106633048D01*
X140692100Y-106622566D01*
X140841533Y-106605509D01*
X140952870Y-106582764D01*
X140980017Y-106573368D01*
X141078787Y-106512471D01*
X141145397Y-106420646D01*
X141183951Y-106288513D01*
X141198557Y-106106695D01*
X141198942Y-106073276D01*
X141198942Y-107092750D01*
X140462000Y-107092750D01*
X139700000Y-107092750D01*
X139700000Y-108013500D01*
X139700000Y-108934250D01*
X139874625Y-108934250D01*
X140049250Y-108934250D01*
X140049250Y-108553250D01*
X140049250Y-108172250D01*
X140557250Y-108172250D01*
X141065250Y-108172250D01*
X141065250Y-108029375D01*
X141065250Y-107886500D01*
X140557250Y-107886500D01*
X140049250Y-107886500D01*
X140049250Y-107632500D01*
X140049250Y-107378500D01*
X140636625Y-107378500D01*
X141224000Y-107378500D01*
X141224000Y-110675156D01*
X141153382Y-110626583D01*
X140885780Y-110441752D01*
X140617702Y-110255897D01*
X140354442Y-110072728D01*
X140101290Y-109895954D01*
X139863539Y-109729285D01*
X139646482Y-109576431D01*
X139455411Y-109441103D01*
X139295618Y-109327009D01*
X139172396Y-109237860D01*
X139091037Y-109177365D01*
X139057062Y-109149504D01*
X139049282Y-109138012D01*
X139042262Y-109120137D01*
X139035962Y-109092744D01*
X139030345Y-109052697D01*
X139025370Y-108996861D01*
X139021000Y-108922099D01*
X139017195Y-108825276D01*
X139013916Y-108703257D01*
X139011125Y-108552907D01*
X139008783Y-108371088D01*
X139006852Y-108154667D01*
X139005291Y-107900506D01*
X139004063Y-107605471D01*
X139003128Y-107266427D01*
X139002449Y-106880236D01*
X139001985Y-106443765D01*
X139001698Y-105953877D01*
X139001550Y-105407436D01*
X139001501Y-104801308D01*
X139001500Y-104662424D01*
X139001709Y-103956948D01*
X139002340Y-103314167D01*
X139003401Y-102733276D01*
X139004895Y-102213470D01*
X139006830Y-101753946D01*
X139009211Y-101353898D01*
X139012045Y-101012523D01*
X139015337Y-100729017D01*
X139019093Y-100502574D01*
X139023320Y-100332391D01*
X139028023Y-100217663D01*
X139033208Y-100157586D01*
X139035068Y-100149504D01*
X139057370Y-100103428D01*
X139107416Y-100008207D01*
X139181819Y-99870038D01*
X139277188Y-99695120D01*
X139390137Y-99489651D01*
X139517275Y-99259830D01*
X139655215Y-99011855D01*
X139739934Y-98860188D01*
X139905016Y-98565811D01*
X140042446Y-98322594D01*
X140155041Y-98125982D01*
X140245617Y-97971422D01*
X140316990Y-97854360D01*
X140371977Y-97770243D01*
X140413394Y-97714517D01*
X140444057Y-97682628D01*
X140466782Y-97670022D01*
X140476302Y-97669563D01*
X140500914Y-97685980D01*
X140540164Y-97732453D01*
X140596271Y-97812554D01*
X140671452Y-97929855D01*
X140767926Y-98087929D01*
X140887911Y-98290348D01*
X141033624Y-98540684D01*
X141207283Y-98842511D01*
X141239875Y-98899427D01*
X141938375Y-100119979D01*
X141938375Y-105598241D01*
X141938375Y-105598241D01*
D15*
X201537000Y-110693000D02*
X201537000Y-107993000D01*
X200037000Y-110693000D02*
X200037000Y-107993000D01*
X200937000Y-109193000D02*
X200687000Y-109193000D01*
X200687000Y-109193000D02*
X200837000Y-109343000D01*
X200437000Y-109443000D02*
X201137000Y-109443000D01*
X200787000Y-109093000D02*
X200787000Y-108743000D01*
X200787000Y-109443000D02*
X200437000Y-109093000D01*
X200437000Y-109093000D02*
X201137000Y-109093000D01*
X201137000Y-109093000D02*
X200787000Y-109443000D01*
X185027000Y-104724000D02*
X185027000Y-102024000D01*
X183527000Y-104724000D02*
X183527000Y-102024000D01*
X184427000Y-103224000D02*
X184177000Y-103224000D01*
X184177000Y-103224000D02*
X184327000Y-103374000D01*
X183927000Y-103474000D02*
X184627000Y-103474000D01*
X184277000Y-103124000D02*
X184277000Y-102774000D01*
X184277000Y-103474000D02*
X183927000Y-103124000D01*
X183927000Y-103124000D02*
X184627000Y-103124000D01*
X184627000Y-103124000D02*
X184277000Y-103474000D01*
X182995000Y-104724000D02*
X182995000Y-102024000D01*
X181495000Y-104724000D02*
X181495000Y-102024000D01*
X182395000Y-103224000D02*
X182145000Y-103224000D01*
X182145000Y-103224000D02*
X182295000Y-103374000D01*
X181895000Y-103474000D02*
X182595000Y-103474000D01*
X182245000Y-103124000D02*
X182245000Y-102774000D01*
X182245000Y-103474000D02*
X181895000Y-103124000D01*
X181895000Y-103124000D02*
X182595000Y-103124000D01*
X182595000Y-103124000D02*
X182245000Y-103474000D01*
X203569000Y-110693000D02*
X203569000Y-107993000D01*
X202069000Y-110693000D02*
X202069000Y-107993000D01*
X202969000Y-109193000D02*
X202719000Y-109193000D01*
X202719000Y-109193000D02*
X202869000Y-109343000D01*
X202469000Y-109443000D02*
X203169000Y-109443000D01*
X202819000Y-109093000D02*
X202819000Y-108743000D01*
X202819000Y-109443000D02*
X202469000Y-109093000D01*
X202469000Y-109093000D02*
X203169000Y-109093000D01*
X203169000Y-109093000D02*
X202819000Y-109443000D01*
X199912000Y-113249000D02*
X199912000Y-112049000D01*
X201662000Y-112049000D02*
X201662000Y-113249000D01*
X183402000Y-107280000D02*
X183402000Y-106080000D01*
X185152000Y-106080000D02*
X185152000Y-107280000D01*
X181370000Y-107280000D02*
X181370000Y-106080000D01*
X183120000Y-106080000D02*
X183120000Y-107280000D01*
X201944000Y-113249000D02*
X201944000Y-112049000D01*
X203694000Y-112049000D02*
X203694000Y-113249000D01*
X195199000Y-94234000D02*
X195199000Y-106299000D01*
X195199000Y-106299000D02*
X186309000Y-106299000D01*
X186309000Y-106299000D02*
X186309000Y-94234000D01*
X195199000Y-94234000D02*
X186309000Y-94234000D01*
D12*
X205038477Y-121871619D02*
X205667429Y-121871619D01*
X205328763Y-122258667D01*
X205473905Y-122258667D01*
X205570667Y-122307048D01*
X205619048Y-122355429D01*
X205667429Y-122452190D01*
X205667429Y-122694095D01*
X205619048Y-122790857D01*
X205570667Y-122839238D01*
X205473905Y-122887619D01*
X205183620Y-122887619D01*
X205086858Y-122839238D01*
X205038477Y-122790857D01*
X206006096Y-122210286D02*
X206248001Y-122887619D01*
X206489905Y-122210286D01*
X206780191Y-121871619D02*
X207409143Y-121871619D01*
X207070477Y-122258667D01*
X207215619Y-122258667D01*
X207312381Y-122307048D01*
X207360762Y-122355429D01*
X207409143Y-122452190D01*
X207409143Y-122694095D01*
X207360762Y-122790857D01*
X207312381Y-122839238D01*
X207215619Y-122887619D01*
X206925334Y-122887619D01*
X206828572Y-122839238D01*
X206780191Y-122790857D01*
D14*
X175913143Y-82834238D02*
X176058286Y-82882619D01*
X176300190Y-82882619D01*
X176396952Y-82834238D01*
X176445333Y-82785857D01*
X176493714Y-82689095D01*
X176493714Y-82592333D01*
X176445333Y-82495571D01*
X176396952Y-82447190D01*
X176300190Y-82398810D01*
X176106667Y-82350429D01*
X176009905Y-82302048D01*
X175961524Y-82253667D01*
X175913143Y-82156905D01*
X175913143Y-82060143D01*
X175961524Y-81963381D01*
X176009905Y-81915000D01*
X176106667Y-81866619D01*
X176348571Y-81866619D01*
X176493714Y-81915000D01*
X176832381Y-81866619D02*
X177074286Y-82882619D01*
X177267809Y-82156905D01*
X177461333Y-82882619D01*
X177703238Y-81866619D01*
X178090286Y-82882619D02*
X178090286Y-81866619D01*
X178332191Y-81866619D01*
X178477333Y-81915000D01*
X178574095Y-82011762D01*
X178622476Y-82108524D01*
X178670857Y-82302048D01*
X178670857Y-82447190D01*
X178622476Y-82640714D01*
X178574095Y-82737476D01*
X178477333Y-82834238D01*
X178332191Y-82882619D01*
X178090286Y-82882619D01*
M02*
