  0
SECTION
  2
HEADER
  9
$ANGBASE
  50
0.0
  9
$ANGDIR
  70
  1
  9
$MEASUREMENT
  70
0
  0
ENDSEC
  0
SECTION
  2
TABLES
  0
TABLE
  2
LTYPE
  70
1
  0
LTYPE
  2
CONTINUOUS
  70
0
  3
Solid line
  72
65
  73
0
  40
0.0
  0
ENDTAB
  0
TABLE
  2
STYLE
  70
4
  0
STYLE
  2
KICAD
  70
0
  40
0
  41
1
  42
1
  50
0
  71
0
  3
isocp.shx
  0
STYLE
  2
KICADB
  70
0
  40
0
  41
1
  42
1
  50
0
  71
0
  3
isocp.shx
  0
STYLE
  2
KICADI
  70
0
  40
0
  41
1
  42
1
  50
15
  71
0
  3
isocp.shx
  0
STYLE
  2
KICADBI
  70
0
  40
0
  41
1
  42
1
  50
15
  71
0
  3
isocp.shx
  0
ENDTAB
  0
TABLE
  2
LAYER
  70
30
  0
LAYER
  2
BLACK
  70
0
  62
7
  6
CONTINUOUS
  0
LAYER
  2
GRAY1
  70
0
  62
251
  6
CONTINUOUS
  0
LAYER
  2
GRAY2
  70
0
  62
8
  6
CONTINUOUS
  0
LAYER
  2
GRAY3
  70
0
  62
9
  6
CONTINUOUS
  0
LAYER
  2
WHITE
  70
0
  62
7
  6
CONTINUOUS
  0
LAYER
  2
LYELLOW
  70
0
  62
51
  6
CONTINUOUS
  0
LAYER
  2
BLUE1
  70
0
  62
178
  6
CONTINUOUS
  0
LAYER
  2
GREEN1
  70
0
  62
98
  6
CONTINUOUS
  0
LAYER
  2
CYAN1
  70
0
  62
138
  6
CONTINUOUS
  0
LAYER
  2
RED1
  70
0
  62
18
  6
CONTINUOUS
  0
LAYER
  2
MAGENTA1
  70
0
  62
228
  6
CONTINUOUS
  0
LAYER
  2
BROWN1
  70
0
  62
58
  6
CONTINUOUS
  0
LAYER
  2
BLUE2
  70
0
  62
5
  6
CONTINUOUS
  0
LAYER
  2
GREEN2
  70
0
  62
3
  6
CONTINUOUS
  0
LAYER
  2
CYAN2
  70
0
  62
4
  6
CONTINUOUS
  0
LAYER
  2
RED2
  70
0
  62
1
  6
CONTINUOUS
  0
LAYER
  2
MAGENTA2
  70
0
  62
6
  6
CONTINUOUS
  0
LAYER
  2
BROWN2
  70
0
  62
54
  6
CONTINUOUS
  0
LAYER
  2
BLUE3
  70
0
  62
171
  6
CONTINUOUS
  0
LAYER
  2
GREEN3
  70
0
  62
91
  6
CONTINUOUS
  0
LAYER
  2
CYAN3
  70
0
  62
131
  6
CONTINUOUS
  0
LAYER
  2
RED3
  70
0
  62
11
  6
CONTINUOUS
  0
LAYER
  2
MAGENTA3
  70
0
  62
221
  6
CONTINUOUS
  0
LAYER
  2
YELLOW3
  70
0
  62
2
  6
CONTINUOUS
  0
LAYER
  2
BLUE4
  70
0
  62
5
  6
CONTINUOUS
  0
LAYER
  2
GREEN4
  70
0
  62
3
  6
CONTINUOUS
  0
LAYER
  2
CYAN4
  70
0
  62
4
  6
CONTINUOUS
  0
LAYER
  2
RED4
  70
0
  62
1
  6
CONTINUOUS
  0
LAYER
  2
MAGENTA4
  70
0
  62
6
  6
CONTINUOUS
  0
LAYER
  2
YELLOW4
  70
0
  62
2
  6
CONTINUOUS
  0
ENDTAB
  0
ENDSEC
  0
SECTION
  2
ENTITIES
0
LINE
8
Black
10
216.843
20
-216.843
11
215.593
21
-215.593
0
LINE
8
Black
10
215.593
20
-215.593
11
216.843
21
-216.843
0
LINE
8
Black
10
208.206
20
-208.206
11
206.956
21
-206.956
0
LINE
8
Black
10
206.956
20
-206.956
11
208.206
21
-208.206
0
LINE
8
Black
10
210.424
20
-210.424
11
208.974
21
-208.974
0
LINE
8
Black
10
208.974
20
-208.974
11
210.424
21
-210.424
0
LINE
8
Black
10
214.825
20
-214.825
11
213.374
21
-213.374
0
LINE
8
Black
10
213.374
20
-213.374
11
214.825
21
-214.825
0
LINE
8
Black
10
210.424
20
-210.424
11
208.974
21
-208.974
0
LINE
8
Black
10
208.974
20
-208.974
11
210.424
21
-210.424
0
LINE
8
Black
10
214.825
20
-214.825
11
213.374
21
-213.374
0
LINE
8
Black
10
213.374
20
-213.374
11
214.825
21
-214.825
0
LINE
8
Black
10
214.825
20
-214.825
11
213.374
21
-213.374
0
LINE
8
Black
10
213.374
20
-213.374
11
214.825
21
-214.825
0
LINE
8
Black
10
210.424
20
-210.424
11
208.974
21
-208.974
0
LINE
8
Black
10
208.974
20
-208.974
11
210.424
21
-210.424
0
LINE
8
Black
10
216.843
20
-216.843
11
215.593
21
-215.593
0
LINE
8
Black
10
215.593
20
-215.593
11
216.843
21
-216.843
0
LINE
8
Black
10
208.206
20
-208.206
11
206.956
21
-206.956
0
LINE
8
Black
10
206.956
20
-206.956
11
208.206
21
-208.206
0
LINE
8
Black
10
214.825
20
-214.825
11
213.374
21
-213.374
0
LINE
8
Black
10
213.374
20
-213.374
11
214.825
21
-214.825
0
LINE
8
Black
10
210.424
20
-210.424
11
208.974
21
-208.974
0
LINE
8
Black
10
208.974
20
-208.974
11
210.424
21
-210.424
0
LINE
8
Black
10
191.912
20
-191.912
11
190.612
21
-190.612
0
LINE
8
Black
10
190.612
20
-190.612
11
191.912
21
-191.912
0
LINE
8
Black
10
138.488
20
-138.488
11
138.987
21
-138.987
0
LINE
8
Black
10
138.987
20
-138.987
11
139.356
21
-139.356
0
LINE
8
Black
10
139.356
20
-139.356
11
139.553
21
-139.553
0
LINE
8
Black
10
139.553
20
-139.553
11
139.356
21
-139.356
0
LINE
8
Black
10
139.356
20
-139.356
11
138.987
21
-138.987
0
LINE
8
Black
10
138.987
20
-138.987
11
138.488
21
-138.488
0
LINE
8
Black
10
138.488
20
-138.488
11
137.922
21
-137.922
0
LINE
8
Black
10
137.922
20
-137.922
11
137.356
21
-137.356
0
LINE
8
Black
10
137.356
20
-137.356
11
136.857
21
-136.857
0
LINE
8
Black
10
136.857
20
-136.857
11
136.488
21
-136.488
0
LINE
8
Black
10
136.488
20
-136.488
11
136.291
21
-136.291
0
LINE
8
Black
10
136.291
20
-136.291
11
136.488
21
-136.488
0
LINE
8
Black
10
136.488
20
-136.488
11
136.857
21
-136.857
0
LINE
8
Black
10
136.857
20
-136.857
11
137.356
21
-137.356
0
LINE
8
Black
10
137.356
20
-137.356
11
137.922
21
-137.922
0
LINE
8
Black
10
137.922
20
-137.922
11
138.488
21
-138.488
0
LINE
8
Black
10
220.276
20
-220.276
11
220.775
21
-220.775
0
LINE
8
Black
10
220.775
20
-220.775
11
221.144
21
-221.144
0
LINE
8
Black
10
221.144
20
-221.144
11
221.341
21
-221.341
0
LINE
8
Black
10
221.341
20
-221.341
11
221.144
21
-221.144
0
LINE
8
Black
10
221.144
20
-221.144
11
220.775
21
-220.775
0
LINE
8
Black
10
220.775
20
-220.775
11
220.276
21
-220.276
0
LINE
8
Black
10
220.276
20
-220.276
11
219.71
21
-219.71
0
LINE
8
Black
10
219.71
20
-219.71
11
219.144
21
-219.144
0
LINE
8
Black
10
219.144
20
-219.144
11
218.645
21
-218.645
0
LINE
8
Black
10
218.645
20
-218.645
11
218.276
21
-218.276
0
LINE
8
Black
10
218.276
20
-218.276
11
218.079
21
-218.079
0
LINE
8
Black
10
218.079
20
-218.079
11
218.276
21
-218.276
0
LINE
8
Black
10
218.276
20
-218.276
11
218.645
21
-218.645
0
LINE
8
Black
10
218.645
20
-218.645
11
219.144
21
-219.144
0
LINE
8
Black
10
219.144
20
-219.144
11
219.71
21
-219.71
0
LINE
8
Black
10
219.71
20
-219.71
11
220.276
21
-220.276
0
LINE
8
Black
10
175.98
20
-175.98
11
175.18
21
-175.18
0
LINE
8
Black
10
175.18
20
-175.18
11
175.98
21
-175.98
0
LINE
8
Black
10
177.88
20
-177.88
11
177.08
21
-177.08
0
LINE
8
Black
10
177.08
20
-177.08
11
177.88
21
-177.88
0
LINE
8
Black
10
165.566
20
-165.566
11
164.766
21
-164.766
0
LINE
8
Black
10
164.766
20
-164.766
11
165.566
21
-165.566
0
LINE
8
Black
10
167.466
20
-167.466
11
166.666
21
-166.666
0
LINE
8
Black
10
166.666
20
-166.666
11
167.466
21
-167.466
0
LINE
8
Black
10
154.898
20
-154.898
11
154.098
21
-154.098
0
LINE
8
Black
10
154.098
20
-154.098
11
154.898
21
-154.898
0
LINE
8
Black
10
156.798
20
-156.798
11
155.998
21
-155.998
0
LINE
8
Black
10
155.998
20
-155.998
11
156.798
21
-156.798
0
LINE
8
Black
10
159.654
20
-159.654
11
158.354
21
-158.354
0
LINE
8
Black
10
158.354
20
-158.354
11
159.654
21
-159.654
0
LINE
8
Black
10
170.576
20
-170.576
11
169.276
21
-169.276
0
LINE
8
Black
10
169.276
20
-169.276
11
170.576
21
-170.576
0
LINE
8
Black
10
181.244
20
-181.244
11
179.944
21
-179.944
0
LINE
8
Black
10
179.944
20
-179.944
11
181.244
21
-181.244
0
LINE
8
Black
10
197.554
20
-197.554
11
196.654
21
-196.654
0
LINE
8
Black
10
196.654
20
-196.654
11
197.554
21
-197.554
0
LINE
8
Black
10
199.84
20
-199.84
11
198.94
21
-198.94
0
LINE
8
Black
10
198.94
20
-198.94
11
199.84
21
-199.84
0
LINE
8
Black
10
202.126
20
-202.126
11
201.226
21
-201.226
0
LINE
8
Black
10
201.226
20
-201.226
11
202.126
21
-202.126
0
LINE
8
Black
10
186.648
20
-186.648
11
185.848
21
-185.848
0
LINE
8
Black
10
185.848
20
-185.848
11
186.648
21
-186.648
0
LINE
8
Black
10
188.548
20
-188.548
11
187.748
21
-187.748
0
LINE
8
Black
10
187.748
20
-187.748
11
188.548
21
-188.548
0
LINE
8
Black
10
202.126
20
-202.126
11
201.226
21
-201.226
0
LINE
8
Black
10
201.226
20
-201.226
11
202.126
21
-202.126
0
LINE
8
Black
10
197.554
20
-197.554
11
196.654
21
-196.654
0
LINE
8
Black
10
196.654
20
-196.654
11
197.554
21
-197.554
0
LINE
8
Black
10
199.84
20
-199.84
11
198.94
21
-198.94
0
LINE
8
Black
10
198.94
20
-198.94
11
199.84
21
-199.84
0
LINE
8
Black
10
191.912
20
-191.912
11
190.612
21
-190.612
0
LINE
8
Black
10
190.612
20
-190.612
11
191.912
21
-191.912
0
LINE
8
Black
10
166.516
20
-166.516
11
165.716
21
-165.716
0
LINE
8
Black
10
165.716
20
-165.716
11
166.516
21
-166.516
0
LINE
8
Black
10
176.93
20
-176.93
11
176.13
21
-176.13
0
LINE
8
Black
10
176.13
20
-176.13
11
176.93
21
-176.93
0
LINE
8
Black
10
155.848
20
-155.848
11
155.048
21
-155.048
0
LINE
8
Black
10
155.048
20
-155.048
11
155.848
21
-155.848
0
LINE
8
Black
10
159.654
20
-159.654
11
158.354
21
-158.354
0
LINE
8
Black
10
158.354
20
-158.354
11
159.654
21
-159.654
0
LINE
8
Black
10
170.576
20
-170.576
11
169.276
21
-169.276
0
LINE
8
Black
10
169.276
20
-169.276
11
170.576
21
-170.576
0
LINE
8
Black
10
181.244
20
-181.244
11
179.944
21
-179.944
0
LINE
8
Black
10
179.944
20
-179.944
11
181.244
21
-181.244
0
LINE
8
Black
10
187.598
20
-187.598
11
186.798
21
-186.798
0
LINE
8
Black
10
186.798
20
-186.798
11
187.598
21
-187.598
0
LINE
8
Black
10
165.008
20
-165.008
11
164.308
21
-164.308
0
LINE
8
Black
10
164.308
20
-164.308
11
165.008
21
-165.008
0
LINE
8
Black
10
166.908
20
-166.908
11
166.208
21
-166.208
0
LINE
8
Black
10
166.208
20
-166.208
11
166.908
21
-166.908
0
LINE
8
Black
10
170.464
20
-170.464
11
169.764
21
-169.764
0
LINE
8
Black
10
169.764
20
-169.764
11
170.464
21
-170.464
0
LINE
8
Black
10
168.564
20
-168.564
11
167.864
21
-167.864
0
LINE
8
Black
10
167.864
20
-167.864
11
168.564
21
-168.564
0
LINE
8
Black
10
175.93
20
-175.93
11
175.23
21
-175.23
0
LINE
8
Black
10
175.23
20
-175.23
11
175.93
21
-175.93
0
LINE
8
Black
10
177.83
20
-177.83
11
177.13
21
-177.13
0
LINE
8
Black
10
177.13
20
-177.13
11
177.83
21
-177.83
0
LINE
8
Black
10
179.486
20
-179.486
11
178.786
21
-178.786
0
LINE
8
Black
10
178.786
20
-178.786
11
179.486
21
-179.486
0
LINE
8
Black
10
181.386
20
-181.386
11
180.686
21
-180.686
0
LINE
8
Black
10
180.686
20
-180.686
11
181.386
21
-181.386
0
LINE
8
Black
10
192.054
20
-192.054
11
191.354
21
-191.354
0
LINE
8
Black
10
191.354
20
-191.354
11
192.054
21
-192.054
0
LINE
8
Black
10
190.154
20
-190.154
11
189.454
21
-189.454
0
LINE
8
Black
10
189.454
20
-189.454
11
190.154
21
-190.154
0
LINE
8
Black
10
155.478
20
-155.478
11
154.778
21
-154.778
0
LINE
8
Black
10
154.778
20
-154.778
11
155.478
21
-155.478
0
LINE
8
Black
10
188.498
20
-188.498
11
187.798
21
-187.798
0
LINE
8
Black
10
187.798
20
-187.798
11
188.498
21
-188.498
0
LINE
8
Black
10
186.598
20
-186.598
11
185.898
21
-185.898
0
LINE
8
Black
10
185.898
20
-185.898
11
186.598
21
-186.598
0
LINE
8
Black
10
157.134
20
-157.134
11
156.434
21
-156.434
0
LINE
8
Black
10
156.434
20
-156.434
11
157.134
21
-157.134
0
LINE
8
Black
10
159.034
20
-159.034
11
158.334
21
-158.334
0
LINE
8
Black
10
158.334
20
-158.334
11
159.034
21
-159.034
0
LINE
8
Black
10
153.578
20
-153.578
11
152.878
21
-152.878
0
LINE
8
Black
10
152.878
20
-152.878
11
153.578
21
-153.578
0
LINE
8
Black
10
210.896
20
-210.896
11
209.896
21
-209.896
0
LINE
8
Black
10
209.896
20
-209.896
11
210.896
21
-210.896
0
LINE
8
Black
10
208.696
20
-208.696
11
207.696
21
-207.696
0
LINE
8
Black
10
207.696
20
-207.696
11
208.696
21
-208.696
0
LINE
8
Black
10
201.437
20
-201.437
11
200.137
21
-200.137
0
LINE
8
Black
10
200.137
20
-200.137
11
201.437
21
-201.437
0
LINE
8
Black
10
203.469
20
-203.469
11
202.169
21
-202.169
0
LINE
8
Black
10
202.169
20
-202.169
11
203.469
21
-203.469
0
LINE
8
Black
10
190.149
20
-190.149
11
189.449
21
-189.449
0
LINE
8
Black
10
189.449
20
-189.449
11
190.149
21
-190.149
0
LINE
8
Black
10
188.249
20
-188.249
11
187.549
21
-187.549
0
LINE
8
Black
10
187.549
20
-187.549
11
188.249
21
-188.249
0
LINE
8
Black
10
184.947
20
-184.947
11
184.247
21
-184.247
0
LINE
8
Black
10
184.247
20
-184.247
11
184.947
21
-184.947
0
LINE
8
Black
10
186.847
20
-186.847
11
186.147
21
-186.147
0
LINE
8
Black
10
186.147
20
-186.147
11
186.847
21
-186.847
0
LINE
8
Black
10
203.469
20
-203.469
11
202.169
21
-202.169
0
LINE
8
Black
10
202.169
20
-202.169
11
203.469
21
-203.469
0
LINE
8
Black
10
201.437
20
-201.437
11
200.137
21
-200.137
0
LINE
8
Black
10
200.137
20
-200.137
11
201.437
21
-201.437
0
LINE
8
Black
10
223.208
20
-223.208
11
222.308
21
-222.308
0
LINE
8
Black
10
222.308
20
-222.308
11
223.208
21
-223.208
0
LINE
8
Black
10
203.418
20
-203.418
11
202.22
21
-202.22
0
LINE
8
Black
10
202.22
20
-202.22
11
203.418
21
-203.418
0
LINE
8
Black
10
201.386
20
-201.386
11
200.188
21
-200.188
0
LINE
8
Black
10
200.188
20
-200.188
11
201.386
21
-201.386
0
LINE
8
Black
10
173.363
20
-173.363
11
172.363
21
-172.363
0
LINE
8
Black
10
172.363
20
-172.363
11
173.363
21
-173.363
0
LINE
8
Black
10
175.363
20
-175.363
11
174.363
21
-174.363
0
LINE
8
Black
10
174.363
20
-174.363
11
175.363
21
-175.363
0
LINE
8
Black
10
223.208
20
-223.208
11
222.308
21
-222.308
0
LINE
8
Black
10
222.308
20
-222.308
11
223.208
21
-223.208
0
LINE
8
Black
10
201.386
20
-201.386
11
200.188
21
-200.188
0
LINE
8
Black
10
200.188
20
-200.188
11
201.386
21
-201.386
0
LINE
8
Black
10
203.418
20
-203.418
11
202.22
21
-202.22
0
LINE
8
Black
10
202.22
20
-202.22
11
203.418
21
-203.418
0
LINE
8
Black
10
163.693
20
-163.693
11
162.443
21
-162.443
0
LINE
8
Black
10
162.443
20
-162.443
11
163.693
21
-163.693
0
LINE
8
Black
10
161.661
20
-161.661
11
160.411
21
-160.411
0
LINE
8
Black
10
160.411
20
-160.411
11
161.661
21
-161.661
0
LINE
8
Black
10
184.927
20
-184.927
11
183.627
21
-183.627
0
LINE
8
Black
10
183.627
20
-183.627
11
184.927
21
-184.927
0
LINE
8
Black
10
182.895
20
-182.895
11
181.595
21
-181.595
0
LINE
8
Black
10
181.595
20
-181.595
11
182.895
21
-182.895
0
LINE
8
Black
10
172.088
20
-172.088
11
171.788
21
-171.788
0
LINE
8
Black
10
171.788
20
-171.788
11
172.088
21
-172.088
0
LINE
8
Black
10
170.588
20
-170.588
11
170.288
21
-170.288
0
LINE
8
Black
10
170.288
20
-170.288
11
170.588
21
-170.588
0
LINE
8
Black
10
171.088
20
-171.088
11
170.788
21
-170.788
0
LINE
8
Black
10
170.788
20
-170.788
11
171.088
21
-171.088
0
LINE
8
Black
10
171.588
20
-171.588
11
171.288
21
-171.288
0
LINE
8
Black
10
171.288
20
-171.288
11
171.588
21
-171.588
0
LINE
8
Black
10
170.088
20
-170.088
11
169.788
21
-169.788
0
LINE
8
Black
10
169.788
20
-169.788
11
170.088
21
-170.088
0
LINE
8
Black
10
172.588
20
-172.588
11
172.288
21
-172.288
0
LINE
8
Black
10
172.288
20
-172.288
11
172.588
21
-172.588
0
LINE
8
Black
10
169.588
20
-169.588
11
169.288
21
-169.288
0
LINE
8
Black
10
169.288
20
-169.288
11
169.588
21
-169.588
0
LINE
8
Black
10
169.088
20
-169.088
11
168.788
21
-168.788
0
LINE
8
Black
10
168.788
20
-168.788
11
169.088
21
-169.088
0
LINE
8
Black
10
173.088
20
-173.088
11
172.788
21
-172.788
0
LINE
8
Black
10
172.788
20
-172.788
11
173.088
21
-173.088
0
LINE
8
Black
10
168.588
20
-168.588
11
168.288
21
-168.288
0
LINE
8
Black
10
168.288
20
-168.288
11
168.588
21
-168.588
0
LINE
8
Black
10
173.588
20
-173.588
11
173.288
21
-173.288
0
LINE
8
Black
10
173.288
20
-173.288
11
173.588
21
-173.588
0
LINE
8
Black
10
168.088
20
-168.088
11
167.788
21
-167.788
0
LINE
8
Black
10
167.788
20
-167.788
11
168.088
21
-168.088
0
LINE
8
Black
10
182.895
20
-182.895
11
181.595
21
-181.595
0
LINE
8
Black
10
181.595
20
-181.595
11
182.895
21
-182.895
0
LINE
8
Black
10
184.927
20
-184.927
11
183.627
21
-183.627
0
LINE
8
Black
10
183.627
20
-183.627
11
184.927
21
-184.927
0
LINE
8
Black
10
161.661
20
-161.661
11
160.411
21
-160.411
0
LINE
8
Black
10
160.411
20
-160.411
11
161.661
21
-161.661
0
LINE
8
Black
10
163.693
20
-163.693
11
162.443
21
-162.443
0
LINE
8
Black
10
162.443
20
-162.443
11
163.693
21
-163.693
0
LINE
8
Black
10
175.538
20
-175.538
11
174.338
21
-174.338
0
LINE
8
Black
10
174.338
20
-174.338
11
175.538
21
-175.538
0
LINE
8
Black
10
167.038
20
-167.038
11
165.838
21
-165.838
0
LINE
8
Black
10
165.838
20
-165.838
11
167.038
21
-167.038
0
LINE
8
Black
10
167.038
20
-167.038
11
165.838
21
-165.838
0
LINE
8
Black
10
165.838
20
-165.838
11
167.038
21
-167.038
0
LINE
8
Black
10
175.538
20
-175.538
11
174.338
21
-174.338
0
LINE
8
Black
10
174.338
20
-174.338
11
175.538
21
-175.538
0
LINE
8
Black
10
184.876
20
-184.876
11
183.678
21
-183.678
0
LINE
8
Black
10
183.678
20
-183.678
11
184.876
21
-184.876
0
LINE
8
Black
10
182.844
20
-182.844
11
181.646
21
-181.646
0
LINE
8
Black
10
181.646
20
-181.646
11
182.844
21
-182.844
0
LINE
8
Black
10
175.538
20
-175.538
11
174.338
21
-174.338
0
LINE
8
Black
10
174.338
20
-174.338
11
175.538
21
-175.538
0
LINE
8
Black
10
167.038
20
-167.038
11
165.838
21
-165.838
0
LINE
8
Black
10
165.838
20
-165.838
11
167.038
21
-167.038
0
LINE
8
Black
10
163.552
20
-163.552
11
162.552
21
-162.552
0
LINE
8
Black
10
162.552
20
-162.552
11
163.552
21
-163.552
0
LINE
8
Black
10
161.552
20
-161.552
11
160.552
21
-160.552
0
LINE
8
Black
10
160.552
20
-160.552
11
161.552
21
-161.552
0
LINE
8
Black
10
175.538
20
-175.538
11
174.338
21
-174.338
0
LINE
8
Black
10
174.338
20
-174.338
11
175.538
21
-175.538
0
LINE
8
Black
10
167.038
20
-167.038
11
165.838
21
-165.838
0
LINE
8
Black
10
165.838
20
-165.838
11
167.038
21
-167.038
0
LINE
8
Black
10
175.538
20
-175.538
11
174.338
21
-174.338
0
LINE
8
Black
10
174.338
20
-174.338
11
175.538
21
-175.538
0
LINE
8
Black
10
167.038
20
-167.038
11
165.838
21
-165.838
0
LINE
8
Black
10
165.838
20
-165.838
11
167.038
21
-167.038
0
LINE
8
Black
10
155.311
20
-155.311
11
154.061
21
-154.061
0
LINE
8
Black
10
154.061
20
-154.061
11
155.311
21
-155.311
0
LINE
8
Black
10
175.538
20
-175.538
11
174.338
21
-174.338
0
LINE
8
Black
10
174.338
20
-174.338
11
175.538
21
-175.538
0
LINE
8
Black
10
167.038
20
-167.038
11
165.838
21
-165.838
0
LINE
8
Black
10
165.838
20
-165.838
11
167.038
21
-167.038
0
LINE
8
Black
10
158.984
20
-158.984
11
156.484
21
-156.484
0
LINE
8
Black
10
156.484
20
-156.484
11
158.984
21
-158.984
0
LINE
8
Black
10
175.538
20
-175.538
11
174.338
21
-174.338
0
LINE
8
Black
10
174.338
20
-174.338
11
175.538
21
-175.538
0
LINE
8
Black
10
167.038
20
-167.038
11
165.838
21
-165.838
0
LINE
8
Black
10
165.838
20
-165.838
11
167.038
21
-167.038
0
LINE
8
Black
10
184.876
20
-184.876
11
183.678
21
-183.678
0
LINE
8
Black
10
183.678
20
-183.678
11
184.876
21
-184.876
0
LINE
8
Black
10
182.844
20
-182.844
11
181.646
21
-181.646
0
LINE
8
Black
10
181.646
20
-181.646
11
182.844
21
-182.844
0
LINE
8
Black
10
163.352
20
-163.352
11
162.652
21
-162.652
0
LINE
8
Black
10
162.652
20
-162.652
11
163.352
21
-163.352
0
LINE
8
Black
10
161.452
20
-161.452
11
160.752
21
-160.752
0
LINE
8
Black
10
160.752
20
-160.752
11
161.452
21
-161.452
0
LINE
8
Black
10
167.038
20
-167.038
11
165.838
21
-165.838
0
LINE
8
Black
10
165.838
20
-165.838
11
167.038
21
-167.038
0
LINE
8
Black
10
175.538
20
-175.538
11
174.338
21
-174.338
0
LINE
8
Black
10
174.338
20
-174.338
11
175.538
21
-175.538
0
LINE
8
Black
10
167.038
20
-167.038
11
165.838
21
-165.838
0
LINE
8
Black
10
165.838
20
-165.838
11
167.038
21
-167.038
0
LINE
8
Black
10
175.538
20
-175.538
11
174.338
21
-174.338
0
LINE
8
Black
10
174.338
20
-174.338
11
175.538
21
-175.538
0
LINE
8
Black
10
155.311
20
-155.311
11
154.061
21
-154.061
0
LINE
8
Black
10
154.061
20
-154.061
11
155.311
21
-155.311
0
LINE
8
Black
10
167.038
20
-167.038
11
165.838
21
-165.838
0
LINE
8
Black
10
165.838
20
-165.838
11
167.038
21
-167.038
0
LINE
8
Black
10
175.538
20
-175.538
11
174.338
21
-174.338
0
LINE
8
Black
10
174.338
20
-174.338
11
175.538
21
-175.538
0
LINE
8
Black
10
167.038
20
-167.038
11
165.838
21
-165.838
0
LINE
8
Black
10
165.838
20
-165.838
11
167.038
21
-167.038
0
LINE
8
Black
10
175.538
20
-175.538
11
174.338
21
-174.338
0
LINE
8
Black
10
174.338
20
-174.338
11
175.538
21
-175.538
0
LINE
8
Black
10
178.425
20
-178.425
11
177.175
21
-177.175
0
LINE
8
Black
10
177.175
20
-177.175
11
178.425
21
-178.425
0
LINE
8
Black
10
180.457
20
-180.457
11
179.207
21
-179.207
0
LINE
8
Black
10
179.207
20
-179.207
11
180.457
21
-180.457
0
LINE
8
Black
10
167.038
20
-167.038
11
165.838
21
-165.838
0
LINE
8
Black
10
165.838
20
-165.838
11
167.038
21
-167.038
0
LINE
8
Black
10
175.538
20
-175.538
11
174.338
21
-174.338
0
LINE
8
Black
10
174.338
20
-174.338
11
175.538
21
-175.538
0
LINE
8
Black
10
173.088
20
-173.088
11
172.788
21
-172.788
0
LINE
8
Black
10
172.788
20
-172.788
11
173.088
21
-173.088
0
LINE
8
Black
10
173.588
20
-173.588
11
173.288
21
-173.288
0
LINE
8
Black
10
173.288
20
-173.288
11
173.588
21
-173.588
0
LINE
8
Black
10
172.588
20
-172.588
11
172.288
21
-172.288
0
LINE
8
Black
10
172.288
20
-172.288
11
172.588
21
-172.588
0
LINE
8
Black
10
172.088
20
-172.088
11
171.788
21
-171.788
0
LINE
8
Black
10
171.788
20
-171.788
11
172.088
21
-172.088
0
LINE
8
Black
10
171.588
20
-171.588
11
171.288
21
-171.288
0
LINE
8
Black
10
171.288
20
-171.288
11
171.588
21
-171.588
0
LINE
8
Black
10
171.088
20
-171.088
11
170.788
21
-170.788
0
LINE
8
Black
10
170.788
20
-170.788
11
171.088
21
-171.088
0
LINE
8
Black
10
170.588
20
-170.588
11
170.288
21
-170.288
0
LINE
8
Black
10
170.288
20
-170.288
11
170.588
21
-170.588
0
LINE
8
Black
10
170.088
20
-170.088
11
169.788
21
-169.788
0
LINE
8
Black
10
169.788
20
-169.788
11
170.088
21
-170.088
0
LINE
8
Black
10
169.588
20
-169.588
11
169.288
21
-169.288
0
LINE
8
Black
10
169.288
20
-169.288
11
169.588
21
-169.588
0
LINE
8
Black
10
169.088
20
-169.088
11
168.788
21
-168.788
0
LINE
8
Black
10
168.788
20
-168.788
11
169.088
21
-169.088
0
LINE
8
Black
10
168.588
20
-168.588
11
168.288
21
-168.288
0
LINE
8
Black
10
168.288
20
-168.288
11
168.588
21
-168.588
0
LINE
8
Black
10
168.088
20
-168.088
11
167.788
21
-167.788
0
LINE
8
Black
10
167.788
20
-167.788
11
168.088
21
-168.088
0
LINE
8
Black
10
155.311
20
-155.311
11
154.061
21
-154.061
0
LINE
8
Black
10
154.061
20
-154.061
11
155.311
21
-155.311
0
LINE
8
Black
10
223.662
20
-223.662
11
222.362
21
-222.362
0
LINE
8
Black
10
222.362
20
-222.362
11
223.662
21
-223.662
0
LINE
8
Black
10
158.984
20
-158.984
11
156.484
21
-156.484
0
LINE
8
Black
10
156.484
20
-156.484
11
158.984
21
-158.984
0
LINE
8
Black
10
180.457
20
-180.457
11
179.207
21
-179.207
0
LINE
8
Black
10
179.207
20
-179.207
11
180.457
21
-180.457
0
LINE
8
Black
10
178.425
20
-178.425
11
177.175
21
-177.175
0
LINE
8
Black
10
177.175
20
-177.175
11
178.425
21
-178.425
0
LINE
8
Black
10
155.311
20
-155.311
11
154.061
21
-154.061
0
LINE
8
Black
10
154.061
20
-154.061
11
155.311
21
-155.311
0
LINE
8
Black
10
223.662
20
-223.662
11
222.362
21
-222.362
0
LINE
8
Black
10
222.362
20
-222.362
11
223.662
21
-223.662
0
LINE
8
Black
10
167.013
20
-167.013
11
166.013
21
-166.013
0
LINE
8
Black
10
166.013
20
-166.013
11
167.013
21
-167.013
0
LINE
8
Black
10
169.013
20
-169.013
11
168.013
21
-168.013
0
LINE
8
Black
10
168.013
20
-168.013
11
169.013
21
-169.013
0
LINE
8
Black
10
169.013
20
-169.013
11
168.013
21
-168.013
0
LINE
8
Black
10
168.013
20
-168.013
11
169.013
21
-169.013
0
LINE
8
Black
10
167.013
20
-167.013
11
166.013
21
-166.013
0
LINE
8
Black
10
166.013
20
-166.013
11
167.013
21
-167.013
0
LINE
8
Black
10
150.318
20
-150.318
11
149.118
21
-149.118
0
LINE
8
Black
10
149.118
20
-149.118
11
150.318
21
-150.318
0
LINE
8
Black
10
152.318
20
-152.318
11
151.118
21
-151.118
0
LINE
8
Black
10
151.118
20
-151.118
11
152.318
21
-152.318
0
LINE
8
Black
10
154.318
20
-154.318
11
153.118
21
-153.118
0
LINE
8
Black
10
153.118
20
-153.118
11
154.318
21
-154.318
0
LINE
8
Black
10
156.318
20
-156.318
11
155.118
21
-155.118
0
LINE
8
Black
10
155.118
20
-155.118
11
156.318
21
-156.318
0
LINE
8
Black
10
158.318
20
-158.318
11
157.118
21
-157.118
0
LINE
8
Black
10
157.118
20
-157.118
11
158.318
21
-158.318
0
LINE
8
Black
10
160.318
20
-160.318
11
159.118
21
-159.118
0
LINE
8
Black
10
159.118
20
-159.118
11
160.318
21
-160.318
0
LINE
8
Black
10
162.318
20
-162.318
11
161.118
21
-161.118
0
LINE
8
Black
10
161.118
20
-161.118
11
162.318
21
-162.318
0
LINE
8
Black
10
164.318
20
-164.318
11
163.118
21
-163.118
0
LINE
8
Black
10
163.118
20
-163.118
11
164.318
21
-164.318
0
LINE
8
Black
10
223.662
20
-223.662
11
222.362
21
-222.362
0
LINE
8
Black
10
222.362
20
-222.362
11
223.662
21
-223.662
0
LINE
8
Black
10
223.662
20
-223.662
11
222.362
21
-222.362
0
LINE
8
Black
10
222.362
20
-222.362
11
223.662
21
-223.662
0
LINE
8
Black
10
138.488
20
-138.488
11
138.987
21
-138.987
0
LINE
8
Black
10
138.987
20
-138.987
11
139.356
21
-139.356
0
LINE
8
Black
10
139.356
20
-139.356
11
139.553
21
-139.553
0
LINE
8
Black
10
139.553
20
-139.553
11
139.356
21
-139.356
0
LINE
8
Black
10
139.356
20
-139.356
11
138.987
21
-138.987
0
LINE
8
Black
10
138.987
20
-138.987
11
138.488
21
-138.488
0
LINE
8
Black
10
138.488
20
-138.488
11
137.922
21
-137.922
0
LINE
8
Black
10
137.922
20
-137.922
11
137.356
21
-137.356
0
LINE
8
Black
10
137.356
20
-137.356
11
136.857
21
-136.857
0
LINE
8
Black
10
136.857
20
-136.857
11
136.488
21
-136.488
0
LINE
8
Black
10
136.488
20
-136.488
11
136.291
21
-136.291
0
LINE
8
Black
10
136.291
20
-136.291
11
136.488
21
-136.488
0
LINE
8
Black
10
136.488
20
-136.488
11
136.857
21
-136.857
0
LINE
8
Black
10
136.857
20
-136.857
11
137.356
21
-137.356
0
LINE
8
Black
10
137.356
20
-137.356
11
137.922
21
-137.922
0
LINE
8
Black
10
137.922
20
-137.922
11
138.488
21
-138.488
0
LINE
8
Black
10
220.276
20
-220.276
11
220.775
21
-220.775
0
LINE
8
Black
10
220.775
20
-220.775
11
221.144
21
-221.144
0
LINE
8
Black
10
221.144
20
-221.144
11
221.341
21
-221.341
0
LINE
8
Black
10
221.341
20
-221.341
11
221.144
21
-221.144
0
LINE
8
Black
10
221.144
20
-221.144
11
220.775
21
-220.775
0
LINE
8
Black
10
220.775
20
-220.775
11
220.276
21
-220.276
0
LINE
8
Black
10
220.276
20
-220.276
11
219.71
21
-219.71
0
LINE
8
Black
10
219.71
20
-219.71
11
219.144
21
-219.144
0
LINE
8
Black
10
219.144
20
-219.144
11
218.645
21
-218.645
0
LINE
8
Black
10
218.645
20
-218.645
11
218.276
21
-218.276
0
LINE
8
Black
10
218.276
20
-218.276
11
218.079
21
-218.079
0
LINE
8
Black
10
218.079
20
-218.079
11
218.276
21
-218.276
0
LINE
8
Black
10
218.276
20
-218.276
11
218.645
21
-218.645
0
LINE
8
Black
10
218.645
20
-218.645
11
219.144
21
-219.144
0
LINE
8
Black
10
219.144
20
-219.144
11
219.71
21
-219.71
0
LINE
8
Black
10
219.71
20
-219.71
11
220.276
21
-220.276
0
LINE
8
Black
10
164.318
20
-164.318
11
163.118
21
-163.118
0
LINE
8
Black
10
163.118
20
-163.118
11
164.318
21
-164.318
0
LINE
8
Black
10
162.318
20
-162.318
11
161.118
21
-161.118
0
LINE
8
Black
10
161.118
20
-161.118
11
162.318
21
-162.318
0
LINE
8
Black
10
160.318
20
-160.318
11
159.118
21
-159.118
0
LINE
8
Black
10
159.118
20
-159.118
11
160.318
21
-160.318
0
LINE
8
Black
10
158.318
20
-158.318
11
157.118
21
-157.118
0
LINE
8
Black
10
157.118
20
-157.118
11
158.318
21
-158.318
0
LINE
8
Black
10
156.318
20
-156.318
11
155.118
21
-155.118
0
LINE
8
Black
10
155.118
20
-155.118
11
156.318
21
-156.318
0
LINE
8
Black
10
154.318
20
-154.318
11
153.118
21
-153.118
0
LINE
8
Black
10
153.118
20
-153.118
11
154.318
21
-154.318
0
LINE
8
Black
10
152.318
20
-152.318
11
151.118
21
-151.118
0
LINE
8
Black
10
151.118
20
-151.118
11
152.318
21
-152.318
0
LINE
8
Black
10
150.318
20
-150.318
11
149.118
21
-149.118
0
LINE
8
Black
10
149.118
20
-149.118
11
150.318
21
-150.318
0
LINE
8
Black
10
192.674
20
-192.674
11
191.374
21
-191.374
0
LINE
8
Black
10
191.374
20
-191.374
11
192.674
21
-192.674
0
LINE
8
Black
10
185.054
20
-185.054
11
183.754
21
-183.754
0
LINE
8
Black
10
183.754
20
-183.754
11
185.054
21
-185.054
0
LINE
8
Black
10
187.848
20
-187.848
11
186.548
21
-186.548
0
LINE
8
Black
10
186.548
20
-186.548
11
187.848
21
-187.848
0
LINE
8
Black
10
190.388
20
-190.388
11
189.088
21
-189.088
0
LINE
8
Black
10
189.088
20
-189.088
11
190.388
21
-190.388
0
LINE
8
Black
10
157.98
20
-157.98
11
156.98
21
-156.98
0
LINE
8
Black
10
156.98
20
-156.98
11
157.98
21
-157.98
0
LINE
8
Black
10
155.98
20
-155.98
11
154.98
21
-154.98
0
LINE
8
Black
10
154.98
20
-154.98
11
155.98
21
-155.98
0
LINE
8
Black
10
166.124
20
-166.124
11
165.624
21
-165.624
0
LINE
8
Black
10
165.624
20
-165.624
11
166.124
21
-166.124
0
LINE
8
Black
10
167.624
20
-167.624
11
167.124
21
-167.124
0
LINE
8
Black
10
167.124
20
-167.124
11
167.624
21
-167.624
0
LINE
8
Black
10
185.054
20
-185.054
11
183.754
21
-183.754
0
LINE
8
Black
10
183.754
20
-183.754
11
185.054
21
-185.054
0
LINE
8
Black
10
187.848
20
-187.848
11
186.548
21
-186.548
0
LINE
8
Black
10
186.548
20
-186.548
11
187.848
21
-187.848
0
LINE
8
Black
10
190.388
20
-190.388
11
189.088
21
-189.088
0
LINE
8
Black
10
189.088
20
-189.088
11
190.388
21
-190.388
0
LINE
8
Black
10
192.674
20
-192.674
11
191.374
21
-191.374
0
LINE
8
Black
10
191.374
20
-191.374
11
192.674
21
-192.674
0
LINE
8
Black
10
158.972
20
-158.972
11
157.972
21
-157.972
0
LINE
8
Black
10
157.972
20
-157.972
11
158.972
21
-158.972
0
LINE
8
Black
10
155.972
20
-155.972
11
154.972
21
-154.972
0
LINE
8
Black
10
154.972
20
-154.972
11
155.972
21
-155.972
  0
ENDSEC
  0
EOF
