M48
;DRILL file {KiCad 0.201508190901+6103~28~ubuntu14.04.1-product} date Wed 19 Aug 2015 15:30:25 BST
;FORMAT={-:-/ absolute / inch / decimal}
FMAT,2
INCH,TZ
T1C0.016
T2C0.024
T3C0.025
T4C0.030
T5C0.031
T6C0.039
T7C0.043
%
G90
G05
M72
T1
X5.42Y-3.93
X5.42Y-4.39
X5.55Y-3.45
X5.65Y-5.
X5.95Y-3.25
X6.09Y-3.93
X6.15Y-3.45
X6.15Y-4.2
X6.2Y-3.925
X6.2Y-5.1
X6.285Y-4.155
X6.35Y-3.85
X6.495Y-4.205
X6.5Y-3.25
X6.525Y-4.285
X6.625Y-3.64
X6.63Y-4.105
X6.635Y-4.055
X6.69Y-4.
X6.725Y-4.155
X6.79Y-3.99
X6.805Y-4.38
X6.8625Y-3.85
X6.915Y-3.775
X7.015Y-4.14
X7.015Y-4.19
X7.015Y-4.24
X7.13Y-3.91
X7.17Y-3.88
X7.2Y-5.1
X7.215Y-4.39
X7.32Y-4.225
X7.345Y-2.765
X7.355Y-4.28
X7.39Y-4.315
X7.425Y-4.35
X7.48Y-4.195
X7.515Y-4.23
X7.52Y-3.37
X7.55Y-4.265
X7.63Y-4.75
X7.74Y-3.76
X7.85Y-4.69
X7.905Y-3.815
X7.98Y-4.525
X8.005Y-2.81
X8.035Y-4.195
X8.07Y-4.63
X8.14Y-4.56
X8.16Y-3.62
X8.175Y-5.115
X8.255Y-5.12
X8.565Y-5.075
X8.755Y-4.085
T2
X5.895Y-3.5375
X5.895Y-3.71
X6.27Y-2.765
X6.365Y-2.93
X6.365Y-3.1375
X6.445Y-3.535
X6.705Y-2.9
X6.785Y-2.765
T3
X6.89Y-3.35
X6.89Y-3.4
X6.94Y-3.35
X6.94Y-3.4
X6.99Y-3.35
X6.99Y-3.4
X7.04Y-3.35
X7.04Y-3.4
X7.09Y-3.35
X7.09Y-3.4
T4
X7.31Y-3.345
X7.31Y-3.545
X7.71Y-3.445
T5
X6.0538Y-4.87
X6.1325Y-4.87
X6.2113Y-4.87
X6.29Y-4.87
X6.4738Y-4.87
X6.5525Y-4.87
X6.6313Y-4.87
X6.71Y-4.87
X6.8938Y-4.87
X6.9725Y-4.87
X7.0513Y-4.87
X7.13Y-4.87
X7.3138Y-4.87
X7.3925Y-4.87
X7.4713Y-4.87
X7.55Y-4.87
X7.7338Y-4.87
X7.8125Y-4.87
X7.8913Y-4.87
X7.97Y-4.87
X8.675Y-3.5363
X8.675Y-3.615
X8.675Y-3.7963
X8.675Y-3.875
X8.675Y-4.0563
X8.675Y-4.135
X8.675Y-4.3163
X8.675Y-4.395
T6
X6.662Y-3.1232
X6.762Y-3.1232
X6.862Y-3.1232
X6.962Y-3.1232
X7.062Y-3.1232
X7.162Y-3.1232
X7.18Y-3.34
X7.262Y-3.1232
X7.362Y-3.1232
X7.462Y-3.1232
X7.562Y-3.1232
X7.662Y-3.1232
X7.762Y-3.1232
X7.862Y-3.1232
X7.962Y-3.1232
X8.062Y-3.1232
X8.12Y-4.74
X8.162Y-3.1232
T7
X7.61Y-3.76
X7.61Y-3.86
X7.61Y-4.16
X7.61Y-4.36
T0
M30
