G04 #@! TF.FileFunction,Soldermask,Top*
%FSLAX46Y46*%
G04 Gerber Fmt 4.6, Leading zero omitted, Abs format (unit mm)*
G04 Created by KiCad (PCBNEW 0.201507280910+6003~25~ubuntu14.04.1-product) date Wed 19 Aug 2015 23:33:17 BST*
%MOMM*%
G01*
G04 APERTURE LIST*
%ADD10C,0.100000*%
%ADD11R,2.500000X2.300000*%
%ADD12C,2.000000*%
%ADD13C,1.524000*%
%ADD14R,1.300000X0.700000*%
%ADD15R,0.700000X1.300000*%
%ADD16R,0.800100X0.800100*%
%ADD17R,0.900000X0.500000*%
%ADD18R,0.500000X0.900000*%
%ADD19R,1.250000X1.000000*%
%ADD20R,1.000000X1.250000*%
%ADD21R,1.000000X1.600000*%
%ADD22C,6.300000*%
%ADD23R,1.000000X1.500000*%
%ADD24R,1.450000X0.450000*%
%ADD25C,1.500000*%
%ADD26C,1.200000*%
%ADD27R,1.200000X0.300000*%
%ADD28R,0.300000X1.200000*%
%ADD29R,1.200000X2.500000*%
%ADD30R,2.286000X5.080000*%
%ADD31R,2.413000X5.080000*%
%ADD32C,1.016000*%
%ADD33C,4.000000*%
%ADD34O,2.000000X3.000000*%
%ADD35R,1.198880X1.198880*%
G04 APERTURE END LIST*
D10*
D11*
X157734000Y-97590000D03*
X157734000Y-102090000D03*
D12*
X206248000Y-120396000D03*
X182372000Y-84836000D03*
D13*
X185674000Y-84963000D03*
X185674000Y-90043000D03*
X195834000Y-87503000D03*
D14*
X191262000Y-121854000D03*
X191262000Y-119954000D03*
X180594000Y-121600000D03*
X180594000Y-119700000D03*
D15*
X189804000Y-117348000D03*
X191704000Y-117348000D03*
X179136000Y-117602000D03*
X181036000Y-117602000D03*
X188148000Y-117348000D03*
X186248000Y-117348000D03*
X177480000Y-117602000D03*
X175580000Y-117602000D03*
D14*
X169926000Y-121600000D03*
X169926000Y-119700000D03*
X159004000Y-121600000D03*
X159004000Y-119700000D03*
D15*
X168214000Y-117602000D03*
X170114000Y-117602000D03*
X156784000Y-117348000D03*
X158684000Y-117348000D03*
X166558000Y-117602000D03*
X164658000Y-117602000D03*
X155128000Y-117348000D03*
X153228000Y-117348000D03*
D14*
X192024000Y-75880000D03*
X192024000Y-73980000D03*
X189738000Y-75880000D03*
X189738000Y-73980000D03*
X187198000Y-75880000D03*
X187198000Y-73980000D03*
X184404000Y-75880000D03*
X184404000Y-73980000D03*
D15*
X189799000Y-112522000D03*
X187899000Y-112522000D03*
D14*
X223012000Y-96586000D03*
X223012000Y-98486000D03*
D15*
X163002000Y-101727000D03*
X161102000Y-101727000D03*
D14*
X223012000Y-89728000D03*
X223012000Y-91628000D03*
D16*
X186248000Y-121396760D03*
X188148000Y-121396760D03*
X187198000Y-119397780D03*
X175580000Y-121650760D03*
X177480000Y-121650760D03*
X176530000Y-119651780D03*
X165166000Y-121650760D03*
X167066000Y-121650760D03*
X166116000Y-119651780D03*
X154498000Y-121650760D03*
X156398000Y-121650760D03*
X155448000Y-119651780D03*
D17*
X197104000Y-121654000D03*
X197104000Y-120154000D03*
X199390000Y-121654000D03*
X199390000Y-120154000D03*
X201676000Y-121654000D03*
X201676000Y-120154000D03*
D18*
X167374000Y-74168000D03*
X165874000Y-74168000D03*
D17*
X222758000Y-109994000D03*
X222758000Y-111494000D03*
D19*
X207581500Y-126889000D03*
X207581500Y-128889000D03*
X216217500Y-126952500D03*
X216217500Y-128952500D03*
D20*
X158480000Y-74422000D03*
X156480000Y-74422000D03*
D21*
X158472000Y-71882000D03*
X155472000Y-71882000D03*
D19*
X154686000Y-96663000D03*
X154686000Y-98663000D03*
X154686000Y-102981000D03*
X154686000Y-100981000D03*
D20*
X163052000Y-103759000D03*
X161052000Y-103759000D03*
D19*
X179832000Y-98187000D03*
X179832000Y-100187000D03*
X177800000Y-98187000D03*
X177800000Y-100187000D03*
X161036000Y-107553000D03*
X161036000Y-105553000D03*
X163068000Y-107553000D03*
X163068000Y-105553000D03*
D20*
X166513000Y-93853000D03*
X168513000Y-93853000D03*
X166513000Y-95885000D03*
X168513000Y-95885000D03*
X174863000Y-109855000D03*
X172863000Y-109855000D03*
D22*
X137922000Y-80264000D03*
X137922000Y-120396000D03*
X219710000Y-120396000D03*
X219710000Y-80264000D03*
D15*
X186497000Y-112522000D03*
X184597000Y-112522000D03*
D23*
X210396000Y-114808000D03*
X208196000Y-114808000D03*
D24*
X209699500Y-126723500D03*
X209699500Y-127373500D03*
X209699500Y-128023500D03*
X209699500Y-128673500D03*
X214099500Y-128673500D03*
X214099500Y-128023500D03*
X214099500Y-127373500D03*
X214099500Y-126723500D03*
D25*
X202438000Y-123698000D03*
X200438000Y-123698000D03*
X198438000Y-123698000D03*
X196438000Y-123698000D03*
D26*
X203938000Y-125798000D03*
X194938000Y-125798000D03*
D25*
X159766000Y-123698000D03*
X157766000Y-123698000D03*
X155766000Y-123698000D03*
X153766000Y-123698000D03*
D26*
X161266000Y-125798000D03*
X152266000Y-125798000D03*
D25*
X170434000Y-123698000D03*
X168434000Y-123698000D03*
X166434000Y-123698000D03*
X164434000Y-123698000D03*
D26*
X171934000Y-125798000D03*
X162934000Y-125798000D03*
D25*
X181102000Y-123698000D03*
X179102000Y-123698000D03*
X177102000Y-123698000D03*
X175102000Y-123698000D03*
D26*
X182602000Y-125798000D03*
X173602000Y-125798000D03*
D25*
X191770000Y-123698000D03*
X189770000Y-123698000D03*
X187770000Y-123698000D03*
X185770000Y-123698000D03*
D26*
X193270000Y-125798000D03*
X184270000Y-125798000D03*
D25*
X220345000Y-91821000D03*
X220345000Y-89821000D03*
D26*
X218245000Y-93321000D03*
X218245000Y-88321000D03*
D25*
X220345000Y-111633000D03*
X220345000Y-109633000D03*
D26*
X218245000Y-113133000D03*
X218245000Y-108133000D03*
D25*
X220345000Y-98425000D03*
X220345000Y-96425000D03*
D26*
X218245000Y-99925000D03*
X218245000Y-94925000D03*
D25*
X220345000Y-105029000D03*
X220345000Y-103029000D03*
D26*
X218245000Y-106529000D03*
X218245000Y-101529000D03*
D27*
X166438000Y-100120000D03*
X166438000Y-100620000D03*
X166438000Y-101120000D03*
X166438000Y-101620000D03*
X166438000Y-102120000D03*
X166438000Y-102620000D03*
X166438000Y-103120000D03*
X166438000Y-103620000D03*
X166438000Y-104120000D03*
X166438000Y-104620000D03*
X166438000Y-105120000D03*
X166438000Y-105620000D03*
D28*
X167938000Y-107120000D03*
X168438000Y-107120000D03*
X168938000Y-107120000D03*
X169438000Y-107120000D03*
X169938000Y-107120000D03*
X170438000Y-107120000D03*
X170938000Y-107120000D03*
X171438000Y-107120000D03*
X171938000Y-107120000D03*
X172438000Y-107120000D03*
X172938000Y-107120000D03*
X173438000Y-107120000D03*
D27*
X174938000Y-105620000D03*
X174938000Y-105120000D03*
X174938000Y-104620000D03*
X174938000Y-104120000D03*
X174938000Y-103620000D03*
X174938000Y-103120000D03*
X174938000Y-102620000D03*
X174938000Y-102120000D03*
X174938000Y-101620000D03*
X174938000Y-101120000D03*
X174938000Y-100620000D03*
X174938000Y-100120000D03*
D28*
X173438000Y-98620000D03*
X172938000Y-98620000D03*
X172438000Y-98620000D03*
X171938000Y-98620000D03*
X171438000Y-98620000D03*
X170938000Y-98620000D03*
X170438000Y-98620000D03*
X169938000Y-98620000D03*
X169438000Y-98620000D03*
X168938000Y-98620000D03*
X168438000Y-98620000D03*
X167938000Y-98620000D03*
D29*
X149718000Y-91959000D03*
X151718000Y-91959000D03*
X153718000Y-91959000D03*
X155718000Y-91959000D03*
X157718000Y-91959000D03*
X159718000Y-91959000D03*
X161718000Y-91959000D03*
X163718000Y-91959000D03*
X163718000Y-77459000D03*
X161718000Y-77459000D03*
X159718000Y-77459000D03*
X157718000Y-77459000D03*
X155718000Y-77459000D03*
X153718000Y-77459000D03*
X151718000Y-77459000D03*
X149718000Y-77459000D03*
D30*
X165862000Y-70231000D03*
D31*
X161480500Y-70231000D03*
X170243500Y-70231000D03*
D32*
X175006000Y-86360000D03*
X175006000Y-85090000D03*
X176276000Y-86360000D03*
X176276000Y-85090000D03*
X177546000Y-86360000D03*
X177546000Y-85090000D03*
X178816000Y-86360000D03*
X178816000Y-85090000D03*
X180086000Y-86360000D03*
X180086000Y-85090000D03*
D33*
X213816000Y-80330000D03*
X213816000Y-120330000D03*
X143816000Y-120330000D03*
X143816000Y-80330000D03*
D34*
X207316000Y-79330000D03*
X204776000Y-79330000D03*
X202236000Y-79330000D03*
X199696000Y-79330000D03*
X197156000Y-79330000D03*
X194616000Y-79330000D03*
X192076000Y-79330000D03*
X189536000Y-79330000D03*
X186996000Y-79330000D03*
X184456000Y-79330000D03*
X181916000Y-79330000D03*
X179376000Y-79330000D03*
X176836000Y-79330000D03*
X174296000Y-79330000D03*
X171756000Y-79330000D03*
X169216000Y-79330000D03*
D35*
X200787000Y-108043980D03*
X200787000Y-110142020D03*
X184277000Y-102074980D03*
X184277000Y-104173020D03*
X182245000Y-102074980D03*
X182245000Y-104173020D03*
X202819000Y-108043980D03*
X202819000Y-110142020D03*
D14*
X200787000Y-111699000D03*
X200787000Y-113599000D03*
X184277000Y-105730000D03*
X184277000Y-107630000D03*
X182245000Y-105730000D03*
X182245000Y-107630000D03*
X202819000Y-111699000D03*
X202819000Y-113599000D03*
D12*
X193294000Y-95504000D03*
X190754000Y-95504000D03*
X188214000Y-95504000D03*
M02*
