G04 #@! TF.FileFunction,Legend,Bot*
%FSLAX46Y46*%
G04 Gerber Fmt 4.6, Leading zero omitted, Abs format (unit mm)*
G04 Created by KiCad (PCBNEW 0.201508190901+6103~28~ubuntu14.04.1-product) date Wed 19 Aug 2015 15:30:24 BST*
%MOMM*%
G01*
G04 APERTURE LIST*
%ADD10C,0.100000*%
%ADD11C,0.010000*%
G04 APERTURE END LIST*
D10*
D11*
G36*
X139801600Y-116586000D02*
X139852400Y-116636800D01*
X139903200Y-116586000D01*
X139852400Y-116535200D01*
X139801600Y-116586000D01*
X139801600Y-116586000D01*
G37*
X139801600Y-116586000D02*
X139852400Y-116636800D01*
X139903200Y-116586000D01*
X139852400Y-116535200D01*
X139801600Y-116586000D01*
G36*
X161693350Y-84615651D02*
X161391973Y-84769073D01*
X161042570Y-85033675D01*
X160679599Y-85381962D01*
X160337518Y-85786436D01*
X160217123Y-85953600D01*
X160046784Y-86174590D01*
X159776144Y-86494511D01*
X159446030Y-86866095D01*
X159178152Y-87156455D01*
X158847758Y-87522005D01*
X158564687Y-87860644D01*
X158362523Y-88130625D01*
X158280270Y-88272556D01*
X158199423Y-88529703D01*
X158112986Y-88872442D01*
X158032845Y-89242354D01*
X157970881Y-89581020D01*
X157938977Y-89830020D01*
X157943803Y-89926683D01*
X157900308Y-90011000D01*
X157809058Y-90057875D01*
X157619279Y-90145059D01*
X157382492Y-90277708D01*
X157150360Y-90422897D01*
X156974544Y-90547699D01*
X156906706Y-90619188D01*
X156918407Y-90625528D01*
X156921510Y-90674157D01*
X156794762Y-90783011D01*
X156653628Y-90862732D01*
X156510198Y-90870560D01*
X156302498Y-90797054D01*
X156036992Y-90667556D01*
X155501888Y-90455276D01*
X155036753Y-90411356D01*
X154597337Y-90536096D01*
X154347092Y-90679013D01*
X154113485Y-90848008D01*
X153980851Y-90972652D01*
X153968683Y-91010549D01*
X153961065Y-91124217D01*
X153875919Y-91332991D01*
X153869148Y-91346235D01*
X153745656Y-91756689D01*
X153733696Y-92223493D01*
X153815369Y-92578219D01*
X153913456Y-92870814D01*
X153965455Y-93074066D01*
X154062230Y-93293420D01*
X154253382Y-93583005D01*
X154422608Y-93792815D01*
X154824244Y-94249098D01*
X154501122Y-94366940D01*
X154217294Y-94536992D01*
X153979634Y-94784292D01*
X153974800Y-94791487D01*
X153766707Y-95037613D01*
X153476785Y-95303543D01*
X153344759Y-95405448D01*
X152843029Y-95850415D01*
X152537939Y-96324355D01*
X152426083Y-96794776D01*
X152421442Y-97063976D01*
X152463761Y-97172628D01*
X152550908Y-97166913D01*
X152644923Y-97148213D01*
X152634580Y-97232161D01*
X152557119Y-97391030D01*
X152465380Y-97637428D01*
X152480657Y-97770815D01*
X152582684Y-97761424D01*
X152717083Y-97626020D01*
X152903490Y-97383600D01*
X152816731Y-97688400D01*
X152501353Y-98455205D01*
X152017974Y-99183332D01*
X151401740Y-99829497D01*
X150687799Y-100350415D01*
X150626238Y-100386108D01*
X150241991Y-100607572D01*
X149886974Y-100817262D01*
X149630320Y-100974269D01*
X149606000Y-100989828D01*
X149285732Y-101198381D01*
X149086282Y-101306107D01*
X148980527Y-101291284D01*
X148941347Y-101132189D01*
X148941622Y-100807098D01*
X148950861Y-100465078D01*
X148951979Y-99973426D01*
X148935664Y-99492081D01*
X148929671Y-99415600D01*
X144475200Y-99415600D01*
X144424400Y-99466400D01*
X144373600Y-99415600D01*
X144424400Y-99364800D01*
X144475200Y-99415600D01*
X148929671Y-99415600D01*
X148905225Y-99103631D01*
X148892534Y-99009200D01*
X148809117Y-98676428D01*
X148680436Y-98364090D01*
X148533678Y-98120933D01*
X148396027Y-97995707D01*
X148328521Y-97997822D01*
X148233404Y-97950467D01*
X148087640Y-97774767D01*
X148033409Y-97691973D01*
X147831065Y-97423717D01*
X147545982Y-97114313D01*
X147350027Y-96929340D01*
X147153323Y-96774000D01*
X144475200Y-96774000D01*
X144424400Y-96824800D01*
X144373600Y-96774000D01*
X144424400Y-96723200D01*
X144475200Y-96774000D01*
X147153323Y-96774000D01*
X147032330Y-96678451D01*
X146771240Y-96553235D01*
X146505304Y-96520000D01*
X146136160Y-96477346D01*
X145777738Y-96374641D01*
X145774661Y-96373361D01*
X145391098Y-96247864D01*
X144979612Y-96167366D01*
X144601868Y-96138336D01*
X144319532Y-96167242D01*
X144226325Y-96210946D01*
X144058971Y-96287645D01*
X143983202Y-96275889D01*
X143889236Y-96312413D01*
X143827739Y-96444942D01*
X143774628Y-96682358D01*
X143802949Y-96772573D01*
X143931724Y-96761765D01*
X143955734Y-96755637D01*
X144133335Y-96762150D01*
X144232108Y-96848282D01*
X144197124Y-96958032D01*
X144172058Y-96976175D01*
X144061458Y-97089212D01*
X144127826Y-97162638D01*
X144346530Y-97182270D01*
X144504540Y-97167587D01*
X144823509Y-97149351D01*
X145014753Y-97212931D01*
X145075781Y-97271131D01*
X145152867Y-97396752D01*
X145059609Y-97433336D01*
X145003875Y-97434399D01*
X144669450Y-97518206D01*
X144331873Y-97733714D01*
X144070785Y-98027057D01*
X144035099Y-98089657D01*
X143923714Y-98371592D01*
X143858520Y-98665279D01*
X143842405Y-98919965D01*
X143878257Y-99084900D01*
X143968966Y-99109331D01*
X143977337Y-99104535D01*
X144038039Y-99098033D01*
X143980415Y-99238485D01*
X143977062Y-99244773D01*
X143937101Y-99425806D01*
X143992303Y-99551598D01*
X144104736Y-99557794D01*
X144143515Y-99527152D01*
X144261332Y-99521163D01*
X144400829Y-99651388D01*
X144520158Y-99861022D01*
X144577469Y-100093265D01*
X144578188Y-100117146D01*
X144607302Y-100515052D01*
X144681741Y-100771824D01*
X144788276Y-100870195D01*
X144913679Y-100792898D01*
X144991652Y-100656824D01*
X145191270Y-100421428D01*
X145494614Y-100259612D01*
X145811414Y-100213191D01*
X145908828Y-100231963D01*
X146050756Y-100300520D01*
X146008001Y-100376541D01*
X145987225Y-100390351D01*
X145921058Y-100459219D01*
X146041989Y-100480680D01*
X146055982Y-100480844D01*
X146306520Y-100541486D01*
X146461033Y-100625623D01*
X146593709Y-100744782D01*
X146572327Y-100854890D01*
X146482528Y-100961528D01*
X146365805Y-101116946D01*
X146394518Y-101234325D01*
X146483877Y-101332057D01*
X146602193Y-101472008D01*
X146570683Y-101555363D01*
X146481800Y-101610800D01*
X146333790Y-101763432D01*
X146304000Y-101865044D01*
X146347524Y-101971198D01*
X146390295Y-101965059D01*
X146513934Y-101990043D01*
X146737219Y-102111900D01*
X146902700Y-102225092D01*
X147147434Y-102413944D01*
X147251251Y-102538306D01*
X147240232Y-102649452D01*
X147172264Y-102755029D01*
X146948603Y-103091553D01*
X146790909Y-103412304D01*
X146683959Y-103770258D01*
X146612531Y-104218389D01*
X146561402Y-104809672D01*
X146555312Y-104902000D01*
X146522384Y-105396933D01*
X146491482Y-105831826D01*
X146466166Y-106158337D01*
X146450497Y-106324400D01*
X146372316Y-106953027D01*
X146329264Y-107418761D01*
X146327511Y-107759831D01*
X146373227Y-108014469D01*
X146472581Y-108220906D01*
X146631743Y-108417373D01*
X146818510Y-108604940D01*
X147159466Y-108877891D01*
X147571895Y-109130614D01*
X147783077Y-109231417D01*
X148073356Y-109369419D01*
X148261822Y-109493456D01*
X148306158Y-109563527D01*
X148207484Y-109689518D01*
X148013826Y-109857763D01*
X147998534Y-109869297D01*
X147740655Y-110001557D01*
X147401775Y-110055294D01*
X146940610Y-110033664D01*
X146550958Y-109979917D01*
X146288838Y-109952900D01*
X146107860Y-110000953D01*
X145925526Y-110158264D01*
X145809177Y-110287315D01*
X145603841Y-110552549D01*
X145515961Y-110787747D01*
X145509248Y-111095739D01*
X145511419Y-111131065D01*
X145553824Y-111446599D01*
X145660644Y-111649037D01*
X145879770Y-111827805D01*
X145887225Y-111832828D01*
X146295214Y-112016794D01*
X146620251Y-112064800D01*
X146935635Y-112107299D01*
X147104428Y-112245148D01*
X147108867Y-112253175D01*
X147188665Y-112343387D01*
X147340250Y-112408056D01*
X147601949Y-112455959D01*
X148012087Y-112495872D01*
X148242153Y-112512661D01*
X148713472Y-112542407D01*
X149034018Y-112549261D01*
X149255596Y-112526178D01*
X149430015Y-112466115D01*
X149609082Y-112362026D01*
X149676889Y-112317566D01*
X150065194Y-111948670D01*
X150339885Y-111461183D01*
X150463919Y-110924732D01*
X150467369Y-110831776D01*
X150496453Y-110568760D01*
X150618014Y-110408797D01*
X150817089Y-110297458D01*
X151142799Y-110166348D01*
X151456576Y-110074256D01*
X151470373Y-110071405D01*
X151863156Y-109899533D01*
X152127112Y-109587781D01*
X152232773Y-109173521D01*
X152233128Y-109104074D01*
X152160275Y-108635502D01*
X151978128Y-108305448D01*
X151699612Y-108137183D01*
X151695565Y-108136199D01*
X151408112Y-108042281D01*
X151143809Y-107927138D01*
X150852817Y-107780393D01*
X151160892Y-107458796D01*
X151381854Y-107199389D01*
X151482608Y-106967915D01*
X151501074Y-106664695D01*
X151497638Y-106573664D01*
X151454517Y-106359045D01*
X151390257Y-106237985D01*
X150117525Y-106237985D01*
X150027383Y-106417393D01*
X149918514Y-106644275D01*
X149795916Y-106989470D01*
X149700362Y-107324561D01*
X149582899Y-107715187D01*
X149475672Y-107915259D01*
X149409786Y-107938621D01*
X149176296Y-107939349D01*
X148916126Y-108053669D01*
X148725273Y-108233182D01*
X148693448Y-108299779D01*
X148602534Y-108485622D01*
X148520015Y-108485249D01*
X148460251Y-108315557D01*
X148437600Y-107998781D01*
X148379843Y-107514571D01*
X148185098Y-107088775D01*
X148183600Y-107086400D01*
X147993154Y-106673663D01*
X147938422Y-106224239D01*
X148017175Y-105690233D01*
X148104252Y-105381802D01*
X148252316Y-104995431D01*
X148399354Y-104798721D01*
X148558792Y-104778646D01*
X148660992Y-104841766D01*
X148799016Y-104956107D01*
X149045794Y-105160191D01*
X149353392Y-105414382D01*
X149425648Y-105474069D01*
X149712414Y-105726115D01*
X149916844Y-105935329D01*
X150005023Y-106065920D01*
X150003852Y-106084231D01*
X150027252Y-106165227D01*
X150068889Y-106172000D01*
X150117525Y-106237985D01*
X151390257Y-106237985D01*
X151328669Y-106121959D01*
X151095230Y-105824680D01*
X150774400Y-105476369D01*
X150278200Y-104945428D01*
X149873436Y-104485885D01*
X149574848Y-104115800D01*
X149397176Y-103853236D01*
X149352000Y-103733358D01*
X149424878Y-103589197D01*
X149617275Y-103363672D01*
X149889839Y-103102105D01*
X149932151Y-103065193D01*
X150282372Y-102756536D01*
X150703256Y-102375656D01*
X151119100Y-101991281D01*
X151233274Y-101883935D01*
X151760651Y-101394832D01*
X152189908Y-101022352D01*
X152562525Y-100735463D01*
X152919985Y-100503135D01*
X153303769Y-100294338D01*
X153463934Y-100215292D01*
X153873385Y-100030863D01*
X154203570Y-99928178D01*
X154550093Y-99885491D01*
X154937134Y-99880217D01*
X155412649Y-99895678D01*
X155899581Y-99928720D01*
X156260800Y-99968159D01*
X156595781Y-100006178D01*
X156819065Y-99985369D01*
X157018543Y-99885056D01*
X157204072Y-99746255D01*
X157513648Y-99488544D01*
X157812336Y-99218225D01*
X157882056Y-99150313D01*
X158103260Y-98963687D01*
X158290278Y-98862681D01*
X158326131Y-98856800D01*
X158461547Y-98938047D01*
X158637405Y-99144816D01*
X158730580Y-99288600D01*
X159083519Y-99789430D01*
X159529209Y-100273378D01*
X160028248Y-100709774D01*
X160541235Y-101067947D01*
X161028767Y-101317225D01*
X161451443Y-101426939D01*
X161479951Y-101428710D01*
X161738773Y-101462254D01*
X161884907Y-101523720D01*
X161897137Y-101549200D01*
X161884630Y-101739413D01*
X161854422Y-102090569D01*
X161810491Y-102561572D01*
X161756814Y-103111324D01*
X161697370Y-103698729D01*
X161636138Y-104282689D01*
X161602076Y-104597200D01*
X161549801Y-105115733D01*
X161509385Y-105598964D01*
X161485153Y-105989324D01*
X161480710Y-106212179D01*
X161460520Y-106500735D01*
X161369511Y-106624411D01*
X161340800Y-106632091D01*
X161020119Y-106691108D01*
X160608219Y-106778266D01*
X160156500Y-106881257D01*
X159716358Y-106987772D01*
X159339191Y-107085503D01*
X159076397Y-107162143D01*
X158991572Y-107194651D01*
X158932567Y-107237437D01*
X158887128Y-107310983D01*
X158853495Y-107439638D01*
X158829908Y-107647753D01*
X158814606Y-107959676D01*
X158805828Y-108399760D01*
X158801815Y-108992352D01*
X158800804Y-109761803D01*
X158800800Y-109833174D01*
X158798951Y-110639148D01*
X158792658Y-111262669D01*
X158780806Y-111724457D01*
X158762278Y-112045232D01*
X158735957Y-112245714D01*
X158700729Y-112346622D01*
X158664147Y-112369600D01*
X158460342Y-112457112D01*
X158288419Y-112666633D01*
X158206230Y-112918637D01*
X158208436Y-112996007D01*
X158232901Y-113095112D01*
X158295958Y-113166590D01*
X158431430Y-113219667D01*
X158673140Y-113263566D01*
X159054911Y-113307513D01*
X159512000Y-113351534D01*
X160018369Y-113397922D01*
X160467282Y-113437273D01*
X160811040Y-113465523D01*
X161001943Y-113478611D01*
X161005366Y-113478748D01*
X161225957Y-113551446D01*
X161476755Y-113718941D01*
X161513366Y-113751427D01*
X161786532Y-113973341D01*
X162062165Y-114152378D01*
X162077400Y-114160436D01*
X162316055Y-114338564D01*
X162358299Y-114515373D01*
X162210769Y-114681607D01*
X161880099Y-114828010D01*
X161536379Y-114915129D01*
X161179455Y-114997229D01*
X160712643Y-115117770D01*
X160220060Y-115254752D01*
X160070800Y-115298444D01*
X159782851Y-115381807D01*
X159528894Y-115446100D01*
X159277003Y-115493797D01*
X158995250Y-115527370D01*
X158651710Y-115549294D01*
X158214455Y-115562042D01*
X157651558Y-115568087D01*
X156931093Y-115569903D01*
X156565600Y-115570000D01*
X155740436Y-115568002D01*
X155046429Y-115559584D01*
X154440912Y-115541108D01*
X153881221Y-115508935D01*
X153324688Y-115459427D01*
X152728650Y-115388947D01*
X152050439Y-115293856D01*
X151247391Y-115170517D01*
X150520400Y-115054533D01*
X149942437Y-114962102D01*
X149411156Y-114878143D01*
X148969665Y-114809394D01*
X148661075Y-114762592D01*
X148561179Y-114748319D01*
X148326884Y-114703463D01*
X147953256Y-114616985D01*
X147496544Y-114502382D01*
X147121954Y-114403001D01*
X146553677Y-114260426D01*
X145983521Y-114144782D01*
X145385091Y-114054230D01*
X144731993Y-113986932D01*
X143997832Y-113941049D01*
X143156211Y-113914742D01*
X142180738Y-113906174D01*
X141045015Y-113913505D01*
X140260048Y-113925037D01*
X139282492Y-113943042D01*
X138470144Y-113962717D01*
X137785018Y-113987461D01*
X137189128Y-114020670D01*
X136644490Y-114065742D01*
X136113118Y-114126075D01*
X135557026Y-114205066D01*
X134938230Y-114306114D01*
X134218744Y-114432614D01*
X133858000Y-114497663D01*
X133409044Y-114578832D01*
X133041429Y-114645072D01*
X132796405Y-114688964D01*
X132715000Y-114703206D01*
X132692409Y-114789483D01*
X132689600Y-114859687D01*
X132724551Y-114944244D01*
X132858116Y-114977336D01*
X133133363Y-114965784D01*
X133273800Y-114952179D01*
X133658270Y-114902137D01*
X134008009Y-114840045D01*
X134162800Y-114802898D01*
X134385434Y-114753460D01*
X134754969Y-114687361D01*
X135216768Y-114613865D01*
X135636000Y-114553186D01*
X136132801Y-114484380D01*
X136583316Y-114421527D01*
X136933002Y-114372264D01*
X137109200Y-114346929D01*
X137290838Y-114332391D01*
X137645079Y-114314689D01*
X138141375Y-114294948D01*
X138749173Y-114274295D01*
X139437924Y-114253856D01*
X140106400Y-114236461D01*
X141452256Y-114214494D01*
X142628314Y-114220234D01*
X143666391Y-114256047D01*
X144598303Y-114324296D01*
X145455868Y-114427349D01*
X146270902Y-114567570D01*
X147075220Y-114747325D01*
X147116800Y-114757661D01*
X148052667Y-114979519D01*
X148962220Y-115168201D01*
X149911226Y-115335826D01*
X150965451Y-115494517D01*
X151536400Y-115572162D01*
X152080348Y-115645323D01*
X152633279Y-115721790D01*
X153114182Y-115790268D01*
X153333972Y-115822751D01*
X153627166Y-115851229D01*
X154086109Y-115876081D01*
X154673363Y-115896205D01*
X155351491Y-115910500D01*
X156083057Y-115917865D01*
X156585172Y-115918373D01*
X157377493Y-115915497D01*
X157999473Y-115910016D01*
X158483968Y-115899156D01*
X158863835Y-115880142D01*
X159171933Y-115850202D01*
X159441119Y-115806561D01*
X159704250Y-115746447D01*
X159994184Y-115667085D01*
X160172400Y-115615558D01*
X160672362Y-115475607D01*
X161169057Y-115345865D01*
X161586630Y-115245774D01*
X161747200Y-115211921D01*
X162096898Y-115125238D01*
X162387245Y-115020234D01*
X162500734Y-114957754D01*
X162655053Y-114734686D01*
X162695115Y-114441565D01*
X162620918Y-114166532D01*
X162500734Y-114031795D01*
X162257765Y-113861214D01*
X162102800Y-113745467D01*
X161990024Y-113647396D01*
X162013313Y-113605894D01*
X162200850Y-113602754D01*
X162316184Y-113607609D01*
X162540325Y-113598061D01*
X162778209Y-113536073D01*
X163074662Y-113403606D01*
X163474514Y-113182618D01*
X163694025Y-113053129D01*
X164102311Y-112812804D01*
X164177350Y-112769907D01*
X162461877Y-112769907D01*
X161621939Y-112709131D01*
X161223310Y-112671654D01*
X160902770Y-112625502D01*
X160714530Y-112579012D01*
X160691830Y-112566127D01*
X160655666Y-112460239D01*
X160679888Y-112245375D01*
X160769749Y-111898983D01*
X160930503Y-111398513D01*
X161033457Y-111099600D01*
X161165607Y-110637654D01*
X161201670Y-110236358D01*
X161180372Y-109956600D01*
X161145821Y-109753400D01*
X160711859Y-109753400D01*
X160676516Y-109897413D01*
X160528000Y-109931200D01*
X160361248Y-109879778D01*
X160344142Y-109753400D01*
X160444325Y-109602249D01*
X160528000Y-109575600D01*
X160671458Y-109660061D01*
X160711859Y-109753400D01*
X161145821Y-109753400D01*
X161129770Y-109659006D01*
X161070604Y-109465383D01*
X161034329Y-109423200D01*
X160937333Y-109343806D01*
X160792653Y-109145632D01*
X160744663Y-109067600D01*
X160576420Y-108842494D01*
X160415718Y-108719669D01*
X160379027Y-108712000D01*
X160246981Y-108777627D01*
X160239086Y-108916921D01*
X160354298Y-109043496D01*
X160383192Y-109056454D01*
X160475653Y-109119366D01*
X160445654Y-109230327D01*
X160332392Y-109385825D01*
X160157564Y-109665480D01*
X160146756Y-109883053D01*
X160281349Y-110076434D01*
X160527598Y-110188736D01*
X160687749Y-110174277D01*
X160870997Y-110157739D01*
X160931070Y-110272154D01*
X160934400Y-110359673D01*
X160901495Y-110575218D01*
X160814834Y-110911470D01*
X160692502Y-111299063D01*
X160680400Y-111333979D01*
X160555615Y-111724376D01*
X160464985Y-112071280D01*
X160426664Y-112304450D01*
X160426400Y-112316891D01*
X160409141Y-112471588D01*
X160321886Y-112546670D01*
X160111415Y-112570203D01*
X159943800Y-112571412D01*
X159501743Y-112562984D01*
X159226461Y-112515180D01*
X159081617Y-112389586D01*
X159030871Y-112147788D01*
X159037884Y-111751372D01*
X159044550Y-111620808D01*
X159060096Y-111226757D01*
X159074364Y-110687640D01*
X159086162Y-110061592D01*
X159094298Y-109406747D01*
X159096656Y-109079876D01*
X159105600Y-107364953D01*
X159740600Y-107443103D01*
X160134618Y-107484836D01*
X160644268Y-107529507D01*
X161182248Y-107569705D01*
X161391600Y-107583226D01*
X162407600Y-107645200D01*
X162434739Y-110207553D01*
X162461877Y-112769907D01*
X164177350Y-112769907D01*
X164459587Y-112608563D01*
X164721757Y-112465257D01*
X164832213Y-112411632D01*
X164968451Y-112277563D01*
X164959662Y-112080563D01*
X164821468Y-111882131D01*
X164672512Y-111782874D01*
X164397424Y-111651445D01*
X164451619Y-109278081D01*
X164463334Y-108604291D01*
X164466828Y-108000164D01*
X164462508Y-107494693D01*
X164450780Y-107116868D01*
X164445872Y-107058898D01*
X163516857Y-107058898D01*
X163373816Y-107142249D01*
X163100960Y-107249646D01*
X162739774Y-107333885D01*
X162247886Y-107358727D01*
X161848800Y-107345006D01*
X161355342Y-107320742D01*
X160853027Y-107302224D01*
X160441397Y-107293046D01*
X160401000Y-107292732D01*
X160087102Y-107278234D01*
X159875042Y-107243910D01*
X159816800Y-107208327D01*
X159907821Y-107147024D01*
X160144790Y-107068663D01*
X160429114Y-107000584D01*
X160783343Y-106936139D01*
X160998794Y-106926796D01*
X161132738Y-106974224D01*
X161190069Y-107022754D01*
X161477312Y-107194645D01*
X161826550Y-107252816D01*
X162142151Y-107184115D01*
X162184620Y-107159503D01*
X162590544Y-106979876D01*
X163038522Y-106912092D01*
X163313692Y-106940993D01*
X163492166Y-106998559D01*
X163516857Y-107058898D01*
X164445872Y-107058898D01*
X164432052Y-106895681D01*
X164417555Y-106850171D01*
X164280873Y-106822403D01*
X163995182Y-106796621D01*
X163614655Y-106777304D01*
X163489736Y-106773430D01*
X162949175Y-106756241D01*
X162582142Y-106731403D01*
X162358986Y-106688485D01*
X162250053Y-106617052D01*
X162225691Y-106506672D01*
X162256249Y-106346910D01*
X162258015Y-106340036D01*
X162300316Y-106112667D01*
X162352870Y-105736808D01*
X162408714Y-105266436D01*
X162456652Y-104800400D01*
X162514252Y-104213021D01*
X162577678Y-103595090D01*
X162637952Y-103032799D01*
X162673563Y-102717600D01*
X162724623Y-102269346D01*
X162769620Y-101854253D01*
X162800453Y-101547572D01*
X162804850Y-101498400D01*
X162823541Y-101399814D01*
X162560000Y-101399814D01*
X162549345Y-101576044D01*
X162519839Y-101911958D01*
X162475168Y-102373452D01*
X162419021Y-102926428D01*
X162355085Y-103536785D01*
X162287047Y-104170422D01*
X162218597Y-104793239D01*
X162153420Y-105371135D01*
X162095205Y-105870009D01*
X162047640Y-106255762D01*
X162014412Y-106494292D01*
X162002734Y-106553000D01*
X161901692Y-106675474D01*
X161795677Y-106631917D01*
X161748090Y-106451400D01*
X161759087Y-106278268D01*
X161789014Y-105941170D01*
X161834190Y-105478074D01*
X161890935Y-104926953D01*
X161942558Y-104444800D01*
X162012073Y-103800693D01*
X162079427Y-103166537D01*
X162139100Y-102595006D01*
X162185575Y-102138776D01*
X162205980Y-101930200D01*
X162258787Y-101513357D01*
X162324198Y-101275909D01*
X162409039Y-101194134D01*
X162417912Y-101193600D01*
X162532573Y-101278390D01*
X162560000Y-101399814D01*
X162823541Y-101399814D01*
X162851878Y-101250360D01*
X162964507Y-101143801D01*
X163078609Y-101122841D01*
X163694110Y-101064997D01*
X164204533Y-101002333D01*
X164574729Y-100939685D01*
X164744400Y-100893594D01*
X164995661Y-100793217D01*
X165222114Y-100702655D01*
X165508249Y-100503009D01*
X165663668Y-100230608D01*
X161239200Y-100230608D01*
X161154183Y-100469498D01*
X160938405Y-100620286D01*
X160650774Y-100667774D01*
X160350201Y-100596767D01*
X160197800Y-100499256D01*
X160039981Y-100254163D01*
X160054026Y-99978359D01*
X160233824Y-99739188D01*
X160269026Y-99714316D01*
X160577427Y-99615349D01*
X160880845Y-99679008D01*
X161120098Y-99873800D01*
X161236003Y-100168228D01*
X161239200Y-100230608D01*
X165663668Y-100230608D01*
X165703984Y-100159948D01*
X165815863Y-99656922D01*
X165849584Y-99116138D01*
X165846425Y-98669501D01*
X165813937Y-98367393D01*
X165742103Y-98152063D01*
X165658800Y-98016119D01*
X165522611Y-97853891D01*
X165372652Y-97775913D01*
X165138719Y-97759745D01*
X164896800Y-97772539D01*
X164536956Y-97805166D01*
X164229511Y-97846599D01*
X164109401Y-97870786D01*
X163936116Y-97863073D01*
X163896616Y-97712787D01*
X163991554Y-97417983D01*
X164221587Y-96976715D01*
X164587369Y-96387038D01*
X164631910Y-96319116D01*
X164820848Y-96013596D01*
X164953177Y-95764022D01*
X164998400Y-95633316D01*
X165016606Y-95598842D01*
X163523056Y-95598842D01*
X163512392Y-95766554D01*
X163439791Y-96066558D01*
X163323822Y-96444574D01*
X163183051Y-96846321D01*
X163036045Y-97217518D01*
X162901372Y-97503885D01*
X162834368Y-97612200D01*
X162673740Y-97699762D01*
X162415095Y-97739041D01*
X162397937Y-97739200D01*
X162044427Y-97799969D01*
X161603450Y-97961788D01*
X161142214Y-98193922D01*
X160727924Y-98465639D01*
X160621099Y-98551763D01*
X160389517Y-98732538D01*
X160213441Y-98839673D01*
X160172400Y-98851947D01*
X160050487Y-98786679D01*
X159842151Y-98614658D01*
X159664400Y-98444629D01*
X159578040Y-98357917D01*
X158143294Y-98357917D01*
X158112819Y-98561193D01*
X157947825Y-98828754D01*
X157688225Y-99120664D01*
X157373937Y-99396985D01*
X157044875Y-99617778D01*
X156764829Y-99737154D01*
X156498535Y-99785773D01*
X156326856Y-99775133D01*
X156303152Y-99757530D01*
X156186231Y-99726279D01*
X155907532Y-99705794D01*
X155508273Y-99697767D01*
X155029673Y-99703891D01*
X155010094Y-99704436D01*
X154256489Y-99750553D01*
X153632784Y-99839560D01*
X153157614Y-99966688D01*
X152849615Y-100127171D01*
X152732978Y-100286970D01*
X152620750Y-100447321D01*
X152408509Y-100613558D01*
X152400299Y-100618461D01*
X152200320Y-100762012D01*
X151903002Y-101005875D01*
X151557151Y-101309181D01*
X151366139Y-101484466D01*
X150971179Y-101847225D01*
X150490496Y-102279885D01*
X149993123Y-102720664D01*
X149658736Y-103012439D01*
X149261812Y-103361969D01*
X148898580Y-103692963D01*
X148609896Y-103967493D01*
X148439536Y-104144208D01*
X148217184Y-104372439D01*
X148089569Y-104422819D01*
X148051020Y-104294158D01*
X148079176Y-104068525D01*
X148190009Y-103642658D01*
X148366925Y-103252931D01*
X148630724Y-102876306D01*
X149002203Y-102489746D01*
X149502160Y-102070212D01*
X150151394Y-101594666D01*
X150574727Y-101304207D01*
X151184685Y-100889459D01*
X151677282Y-100542579D01*
X152088807Y-100231572D01*
X152455551Y-99924442D01*
X152813805Y-99589193D01*
X153199857Y-99193829D01*
X153649998Y-98706355D01*
X154146435Y-98155152D01*
X154582576Y-97671993D01*
X154983401Y-97234722D01*
X155325522Y-96868318D01*
X155585551Y-96597760D01*
X155740099Y-96448025D01*
X155759617Y-96432323D01*
X155889570Y-96366845D01*
X156035724Y-96381348D01*
X156254074Y-96490755D01*
X156459818Y-96618915D01*
X156784820Y-96859690D01*
X157146838Y-97178031D01*
X157505128Y-97531851D01*
X157818948Y-97879063D01*
X158047553Y-98177581D01*
X158143294Y-98357917D01*
X159578040Y-98357917D01*
X159404237Y-98183406D01*
X159177028Y-97958161D01*
X159080200Y-97863973D01*
X158923477Y-97671383D01*
X158949355Y-97564014D01*
X159115646Y-97536000D01*
X159424926Y-97472996D01*
X159799209Y-97310767D01*
X160155655Y-97089485D01*
X160318892Y-96952523D01*
X160545295Y-96786920D01*
X160797398Y-96755199D01*
X160928492Y-96772101D01*
X161264508Y-96778226D01*
X161657057Y-96717332D01*
X161767434Y-96687637D01*
X162106172Y-96548079D01*
X162469967Y-96340612D01*
X162812158Y-96099697D01*
X163086083Y-95859796D01*
X163245082Y-95655371D01*
X163266873Y-95580200D01*
X163315132Y-95435706D01*
X163038595Y-95435706D01*
X162989772Y-95479276D01*
X162874374Y-95603382D01*
X162864800Y-95659696D01*
X162784002Y-95810238D01*
X162578119Y-96010602D01*
X162301917Y-96216042D01*
X162010161Y-96381807D01*
X161947364Y-96409311D01*
X161695403Y-96466445D01*
X161348963Y-96492245D01*
X161189895Y-96490510D01*
X160882703Y-96465133D01*
X160728275Y-96408127D01*
X160676414Y-96297650D01*
X160673874Y-96266000D01*
X160660691Y-96067464D01*
X160521347Y-96067464D01*
X160487680Y-96364105D01*
X160393509Y-96563039D01*
X160336058Y-96601545D01*
X160243086Y-96594626D01*
X160253154Y-96553729D01*
X160256443Y-96396998D01*
X160218052Y-96311949D01*
X160153684Y-96263092D01*
X160125771Y-96395307D01*
X160123156Y-96499218D01*
X160031464Y-96882030D01*
X159782214Y-97164009D01*
X159408249Y-97315304D01*
X159206058Y-97332800D01*
X158946328Y-97326754D01*
X158854184Y-97287890D01*
X158894019Y-97185119D01*
X158947439Y-97106993D01*
X159099200Y-96771252D01*
X159085123Y-96550480D01*
X158597600Y-96550480D01*
X158539404Y-96795527D01*
X158401033Y-96979424D01*
X158280790Y-97028000D01*
X158131130Y-96995274D01*
X158047110Y-96966329D01*
X157896340Y-96832668D01*
X157891265Y-96646986D01*
X158004964Y-96464474D01*
X158210518Y-96340324D01*
X158363920Y-96316800D01*
X158548307Y-96369131D01*
X158597600Y-96550480D01*
X159085123Y-96550480D01*
X159080914Y-96484471D01*
X158923905Y-96268416D01*
X158659499Y-96144854D01*
X158319019Y-96135551D01*
X157933791Y-96262274D01*
X157822186Y-96325090D01*
X157595900Y-96451342D01*
X157479275Y-96465337D01*
X157420601Y-96381825D01*
X157393567Y-96085105D01*
X157557650Y-95811079D01*
X157775129Y-95634573D01*
X157975687Y-95488704D01*
X158015044Y-95419725D01*
X157908272Y-95402400D01*
X157769355Y-95375390D01*
X157673507Y-95267484D01*
X157600701Y-95038360D01*
X157530909Y-94647699D01*
X157529782Y-94640400D01*
X157467129Y-94234000D01*
X157668751Y-94463959D01*
X157829611Y-94670921D01*
X157915277Y-94819559D01*
X157999563Y-94892496D01*
X158036480Y-94874344D01*
X158044890Y-94742659D01*
X157939601Y-94525938D01*
X157757282Y-94275824D01*
X157534600Y-94043956D01*
X157346996Y-93903305D01*
X156749081Y-93470408D01*
X156269557Y-92960603D01*
X155991497Y-92506800D01*
X155865261Y-92251587D01*
X155808064Y-92182084D01*
X155816408Y-92294188D01*
X155818302Y-92303600D01*
X156017245Y-92822881D01*
X156386189Y-93331427D01*
X156659274Y-93597250D01*
X156973977Y-93905556D01*
X157190182Y-94225708D01*
X157347859Y-94628797D01*
X157443267Y-94991775D01*
X157516154Y-95373908D01*
X157512003Y-95575806D01*
X157428187Y-95596903D01*
X157262076Y-95436633D01*
X157011045Y-95094431D01*
X156860258Y-94866383D01*
X156669787Y-94586672D01*
X156529396Y-94409061D01*
X156465394Y-94366227D01*
X156464000Y-94374222D01*
X156515998Y-94541697D01*
X156628086Y-94745574D01*
X156716544Y-94914769D01*
X156686399Y-94984337D01*
X156523502Y-94952191D01*
X156213703Y-94816245D01*
X155849495Y-94630777D01*
X155488447Y-94409857D01*
X155105317Y-94124914D01*
X154738444Y-93811046D01*
X154426169Y-93503355D01*
X154206833Y-93236940D01*
X154118775Y-93046903D01*
X154118734Y-93046281D01*
X154094255Y-92846338D01*
X154062982Y-92659200D01*
X154022421Y-92360028D01*
X154009901Y-92176600D01*
X153968492Y-91998021D01*
X153906406Y-91948000D01*
X153838898Y-91880015D01*
X153888172Y-91703318D01*
X154033494Y-91458792D01*
X154254129Y-91187324D01*
X154334188Y-91104477D01*
X154742821Y-90784417D01*
X155149888Y-90656732D01*
X155593154Y-90714439D01*
X155863844Y-90821628D01*
X156323625Y-91090557D01*
X156726896Y-91451353D01*
X157101846Y-91936493D01*
X157476664Y-92578453D01*
X157602236Y-92824425D01*
X157826830Y-93271557D01*
X157982299Y-93560190D01*
X158088228Y-93714641D01*
X158164199Y-93759226D01*
X158229796Y-93718261D01*
X158274685Y-93659368D01*
X158366750Y-93471792D01*
X158352505Y-93261772D01*
X158299830Y-93097582D01*
X158228543Y-92831293D01*
X158263555Y-92632511D01*
X158343326Y-92492960D01*
X158475520Y-92327889D01*
X158561775Y-92284883D01*
X158563316Y-92286248D01*
X158615456Y-92401244D01*
X158707778Y-92660189D01*
X158822411Y-93012302D01*
X158850051Y-93101119D01*
X158965583Y-93485100D01*
X159022129Y-93724548D01*
X159022093Y-93868631D01*
X158967880Y-93966522D01*
X158895794Y-94036778D01*
X158646943Y-94157100D01*
X158489989Y-94152189D01*
X158342955Y-94123107D01*
X158354537Y-94180369D01*
X158448171Y-94288082D01*
X158560236Y-94488602D01*
X158564000Y-94632215D01*
X158551477Y-94729159D01*
X158660333Y-94711483D01*
X158747103Y-94674033D01*
X159139286Y-94601275D01*
X159554168Y-94711007D01*
X159955085Y-94991383D01*
X160058995Y-95097911D01*
X160280003Y-95375299D01*
X160439810Y-95635672D01*
X160482555Y-95743162D01*
X160521347Y-96067464D01*
X160660691Y-96067464D01*
X160647675Y-95871472D01*
X160604073Y-95619252D01*
X160527288Y-95448456D01*
X160431034Y-95329179D01*
X160309495Y-95183425D01*
X160303735Y-95072833D01*
X160425450Y-94922179D01*
X160507234Y-94839106D01*
X160782000Y-94562171D01*
X160528797Y-94641340D01*
X160357321Y-94684837D01*
X160350668Y-94635882D01*
X160420242Y-94546220D01*
X160614587Y-94379744D01*
X160876645Y-94225696D01*
X161048133Y-94135512D01*
X161033104Y-94111281D01*
X160959800Y-94121820D01*
X160771461Y-94106675D01*
X160731200Y-94021288D01*
X160819947Y-93923885D01*
X161050065Y-93879583D01*
X161367377Y-93886264D01*
X161717701Y-93941806D01*
X162046859Y-94044089D01*
X162117035Y-94075524D01*
X162398835Y-94225257D01*
X162588502Y-94380560D01*
X162738612Y-94601218D01*
X162901741Y-94947016D01*
X162919679Y-94988209D01*
X163029713Y-95281209D01*
X163038595Y-95435706D01*
X163315132Y-95435706D01*
X163319034Y-95424024D01*
X163424486Y-95432900D01*
X163523056Y-95598842D01*
X165016606Y-95598842D01*
X165061599Y-95513646D01*
X165100000Y-95504000D01*
X165192414Y-95428607D01*
X165183469Y-95240551D01*
X165083352Y-94997020D01*
X164982990Y-94847085D01*
X164623256Y-94540820D01*
X164084961Y-94300617D01*
X163383761Y-94132782D01*
X163112612Y-94093522D01*
X162722554Y-94031752D01*
X162401239Y-93956663D01*
X162211648Y-93883328D01*
X162200640Y-93875279D01*
X162100833Y-93832680D01*
X160524790Y-93832680D01*
X160501658Y-94120548D01*
X160440192Y-94324220D01*
X160419359Y-94352801D01*
X160307226Y-94542720D01*
X160274733Y-94652521D01*
X160241252Y-94821741D01*
X160230974Y-94865811D01*
X160145808Y-94854759D01*
X160062615Y-94826400D01*
X159948090Y-94691149D01*
X159959627Y-94550188D01*
X160008584Y-94291415D01*
X160018613Y-94163465D01*
X160083303Y-93976604D01*
X160240301Y-93742183D01*
X160270790Y-93706265D01*
X160521579Y-93421200D01*
X160524790Y-93832680D01*
X162100833Y-93832680D01*
X162017007Y-93796902D01*
X161715094Y-93734934D01*
X161528616Y-93715122D01*
X161224380Y-93686988D01*
X161016021Y-93654939D01*
X160964167Y-93637232D01*
X160940430Y-93520931D01*
X160923608Y-93266302D01*
X160918725Y-93051961D01*
X160914510Y-92507917D01*
X160746655Y-92829333D01*
X160578581Y-93094203D01*
X160337697Y-93410339D01*
X160199067Y-93572245D01*
X159941080Y-93828917D01*
X159736686Y-93947333D01*
X159538667Y-93961470D01*
X159401685Y-93929887D01*
X159294267Y-93846839D01*
X159193114Y-93674846D01*
X159074932Y-93376431D01*
X158950217Y-93014800D01*
X158758589Y-92461372D01*
X158608911Y-92077166D01*
X158486027Y-91836394D01*
X158374781Y-91713267D01*
X158260019Y-91681995D01*
X158176704Y-91698601D01*
X158027206Y-91715167D01*
X157997205Y-91594537D01*
X158005091Y-91525683D01*
X158117236Y-91314070D01*
X158267400Y-91255133D01*
X158432974Y-91192181D01*
X158502040Y-91100097D01*
X158440863Y-91037727D01*
X158394400Y-91033600D01*
X158295753Y-90956284D01*
X158292800Y-90932000D01*
X158370672Y-90845950D01*
X158546245Y-90840848D01*
X158732459Y-90913068D01*
X158780480Y-90952319D01*
X158880410Y-91018925D01*
X158902400Y-90934609D01*
X158955564Y-90882885D01*
X159117900Y-90997767D01*
X159141403Y-91019510D01*
X159370249Y-91341528D01*
X159536713Y-91783259D01*
X159611954Y-92264006D01*
X159613600Y-92340787D01*
X159641028Y-92587646D01*
X159714569Y-92641373D01*
X159821113Y-92503214D01*
X159900992Y-92313485D01*
X160027537Y-92035289D01*
X160185494Y-91782284D01*
X160348494Y-91580202D01*
X160490171Y-91454778D01*
X160584156Y-91431745D01*
X160604080Y-91536837D01*
X160574762Y-91655923D01*
X160553305Y-91806944D01*
X160618716Y-91802327D01*
X160713402Y-91652734D01*
X160731200Y-91535603D01*
X160766073Y-91364672D01*
X160864816Y-91380388D01*
X161018614Y-91579643D01*
X161061400Y-91652075D01*
X161204633Y-91979618D01*
X161221123Y-92289521D01*
X161112477Y-92664527D01*
X161082526Y-92738663D01*
X160925852Y-93116400D01*
X161185374Y-92858843D01*
X161414383Y-92499961D01*
X161484865Y-92077782D01*
X161396568Y-91656446D01*
X161191354Y-91341483D01*
X160896384Y-91033600D01*
X161201870Y-91033600D01*
X161452448Y-90966271D01*
X161707472Y-90801790D01*
X161895723Y-90596410D01*
X161950400Y-90442333D01*
X162024334Y-90332568D01*
X162204974Y-90172758D01*
X162231339Y-90152906D01*
X162463874Y-89923084D01*
X162679513Y-89620723D01*
X162713939Y-89558689D01*
X162906953Y-89238745D01*
X163122228Y-88949219D01*
X163157672Y-88909089D01*
X163370958Y-88622776D01*
X163546125Y-88301170D01*
X163547308Y-88298394D01*
X163697281Y-88012604D01*
X163914964Y-87671794D01*
X164041836Y-87496384D01*
X164278707Y-87128740D01*
X164379536Y-86801051D01*
X164388800Y-86650189D01*
X164381207Y-86535792D01*
X164229993Y-86535792D01*
X164192792Y-86772558D01*
X164123912Y-86960530D01*
X163860643Y-87428789D01*
X163492904Y-87771735D01*
X163350136Y-87862750D01*
X163155010Y-88003755D01*
X163068270Y-88117353D01*
X163068000Y-88121546D01*
X163129832Y-88144209D01*
X163220400Y-88087200D01*
X163341440Y-88013200D01*
X163372410Y-88094545D01*
X163372421Y-88100159D01*
X163301569Y-88339551D01*
X163127368Y-88626355D01*
X162905802Y-88881875D01*
X162720675Y-89016316D01*
X162555729Y-89141627D01*
X162524962Y-89260036D01*
X162504444Y-89462677D01*
X162344712Y-89723651D01*
X162079903Y-89995276D01*
X161899686Y-90133409D01*
X161670051Y-90322385D01*
X161526859Y-90499104D01*
X161511871Y-90535890D01*
X161389336Y-90662806D01*
X161130873Y-90777621D01*
X160799195Y-90867658D01*
X160457017Y-90920244D01*
X160167050Y-90922702D01*
X159992010Y-90862357D01*
X159978697Y-90845764D01*
X160007479Y-90728516D01*
X160129099Y-90486219D01*
X160321151Y-90161186D01*
X160437262Y-89979835D01*
X160703003Y-89596106D01*
X160952412Y-89299554D01*
X161240135Y-89037200D01*
X161620817Y-88756065D01*
X161881562Y-88579598D01*
X162475132Y-88171465D01*
X162927474Y-87824957D01*
X163276435Y-87505668D01*
X163559861Y-87179191D01*
X163799962Y-86835604D01*
X164012513Y-86559192D01*
X164162878Y-86461962D01*
X164229993Y-86535792D01*
X164381207Y-86535792D01*
X164371665Y-86392057D01*
X164299550Y-86280122D01*
X164169861Y-86258399D01*
X164001715Y-86312806D01*
X163709300Y-86460651D01*
X163334836Y-86678875D01*
X162950275Y-86924557D01*
X162540148Y-87185525D01*
X162193171Y-87383469D01*
X161944483Y-87499715D01*
X161832716Y-87518459D01*
X161763598Y-87506864D01*
X161788299Y-87563501D01*
X161802870Y-87668449D01*
X161770130Y-87680800D01*
X161651747Y-87746211D01*
X161444818Y-87914241D01*
X161284883Y-88061799D01*
X161095944Y-88237074D01*
X161007326Y-88304062D01*
X161026390Y-88265000D01*
X161110727Y-88126692D01*
X161104832Y-88087200D01*
X161110194Y-88003373D01*
X161183281Y-87786222D01*
X161278106Y-87553800D01*
X161435115Y-87134732D01*
X161579936Y-86656318D01*
X161639978Y-86410800D01*
X161734948Y-86031313D01*
X161842258Y-85693255D01*
X161911463Y-85526845D01*
X162017744Y-85222094D01*
X162035450Y-85035009D01*
X161848800Y-85035009D01*
X161763935Y-85405063D01*
X161502680Y-85819863D01*
X161353786Y-85994673D01*
X161204284Y-86177972D01*
X161201743Y-86240180D01*
X161264600Y-86226462D01*
X161414407Y-86228588D01*
X161442400Y-86314926D01*
X161396863Y-86568120D01*
X161276317Y-86938151D01*
X161104864Y-87364468D01*
X160906603Y-87786518D01*
X160729998Y-88104843D01*
X160562561Y-88398381D01*
X160514640Y-88544658D01*
X160577918Y-88558797D01*
X160692280Y-88545679D01*
X160689721Y-88669039D01*
X160674173Y-88722839D01*
X160485727Y-89174534D01*
X160196187Y-89576561D01*
X159900801Y-89873717D01*
X159595801Y-90124246D01*
X159334405Y-90251652D01*
X159037214Y-90294554D01*
X159035424Y-90294624D01*
X158760599Y-90291340D01*
X158614379Y-90223479D01*
X158523148Y-90046378D01*
X158496233Y-89967504D01*
X158426489Y-89459489D01*
X158537775Y-88898249D01*
X158832440Y-88278324D01*
X159312829Y-87594258D01*
X159722644Y-87116086D01*
X160100038Y-86687595D01*
X160490910Y-86220552D01*
X160832946Y-85790241D01*
X160958159Y-85623399D01*
X161190471Y-85310329D01*
X161374403Y-85072235D01*
X161480076Y-84947428D01*
X161493042Y-84937599D01*
X161604521Y-84906281D01*
X161688091Y-84875929D01*
X161815473Y-84882611D01*
X161848800Y-85035009D01*
X162035450Y-85035009D01*
X162046375Y-84919589D01*
X161997299Y-84687244D01*
X161912242Y-84600909D01*
X161693350Y-84615651D01*
X161693350Y-84615651D01*
G37*
X161693350Y-84615651D02*
X161391973Y-84769073D01*
X161042570Y-85033675D01*
X160679599Y-85381962D01*
X160337518Y-85786436D01*
X160217123Y-85953600D01*
X160046784Y-86174590D01*
X159776144Y-86494511D01*
X159446030Y-86866095D01*
X159178152Y-87156455D01*
X158847758Y-87522005D01*
X158564687Y-87860644D01*
X158362523Y-88130625D01*
X158280270Y-88272556D01*
X158199423Y-88529703D01*
X158112986Y-88872442D01*
X158032845Y-89242354D01*
X157970881Y-89581020D01*
X157938977Y-89830020D01*
X157943803Y-89926683D01*
X157900308Y-90011000D01*
X157809058Y-90057875D01*
X157619279Y-90145059D01*
X157382492Y-90277708D01*
X157150360Y-90422897D01*
X156974544Y-90547699D01*
X156906706Y-90619188D01*
X156918407Y-90625528D01*
X156921510Y-90674157D01*
X156794762Y-90783011D01*
X156653628Y-90862732D01*
X156510198Y-90870560D01*
X156302498Y-90797054D01*
X156036992Y-90667556D01*
X155501888Y-90455276D01*
X155036753Y-90411356D01*
X154597337Y-90536096D01*
X154347092Y-90679013D01*
X154113485Y-90848008D01*
X153980851Y-90972652D01*
X153968683Y-91010549D01*
X153961065Y-91124217D01*
X153875919Y-91332991D01*
X153869148Y-91346235D01*
X153745656Y-91756689D01*
X153733696Y-92223493D01*
X153815369Y-92578219D01*
X153913456Y-92870814D01*
X153965455Y-93074066D01*
X154062230Y-93293420D01*
X154253382Y-93583005D01*
X154422608Y-93792815D01*
X154824244Y-94249098D01*
X154501122Y-94366940D01*
X154217294Y-94536992D01*
X153979634Y-94784292D01*
X153974800Y-94791487D01*
X153766707Y-95037613D01*
X153476785Y-95303543D01*
X153344759Y-95405448D01*
X152843029Y-95850415D01*
X152537939Y-96324355D01*
X152426083Y-96794776D01*
X152421442Y-97063976D01*
X152463761Y-97172628D01*
X152550908Y-97166913D01*
X152644923Y-97148213D01*
X152634580Y-97232161D01*
X152557119Y-97391030D01*
X152465380Y-97637428D01*
X152480657Y-97770815D01*
X152582684Y-97761424D01*
X152717083Y-97626020D01*
X152903490Y-97383600D01*
X152816731Y-97688400D01*
X152501353Y-98455205D01*
X152017974Y-99183332D01*
X151401740Y-99829497D01*
X150687799Y-100350415D01*
X150626238Y-100386108D01*
X150241991Y-100607572D01*
X149886974Y-100817262D01*
X149630320Y-100974269D01*
X149606000Y-100989828D01*
X149285732Y-101198381D01*
X149086282Y-101306107D01*
X148980527Y-101291284D01*
X148941347Y-101132189D01*
X148941622Y-100807098D01*
X148950861Y-100465078D01*
X148951979Y-99973426D01*
X148935664Y-99492081D01*
X148929671Y-99415600D01*
X144475200Y-99415600D01*
X144424400Y-99466400D01*
X144373600Y-99415600D01*
X144424400Y-99364800D01*
X144475200Y-99415600D01*
X148929671Y-99415600D01*
X148905225Y-99103631D01*
X148892534Y-99009200D01*
X148809117Y-98676428D01*
X148680436Y-98364090D01*
X148533678Y-98120933D01*
X148396027Y-97995707D01*
X148328521Y-97997822D01*
X148233404Y-97950467D01*
X148087640Y-97774767D01*
X148033409Y-97691973D01*
X147831065Y-97423717D01*
X147545982Y-97114313D01*
X147350027Y-96929340D01*
X147153323Y-96774000D01*
X144475200Y-96774000D01*
X144424400Y-96824800D01*
X144373600Y-96774000D01*
X144424400Y-96723200D01*
X144475200Y-96774000D01*
X147153323Y-96774000D01*
X147032330Y-96678451D01*
X146771240Y-96553235D01*
X146505304Y-96520000D01*
X146136160Y-96477346D01*
X145777738Y-96374641D01*
X145774661Y-96373361D01*
X145391098Y-96247864D01*
X144979612Y-96167366D01*
X144601868Y-96138336D01*
X144319532Y-96167242D01*
X144226325Y-96210946D01*
X144058971Y-96287645D01*
X143983202Y-96275889D01*
X143889236Y-96312413D01*
X143827739Y-96444942D01*
X143774628Y-96682358D01*
X143802949Y-96772573D01*
X143931724Y-96761765D01*
X143955734Y-96755637D01*
X144133335Y-96762150D01*
X144232108Y-96848282D01*
X144197124Y-96958032D01*
X144172058Y-96976175D01*
X144061458Y-97089212D01*
X144127826Y-97162638D01*
X144346530Y-97182270D01*
X144504540Y-97167587D01*
X144823509Y-97149351D01*
X145014753Y-97212931D01*
X145075781Y-97271131D01*
X145152867Y-97396752D01*
X145059609Y-97433336D01*
X145003875Y-97434399D01*
X144669450Y-97518206D01*
X144331873Y-97733714D01*
X144070785Y-98027057D01*
X144035099Y-98089657D01*
X143923714Y-98371592D01*
X143858520Y-98665279D01*
X143842405Y-98919965D01*
X143878257Y-99084900D01*
X143968966Y-99109331D01*
X143977337Y-99104535D01*
X144038039Y-99098033D01*
X143980415Y-99238485D01*
X143977062Y-99244773D01*
X143937101Y-99425806D01*
X143992303Y-99551598D01*
X144104736Y-99557794D01*
X144143515Y-99527152D01*
X144261332Y-99521163D01*
X144400829Y-99651388D01*
X144520158Y-99861022D01*
X144577469Y-100093265D01*
X144578188Y-100117146D01*
X144607302Y-100515052D01*
X144681741Y-100771824D01*
X144788276Y-100870195D01*
X144913679Y-100792898D01*
X144991652Y-100656824D01*
X145191270Y-100421428D01*
X145494614Y-100259612D01*
X145811414Y-100213191D01*
X145908828Y-100231963D01*
X146050756Y-100300520D01*
X146008001Y-100376541D01*
X145987225Y-100390351D01*
X145921058Y-100459219D01*
X146041989Y-100480680D01*
X146055982Y-100480844D01*
X146306520Y-100541486D01*
X146461033Y-100625623D01*
X146593709Y-100744782D01*
X146572327Y-100854890D01*
X146482528Y-100961528D01*
X146365805Y-101116946D01*
X146394518Y-101234325D01*
X146483877Y-101332057D01*
X146602193Y-101472008D01*
X146570683Y-101555363D01*
X146481800Y-101610800D01*
X146333790Y-101763432D01*
X146304000Y-101865044D01*
X146347524Y-101971198D01*
X146390295Y-101965059D01*
X146513934Y-101990043D01*
X146737219Y-102111900D01*
X146902700Y-102225092D01*
X147147434Y-102413944D01*
X147251251Y-102538306D01*
X147240232Y-102649452D01*
X147172264Y-102755029D01*
X146948603Y-103091553D01*
X146790909Y-103412304D01*
X146683959Y-103770258D01*
X146612531Y-104218389D01*
X146561402Y-104809672D01*
X146555312Y-104902000D01*
X146522384Y-105396933D01*
X146491482Y-105831826D01*
X146466166Y-106158337D01*
X146450497Y-106324400D01*
X146372316Y-106953027D01*
X146329264Y-107418761D01*
X146327511Y-107759831D01*
X146373227Y-108014469D01*
X146472581Y-108220906D01*
X146631743Y-108417373D01*
X146818510Y-108604940D01*
X147159466Y-108877891D01*
X147571895Y-109130614D01*
X147783077Y-109231417D01*
X148073356Y-109369419D01*
X148261822Y-109493456D01*
X148306158Y-109563527D01*
X148207484Y-109689518D01*
X148013826Y-109857763D01*
X147998534Y-109869297D01*
X147740655Y-110001557D01*
X147401775Y-110055294D01*
X146940610Y-110033664D01*
X146550958Y-109979917D01*
X146288838Y-109952900D01*
X146107860Y-110000953D01*
X145925526Y-110158264D01*
X145809177Y-110287315D01*
X145603841Y-110552549D01*
X145515961Y-110787747D01*
X145509248Y-111095739D01*
X145511419Y-111131065D01*
X145553824Y-111446599D01*
X145660644Y-111649037D01*
X145879770Y-111827805D01*
X145887225Y-111832828D01*
X146295214Y-112016794D01*
X146620251Y-112064800D01*
X146935635Y-112107299D01*
X147104428Y-112245148D01*
X147108867Y-112253175D01*
X147188665Y-112343387D01*
X147340250Y-112408056D01*
X147601949Y-112455959D01*
X148012087Y-112495872D01*
X148242153Y-112512661D01*
X148713472Y-112542407D01*
X149034018Y-112549261D01*
X149255596Y-112526178D01*
X149430015Y-112466115D01*
X149609082Y-112362026D01*
X149676889Y-112317566D01*
X150065194Y-111948670D01*
X150339885Y-111461183D01*
X150463919Y-110924732D01*
X150467369Y-110831776D01*
X150496453Y-110568760D01*
X150618014Y-110408797D01*
X150817089Y-110297458D01*
X151142799Y-110166348D01*
X151456576Y-110074256D01*
X151470373Y-110071405D01*
X151863156Y-109899533D01*
X152127112Y-109587781D01*
X152232773Y-109173521D01*
X152233128Y-109104074D01*
X152160275Y-108635502D01*
X151978128Y-108305448D01*
X151699612Y-108137183D01*
X151695565Y-108136199D01*
X151408112Y-108042281D01*
X151143809Y-107927138D01*
X150852817Y-107780393D01*
X151160892Y-107458796D01*
X151381854Y-107199389D01*
X151482608Y-106967915D01*
X151501074Y-106664695D01*
X151497638Y-106573664D01*
X151454517Y-106359045D01*
X151390257Y-106237985D01*
X150117525Y-106237985D01*
X150027383Y-106417393D01*
X149918514Y-106644275D01*
X149795916Y-106989470D01*
X149700362Y-107324561D01*
X149582899Y-107715187D01*
X149475672Y-107915259D01*
X149409786Y-107938621D01*
X149176296Y-107939349D01*
X148916126Y-108053669D01*
X148725273Y-108233182D01*
X148693448Y-108299779D01*
X148602534Y-108485622D01*
X148520015Y-108485249D01*
X148460251Y-108315557D01*
X148437600Y-107998781D01*
X148379843Y-107514571D01*
X148185098Y-107088775D01*
X148183600Y-107086400D01*
X147993154Y-106673663D01*
X147938422Y-106224239D01*
X148017175Y-105690233D01*
X148104252Y-105381802D01*
X148252316Y-104995431D01*
X148399354Y-104798721D01*
X148558792Y-104778646D01*
X148660992Y-104841766D01*
X148799016Y-104956107D01*
X149045794Y-105160191D01*
X149353392Y-105414382D01*
X149425648Y-105474069D01*
X149712414Y-105726115D01*
X149916844Y-105935329D01*
X150005023Y-106065920D01*
X150003852Y-106084231D01*
X150027252Y-106165227D01*
X150068889Y-106172000D01*
X150117525Y-106237985D01*
X151390257Y-106237985D01*
X151328669Y-106121959D01*
X151095230Y-105824680D01*
X150774400Y-105476369D01*
X150278200Y-104945428D01*
X149873436Y-104485885D01*
X149574848Y-104115800D01*
X149397176Y-103853236D01*
X149352000Y-103733358D01*
X149424878Y-103589197D01*
X149617275Y-103363672D01*
X149889839Y-103102105D01*
X149932151Y-103065193D01*
X150282372Y-102756536D01*
X150703256Y-102375656D01*
X151119100Y-101991281D01*
X151233274Y-101883935D01*
X151760651Y-101394832D01*
X152189908Y-101022352D01*
X152562525Y-100735463D01*
X152919985Y-100503135D01*
X153303769Y-100294338D01*
X153463934Y-100215292D01*
X153873385Y-100030863D01*
X154203570Y-99928178D01*
X154550093Y-99885491D01*
X154937134Y-99880217D01*
X155412649Y-99895678D01*
X155899581Y-99928720D01*
X156260800Y-99968159D01*
X156595781Y-100006178D01*
X156819065Y-99985369D01*
X157018543Y-99885056D01*
X157204072Y-99746255D01*
X157513648Y-99488544D01*
X157812336Y-99218225D01*
X157882056Y-99150313D01*
X158103260Y-98963687D01*
X158290278Y-98862681D01*
X158326131Y-98856800D01*
X158461547Y-98938047D01*
X158637405Y-99144816D01*
X158730580Y-99288600D01*
X159083519Y-99789430D01*
X159529209Y-100273378D01*
X160028248Y-100709774D01*
X160541235Y-101067947D01*
X161028767Y-101317225D01*
X161451443Y-101426939D01*
X161479951Y-101428710D01*
X161738773Y-101462254D01*
X161884907Y-101523720D01*
X161897137Y-101549200D01*
X161884630Y-101739413D01*
X161854422Y-102090569D01*
X161810491Y-102561572D01*
X161756814Y-103111324D01*
X161697370Y-103698729D01*
X161636138Y-104282689D01*
X161602076Y-104597200D01*
X161549801Y-105115733D01*
X161509385Y-105598964D01*
X161485153Y-105989324D01*
X161480710Y-106212179D01*
X161460520Y-106500735D01*
X161369511Y-106624411D01*
X161340800Y-106632091D01*
X161020119Y-106691108D01*
X160608219Y-106778266D01*
X160156500Y-106881257D01*
X159716358Y-106987772D01*
X159339191Y-107085503D01*
X159076397Y-107162143D01*
X158991572Y-107194651D01*
X158932567Y-107237437D01*
X158887128Y-107310983D01*
X158853495Y-107439638D01*
X158829908Y-107647753D01*
X158814606Y-107959676D01*
X158805828Y-108399760D01*
X158801815Y-108992352D01*
X158800804Y-109761803D01*
X158800800Y-109833174D01*
X158798951Y-110639148D01*
X158792658Y-111262669D01*
X158780806Y-111724457D01*
X158762278Y-112045232D01*
X158735957Y-112245714D01*
X158700729Y-112346622D01*
X158664147Y-112369600D01*
X158460342Y-112457112D01*
X158288419Y-112666633D01*
X158206230Y-112918637D01*
X158208436Y-112996007D01*
X158232901Y-113095112D01*
X158295958Y-113166590D01*
X158431430Y-113219667D01*
X158673140Y-113263566D01*
X159054911Y-113307513D01*
X159512000Y-113351534D01*
X160018369Y-113397922D01*
X160467282Y-113437273D01*
X160811040Y-113465523D01*
X161001943Y-113478611D01*
X161005366Y-113478748D01*
X161225957Y-113551446D01*
X161476755Y-113718941D01*
X161513366Y-113751427D01*
X161786532Y-113973341D01*
X162062165Y-114152378D01*
X162077400Y-114160436D01*
X162316055Y-114338564D01*
X162358299Y-114515373D01*
X162210769Y-114681607D01*
X161880099Y-114828010D01*
X161536379Y-114915129D01*
X161179455Y-114997229D01*
X160712643Y-115117770D01*
X160220060Y-115254752D01*
X160070800Y-115298444D01*
X159782851Y-115381807D01*
X159528894Y-115446100D01*
X159277003Y-115493797D01*
X158995250Y-115527370D01*
X158651710Y-115549294D01*
X158214455Y-115562042D01*
X157651558Y-115568087D01*
X156931093Y-115569903D01*
X156565600Y-115570000D01*
X155740436Y-115568002D01*
X155046429Y-115559584D01*
X154440912Y-115541108D01*
X153881221Y-115508935D01*
X153324688Y-115459427D01*
X152728650Y-115388947D01*
X152050439Y-115293856D01*
X151247391Y-115170517D01*
X150520400Y-115054533D01*
X149942437Y-114962102D01*
X149411156Y-114878143D01*
X148969665Y-114809394D01*
X148661075Y-114762592D01*
X148561179Y-114748319D01*
X148326884Y-114703463D01*
X147953256Y-114616985D01*
X147496544Y-114502382D01*
X147121954Y-114403001D01*
X146553677Y-114260426D01*
X145983521Y-114144782D01*
X145385091Y-114054230D01*
X144731993Y-113986932D01*
X143997832Y-113941049D01*
X143156211Y-113914742D01*
X142180738Y-113906174D01*
X141045015Y-113913505D01*
X140260048Y-113925037D01*
X139282492Y-113943042D01*
X138470144Y-113962717D01*
X137785018Y-113987461D01*
X137189128Y-114020670D01*
X136644490Y-114065742D01*
X136113118Y-114126075D01*
X135557026Y-114205066D01*
X134938230Y-114306114D01*
X134218744Y-114432614D01*
X133858000Y-114497663D01*
X133409044Y-114578832D01*
X133041429Y-114645072D01*
X132796405Y-114688964D01*
X132715000Y-114703206D01*
X132692409Y-114789483D01*
X132689600Y-114859687D01*
X132724551Y-114944244D01*
X132858116Y-114977336D01*
X133133363Y-114965784D01*
X133273800Y-114952179D01*
X133658270Y-114902137D01*
X134008009Y-114840045D01*
X134162800Y-114802898D01*
X134385434Y-114753460D01*
X134754969Y-114687361D01*
X135216768Y-114613865D01*
X135636000Y-114553186D01*
X136132801Y-114484380D01*
X136583316Y-114421527D01*
X136933002Y-114372264D01*
X137109200Y-114346929D01*
X137290838Y-114332391D01*
X137645079Y-114314689D01*
X138141375Y-114294948D01*
X138749173Y-114274295D01*
X139437924Y-114253856D01*
X140106400Y-114236461D01*
X141452256Y-114214494D01*
X142628314Y-114220234D01*
X143666391Y-114256047D01*
X144598303Y-114324296D01*
X145455868Y-114427349D01*
X146270902Y-114567570D01*
X147075220Y-114747325D01*
X147116800Y-114757661D01*
X148052667Y-114979519D01*
X148962220Y-115168201D01*
X149911226Y-115335826D01*
X150965451Y-115494517D01*
X151536400Y-115572162D01*
X152080348Y-115645323D01*
X152633279Y-115721790D01*
X153114182Y-115790268D01*
X153333972Y-115822751D01*
X153627166Y-115851229D01*
X154086109Y-115876081D01*
X154673363Y-115896205D01*
X155351491Y-115910500D01*
X156083057Y-115917865D01*
X156585172Y-115918373D01*
X157377493Y-115915497D01*
X157999473Y-115910016D01*
X158483968Y-115899156D01*
X158863835Y-115880142D01*
X159171933Y-115850202D01*
X159441119Y-115806561D01*
X159704250Y-115746447D01*
X159994184Y-115667085D01*
X160172400Y-115615558D01*
X160672362Y-115475607D01*
X161169057Y-115345865D01*
X161586630Y-115245774D01*
X161747200Y-115211921D01*
X162096898Y-115125238D01*
X162387245Y-115020234D01*
X162500734Y-114957754D01*
X162655053Y-114734686D01*
X162695115Y-114441565D01*
X162620918Y-114166532D01*
X162500734Y-114031795D01*
X162257765Y-113861214D01*
X162102800Y-113745467D01*
X161990024Y-113647396D01*
X162013313Y-113605894D01*
X162200850Y-113602754D01*
X162316184Y-113607609D01*
X162540325Y-113598061D01*
X162778209Y-113536073D01*
X163074662Y-113403606D01*
X163474514Y-113182618D01*
X163694025Y-113053129D01*
X164102311Y-112812804D01*
X164177350Y-112769907D01*
X162461877Y-112769907D01*
X161621939Y-112709131D01*
X161223310Y-112671654D01*
X160902770Y-112625502D01*
X160714530Y-112579012D01*
X160691830Y-112566127D01*
X160655666Y-112460239D01*
X160679888Y-112245375D01*
X160769749Y-111898983D01*
X160930503Y-111398513D01*
X161033457Y-111099600D01*
X161165607Y-110637654D01*
X161201670Y-110236358D01*
X161180372Y-109956600D01*
X161145821Y-109753400D01*
X160711859Y-109753400D01*
X160676516Y-109897413D01*
X160528000Y-109931200D01*
X160361248Y-109879778D01*
X160344142Y-109753400D01*
X160444325Y-109602249D01*
X160528000Y-109575600D01*
X160671458Y-109660061D01*
X160711859Y-109753400D01*
X161145821Y-109753400D01*
X161129770Y-109659006D01*
X161070604Y-109465383D01*
X161034329Y-109423200D01*
X160937333Y-109343806D01*
X160792653Y-109145632D01*
X160744663Y-109067600D01*
X160576420Y-108842494D01*
X160415718Y-108719669D01*
X160379027Y-108712000D01*
X160246981Y-108777627D01*
X160239086Y-108916921D01*
X160354298Y-109043496D01*
X160383192Y-109056454D01*
X160475653Y-109119366D01*
X160445654Y-109230327D01*
X160332392Y-109385825D01*
X160157564Y-109665480D01*
X160146756Y-109883053D01*
X160281349Y-110076434D01*
X160527598Y-110188736D01*
X160687749Y-110174277D01*
X160870997Y-110157739D01*
X160931070Y-110272154D01*
X160934400Y-110359673D01*
X160901495Y-110575218D01*
X160814834Y-110911470D01*
X160692502Y-111299063D01*
X160680400Y-111333979D01*
X160555615Y-111724376D01*
X160464985Y-112071280D01*
X160426664Y-112304450D01*
X160426400Y-112316891D01*
X160409141Y-112471588D01*
X160321886Y-112546670D01*
X160111415Y-112570203D01*
X159943800Y-112571412D01*
X159501743Y-112562984D01*
X159226461Y-112515180D01*
X159081617Y-112389586D01*
X159030871Y-112147788D01*
X159037884Y-111751372D01*
X159044550Y-111620808D01*
X159060096Y-111226757D01*
X159074364Y-110687640D01*
X159086162Y-110061592D01*
X159094298Y-109406747D01*
X159096656Y-109079876D01*
X159105600Y-107364953D01*
X159740600Y-107443103D01*
X160134618Y-107484836D01*
X160644268Y-107529507D01*
X161182248Y-107569705D01*
X161391600Y-107583226D01*
X162407600Y-107645200D01*
X162434739Y-110207553D01*
X162461877Y-112769907D01*
X164177350Y-112769907D01*
X164459587Y-112608563D01*
X164721757Y-112465257D01*
X164832213Y-112411632D01*
X164968451Y-112277563D01*
X164959662Y-112080563D01*
X164821468Y-111882131D01*
X164672512Y-111782874D01*
X164397424Y-111651445D01*
X164451619Y-109278081D01*
X164463334Y-108604291D01*
X164466828Y-108000164D01*
X164462508Y-107494693D01*
X164450780Y-107116868D01*
X164445872Y-107058898D01*
X163516857Y-107058898D01*
X163373816Y-107142249D01*
X163100960Y-107249646D01*
X162739774Y-107333885D01*
X162247886Y-107358727D01*
X161848800Y-107345006D01*
X161355342Y-107320742D01*
X160853027Y-107302224D01*
X160441397Y-107293046D01*
X160401000Y-107292732D01*
X160087102Y-107278234D01*
X159875042Y-107243910D01*
X159816800Y-107208327D01*
X159907821Y-107147024D01*
X160144790Y-107068663D01*
X160429114Y-107000584D01*
X160783343Y-106936139D01*
X160998794Y-106926796D01*
X161132738Y-106974224D01*
X161190069Y-107022754D01*
X161477312Y-107194645D01*
X161826550Y-107252816D01*
X162142151Y-107184115D01*
X162184620Y-107159503D01*
X162590544Y-106979876D01*
X163038522Y-106912092D01*
X163313692Y-106940993D01*
X163492166Y-106998559D01*
X163516857Y-107058898D01*
X164445872Y-107058898D01*
X164432052Y-106895681D01*
X164417555Y-106850171D01*
X164280873Y-106822403D01*
X163995182Y-106796621D01*
X163614655Y-106777304D01*
X163489736Y-106773430D01*
X162949175Y-106756241D01*
X162582142Y-106731403D01*
X162358986Y-106688485D01*
X162250053Y-106617052D01*
X162225691Y-106506672D01*
X162256249Y-106346910D01*
X162258015Y-106340036D01*
X162300316Y-106112667D01*
X162352870Y-105736808D01*
X162408714Y-105266436D01*
X162456652Y-104800400D01*
X162514252Y-104213021D01*
X162577678Y-103595090D01*
X162637952Y-103032799D01*
X162673563Y-102717600D01*
X162724623Y-102269346D01*
X162769620Y-101854253D01*
X162800453Y-101547572D01*
X162804850Y-101498400D01*
X162823541Y-101399814D01*
X162560000Y-101399814D01*
X162549345Y-101576044D01*
X162519839Y-101911958D01*
X162475168Y-102373452D01*
X162419021Y-102926428D01*
X162355085Y-103536785D01*
X162287047Y-104170422D01*
X162218597Y-104793239D01*
X162153420Y-105371135D01*
X162095205Y-105870009D01*
X162047640Y-106255762D01*
X162014412Y-106494292D01*
X162002734Y-106553000D01*
X161901692Y-106675474D01*
X161795677Y-106631917D01*
X161748090Y-106451400D01*
X161759087Y-106278268D01*
X161789014Y-105941170D01*
X161834190Y-105478074D01*
X161890935Y-104926953D01*
X161942558Y-104444800D01*
X162012073Y-103800693D01*
X162079427Y-103166537D01*
X162139100Y-102595006D01*
X162185575Y-102138776D01*
X162205980Y-101930200D01*
X162258787Y-101513357D01*
X162324198Y-101275909D01*
X162409039Y-101194134D01*
X162417912Y-101193600D01*
X162532573Y-101278390D01*
X162560000Y-101399814D01*
X162823541Y-101399814D01*
X162851878Y-101250360D01*
X162964507Y-101143801D01*
X163078609Y-101122841D01*
X163694110Y-101064997D01*
X164204533Y-101002333D01*
X164574729Y-100939685D01*
X164744400Y-100893594D01*
X164995661Y-100793217D01*
X165222114Y-100702655D01*
X165508249Y-100503009D01*
X165663668Y-100230608D01*
X161239200Y-100230608D01*
X161154183Y-100469498D01*
X160938405Y-100620286D01*
X160650774Y-100667774D01*
X160350201Y-100596767D01*
X160197800Y-100499256D01*
X160039981Y-100254163D01*
X160054026Y-99978359D01*
X160233824Y-99739188D01*
X160269026Y-99714316D01*
X160577427Y-99615349D01*
X160880845Y-99679008D01*
X161120098Y-99873800D01*
X161236003Y-100168228D01*
X161239200Y-100230608D01*
X165663668Y-100230608D01*
X165703984Y-100159948D01*
X165815863Y-99656922D01*
X165849584Y-99116138D01*
X165846425Y-98669501D01*
X165813937Y-98367393D01*
X165742103Y-98152063D01*
X165658800Y-98016119D01*
X165522611Y-97853891D01*
X165372652Y-97775913D01*
X165138719Y-97759745D01*
X164896800Y-97772539D01*
X164536956Y-97805166D01*
X164229511Y-97846599D01*
X164109401Y-97870786D01*
X163936116Y-97863073D01*
X163896616Y-97712787D01*
X163991554Y-97417983D01*
X164221587Y-96976715D01*
X164587369Y-96387038D01*
X164631910Y-96319116D01*
X164820848Y-96013596D01*
X164953177Y-95764022D01*
X164998400Y-95633316D01*
X165016606Y-95598842D01*
X163523056Y-95598842D01*
X163512392Y-95766554D01*
X163439791Y-96066558D01*
X163323822Y-96444574D01*
X163183051Y-96846321D01*
X163036045Y-97217518D01*
X162901372Y-97503885D01*
X162834368Y-97612200D01*
X162673740Y-97699762D01*
X162415095Y-97739041D01*
X162397937Y-97739200D01*
X162044427Y-97799969D01*
X161603450Y-97961788D01*
X161142214Y-98193922D01*
X160727924Y-98465639D01*
X160621099Y-98551763D01*
X160389517Y-98732538D01*
X160213441Y-98839673D01*
X160172400Y-98851947D01*
X160050487Y-98786679D01*
X159842151Y-98614658D01*
X159664400Y-98444629D01*
X159578040Y-98357917D01*
X158143294Y-98357917D01*
X158112819Y-98561193D01*
X157947825Y-98828754D01*
X157688225Y-99120664D01*
X157373937Y-99396985D01*
X157044875Y-99617778D01*
X156764829Y-99737154D01*
X156498535Y-99785773D01*
X156326856Y-99775133D01*
X156303152Y-99757530D01*
X156186231Y-99726279D01*
X155907532Y-99705794D01*
X155508273Y-99697767D01*
X155029673Y-99703891D01*
X155010094Y-99704436D01*
X154256489Y-99750553D01*
X153632784Y-99839560D01*
X153157614Y-99966688D01*
X152849615Y-100127171D01*
X152732978Y-100286970D01*
X152620750Y-100447321D01*
X152408509Y-100613558D01*
X152400299Y-100618461D01*
X152200320Y-100762012D01*
X151903002Y-101005875D01*
X151557151Y-101309181D01*
X151366139Y-101484466D01*
X150971179Y-101847225D01*
X150490496Y-102279885D01*
X149993123Y-102720664D01*
X149658736Y-103012439D01*
X149261812Y-103361969D01*
X148898580Y-103692963D01*
X148609896Y-103967493D01*
X148439536Y-104144208D01*
X148217184Y-104372439D01*
X148089569Y-104422819D01*
X148051020Y-104294158D01*
X148079176Y-104068525D01*
X148190009Y-103642658D01*
X148366925Y-103252931D01*
X148630724Y-102876306D01*
X149002203Y-102489746D01*
X149502160Y-102070212D01*
X150151394Y-101594666D01*
X150574727Y-101304207D01*
X151184685Y-100889459D01*
X151677282Y-100542579D01*
X152088807Y-100231572D01*
X152455551Y-99924442D01*
X152813805Y-99589193D01*
X153199857Y-99193829D01*
X153649998Y-98706355D01*
X154146435Y-98155152D01*
X154582576Y-97671993D01*
X154983401Y-97234722D01*
X155325522Y-96868318D01*
X155585551Y-96597760D01*
X155740099Y-96448025D01*
X155759617Y-96432323D01*
X155889570Y-96366845D01*
X156035724Y-96381348D01*
X156254074Y-96490755D01*
X156459818Y-96618915D01*
X156784820Y-96859690D01*
X157146838Y-97178031D01*
X157505128Y-97531851D01*
X157818948Y-97879063D01*
X158047553Y-98177581D01*
X158143294Y-98357917D01*
X159578040Y-98357917D01*
X159404237Y-98183406D01*
X159177028Y-97958161D01*
X159080200Y-97863973D01*
X158923477Y-97671383D01*
X158949355Y-97564014D01*
X159115646Y-97536000D01*
X159424926Y-97472996D01*
X159799209Y-97310767D01*
X160155655Y-97089485D01*
X160318892Y-96952523D01*
X160545295Y-96786920D01*
X160797398Y-96755199D01*
X160928492Y-96772101D01*
X161264508Y-96778226D01*
X161657057Y-96717332D01*
X161767434Y-96687637D01*
X162106172Y-96548079D01*
X162469967Y-96340612D01*
X162812158Y-96099697D01*
X163086083Y-95859796D01*
X163245082Y-95655371D01*
X163266873Y-95580200D01*
X163315132Y-95435706D01*
X163038595Y-95435706D01*
X162989772Y-95479276D01*
X162874374Y-95603382D01*
X162864800Y-95659696D01*
X162784002Y-95810238D01*
X162578119Y-96010602D01*
X162301917Y-96216042D01*
X162010161Y-96381807D01*
X161947364Y-96409311D01*
X161695403Y-96466445D01*
X161348963Y-96492245D01*
X161189895Y-96490510D01*
X160882703Y-96465133D01*
X160728275Y-96408127D01*
X160676414Y-96297650D01*
X160673874Y-96266000D01*
X160660691Y-96067464D01*
X160521347Y-96067464D01*
X160487680Y-96364105D01*
X160393509Y-96563039D01*
X160336058Y-96601545D01*
X160243086Y-96594626D01*
X160253154Y-96553729D01*
X160256443Y-96396998D01*
X160218052Y-96311949D01*
X160153684Y-96263092D01*
X160125771Y-96395307D01*
X160123156Y-96499218D01*
X160031464Y-96882030D01*
X159782214Y-97164009D01*
X159408249Y-97315304D01*
X159206058Y-97332800D01*
X158946328Y-97326754D01*
X158854184Y-97287890D01*
X158894019Y-97185119D01*
X158947439Y-97106993D01*
X159099200Y-96771252D01*
X159085123Y-96550480D01*
X158597600Y-96550480D01*
X158539404Y-96795527D01*
X158401033Y-96979424D01*
X158280790Y-97028000D01*
X158131130Y-96995274D01*
X158047110Y-96966329D01*
X157896340Y-96832668D01*
X157891265Y-96646986D01*
X158004964Y-96464474D01*
X158210518Y-96340324D01*
X158363920Y-96316800D01*
X158548307Y-96369131D01*
X158597600Y-96550480D01*
X159085123Y-96550480D01*
X159080914Y-96484471D01*
X158923905Y-96268416D01*
X158659499Y-96144854D01*
X158319019Y-96135551D01*
X157933791Y-96262274D01*
X157822186Y-96325090D01*
X157595900Y-96451342D01*
X157479275Y-96465337D01*
X157420601Y-96381825D01*
X157393567Y-96085105D01*
X157557650Y-95811079D01*
X157775129Y-95634573D01*
X157975687Y-95488704D01*
X158015044Y-95419725D01*
X157908272Y-95402400D01*
X157769355Y-95375390D01*
X157673507Y-95267484D01*
X157600701Y-95038360D01*
X157530909Y-94647699D01*
X157529782Y-94640400D01*
X157467129Y-94234000D01*
X157668751Y-94463959D01*
X157829611Y-94670921D01*
X157915277Y-94819559D01*
X157999563Y-94892496D01*
X158036480Y-94874344D01*
X158044890Y-94742659D01*
X157939601Y-94525938D01*
X157757282Y-94275824D01*
X157534600Y-94043956D01*
X157346996Y-93903305D01*
X156749081Y-93470408D01*
X156269557Y-92960603D01*
X155991497Y-92506800D01*
X155865261Y-92251587D01*
X155808064Y-92182084D01*
X155816408Y-92294188D01*
X155818302Y-92303600D01*
X156017245Y-92822881D01*
X156386189Y-93331427D01*
X156659274Y-93597250D01*
X156973977Y-93905556D01*
X157190182Y-94225708D01*
X157347859Y-94628797D01*
X157443267Y-94991775D01*
X157516154Y-95373908D01*
X157512003Y-95575806D01*
X157428187Y-95596903D01*
X157262076Y-95436633D01*
X157011045Y-95094431D01*
X156860258Y-94866383D01*
X156669787Y-94586672D01*
X156529396Y-94409061D01*
X156465394Y-94366227D01*
X156464000Y-94374222D01*
X156515998Y-94541697D01*
X156628086Y-94745574D01*
X156716544Y-94914769D01*
X156686399Y-94984337D01*
X156523502Y-94952191D01*
X156213703Y-94816245D01*
X155849495Y-94630777D01*
X155488447Y-94409857D01*
X155105317Y-94124914D01*
X154738444Y-93811046D01*
X154426169Y-93503355D01*
X154206833Y-93236940D01*
X154118775Y-93046903D01*
X154118734Y-93046281D01*
X154094255Y-92846338D01*
X154062982Y-92659200D01*
X154022421Y-92360028D01*
X154009901Y-92176600D01*
X153968492Y-91998021D01*
X153906406Y-91948000D01*
X153838898Y-91880015D01*
X153888172Y-91703318D01*
X154033494Y-91458792D01*
X154254129Y-91187324D01*
X154334188Y-91104477D01*
X154742821Y-90784417D01*
X155149888Y-90656732D01*
X155593154Y-90714439D01*
X155863844Y-90821628D01*
X156323625Y-91090557D01*
X156726896Y-91451353D01*
X157101846Y-91936493D01*
X157476664Y-92578453D01*
X157602236Y-92824425D01*
X157826830Y-93271557D01*
X157982299Y-93560190D01*
X158088228Y-93714641D01*
X158164199Y-93759226D01*
X158229796Y-93718261D01*
X158274685Y-93659368D01*
X158366750Y-93471792D01*
X158352505Y-93261772D01*
X158299830Y-93097582D01*
X158228543Y-92831293D01*
X158263555Y-92632511D01*
X158343326Y-92492960D01*
X158475520Y-92327889D01*
X158561775Y-92284883D01*
X158563316Y-92286248D01*
X158615456Y-92401244D01*
X158707778Y-92660189D01*
X158822411Y-93012302D01*
X158850051Y-93101119D01*
X158965583Y-93485100D01*
X159022129Y-93724548D01*
X159022093Y-93868631D01*
X158967880Y-93966522D01*
X158895794Y-94036778D01*
X158646943Y-94157100D01*
X158489989Y-94152189D01*
X158342955Y-94123107D01*
X158354537Y-94180369D01*
X158448171Y-94288082D01*
X158560236Y-94488602D01*
X158564000Y-94632215D01*
X158551477Y-94729159D01*
X158660333Y-94711483D01*
X158747103Y-94674033D01*
X159139286Y-94601275D01*
X159554168Y-94711007D01*
X159955085Y-94991383D01*
X160058995Y-95097911D01*
X160280003Y-95375299D01*
X160439810Y-95635672D01*
X160482555Y-95743162D01*
X160521347Y-96067464D01*
X160660691Y-96067464D01*
X160647675Y-95871472D01*
X160604073Y-95619252D01*
X160527288Y-95448456D01*
X160431034Y-95329179D01*
X160309495Y-95183425D01*
X160303735Y-95072833D01*
X160425450Y-94922179D01*
X160507234Y-94839106D01*
X160782000Y-94562171D01*
X160528797Y-94641340D01*
X160357321Y-94684837D01*
X160350668Y-94635882D01*
X160420242Y-94546220D01*
X160614587Y-94379744D01*
X160876645Y-94225696D01*
X161048133Y-94135512D01*
X161033104Y-94111281D01*
X160959800Y-94121820D01*
X160771461Y-94106675D01*
X160731200Y-94021288D01*
X160819947Y-93923885D01*
X161050065Y-93879583D01*
X161367377Y-93886264D01*
X161717701Y-93941806D01*
X162046859Y-94044089D01*
X162117035Y-94075524D01*
X162398835Y-94225257D01*
X162588502Y-94380560D01*
X162738612Y-94601218D01*
X162901741Y-94947016D01*
X162919679Y-94988209D01*
X163029713Y-95281209D01*
X163038595Y-95435706D01*
X163315132Y-95435706D01*
X163319034Y-95424024D01*
X163424486Y-95432900D01*
X163523056Y-95598842D01*
X165016606Y-95598842D01*
X165061599Y-95513646D01*
X165100000Y-95504000D01*
X165192414Y-95428607D01*
X165183469Y-95240551D01*
X165083352Y-94997020D01*
X164982990Y-94847085D01*
X164623256Y-94540820D01*
X164084961Y-94300617D01*
X163383761Y-94132782D01*
X163112612Y-94093522D01*
X162722554Y-94031752D01*
X162401239Y-93956663D01*
X162211648Y-93883328D01*
X162200640Y-93875279D01*
X162100833Y-93832680D01*
X160524790Y-93832680D01*
X160501658Y-94120548D01*
X160440192Y-94324220D01*
X160419359Y-94352801D01*
X160307226Y-94542720D01*
X160274733Y-94652521D01*
X160241252Y-94821741D01*
X160230974Y-94865811D01*
X160145808Y-94854759D01*
X160062615Y-94826400D01*
X159948090Y-94691149D01*
X159959627Y-94550188D01*
X160008584Y-94291415D01*
X160018613Y-94163465D01*
X160083303Y-93976604D01*
X160240301Y-93742183D01*
X160270790Y-93706265D01*
X160521579Y-93421200D01*
X160524790Y-93832680D01*
X162100833Y-93832680D01*
X162017007Y-93796902D01*
X161715094Y-93734934D01*
X161528616Y-93715122D01*
X161224380Y-93686988D01*
X161016021Y-93654939D01*
X160964167Y-93637232D01*
X160940430Y-93520931D01*
X160923608Y-93266302D01*
X160918725Y-93051961D01*
X160914510Y-92507917D01*
X160746655Y-92829333D01*
X160578581Y-93094203D01*
X160337697Y-93410339D01*
X160199067Y-93572245D01*
X159941080Y-93828917D01*
X159736686Y-93947333D01*
X159538667Y-93961470D01*
X159401685Y-93929887D01*
X159294267Y-93846839D01*
X159193114Y-93674846D01*
X159074932Y-93376431D01*
X158950217Y-93014800D01*
X158758589Y-92461372D01*
X158608911Y-92077166D01*
X158486027Y-91836394D01*
X158374781Y-91713267D01*
X158260019Y-91681995D01*
X158176704Y-91698601D01*
X158027206Y-91715167D01*
X157997205Y-91594537D01*
X158005091Y-91525683D01*
X158117236Y-91314070D01*
X158267400Y-91255133D01*
X158432974Y-91192181D01*
X158502040Y-91100097D01*
X158440863Y-91037727D01*
X158394400Y-91033600D01*
X158295753Y-90956284D01*
X158292800Y-90932000D01*
X158370672Y-90845950D01*
X158546245Y-90840848D01*
X158732459Y-90913068D01*
X158780480Y-90952319D01*
X158880410Y-91018925D01*
X158902400Y-90934609D01*
X158955564Y-90882885D01*
X159117900Y-90997767D01*
X159141403Y-91019510D01*
X159370249Y-91341528D01*
X159536713Y-91783259D01*
X159611954Y-92264006D01*
X159613600Y-92340787D01*
X159641028Y-92587646D01*
X159714569Y-92641373D01*
X159821113Y-92503214D01*
X159900992Y-92313485D01*
X160027537Y-92035289D01*
X160185494Y-91782284D01*
X160348494Y-91580202D01*
X160490171Y-91454778D01*
X160584156Y-91431745D01*
X160604080Y-91536837D01*
X160574762Y-91655923D01*
X160553305Y-91806944D01*
X160618716Y-91802327D01*
X160713402Y-91652734D01*
X160731200Y-91535603D01*
X160766073Y-91364672D01*
X160864816Y-91380388D01*
X161018614Y-91579643D01*
X161061400Y-91652075D01*
X161204633Y-91979618D01*
X161221123Y-92289521D01*
X161112477Y-92664527D01*
X161082526Y-92738663D01*
X160925852Y-93116400D01*
X161185374Y-92858843D01*
X161414383Y-92499961D01*
X161484865Y-92077782D01*
X161396568Y-91656446D01*
X161191354Y-91341483D01*
X160896384Y-91033600D01*
X161201870Y-91033600D01*
X161452448Y-90966271D01*
X161707472Y-90801790D01*
X161895723Y-90596410D01*
X161950400Y-90442333D01*
X162024334Y-90332568D01*
X162204974Y-90172758D01*
X162231339Y-90152906D01*
X162463874Y-89923084D01*
X162679513Y-89620723D01*
X162713939Y-89558689D01*
X162906953Y-89238745D01*
X163122228Y-88949219D01*
X163157672Y-88909089D01*
X163370958Y-88622776D01*
X163546125Y-88301170D01*
X163547308Y-88298394D01*
X163697281Y-88012604D01*
X163914964Y-87671794D01*
X164041836Y-87496384D01*
X164278707Y-87128740D01*
X164379536Y-86801051D01*
X164388800Y-86650189D01*
X164381207Y-86535792D01*
X164229993Y-86535792D01*
X164192792Y-86772558D01*
X164123912Y-86960530D01*
X163860643Y-87428789D01*
X163492904Y-87771735D01*
X163350136Y-87862750D01*
X163155010Y-88003755D01*
X163068270Y-88117353D01*
X163068000Y-88121546D01*
X163129832Y-88144209D01*
X163220400Y-88087200D01*
X163341440Y-88013200D01*
X163372410Y-88094545D01*
X163372421Y-88100159D01*
X163301569Y-88339551D01*
X163127368Y-88626355D01*
X162905802Y-88881875D01*
X162720675Y-89016316D01*
X162555729Y-89141627D01*
X162524962Y-89260036D01*
X162504444Y-89462677D01*
X162344712Y-89723651D01*
X162079903Y-89995276D01*
X161899686Y-90133409D01*
X161670051Y-90322385D01*
X161526859Y-90499104D01*
X161511871Y-90535890D01*
X161389336Y-90662806D01*
X161130873Y-90777621D01*
X160799195Y-90867658D01*
X160457017Y-90920244D01*
X160167050Y-90922702D01*
X159992010Y-90862357D01*
X159978697Y-90845764D01*
X160007479Y-90728516D01*
X160129099Y-90486219D01*
X160321151Y-90161186D01*
X160437262Y-89979835D01*
X160703003Y-89596106D01*
X160952412Y-89299554D01*
X161240135Y-89037200D01*
X161620817Y-88756065D01*
X161881562Y-88579598D01*
X162475132Y-88171465D01*
X162927474Y-87824957D01*
X163276435Y-87505668D01*
X163559861Y-87179191D01*
X163799962Y-86835604D01*
X164012513Y-86559192D01*
X164162878Y-86461962D01*
X164229993Y-86535792D01*
X164381207Y-86535792D01*
X164371665Y-86392057D01*
X164299550Y-86280122D01*
X164169861Y-86258399D01*
X164001715Y-86312806D01*
X163709300Y-86460651D01*
X163334836Y-86678875D01*
X162950275Y-86924557D01*
X162540148Y-87185525D01*
X162193171Y-87383469D01*
X161944483Y-87499715D01*
X161832716Y-87518459D01*
X161763598Y-87506864D01*
X161788299Y-87563501D01*
X161802870Y-87668449D01*
X161770130Y-87680800D01*
X161651747Y-87746211D01*
X161444818Y-87914241D01*
X161284883Y-88061799D01*
X161095944Y-88237074D01*
X161007326Y-88304062D01*
X161026390Y-88265000D01*
X161110727Y-88126692D01*
X161104832Y-88087200D01*
X161110194Y-88003373D01*
X161183281Y-87786222D01*
X161278106Y-87553800D01*
X161435115Y-87134732D01*
X161579936Y-86656318D01*
X161639978Y-86410800D01*
X161734948Y-86031313D01*
X161842258Y-85693255D01*
X161911463Y-85526845D01*
X162017744Y-85222094D01*
X162035450Y-85035009D01*
X161848800Y-85035009D01*
X161763935Y-85405063D01*
X161502680Y-85819863D01*
X161353786Y-85994673D01*
X161204284Y-86177972D01*
X161201743Y-86240180D01*
X161264600Y-86226462D01*
X161414407Y-86228588D01*
X161442400Y-86314926D01*
X161396863Y-86568120D01*
X161276317Y-86938151D01*
X161104864Y-87364468D01*
X160906603Y-87786518D01*
X160729998Y-88104843D01*
X160562561Y-88398381D01*
X160514640Y-88544658D01*
X160577918Y-88558797D01*
X160692280Y-88545679D01*
X160689721Y-88669039D01*
X160674173Y-88722839D01*
X160485727Y-89174534D01*
X160196187Y-89576561D01*
X159900801Y-89873717D01*
X159595801Y-90124246D01*
X159334405Y-90251652D01*
X159037214Y-90294554D01*
X159035424Y-90294624D01*
X158760599Y-90291340D01*
X158614379Y-90223479D01*
X158523148Y-90046378D01*
X158496233Y-89967504D01*
X158426489Y-89459489D01*
X158537775Y-88898249D01*
X158832440Y-88278324D01*
X159312829Y-87594258D01*
X159722644Y-87116086D01*
X160100038Y-86687595D01*
X160490910Y-86220552D01*
X160832946Y-85790241D01*
X160958159Y-85623399D01*
X161190471Y-85310329D01*
X161374403Y-85072235D01*
X161480076Y-84947428D01*
X161493042Y-84937599D01*
X161604521Y-84906281D01*
X161688091Y-84875929D01*
X161815473Y-84882611D01*
X161848800Y-85035009D01*
X162035450Y-85035009D01*
X162046375Y-84919589D01*
X161997299Y-84687244D01*
X161912242Y-84600909D01*
X161693350Y-84615651D01*
G36*
X149860000Y-103174800D02*
X149910800Y-103225600D01*
X149961600Y-103174800D01*
X149910800Y-103124000D01*
X149860000Y-103174800D01*
X149860000Y-103174800D01*
G37*
X149860000Y-103174800D02*
X149910800Y-103225600D01*
X149961600Y-103174800D01*
X149910800Y-103124000D01*
X149860000Y-103174800D01*
G36*
X148640800Y-105105200D02*
X148691600Y-105156000D01*
X148742400Y-105105200D01*
X148691600Y-105054400D01*
X148640800Y-105105200D01*
X148640800Y-105105200D01*
G37*
X148640800Y-105105200D02*
X148691600Y-105156000D01*
X148742400Y-105105200D01*
X148691600Y-105054400D01*
X148640800Y-105105200D01*
G36*
X148336000Y-104902000D02*
X148386800Y-104952800D01*
X148437600Y-104902000D01*
X148386800Y-104851200D01*
X148336000Y-104902000D01*
X148336000Y-104902000D01*
G37*
X148336000Y-104902000D02*
X148386800Y-104952800D01*
X148437600Y-104902000D01*
X148386800Y-104851200D01*
X148336000Y-104902000D01*
G36*
X158789170Y-95169846D02*
X158553891Y-95252310D01*
X158465236Y-95337600D01*
X158523821Y-95421182D01*
X158759839Y-95465559D01*
X158817318Y-95468630D01*
X159113958Y-95509380D01*
X159336849Y-95589997D01*
X159362578Y-95608071D01*
X159484816Y-95677163D01*
X159512000Y-95614766D01*
X159429422Y-95488316D01*
X159283400Y-95396789D01*
X159142094Y-95329815D01*
X159180450Y-95322814D01*
X159334200Y-95351198D01*
X159554224Y-95356737D01*
X159604474Y-95287648D01*
X159475728Y-95193856D01*
X159369525Y-95159969D01*
X159087325Y-95133904D01*
X158789170Y-95169846D01*
X158789170Y-95169846D01*
G37*
X158789170Y-95169846D02*
X158553891Y-95252310D01*
X158465236Y-95337600D01*
X158523821Y-95421182D01*
X158759839Y-95465559D01*
X158817318Y-95468630D01*
X159113958Y-95509380D01*
X159336849Y-95589997D01*
X159362578Y-95608071D01*
X159484816Y-95677163D01*
X159512000Y-95614766D01*
X159429422Y-95488316D01*
X159283400Y-95396789D01*
X159142094Y-95329815D01*
X159180450Y-95322814D01*
X159334200Y-95351198D01*
X159554224Y-95356737D01*
X159604474Y-95287648D01*
X159475728Y-95193856D01*
X159369525Y-95159969D01*
X159087325Y-95133904D01*
X158789170Y-95169846D01*
G36*
X158901152Y-94818773D02*
X158787089Y-94867471D01*
X158812504Y-94915573D01*
X158992413Y-94920130D01*
X159043325Y-94915022D01*
X159352706Y-94922266D01*
X159613706Y-94996056D01*
X159613789Y-94996100D01*
X159774797Y-95066278D01*
X159805901Y-95019100D01*
X159795259Y-94980465D01*
X159675037Y-94892185D01*
X159432496Y-94829820D01*
X159147809Y-94802353D01*
X158901152Y-94818773D01*
X158901152Y-94818773D01*
G37*
X158901152Y-94818773D02*
X158787089Y-94867471D01*
X158812504Y-94915573D01*
X158992413Y-94920130D01*
X159043325Y-94915022D01*
X159352706Y-94922266D01*
X159613706Y-94996056D01*
X159613789Y-94996100D01*
X159774797Y-95066278D01*
X159805901Y-95019100D01*
X159795259Y-94980465D01*
X159675037Y-94892185D01*
X159432496Y-94829820D01*
X159147809Y-94802353D01*
X158901152Y-94818773D01*
G36*
X160581457Y-94921397D02*
X160528000Y-94996000D01*
X160614687Y-95073298D01*
X160773691Y-95097600D01*
X161051044Y-95122313D01*
X161205491Y-95156694D01*
X161325738Y-95186922D01*
X161289616Y-95134712D01*
X161194382Y-95055094D01*
X160986616Y-94944310D01*
X160757698Y-94897562D01*
X160581457Y-94921397D01*
X160581457Y-94921397D01*
G37*
X160581457Y-94921397D02*
X160528000Y-94996000D01*
X160614687Y-95073298D01*
X160773691Y-95097600D01*
X161051044Y-95122313D01*
X161205491Y-95156694D01*
X161325738Y-95186922D01*
X161289616Y-95134712D01*
X161194382Y-95055094D01*
X160986616Y-94944310D01*
X160757698Y-94897562D01*
X160581457Y-94921397D01*
G36*
X160121600Y-94742000D02*
X160172400Y-94792800D01*
X160223200Y-94742000D01*
X160172400Y-94691200D01*
X160121600Y-94742000D01*
X160121600Y-94742000D01*
G37*
X160121600Y-94742000D02*
X160172400Y-94792800D01*
X160223200Y-94742000D01*
X160172400Y-94691200D01*
X160121600Y-94742000D01*
G36*
X215439175Y-107595102D02*
X215344460Y-107651284D01*
X215202766Y-107741502D01*
X215020059Y-107861585D01*
X214802307Y-108007362D01*
X214555477Y-108174663D01*
X214285534Y-108359318D01*
X213998447Y-108557155D01*
X213700182Y-108764004D01*
X213396706Y-108975694D01*
X213093986Y-109188055D01*
X212797989Y-109396915D01*
X212514682Y-109598105D01*
X212250031Y-109787453D01*
X212010005Y-109960788D01*
X211800569Y-110113941D01*
X211627691Y-110242740D01*
X211497337Y-110343015D01*
X211415475Y-110410595D01*
X211389976Y-110436570D01*
X211333057Y-110549883D01*
X211321154Y-110644666D01*
X211354548Y-110705511D01*
X211384872Y-110717799D01*
X211427061Y-110700246D01*
X211521270Y-110645475D01*
X211660278Y-110558182D01*
X211836862Y-110443063D01*
X212043800Y-110304813D01*
X212273868Y-110148128D01*
X212473444Y-110010072D01*
X212774413Y-109800557D01*
X213108308Y-109568294D01*
X213457048Y-109325852D01*
X213802549Y-109085798D01*
X214126727Y-108860698D01*
X214411502Y-108663120D01*
X214440375Y-108643100D01*
X214675613Y-108478576D01*
X214895091Y-108322362D01*
X215090654Y-108180473D01*
X215254150Y-108058922D01*
X215377424Y-107963725D01*
X215452321Y-107900894D01*
X215467367Y-107885631D01*
X215526414Y-107786787D01*
X215547696Y-107688503D01*
X215530306Y-107611385D01*
X215480943Y-107577127D01*
X215439175Y-107595102D01*
X215439175Y-107595102D01*
G37*
X215439175Y-107595102D02*
X215344460Y-107651284D01*
X215202766Y-107741502D01*
X215020059Y-107861585D01*
X214802307Y-108007362D01*
X214555477Y-108174663D01*
X214285534Y-108359318D01*
X213998447Y-108557155D01*
X213700182Y-108764004D01*
X213396706Y-108975694D01*
X213093986Y-109188055D01*
X212797989Y-109396915D01*
X212514682Y-109598105D01*
X212250031Y-109787453D01*
X212010005Y-109960788D01*
X211800569Y-110113941D01*
X211627691Y-110242740D01*
X211497337Y-110343015D01*
X211415475Y-110410595D01*
X211389976Y-110436570D01*
X211333057Y-110549883D01*
X211321154Y-110644666D01*
X211354548Y-110705511D01*
X211384872Y-110717799D01*
X211427061Y-110700246D01*
X211521270Y-110645475D01*
X211660278Y-110558182D01*
X211836862Y-110443063D01*
X212043800Y-110304813D01*
X212273868Y-110148128D01*
X212473444Y-110010072D01*
X212774413Y-109800557D01*
X213108308Y-109568294D01*
X213457048Y-109325852D01*
X213802549Y-109085798D01*
X214126727Y-108860698D01*
X214411502Y-108663120D01*
X214440375Y-108643100D01*
X214675613Y-108478576D01*
X214895091Y-108322362D01*
X215090654Y-108180473D01*
X215254150Y-108058922D01*
X215377424Y-107963725D01*
X215452321Y-107900894D01*
X215467367Y-107885631D01*
X215526414Y-107786787D01*
X215547696Y-107688503D01*
X215530306Y-107611385D01*
X215480943Y-107577127D01*
X215439175Y-107595102D01*
G36*
X215473643Y-106269909D02*
X215432791Y-106292328D01*
X215338555Y-106352134D01*
X215197030Y-106445132D01*
X215014307Y-106567126D01*
X214796480Y-106713920D01*
X214549642Y-106881319D01*
X214279885Y-107065125D01*
X213993303Y-107261144D01*
X213695988Y-107465179D01*
X213394034Y-107673034D01*
X213093533Y-107880514D01*
X212800578Y-108083423D01*
X212521263Y-108277564D01*
X212261679Y-108458742D01*
X212027921Y-108622760D01*
X211826081Y-108765424D01*
X211662253Y-108882536D01*
X211542528Y-108969902D01*
X211473000Y-109023324D01*
X211463461Y-109031533D01*
X211389432Y-109126535D01*
X211339776Y-109241655D01*
X211321729Y-109352120D01*
X211342526Y-109433153D01*
X211345187Y-109436563D01*
X211395511Y-109482678D01*
X211418487Y-109492143D01*
X211452215Y-109471979D01*
X211540458Y-109413786D01*
X211678181Y-109321012D01*
X211860348Y-109197104D01*
X212081924Y-109045510D01*
X212337873Y-108869679D01*
X212623161Y-108673058D01*
X212932751Y-108459096D01*
X213261608Y-108231239D01*
X213382544Y-108147306D01*
X213720602Y-107912099D01*
X214043519Y-107686492D01*
X214345923Y-107474301D01*
X214622439Y-107279340D01*
X214867693Y-107105422D01*
X215076312Y-106956363D01*
X215242922Y-106835977D01*
X215362148Y-106748079D01*
X215428617Y-106696483D01*
X215437357Y-106688759D01*
X215515951Y-106598577D01*
X215549559Y-106507837D01*
X215555285Y-106414652D01*
X215551781Y-106316020D01*
X215534716Y-106272442D01*
X215494264Y-106266494D01*
X215473643Y-106269909D01*
X215473643Y-106269909D01*
G37*
X215473643Y-106269909D02*
X215432791Y-106292328D01*
X215338555Y-106352134D01*
X215197030Y-106445132D01*
X215014307Y-106567126D01*
X214796480Y-106713920D01*
X214549642Y-106881319D01*
X214279885Y-107065125D01*
X213993303Y-107261144D01*
X213695988Y-107465179D01*
X213394034Y-107673034D01*
X213093533Y-107880514D01*
X212800578Y-108083423D01*
X212521263Y-108277564D01*
X212261679Y-108458742D01*
X212027921Y-108622760D01*
X211826081Y-108765424D01*
X211662253Y-108882536D01*
X211542528Y-108969902D01*
X211473000Y-109023324D01*
X211463461Y-109031533D01*
X211389432Y-109126535D01*
X211339776Y-109241655D01*
X211321729Y-109352120D01*
X211342526Y-109433153D01*
X211345187Y-109436563D01*
X211395511Y-109482678D01*
X211418487Y-109492143D01*
X211452215Y-109471979D01*
X211540458Y-109413786D01*
X211678181Y-109321012D01*
X211860348Y-109197104D01*
X212081924Y-109045510D01*
X212337873Y-108869679D01*
X212623161Y-108673058D01*
X212932751Y-108459096D01*
X213261608Y-108231239D01*
X213382544Y-108147306D01*
X213720602Y-107912099D01*
X214043519Y-107686492D01*
X214345923Y-107474301D01*
X214622439Y-107279340D01*
X214867693Y-107105422D01*
X215076312Y-106956363D01*
X215242922Y-106835977D01*
X215362148Y-106748079D01*
X215428617Y-106696483D01*
X215437357Y-106688759D01*
X215515951Y-106598577D01*
X215549559Y-106507837D01*
X215555285Y-106414652D01*
X215551781Y-106316020D01*
X215534716Y-106272442D01*
X215494264Y-106266494D01*
X215473643Y-106269909D01*
G36*
X215384608Y-104888380D02*
X215295739Y-104928558D01*
X215177969Y-104994052D01*
X215027062Y-105087080D01*
X214838782Y-105209860D01*
X214608895Y-105364609D01*
X214333165Y-105553547D01*
X214007357Y-105778890D01*
X213627235Y-106042857D01*
X213523286Y-106115100D01*
X213197054Y-106342019D01*
X212885243Y-106559279D01*
X212593547Y-106762887D01*
X212327662Y-106948851D01*
X212093283Y-107113177D01*
X211896104Y-107251874D01*
X211741823Y-107360948D01*
X211636133Y-107436406D01*
X211586207Y-107473098D01*
X211455985Y-107608559D01*
X211360242Y-107775052D01*
X211313170Y-107946058D01*
X211310654Y-107988100D01*
X211328127Y-108090439D01*
X211373166Y-108163959D01*
X211420936Y-108185857D01*
X211454114Y-108165708D01*
X211541837Y-108107555D01*
X211679078Y-108014846D01*
X211860810Y-107891024D01*
X212082007Y-107739535D01*
X212337642Y-107563824D01*
X212622688Y-107367336D01*
X212932119Y-107153515D01*
X213260908Y-106925807D01*
X213382178Y-106841697D01*
X213720477Y-106606303D01*
X214043668Y-106380136D01*
X214346366Y-106167048D01*
X214623183Y-105970891D01*
X214868733Y-105795519D01*
X215077629Y-105644782D01*
X215244483Y-105522534D01*
X215363910Y-105432627D01*
X215430521Y-105378914D01*
X215439202Y-105370645D01*
X215510879Y-105286354D01*
X215544194Y-105211817D01*
X215550689Y-105113538D01*
X215548059Y-105054734D01*
X215543660Y-104989595D01*
X215535771Y-104936465D01*
X215520156Y-104897560D01*
X215492581Y-104875098D01*
X215448810Y-104871299D01*
X215384608Y-104888380D01*
X215384608Y-104888380D01*
G37*
X215384608Y-104888380D02*
X215295739Y-104928558D01*
X215177969Y-104994052D01*
X215027062Y-105087080D01*
X214838782Y-105209860D01*
X214608895Y-105364609D01*
X214333165Y-105553547D01*
X214007357Y-105778890D01*
X213627235Y-106042857D01*
X213523286Y-106115100D01*
X213197054Y-106342019D01*
X212885243Y-106559279D01*
X212593547Y-106762887D01*
X212327662Y-106948851D01*
X212093283Y-107113177D01*
X211896104Y-107251874D01*
X211741823Y-107360948D01*
X211636133Y-107436406D01*
X211586207Y-107473098D01*
X211455985Y-107608559D01*
X211360242Y-107775052D01*
X211313170Y-107946058D01*
X211310654Y-107988100D01*
X211328127Y-108090439D01*
X211373166Y-108163959D01*
X211420936Y-108185857D01*
X211454114Y-108165708D01*
X211541837Y-108107555D01*
X211679078Y-108014846D01*
X211860810Y-107891024D01*
X212082007Y-107739535D01*
X212337642Y-107563824D01*
X212622688Y-107367336D01*
X212932119Y-107153515D01*
X213260908Y-106925807D01*
X213382178Y-106841697D01*
X213720477Y-106606303D01*
X214043668Y-106380136D01*
X214346366Y-106167048D01*
X214623183Y-105970891D01*
X214868733Y-105795519D01*
X215077629Y-105644782D01*
X215244483Y-105522534D01*
X215363910Y-105432627D01*
X215430521Y-105378914D01*
X215439202Y-105370645D01*
X215510879Y-105286354D01*
X215544194Y-105211817D01*
X215550689Y-105113538D01*
X215548059Y-105054734D01*
X215543660Y-104989595D01*
X215535771Y-104936465D01*
X215520156Y-104897560D01*
X215492581Y-104875098D01*
X215448810Y-104871299D01*
X215384608Y-104888380D01*
G36*
X215412277Y-103267233D02*
X215349303Y-103297556D01*
X215254104Y-103352368D01*
X215123275Y-103433913D01*
X214953414Y-103544433D01*
X214741116Y-103686171D01*
X214482979Y-103861372D01*
X214175599Y-104072278D01*
X213815573Y-104321132D01*
X213450714Y-104574537D01*
X213116419Y-104807473D01*
X212797855Y-105030135D01*
X212500355Y-105238752D01*
X212229252Y-105429551D01*
X211989880Y-105598760D01*
X211787572Y-105742606D01*
X211627661Y-105857317D01*
X211515482Y-105939121D01*
X211456367Y-105984245D01*
X211450761Y-105989110D01*
X211378523Y-106087535D01*
X211330876Y-106212958D01*
X211308100Y-106348587D01*
X211310476Y-106477628D01*
X211338282Y-106583290D01*
X211391798Y-106648781D01*
X211439560Y-106661857D01*
X211475936Y-106641663D01*
X211566785Y-106583366D01*
X211707067Y-106490393D01*
X211891739Y-106366169D01*
X212115762Y-106214122D01*
X212374095Y-106037677D01*
X212661696Y-105840261D01*
X212973525Y-105625301D01*
X213304542Y-105396223D01*
X213450437Y-105294986D01*
X213903883Y-104979079D01*
X214301924Y-104699644D01*
X214643846Y-104457201D01*
X214928932Y-104252270D01*
X215156467Y-104085370D01*
X215325733Y-103957021D01*
X215436016Y-103867743D01*
X215486599Y-103818056D01*
X215487720Y-103816343D01*
X215531506Y-103717012D01*
X215548193Y-103591919D01*
X215546943Y-103486857D01*
X215539059Y-103365489D01*
X215524092Y-103298872D01*
X215494175Y-103269188D01*
X215446428Y-103259156D01*
X215412277Y-103267233D01*
X215412277Y-103267233D01*
G37*
X215412277Y-103267233D02*
X215349303Y-103297556D01*
X215254104Y-103352368D01*
X215123275Y-103433913D01*
X214953414Y-103544433D01*
X214741116Y-103686171D01*
X214482979Y-103861372D01*
X214175599Y-104072278D01*
X213815573Y-104321132D01*
X213450714Y-104574537D01*
X213116419Y-104807473D01*
X212797855Y-105030135D01*
X212500355Y-105238752D01*
X212229252Y-105429551D01*
X211989880Y-105598760D01*
X211787572Y-105742606D01*
X211627661Y-105857317D01*
X211515482Y-105939121D01*
X211456367Y-105984245D01*
X211450761Y-105989110D01*
X211378523Y-106087535D01*
X211330876Y-106212958D01*
X211308100Y-106348587D01*
X211310476Y-106477628D01*
X211338282Y-106583290D01*
X211391798Y-106648781D01*
X211439560Y-106661857D01*
X211475936Y-106641663D01*
X211566785Y-106583366D01*
X211707067Y-106490393D01*
X211891739Y-106366169D01*
X212115762Y-106214122D01*
X212374095Y-106037677D01*
X212661696Y-105840261D01*
X212973525Y-105625301D01*
X213304542Y-105396223D01*
X213450437Y-105294986D01*
X213903883Y-104979079D01*
X214301924Y-104699644D01*
X214643846Y-104457201D01*
X214928932Y-104252270D01*
X215156467Y-104085370D01*
X215325733Y-103957021D01*
X215436016Y-103867743D01*
X215486599Y-103818056D01*
X215487720Y-103816343D01*
X215531506Y-103717012D01*
X215548193Y-103591919D01*
X215546943Y-103486857D01*
X215539059Y-103365489D01*
X215524092Y-103298872D01*
X215494175Y-103269188D01*
X215446428Y-103259156D01*
X215412277Y-103267233D01*
G36*
X215400780Y-101584937D02*
X215302372Y-101643279D01*
X215156990Y-101735284D01*
X214970716Y-101856749D01*
X214749627Y-102003469D01*
X214499803Y-102171240D01*
X214227324Y-102355856D01*
X213938268Y-102553114D01*
X213638715Y-102758810D01*
X213334744Y-102968738D01*
X213032434Y-103178695D01*
X212737866Y-103384476D01*
X212457117Y-103581876D01*
X212196268Y-103766692D01*
X211961397Y-103934718D01*
X211758583Y-104081751D01*
X211593907Y-104203586D01*
X211473447Y-104296019D01*
X211403283Y-104354844D01*
X211388895Y-104370441D01*
X211354447Y-104459688D01*
X211328184Y-104594889D01*
X211312764Y-104749634D01*
X211310845Y-104897517D01*
X211324523Y-105009924D01*
X211367870Y-105084700D01*
X211415879Y-105101571D01*
X211459563Y-105081455D01*
X211556061Y-105023996D01*
X211698776Y-104933527D01*
X211881112Y-104814382D01*
X212096471Y-104670894D01*
X212338257Y-104507398D01*
X212599872Y-104328227D01*
X212730545Y-104237936D01*
X213194107Y-103916613D01*
X213601650Y-103633854D01*
X213956879Y-103386994D01*
X214263500Y-103173372D01*
X214525219Y-102990323D01*
X214745739Y-102835186D01*
X214928768Y-102705296D01*
X215078010Y-102597992D01*
X215197171Y-102510610D01*
X215289955Y-102440486D01*
X215360070Y-102384959D01*
X215411220Y-102341365D01*
X215447110Y-102307041D01*
X215471446Y-102279324D01*
X215487153Y-102256824D01*
X215523992Y-102180677D01*
X215543549Y-102088818D01*
X215549025Y-101959646D01*
X215546842Y-101854000D01*
X215540973Y-101710033D01*
X215531825Y-101623862D01*
X215514268Y-101580732D01*
X215483170Y-101565891D01*
X215446136Y-101564463D01*
X215400780Y-101584937D01*
X215400780Y-101584937D01*
G37*
X215400780Y-101584937D02*
X215302372Y-101643279D01*
X215156990Y-101735284D01*
X214970716Y-101856749D01*
X214749627Y-102003469D01*
X214499803Y-102171240D01*
X214227324Y-102355856D01*
X213938268Y-102553114D01*
X213638715Y-102758810D01*
X213334744Y-102968738D01*
X213032434Y-103178695D01*
X212737866Y-103384476D01*
X212457117Y-103581876D01*
X212196268Y-103766692D01*
X211961397Y-103934718D01*
X211758583Y-104081751D01*
X211593907Y-104203586D01*
X211473447Y-104296019D01*
X211403283Y-104354844D01*
X211388895Y-104370441D01*
X211354447Y-104459688D01*
X211328184Y-104594889D01*
X211312764Y-104749634D01*
X211310845Y-104897517D01*
X211324523Y-105009924D01*
X211367870Y-105084700D01*
X211415879Y-105101571D01*
X211459563Y-105081455D01*
X211556061Y-105023996D01*
X211698776Y-104933527D01*
X211881112Y-104814382D01*
X212096471Y-104670894D01*
X212338257Y-104507398D01*
X212599872Y-104328227D01*
X212730545Y-104237936D01*
X213194107Y-103916613D01*
X213601650Y-103633854D01*
X213956879Y-103386994D01*
X214263500Y-103173372D01*
X214525219Y-102990323D01*
X214745739Y-102835186D01*
X214928768Y-102705296D01*
X215078010Y-102597992D01*
X215197171Y-102510610D01*
X215289955Y-102440486D01*
X215360070Y-102384959D01*
X215411220Y-102341365D01*
X215447110Y-102307041D01*
X215471446Y-102279324D01*
X215487153Y-102256824D01*
X215523992Y-102180677D01*
X215543549Y-102088818D01*
X215549025Y-101959646D01*
X215546842Y-101854000D01*
X215540973Y-101710033D01*
X215531825Y-101623862D01*
X215514268Y-101580732D01*
X215483170Y-101565891D01*
X215446136Y-101564463D01*
X215400780Y-101584937D01*
G36*
X213413669Y-84153893D02*
X213383501Y-84184009D01*
X213352472Y-84229286D01*
X213289980Y-84330600D01*
X213200153Y-84480742D01*
X213087118Y-84672506D01*
X212955003Y-84898681D01*
X212807936Y-85152061D01*
X212650045Y-85425438D01*
X212485457Y-85711602D01*
X212318300Y-86003347D01*
X212152702Y-86293465D01*
X211992791Y-86574746D01*
X211842693Y-86839983D01*
X211706538Y-87081969D01*
X211588453Y-87293494D01*
X211492565Y-87467351D01*
X211423002Y-87596332D01*
X211383892Y-87673228D01*
X211378967Y-87684428D01*
X211373021Y-87707802D01*
X211367515Y-87748984D01*
X211362428Y-87810723D01*
X211357740Y-87895762D01*
X211353428Y-88006848D01*
X211349472Y-88146728D01*
X211345850Y-88318146D01*
X211342542Y-88523849D01*
X211339525Y-88766582D01*
X211336779Y-89049091D01*
X211334283Y-89374123D01*
X211332014Y-89744422D01*
X211329953Y-90162735D01*
X211328078Y-90631807D01*
X211326367Y-91154385D01*
X211324799Y-91733214D01*
X211323354Y-92371040D01*
X211322009Y-93070609D01*
X211320745Y-93834667D01*
X211319538Y-94665959D01*
X211318434Y-95514533D01*
X211317350Y-96506064D01*
X211316652Y-97425931D01*
X211316344Y-98275041D01*
X211316429Y-99054299D01*
X211316911Y-99764612D01*
X211317792Y-100406886D01*
X211319076Y-100982028D01*
X211320767Y-101490945D01*
X211322867Y-101934541D01*
X211325380Y-102313724D01*
X211328310Y-102629400D01*
X211331659Y-102882476D01*
X211335431Y-103073858D01*
X211339629Y-103204451D01*
X211344257Y-103275163D01*
X211346925Y-103288747D01*
X211402845Y-103345487D01*
X211447205Y-103358809D01*
X211486976Y-103338387D01*
X211581096Y-103279779D01*
X211724467Y-103186426D01*
X211911991Y-103061767D01*
X212138568Y-102909241D01*
X212399101Y-102732287D01*
X212688491Y-102534345D01*
X213001639Y-102318854D01*
X213333448Y-102089254D01*
X213477746Y-101989024D01*
X213892391Y-101700158D01*
X214250471Y-101449484D01*
X214555473Y-101234444D01*
X214810886Y-101052481D01*
X215020195Y-100901040D01*
X215186889Y-100777562D01*
X215314454Y-100679493D01*
X215406379Y-100604275D01*
X215466149Y-100549351D01*
X215497253Y-100512165D01*
X215500675Y-100505945D01*
X215507646Y-100484996D01*
X215514007Y-100450559D01*
X215519783Y-100399484D01*
X215525003Y-100328620D01*
X215529691Y-100234818D01*
X215533875Y-100114927D01*
X215537582Y-99965800D01*
X215540837Y-99784284D01*
X215543668Y-99567231D01*
X215546101Y-99311491D01*
X215548162Y-99013914D01*
X215549879Y-98671350D01*
X215551278Y-98280649D01*
X215552385Y-97838661D01*
X215552744Y-97626714D01*
X214539286Y-97626714D01*
X214539286Y-100311857D01*
X214031286Y-100311857D01*
X214031286Y-99223286D01*
X212616143Y-99223286D01*
X212616143Y-98787857D01*
X214031286Y-98787857D01*
X214031286Y-98062143D01*
X212398428Y-98062143D01*
X212398428Y-97626714D01*
X214539286Y-97626714D01*
X215552744Y-97626714D01*
X215553227Y-97342238D01*
X215553831Y-96788228D01*
X215554223Y-96173482D01*
X215554233Y-96139000D01*
X214549780Y-96139000D01*
X214527471Y-96377896D01*
X214485885Y-96599538D01*
X214409118Y-96767269D01*
X214300032Y-96875582D01*
X214257750Y-96897215D01*
X214077446Y-96950349D01*
X213846654Y-96986603D01*
X213585745Y-97004785D01*
X213315085Y-97003706D01*
X213055044Y-96982175D01*
X212983229Y-96971725D01*
X212773015Y-96925969D01*
X212620675Y-96859913D01*
X212516737Y-96762418D01*
X212451728Y-96622351D01*
X212416174Y-96428575D01*
X212405614Y-96292717D01*
X212406645Y-96020582D01*
X212442497Y-95809519D01*
X212512889Y-95660664D01*
X212575811Y-95598657D01*
X212676967Y-95545707D01*
X212820883Y-95501406D01*
X213015922Y-95463981D01*
X213270450Y-95431662D01*
X213442051Y-95415136D01*
X213612987Y-95397458D01*
X213761938Y-95377255D01*
X213871101Y-95357233D01*
X213918762Y-95342677D01*
X213971233Y-95278108D01*
X214002711Y-95165096D01*
X214009092Y-95025772D01*
X213996356Y-94924085D01*
X213956809Y-94833377D01*
X213875546Y-94770708D01*
X213743878Y-94732581D01*
X213553118Y-94715498D01*
X213474172Y-94713870D01*
X213285434Y-94715360D01*
X213155705Y-94727277D01*
X213071575Y-94755314D01*
X213019636Y-94805161D01*
X212986479Y-94882509D01*
X212974591Y-94925906D01*
X212934099Y-95086714D01*
X212436102Y-95086714D01*
X212457537Y-94914357D01*
X212504629Y-94706897D01*
X212585759Y-94538445D01*
X212688714Y-94428076D01*
X212806238Y-94373872D01*
X212978533Y-94332440D01*
X213188725Y-94304976D01*
X213419944Y-94292673D01*
X213655317Y-94296725D01*
X213877973Y-94318328D01*
X213981529Y-94336558D01*
X214182333Y-94392513D01*
X214324575Y-94467307D01*
X214421425Y-94568779D01*
X214448277Y-94614432D01*
X214501609Y-94768863D01*
X214527326Y-94956897D01*
X214526730Y-95157661D01*
X214501124Y-95350284D01*
X214451812Y-95513893D01*
X214385376Y-95622188D01*
X214291275Y-95691167D01*
X214147122Y-95747676D01*
X213946667Y-95793317D01*
X213683657Y-95829689D01*
X213509580Y-95846364D01*
X213287146Y-95867698D01*
X213127080Y-95892441D01*
X213019232Y-95926753D01*
X212953452Y-95976795D01*
X212919587Y-96048727D01*
X212907488Y-96148710D01*
X212906428Y-96212408D01*
X212913794Y-96356073D01*
X212938999Y-96448155D01*
X212973339Y-96496196D01*
X213064242Y-96546769D01*
X213205574Y-96580534D01*
X213377190Y-96597485D01*
X213558944Y-96597614D01*
X213730691Y-96580913D01*
X213872284Y-96547374D01*
X213963578Y-96496991D01*
X213963999Y-96496572D01*
X214017818Y-96395305D01*
X214031286Y-96284143D01*
X214031286Y-96139000D01*
X214549780Y-96139000D01*
X215554233Y-96139000D01*
X215554429Y-95494851D01*
X215554477Y-94749184D01*
X215554424Y-94137802D01*
X215553991Y-90986428D01*
X214544012Y-90986428D01*
X214532577Y-92102214D01*
X214528810Y-92424557D01*
X214524517Y-92682397D01*
X214519230Y-92883804D01*
X214512479Y-93036848D01*
X214503795Y-93149596D01*
X214492710Y-93230119D01*
X214478753Y-93286485D01*
X214461455Y-93326764D01*
X214461358Y-93326943D01*
X214354704Y-93474017D01*
X214214603Y-93572327D01*
X214097731Y-93617674D01*
X213977769Y-93641331D01*
X213805745Y-93657732D01*
X213601822Y-93666661D01*
X213386167Y-93667903D01*
X213178945Y-93661242D01*
X213000322Y-93646464D01*
X212899767Y-93630467D01*
X212704270Y-93555929D01*
X212552144Y-93429920D01*
X212453158Y-93261214D01*
X212438657Y-93216297D01*
X212426155Y-93132541D01*
X212415730Y-92982460D01*
X212407592Y-92772278D01*
X212401951Y-92508217D01*
X212399017Y-92196500D01*
X212398631Y-92029643D01*
X212398428Y-90986428D01*
X212906428Y-90986428D01*
X212906428Y-92016551D01*
X212905913Y-92343894D01*
X212906607Y-92605926D01*
X212911867Y-92809880D01*
X212925051Y-92962985D01*
X212949516Y-93072471D01*
X212988620Y-93145568D01*
X213045720Y-93189508D01*
X213124174Y-93211520D01*
X213227340Y-93218834D01*
X213358575Y-93218680D01*
X213464355Y-93218000D01*
X213651607Y-93216375D01*
X213780321Y-93210252D01*
X213864483Y-93197762D01*
X213918080Y-93177032D01*
X213948347Y-93153261D01*
X213967274Y-93128865D01*
X213982343Y-93092260D01*
X213994111Y-93035250D01*
X214003136Y-92949640D01*
X214009975Y-92827234D01*
X214015186Y-92659835D01*
X214019325Y-92439248D01*
X214022952Y-92157277D01*
X214024258Y-92037476D01*
X214035373Y-90986428D01*
X214544012Y-90986428D01*
X215553991Y-90986428D01*
X215553703Y-88896373D01*
X214533285Y-88896373D01*
X214527748Y-89157142D01*
X214512628Y-89411600D01*
X214488254Y-89644146D01*
X214454959Y-89839177D01*
X214413128Y-89980957D01*
X214328044Y-90123988D01*
X214203778Y-90226685D01*
X214029353Y-90295964D01*
X213858860Y-90330174D01*
X213426550Y-90362958D01*
X212998998Y-90331693D01*
X212778758Y-90285045D01*
X212616245Y-90211333D01*
X212502402Y-90100586D01*
X212428174Y-89942835D01*
X212384503Y-89728110D01*
X212375461Y-89645283D01*
X212351721Y-89389857D01*
X212861781Y-89389857D01*
X212886835Y-89590381D01*
X212911391Y-89718073D01*
X212956031Y-89805178D01*
X213033857Y-89861101D01*
X213157968Y-89895248D01*
X213341467Y-89917024D01*
X213341857Y-89917058D01*
X213583167Y-89922291D01*
X213765197Y-89890433D01*
X213891689Y-89820371D01*
X213956143Y-89734571D01*
X213975437Y-89657069D01*
X213990684Y-89522526D01*
X214001764Y-89346368D01*
X214008559Y-89144017D01*
X214010947Y-88930901D01*
X214008810Y-88722441D01*
X214002029Y-88534064D01*
X213990483Y-88381194D01*
X213974054Y-88279255D01*
X213967568Y-88259485D01*
X213901255Y-88173938D01*
X213783897Y-88118178D01*
X213609981Y-88090703D01*
X213373991Y-88090009D01*
X213349942Y-88091187D01*
X213159547Y-88109604D01*
X213030480Y-88146356D01*
X212952294Y-88209050D01*
X212914541Y-88305294D01*
X212906428Y-88414163D01*
X212906428Y-88555286D01*
X212388493Y-88555286D01*
X212406921Y-88325709D01*
X212440419Y-88102272D01*
X212503788Y-87936394D01*
X212602956Y-87817129D01*
X212722387Y-87743031D01*
X212801214Y-87710908D01*
X212884599Y-87689055D01*
X212988578Y-87675597D01*
X213129190Y-87668656D01*
X213322473Y-87666356D01*
X213378143Y-87666286D01*
X213674860Y-87673362D01*
X213909747Y-87697183D01*
X214092396Y-87741641D01*
X214232401Y-87810626D01*
X214339354Y-87908029D01*
X214422848Y-88037739D01*
X214452978Y-88102209D01*
X214489085Y-88232210D01*
X214514285Y-88418305D01*
X214528908Y-88644893D01*
X214533285Y-88896373D01*
X215553703Y-88896373D01*
X215553563Y-87884000D01*
X215469999Y-87684428D01*
X215436132Y-87614066D01*
X215371873Y-87490542D01*
X215281257Y-87321078D01*
X215168322Y-87112896D01*
X215037105Y-86873217D01*
X214891643Y-86609264D01*
X214735972Y-86328259D01*
X214574131Y-86037423D01*
X214410155Y-85743978D01*
X214248081Y-85455147D01*
X214091948Y-85178150D01*
X213945791Y-84920210D01*
X213813648Y-84688549D01*
X213699555Y-84490388D01*
X213607550Y-84332949D01*
X213541670Y-84223455D01*
X213505951Y-84169127D01*
X213503139Y-84165866D01*
X213457801Y-84133931D01*
X213413669Y-84153893D01*
X213413669Y-84153893D01*
G37*
X213413669Y-84153893D02*
X213383501Y-84184009D01*
X213352472Y-84229286D01*
X213289980Y-84330600D01*
X213200153Y-84480742D01*
X213087118Y-84672506D01*
X212955003Y-84898681D01*
X212807936Y-85152061D01*
X212650045Y-85425438D01*
X212485457Y-85711602D01*
X212318300Y-86003347D01*
X212152702Y-86293465D01*
X211992791Y-86574746D01*
X211842693Y-86839983D01*
X211706538Y-87081969D01*
X211588453Y-87293494D01*
X211492565Y-87467351D01*
X211423002Y-87596332D01*
X211383892Y-87673228D01*
X211378967Y-87684428D01*
X211373021Y-87707802D01*
X211367515Y-87748984D01*
X211362428Y-87810723D01*
X211357740Y-87895762D01*
X211353428Y-88006848D01*
X211349472Y-88146728D01*
X211345850Y-88318146D01*
X211342542Y-88523849D01*
X211339525Y-88766582D01*
X211336779Y-89049091D01*
X211334283Y-89374123D01*
X211332014Y-89744422D01*
X211329953Y-90162735D01*
X211328078Y-90631807D01*
X211326367Y-91154385D01*
X211324799Y-91733214D01*
X211323354Y-92371040D01*
X211322009Y-93070609D01*
X211320745Y-93834667D01*
X211319538Y-94665959D01*
X211318434Y-95514533D01*
X211317350Y-96506064D01*
X211316652Y-97425931D01*
X211316344Y-98275041D01*
X211316429Y-99054299D01*
X211316911Y-99764612D01*
X211317792Y-100406886D01*
X211319076Y-100982028D01*
X211320767Y-101490945D01*
X211322867Y-101934541D01*
X211325380Y-102313724D01*
X211328310Y-102629400D01*
X211331659Y-102882476D01*
X211335431Y-103073858D01*
X211339629Y-103204451D01*
X211344257Y-103275163D01*
X211346925Y-103288747D01*
X211402845Y-103345487D01*
X211447205Y-103358809D01*
X211486976Y-103338387D01*
X211581096Y-103279779D01*
X211724467Y-103186426D01*
X211911991Y-103061767D01*
X212138568Y-102909241D01*
X212399101Y-102732287D01*
X212688491Y-102534345D01*
X213001639Y-102318854D01*
X213333448Y-102089254D01*
X213477746Y-101989024D01*
X213892391Y-101700158D01*
X214250471Y-101449484D01*
X214555473Y-101234444D01*
X214810886Y-101052481D01*
X215020195Y-100901040D01*
X215186889Y-100777562D01*
X215314454Y-100679493D01*
X215406379Y-100604275D01*
X215466149Y-100549351D01*
X215497253Y-100512165D01*
X215500675Y-100505945D01*
X215507646Y-100484996D01*
X215514007Y-100450559D01*
X215519783Y-100399484D01*
X215525003Y-100328620D01*
X215529691Y-100234818D01*
X215533875Y-100114927D01*
X215537582Y-99965800D01*
X215540837Y-99784284D01*
X215543668Y-99567231D01*
X215546101Y-99311491D01*
X215548162Y-99013914D01*
X215549879Y-98671350D01*
X215551278Y-98280649D01*
X215552385Y-97838661D01*
X215552744Y-97626714D01*
X214539286Y-97626714D01*
X214539286Y-100311857D01*
X214031286Y-100311857D01*
X214031286Y-99223286D01*
X212616143Y-99223286D01*
X212616143Y-98787857D01*
X214031286Y-98787857D01*
X214031286Y-98062143D01*
X212398428Y-98062143D01*
X212398428Y-97626714D01*
X214539286Y-97626714D01*
X215552744Y-97626714D01*
X215553227Y-97342238D01*
X215553831Y-96788228D01*
X215554223Y-96173482D01*
X215554233Y-96139000D01*
X214549780Y-96139000D01*
X214527471Y-96377896D01*
X214485885Y-96599538D01*
X214409118Y-96767269D01*
X214300032Y-96875582D01*
X214257750Y-96897215D01*
X214077446Y-96950349D01*
X213846654Y-96986603D01*
X213585745Y-97004785D01*
X213315085Y-97003706D01*
X213055044Y-96982175D01*
X212983229Y-96971725D01*
X212773015Y-96925969D01*
X212620675Y-96859913D01*
X212516737Y-96762418D01*
X212451728Y-96622351D01*
X212416174Y-96428575D01*
X212405614Y-96292717D01*
X212406645Y-96020582D01*
X212442497Y-95809519D01*
X212512889Y-95660664D01*
X212575811Y-95598657D01*
X212676967Y-95545707D01*
X212820883Y-95501406D01*
X213015922Y-95463981D01*
X213270450Y-95431662D01*
X213442051Y-95415136D01*
X213612987Y-95397458D01*
X213761938Y-95377255D01*
X213871101Y-95357233D01*
X213918762Y-95342677D01*
X213971233Y-95278108D01*
X214002711Y-95165096D01*
X214009092Y-95025772D01*
X213996356Y-94924085D01*
X213956809Y-94833377D01*
X213875546Y-94770708D01*
X213743878Y-94732581D01*
X213553118Y-94715498D01*
X213474172Y-94713870D01*
X213285434Y-94715360D01*
X213155705Y-94727277D01*
X213071575Y-94755314D01*
X213019636Y-94805161D01*
X212986479Y-94882509D01*
X212974591Y-94925906D01*
X212934099Y-95086714D01*
X212436102Y-95086714D01*
X212457537Y-94914357D01*
X212504629Y-94706897D01*
X212585759Y-94538445D01*
X212688714Y-94428076D01*
X212806238Y-94373872D01*
X212978533Y-94332440D01*
X213188725Y-94304976D01*
X213419944Y-94292673D01*
X213655317Y-94296725D01*
X213877973Y-94318328D01*
X213981529Y-94336558D01*
X214182333Y-94392513D01*
X214324575Y-94467307D01*
X214421425Y-94568779D01*
X214448277Y-94614432D01*
X214501609Y-94768863D01*
X214527326Y-94956897D01*
X214526730Y-95157661D01*
X214501124Y-95350284D01*
X214451812Y-95513893D01*
X214385376Y-95622188D01*
X214291275Y-95691167D01*
X214147122Y-95747676D01*
X213946667Y-95793317D01*
X213683657Y-95829689D01*
X213509580Y-95846364D01*
X213287146Y-95867698D01*
X213127080Y-95892441D01*
X213019232Y-95926753D01*
X212953452Y-95976795D01*
X212919587Y-96048727D01*
X212907488Y-96148710D01*
X212906428Y-96212408D01*
X212913794Y-96356073D01*
X212938999Y-96448155D01*
X212973339Y-96496196D01*
X213064242Y-96546769D01*
X213205574Y-96580534D01*
X213377190Y-96597485D01*
X213558944Y-96597614D01*
X213730691Y-96580913D01*
X213872284Y-96547374D01*
X213963578Y-96496991D01*
X213963999Y-96496572D01*
X214017818Y-96395305D01*
X214031286Y-96284143D01*
X214031286Y-96139000D01*
X214549780Y-96139000D01*
X215554233Y-96139000D01*
X215554429Y-95494851D01*
X215554477Y-94749184D01*
X215554424Y-94137802D01*
X215553991Y-90986428D01*
X214544012Y-90986428D01*
X214532577Y-92102214D01*
X214528810Y-92424557D01*
X214524517Y-92682397D01*
X214519230Y-92883804D01*
X214512479Y-93036848D01*
X214503795Y-93149596D01*
X214492710Y-93230119D01*
X214478753Y-93286485D01*
X214461455Y-93326764D01*
X214461358Y-93326943D01*
X214354704Y-93474017D01*
X214214603Y-93572327D01*
X214097731Y-93617674D01*
X213977769Y-93641331D01*
X213805745Y-93657732D01*
X213601822Y-93666661D01*
X213386167Y-93667903D01*
X213178945Y-93661242D01*
X213000322Y-93646464D01*
X212899767Y-93630467D01*
X212704270Y-93555929D01*
X212552144Y-93429920D01*
X212453158Y-93261214D01*
X212438657Y-93216297D01*
X212426155Y-93132541D01*
X212415730Y-92982460D01*
X212407592Y-92772278D01*
X212401951Y-92508217D01*
X212399017Y-92196500D01*
X212398631Y-92029643D01*
X212398428Y-90986428D01*
X212906428Y-90986428D01*
X212906428Y-92016551D01*
X212905913Y-92343894D01*
X212906607Y-92605926D01*
X212911867Y-92809880D01*
X212925051Y-92962985D01*
X212949516Y-93072471D01*
X212988620Y-93145568D01*
X213045720Y-93189508D01*
X213124174Y-93211520D01*
X213227340Y-93218834D01*
X213358575Y-93218680D01*
X213464355Y-93218000D01*
X213651607Y-93216375D01*
X213780321Y-93210252D01*
X213864483Y-93197762D01*
X213918080Y-93177032D01*
X213948347Y-93153261D01*
X213967274Y-93128865D01*
X213982343Y-93092260D01*
X213994111Y-93035250D01*
X214003136Y-92949640D01*
X214009975Y-92827234D01*
X214015186Y-92659835D01*
X214019325Y-92439248D01*
X214022952Y-92157277D01*
X214024258Y-92037476D01*
X214035373Y-90986428D01*
X214544012Y-90986428D01*
X215553991Y-90986428D01*
X215553703Y-88896373D01*
X214533285Y-88896373D01*
X214527748Y-89157142D01*
X214512628Y-89411600D01*
X214488254Y-89644146D01*
X214454959Y-89839177D01*
X214413128Y-89980957D01*
X214328044Y-90123988D01*
X214203778Y-90226685D01*
X214029353Y-90295964D01*
X213858860Y-90330174D01*
X213426550Y-90362958D01*
X212998998Y-90331693D01*
X212778758Y-90285045D01*
X212616245Y-90211333D01*
X212502402Y-90100586D01*
X212428174Y-89942835D01*
X212384503Y-89728110D01*
X212375461Y-89645283D01*
X212351721Y-89389857D01*
X212861781Y-89389857D01*
X212886835Y-89590381D01*
X212911391Y-89718073D01*
X212956031Y-89805178D01*
X213033857Y-89861101D01*
X213157968Y-89895248D01*
X213341467Y-89917024D01*
X213341857Y-89917058D01*
X213583167Y-89922291D01*
X213765197Y-89890433D01*
X213891689Y-89820371D01*
X213956143Y-89734571D01*
X213975437Y-89657069D01*
X213990684Y-89522526D01*
X214001764Y-89346368D01*
X214008559Y-89144017D01*
X214010947Y-88930901D01*
X214008810Y-88722441D01*
X214002029Y-88534064D01*
X213990483Y-88381194D01*
X213974054Y-88279255D01*
X213967568Y-88259485D01*
X213901255Y-88173938D01*
X213783897Y-88118178D01*
X213609981Y-88090703D01*
X213373991Y-88090009D01*
X213349942Y-88091187D01*
X213159547Y-88109604D01*
X213030480Y-88146356D01*
X212952294Y-88209050D01*
X212914541Y-88305294D01*
X212906428Y-88414163D01*
X212906428Y-88555286D01*
X212388493Y-88555286D01*
X212406921Y-88325709D01*
X212440419Y-88102272D01*
X212503788Y-87936394D01*
X212602956Y-87817129D01*
X212722387Y-87743031D01*
X212801214Y-87710908D01*
X212884599Y-87689055D01*
X212988578Y-87675597D01*
X213129190Y-87668656D01*
X213322473Y-87666356D01*
X213378143Y-87666286D01*
X213674860Y-87673362D01*
X213909747Y-87697183D01*
X214092396Y-87741641D01*
X214232401Y-87810626D01*
X214339354Y-87908029D01*
X214422848Y-88037739D01*
X214452978Y-88102209D01*
X214489085Y-88232210D01*
X214514285Y-88418305D01*
X214528908Y-88644893D01*
X214533285Y-88896373D01*
X215553703Y-88896373D01*
X215553563Y-87884000D01*
X215469999Y-87684428D01*
X215436132Y-87614066D01*
X215371873Y-87490542D01*
X215281257Y-87321078D01*
X215168322Y-87112896D01*
X215037105Y-86873217D01*
X214891643Y-86609264D01*
X214735972Y-86328259D01*
X214574131Y-86037423D01*
X214410155Y-85743978D01*
X214248081Y-85455147D01*
X214091948Y-85178150D01*
X213945791Y-84920210D01*
X213813648Y-84688549D01*
X213699555Y-84490388D01*
X213607550Y-84332949D01*
X213541670Y-84223455D01*
X213505951Y-84169127D01*
X213503139Y-84165866D01*
X213457801Y-84133931D01*
X213413669Y-84153893D01*
G36*
X204921466Y-97633239D02*
X204647832Y-97646463D01*
X204437589Y-97672357D01*
X204281887Y-97716649D01*
X204171878Y-97785067D01*
X204098712Y-97883338D01*
X204053543Y-98017190D01*
X204027520Y-98192352D01*
X204025557Y-98213169D01*
X204006349Y-98425000D01*
X204297365Y-98425000D01*
X204321039Y-98246533D01*
X204349179Y-98121944D01*
X204392675Y-98015033D01*
X204413194Y-97983462D01*
X204441717Y-97951742D01*
X204475585Y-97929137D01*
X204526584Y-97914106D01*
X204606501Y-97905104D01*
X204727122Y-97900592D01*
X204900233Y-97899026D01*
X205059871Y-97898857D01*
X205306198Y-97900896D01*
X205489267Y-97907477D01*
X205618288Y-97919297D01*
X205702471Y-97937053D01*
X205733430Y-97949832D01*
X205791483Y-97989798D01*
X205836516Y-98045976D01*
X205870093Y-98127159D01*
X205893782Y-98242135D01*
X205909147Y-98399695D01*
X205917753Y-98608632D01*
X205921166Y-98877734D01*
X205921428Y-99005571D01*
X205920262Y-99309514D01*
X205912497Y-99548671D01*
X205891737Y-99730828D01*
X205851585Y-99863770D01*
X205785643Y-99955284D01*
X205687514Y-100013156D01*
X205550802Y-100045169D01*
X205369109Y-100059111D01*
X205136037Y-100062768D01*
X205052559Y-100063029D01*
X204807459Y-100058279D01*
X204625132Y-100041067D01*
X204496492Y-100009074D01*
X204412451Y-99959982D01*
X204363925Y-99891474D01*
X204362003Y-99886842D01*
X204347489Y-99821446D01*
X204332213Y-99705683D01*
X204318958Y-99561669D01*
X204316206Y-99522643D01*
X204296485Y-99223286D01*
X205182169Y-99223286D01*
X205170799Y-99105357D01*
X205159428Y-98987428D01*
X204587928Y-98977436D01*
X204016428Y-98967443D01*
X204016428Y-99264749D01*
X204026736Y-99571293D01*
X204059408Y-99814263D01*
X204117065Y-99999921D01*
X204202332Y-100134530D01*
X204317831Y-100224350D01*
X204437052Y-100269001D01*
X204591697Y-100296004D01*
X204794175Y-100314783D01*
X205020106Y-100324333D01*
X205245110Y-100323649D01*
X205444809Y-100311727D01*
X205453116Y-100310878D01*
X205716476Y-100265080D01*
X205915544Y-100189667D01*
X206049360Y-100085084D01*
X206095083Y-100014686D01*
X206158231Y-99825544D01*
X206200769Y-99567570D01*
X206222724Y-99240519D01*
X206224118Y-98844148D01*
X206222309Y-98769714D01*
X206214408Y-98537130D01*
X206204483Y-98363280D01*
X206190858Y-98234327D01*
X206171857Y-98136434D01*
X206145805Y-98055765D01*
X206131834Y-98022514D01*
X206058064Y-97892454D01*
X205961029Y-97791800D01*
X205832412Y-97717878D01*
X205663898Y-97668012D01*
X205447169Y-97639528D01*
X205173910Y-97629752D01*
X204921466Y-97633239D01*
X204921466Y-97633239D01*
G37*
X204921466Y-97633239D02*
X204647832Y-97646463D01*
X204437589Y-97672357D01*
X204281887Y-97716649D01*
X204171878Y-97785067D01*
X204098712Y-97883338D01*
X204053543Y-98017190D01*
X204027520Y-98192352D01*
X204025557Y-98213169D01*
X204006349Y-98425000D01*
X204297365Y-98425000D01*
X204321039Y-98246533D01*
X204349179Y-98121944D01*
X204392675Y-98015033D01*
X204413194Y-97983462D01*
X204441717Y-97951742D01*
X204475585Y-97929137D01*
X204526584Y-97914106D01*
X204606501Y-97905104D01*
X204727122Y-97900592D01*
X204900233Y-97899026D01*
X205059871Y-97898857D01*
X205306198Y-97900896D01*
X205489267Y-97907477D01*
X205618288Y-97919297D01*
X205702471Y-97937053D01*
X205733430Y-97949832D01*
X205791483Y-97989798D01*
X205836516Y-98045976D01*
X205870093Y-98127159D01*
X205893782Y-98242135D01*
X205909147Y-98399695D01*
X205917753Y-98608632D01*
X205921166Y-98877734D01*
X205921428Y-99005571D01*
X205920262Y-99309514D01*
X205912497Y-99548671D01*
X205891737Y-99730828D01*
X205851585Y-99863770D01*
X205785643Y-99955284D01*
X205687514Y-100013156D01*
X205550802Y-100045169D01*
X205369109Y-100059111D01*
X205136037Y-100062768D01*
X205052559Y-100063029D01*
X204807459Y-100058279D01*
X204625132Y-100041067D01*
X204496492Y-100009074D01*
X204412451Y-99959982D01*
X204363925Y-99891474D01*
X204362003Y-99886842D01*
X204347489Y-99821446D01*
X204332213Y-99705683D01*
X204318958Y-99561669D01*
X204316206Y-99522643D01*
X204296485Y-99223286D01*
X205182169Y-99223286D01*
X205170799Y-99105357D01*
X205159428Y-98987428D01*
X204587928Y-98977436D01*
X204016428Y-98967443D01*
X204016428Y-99264749D01*
X204026736Y-99571293D01*
X204059408Y-99814263D01*
X204117065Y-99999921D01*
X204202332Y-100134530D01*
X204317831Y-100224350D01*
X204437052Y-100269001D01*
X204591697Y-100296004D01*
X204794175Y-100314783D01*
X205020106Y-100324333D01*
X205245110Y-100323649D01*
X205444809Y-100311727D01*
X205453116Y-100310878D01*
X205716476Y-100265080D01*
X205915544Y-100189667D01*
X206049360Y-100085084D01*
X206095083Y-100014686D01*
X206158231Y-99825544D01*
X206200769Y-99567570D01*
X206222724Y-99240519D01*
X206224118Y-98844148D01*
X206222309Y-98769714D01*
X206214408Y-98537130D01*
X206204483Y-98363280D01*
X206190858Y-98234327D01*
X206171857Y-98136434D01*
X206145805Y-98055765D01*
X206131834Y-98022514D01*
X206058064Y-97892454D01*
X205961029Y-97791800D01*
X205832412Y-97717878D01*
X205663898Y-97668012D01*
X205447169Y-97639528D01*
X205173910Y-97629752D01*
X204921466Y-97633239D01*
G36*
X210185000Y-100021571D02*
X208806143Y-100021571D01*
X208806143Y-100311857D01*
X210475285Y-100311857D01*
X210475285Y-97626714D01*
X210185000Y-97626714D01*
X210185000Y-100021571D01*
X210185000Y-100021571D01*
G37*
X210185000Y-100021571D02*
X208806143Y-100021571D01*
X208806143Y-100311857D01*
X210475285Y-100311857D01*
X210475285Y-97626714D01*
X210185000Y-97626714D01*
X210185000Y-100021571D01*
G36*
X207427286Y-100311857D02*
X207717571Y-100311857D01*
X207717571Y-97626714D01*
X207427286Y-97626714D01*
X207427286Y-100311857D01*
X207427286Y-100311857D01*
G37*
X207427286Y-100311857D02*
X207717571Y-100311857D01*
X207717571Y-97626714D01*
X207427286Y-97626714D01*
X207427286Y-100311857D01*
G36*
X202528714Y-98824143D02*
X200968428Y-98824143D01*
X200968428Y-97626714D01*
X200678143Y-97626714D01*
X200678143Y-100311857D01*
X200968428Y-100311857D01*
X200968428Y-99078143D01*
X202528714Y-99078143D01*
X202528714Y-100311857D01*
X202674996Y-100311857D01*
X202775204Y-100301295D01*
X202833765Y-100274198D01*
X202838756Y-100266310D01*
X202842548Y-100220551D01*
X202845527Y-100110766D01*
X202847642Y-99945498D01*
X202848842Y-99733290D01*
X202849076Y-99482683D01*
X202848293Y-99202219D01*
X202846688Y-98932810D01*
X202837143Y-97644857D01*
X202682928Y-97633699D01*
X202528714Y-97622542D01*
X202528714Y-98824143D01*
X202528714Y-98824143D01*
G37*
X202528714Y-98824143D02*
X200968428Y-98824143D01*
X200968428Y-97626714D01*
X200678143Y-97626714D01*
X200678143Y-100311857D01*
X200968428Y-100311857D01*
X200968428Y-99078143D01*
X202528714Y-99078143D01*
X202528714Y-100311857D01*
X202674996Y-100311857D01*
X202775204Y-100301295D01*
X202833765Y-100274198D01*
X202838756Y-100266310D01*
X202842548Y-100220551D01*
X202845527Y-100110766D01*
X202847642Y-99945498D01*
X202848842Y-99733290D01*
X202849076Y-99482683D01*
X202848293Y-99202219D01*
X202846688Y-98932810D01*
X202837143Y-97644857D01*
X202682928Y-97633699D01*
X202528714Y-97622542D01*
X202528714Y-98824143D01*
G36*
X197593857Y-97917000D02*
X198428428Y-97917000D01*
X198428428Y-100311857D01*
X198755000Y-100311857D01*
X198755000Y-97917000D01*
X199630238Y-97917000D01*
X199618976Y-97780928D01*
X199607714Y-97644857D01*
X198600785Y-97635212D01*
X197593857Y-97625566D01*
X197593857Y-97917000D01*
X197593857Y-97917000D01*
G37*
X197593857Y-97917000D02*
X198428428Y-97917000D01*
X198428428Y-100311857D01*
X198755000Y-100311857D01*
X198755000Y-97917000D01*
X199630238Y-97917000D01*
X199618976Y-97780928D01*
X199607714Y-97644857D01*
X198600785Y-97635212D01*
X197593857Y-97625566D01*
X197593857Y-97917000D01*
G36*
X201640857Y-94309151D02*
X201482762Y-94314609D01*
X201369112Y-94325913D01*
X201285876Y-94344438D01*
X201220834Y-94370658D01*
X201088716Y-94468006D01*
X200999902Y-94610773D01*
X200949996Y-94807126D01*
X200940805Y-94891310D01*
X200922207Y-95123000D01*
X201212275Y-95123000D01*
X201233499Y-94917360D01*
X201250899Y-94788222D01*
X201279452Y-94694625D01*
X201329747Y-94630983D01*
X201412376Y-94591715D01*
X201537931Y-94571234D01*
X201717001Y-94563959D01*
X201903941Y-94563880D01*
X202107152Y-94568275D01*
X202284637Y-94577884D01*
X202421041Y-94591552D01*
X202501014Y-94608123D01*
X202503255Y-94609006D01*
X202570072Y-94644792D01*
X202621560Y-94696121D01*
X202659360Y-94771651D01*
X202685109Y-94880037D01*
X202700449Y-95029938D01*
X202707018Y-95230008D01*
X202706457Y-95488905D01*
X202703568Y-95666532D01*
X202696111Y-95972797D01*
X202683486Y-96214212D01*
X202660376Y-96398497D01*
X202621462Y-96533375D01*
X202561425Y-96626566D01*
X202474949Y-96685791D01*
X202356716Y-96718771D01*
X202201406Y-96733227D01*
X202003703Y-96736881D01*
X201966286Y-96736981D01*
X201726605Y-96734684D01*
X201548626Y-96725002D01*
X201421630Y-96705264D01*
X201334902Y-96672796D01*
X201277723Y-96624925D01*
X201239377Y-96558979D01*
X201237817Y-96555290D01*
X201204708Y-96437613D01*
X201187047Y-96299942D01*
X201186143Y-96267165D01*
X201186143Y-96102714D01*
X200886313Y-96102714D01*
X200903518Y-96370799D01*
X200931108Y-96587829D01*
X200985448Y-96745622D01*
X201072026Y-96854333D01*
X201196332Y-96924112D01*
X201204286Y-96926991D01*
X201307507Y-96950105D01*
X201464430Y-96969351D01*
X201656255Y-96984009D01*
X201864180Y-96993358D01*
X202069405Y-96996677D01*
X202253128Y-96993246D01*
X202396550Y-96982345D01*
X202444299Y-96974519D01*
X202630518Y-96918362D01*
X202770992Y-96833980D01*
X202873494Y-96711213D01*
X202945797Y-96539901D01*
X202995672Y-96309884D01*
X203005736Y-96240619D01*
X203022687Y-96064471D01*
X203032308Y-95854417D01*
X203035081Y-95624864D01*
X203031490Y-95390218D01*
X203022019Y-95164886D01*
X203007151Y-94963273D01*
X202987370Y-94799787D01*
X202963160Y-94688833D01*
X202952783Y-94663218D01*
X202871883Y-94544628D01*
X202762718Y-94453494D01*
X202616756Y-94387052D01*
X202425466Y-94342537D01*
X202180316Y-94317181D01*
X201872776Y-94308221D01*
X201857428Y-94308159D01*
X201640857Y-94309151D01*
X201640857Y-94309151D01*
G37*
X201640857Y-94309151D02*
X201482762Y-94314609D01*
X201369112Y-94325913D01*
X201285876Y-94344438D01*
X201220834Y-94370658D01*
X201088716Y-94468006D01*
X200999902Y-94610773D01*
X200949996Y-94807126D01*
X200940805Y-94891310D01*
X200922207Y-95123000D01*
X201212275Y-95123000D01*
X201233499Y-94917360D01*
X201250899Y-94788222D01*
X201279452Y-94694625D01*
X201329747Y-94630983D01*
X201412376Y-94591715D01*
X201537931Y-94571234D01*
X201717001Y-94563959D01*
X201903941Y-94563880D01*
X202107152Y-94568275D01*
X202284637Y-94577884D01*
X202421041Y-94591552D01*
X202501014Y-94608123D01*
X202503255Y-94609006D01*
X202570072Y-94644792D01*
X202621560Y-94696121D01*
X202659360Y-94771651D01*
X202685109Y-94880037D01*
X202700449Y-95029938D01*
X202707018Y-95230008D01*
X202706457Y-95488905D01*
X202703568Y-95666532D01*
X202696111Y-95972797D01*
X202683486Y-96214212D01*
X202660376Y-96398497D01*
X202621462Y-96533375D01*
X202561425Y-96626566D01*
X202474949Y-96685791D01*
X202356716Y-96718771D01*
X202201406Y-96733227D01*
X202003703Y-96736881D01*
X201966286Y-96736981D01*
X201726605Y-96734684D01*
X201548626Y-96725002D01*
X201421630Y-96705264D01*
X201334902Y-96672796D01*
X201277723Y-96624925D01*
X201239377Y-96558979D01*
X201237817Y-96555290D01*
X201204708Y-96437613D01*
X201187047Y-96299942D01*
X201186143Y-96267165D01*
X201186143Y-96102714D01*
X200886313Y-96102714D01*
X200903518Y-96370799D01*
X200931108Y-96587829D01*
X200985448Y-96745622D01*
X201072026Y-96854333D01*
X201196332Y-96924112D01*
X201204286Y-96926991D01*
X201307507Y-96950105D01*
X201464430Y-96969351D01*
X201656255Y-96984009D01*
X201864180Y-96993358D01*
X202069405Y-96996677D01*
X202253128Y-96993246D01*
X202396550Y-96982345D01*
X202444299Y-96974519D01*
X202630518Y-96918362D01*
X202770992Y-96833980D01*
X202873494Y-96711213D01*
X202945797Y-96539901D01*
X202995672Y-96309884D01*
X203005736Y-96240619D01*
X203022687Y-96064471D01*
X203032308Y-95854417D01*
X203035081Y-95624864D01*
X203031490Y-95390218D01*
X203022019Y-95164886D01*
X203007151Y-94963273D01*
X202987370Y-94799787D01*
X202963160Y-94688833D01*
X202952783Y-94663218D01*
X202871883Y-94544628D01*
X202762718Y-94453494D01*
X202616756Y-94387052D01*
X202425466Y-94342537D01*
X202180316Y-94317181D01*
X201872776Y-94308221D01*
X201857428Y-94308159D01*
X201640857Y-94309151D01*
G36*
X209667928Y-94331291D02*
X209374728Y-94336638D01*
X209144823Y-94344860D01*
X208968939Y-94358323D01*
X208837802Y-94379391D01*
X208742137Y-94410431D01*
X208672671Y-94453807D01*
X208620129Y-94511885D01*
X208575237Y-94587030D01*
X208561800Y-94613406D01*
X208524601Y-94734265D01*
X208501753Y-94903572D01*
X208493208Y-95098644D01*
X208498915Y-95296802D01*
X208518827Y-95475365D01*
X208552894Y-95611650D01*
X208564018Y-95637267D01*
X208614133Y-95722163D01*
X208675903Y-95787338D01*
X208759362Y-95835732D01*
X208874544Y-95870286D01*
X209031484Y-95893941D01*
X209240214Y-95909639D01*
X209510769Y-95920320D01*
X209531857Y-95920943D01*
X210166857Y-95939428D01*
X210176925Y-96456500D01*
X210186992Y-96973571D01*
X210475285Y-96973571D01*
X210475285Y-94578714D01*
X210185000Y-94578714D01*
X210185000Y-95667286D01*
X209639549Y-95667286D01*
X209389705Y-95664640D01*
X209202718Y-95656204D01*
X209069049Y-95641231D01*
X208979157Y-95618970D01*
X208968032Y-95614612D01*
X208876144Y-95560195D01*
X208816291Y-95479503D01*
X208782896Y-95358785D01*
X208770380Y-95184289D01*
X208769857Y-95126052D01*
X208782806Y-94901232D01*
X208822379Y-94741051D01*
X208889666Y-94642221D01*
X208939958Y-94612409D01*
X209005854Y-94600824D01*
X209129533Y-94590959D01*
X209296213Y-94583560D01*
X209491113Y-94579376D01*
X209606791Y-94578714D01*
X210185000Y-94578714D01*
X210475285Y-94578714D01*
X210475285Y-94319726D01*
X209667928Y-94331291D01*
X209667928Y-94331291D01*
G37*
X209667928Y-94331291D02*
X209374728Y-94336638D01*
X209144823Y-94344860D01*
X208968939Y-94358323D01*
X208837802Y-94379391D01*
X208742137Y-94410431D01*
X208672671Y-94453807D01*
X208620129Y-94511885D01*
X208575237Y-94587030D01*
X208561800Y-94613406D01*
X208524601Y-94734265D01*
X208501753Y-94903572D01*
X208493208Y-95098644D01*
X208498915Y-95296802D01*
X208518827Y-95475365D01*
X208552894Y-95611650D01*
X208564018Y-95637267D01*
X208614133Y-95722163D01*
X208675903Y-95787338D01*
X208759362Y-95835732D01*
X208874544Y-95870286D01*
X209031484Y-95893941D01*
X209240214Y-95909639D01*
X209510769Y-95920320D01*
X209531857Y-95920943D01*
X210166857Y-95939428D01*
X210176925Y-96456500D01*
X210186992Y-96973571D01*
X210475285Y-96973571D01*
X210475285Y-94578714D01*
X210185000Y-94578714D01*
X210185000Y-95667286D01*
X209639549Y-95667286D01*
X209389705Y-95664640D01*
X209202718Y-95656204D01*
X209069049Y-95641231D01*
X208979157Y-95618970D01*
X208968032Y-95614612D01*
X208876144Y-95560195D01*
X208816291Y-95479503D01*
X208782896Y-95358785D01*
X208770380Y-95184289D01*
X208769857Y-95126052D01*
X208782806Y-94901232D01*
X208822379Y-94741051D01*
X208889666Y-94642221D01*
X208939958Y-94612409D01*
X209005854Y-94600824D01*
X209129533Y-94590959D01*
X209296213Y-94583560D01*
X209491113Y-94579376D01*
X209606791Y-94578714D01*
X210185000Y-94578714D01*
X210475285Y-94578714D01*
X210475285Y-94319726D01*
X209667928Y-94331291D01*
G36*
X205781994Y-94332211D02*
X205563955Y-94342857D01*
X205081727Y-95631000D01*
X204973519Y-95920710D01*
X204873717Y-96189193D01*
X204785114Y-96428839D01*
X204710501Y-96632039D01*
X204652671Y-96791184D01*
X204614416Y-96898666D01*
X204598529Y-96946875D01*
X204598249Y-96948443D01*
X204629583Y-96963988D01*
X204709878Y-96968492D01*
X204750495Y-96966586D01*
X204903989Y-96955428D01*
X204996345Y-96701428D01*
X205088700Y-96447428D01*
X206461758Y-96447428D01*
X206554451Y-96710423D01*
X206647143Y-96973417D01*
X206801357Y-96973494D01*
X206895573Y-96968610D01*
X206950128Y-96956236D01*
X206955571Y-96950055D01*
X206943484Y-96911853D01*
X206909037Y-96813101D01*
X206854949Y-96661346D01*
X206783940Y-96464140D01*
X206698731Y-96229029D01*
X206667784Y-96144062D01*
X206338714Y-96144062D01*
X206304487Y-96154763D01*
X206210033Y-96163883D01*
X206067688Y-96170737D01*
X205889790Y-96174642D01*
X205776285Y-96175286D01*
X205583537Y-96173629D01*
X205419250Y-96169059D01*
X205295763Y-96162171D01*
X205225416Y-96153563D01*
X205213824Y-96148071D01*
X205225563Y-96104933D01*
X205257978Y-96007666D01*
X205306819Y-95867827D01*
X205367839Y-95696975D01*
X205436787Y-95506669D01*
X205509416Y-95308466D01*
X205581475Y-95113925D01*
X205648717Y-94934603D01*
X205706893Y-94782059D01*
X205751754Y-94667851D01*
X205779050Y-94603537D01*
X205785223Y-94593699D01*
X205801537Y-94631047D01*
X205837461Y-94724933D01*
X205888715Y-94863370D01*
X205951019Y-95034367D01*
X206020093Y-95225938D01*
X206091657Y-95426094D01*
X206161432Y-95622846D01*
X206225136Y-95804206D01*
X206278491Y-95958186D01*
X206317216Y-96072798D01*
X206337032Y-96136052D01*
X206338714Y-96144062D01*
X206667784Y-96144062D01*
X206602042Y-95963565D01*
X206496592Y-95675296D01*
X206477802Y-95624052D01*
X206000032Y-94321566D01*
X205781994Y-94332211D01*
X205781994Y-94332211D01*
G37*
X205781994Y-94332211D02*
X205563955Y-94342857D01*
X205081727Y-95631000D01*
X204973519Y-95920710D01*
X204873717Y-96189193D01*
X204785114Y-96428839D01*
X204710501Y-96632039D01*
X204652671Y-96791184D01*
X204614416Y-96898666D01*
X204598529Y-96946875D01*
X204598249Y-96948443D01*
X204629583Y-96963988D01*
X204709878Y-96968492D01*
X204750495Y-96966586D01*
X204903989Y-96955428D01*
X204996345Y-96701428D01*
X205088700Y-96447428D01*
X206461758Y-96447428D01*
X206554451Y-96710423D01*
X206647143Y-96973417D01*
X206801357Y-96973494D01*
X206895573Y-96968610D01*
X206950128Y-96956236D01*
X206955571Y-96950055D01*
X206943484Y-96911853D01*
X206909037Y-96813101D01*
X206854949Y-96661346D01*
X206783940Y-96464140D01*
X206698731Y-96229029D01*
X206667784Y-96144062D01*
X206338714Y-96144062D01*
X206304487Y-96154763D01*
X206210033Y-96163883D01*
X206067688Y-96170737D01*
X205889790Y-96174642D01*
X205776285Y-96175286D01*
X205583537Y-96173629D01*
X205419250Y-96169059D01*
X205295763Y-96162171D01*
X205225416Y-96153563D01*
X205213824Y-96148071D01*
X205225563Y-96104933D01*
X205257978Y-96007666D01*
X205306819Y-95867827D01*
X205367839Y-95696975D01*
X205436787Y-95506669D01*
X205509416Y-95308466D01*
X205581475Y-95113925D01*
X205648717Y-94934603D01*
X205706893Y-94782059D01*
X205751754Y-94667851D01*
X205779050Y-94603537D01*
X205785223Y-94593699D01*
X205801537Y-94631047D01*
X205837461Y-94724933D01*
X205888715Y-94863370D01*
X205951019Y-95034367D01*
X206020093Y-95225938D01*
X206091657Y-95426094D01*
X206161432Y-95622846D01*
X206225136Y-95804206D01*
X206278491Y-95958186D01*
X206317216Y-96072798D01*
X206337032Y-96136052D01*
X206338714Y-96144062D01*
X206667784Y-96144062D01*
X206602042Y-95963565D01*
X206496592Y-95675296D01*
X206477802Y-95624052D01*
X206000032Y-94321566D01*
X205781994Y-94332211D01*
G36*
X197557571Y-94578714D02*
X198972714Y-94578714D01*
X198972714Y-95485857D01*
X197630143Y-95485857D01*
X197630143Y-95739857D01*
X198972714Y-95739857D01*
X198972714Y-96719571D01*
X197557571Y-96719571D01*
X197557571Y-96973571D01*
X199263000Y-96973571D01*
X199263000Y-94324714D01*
X197557571Y-94324714D01*
X197557571Y-94578714D01*
X197557571Y-94578714D01*
G37*
X197557571Y-94578714D02*
X198972714Y-94578714D01*
X198972714Y-95485857D01*
X197630143Y-95485857D01*
X197630143Y-95739857D01*
X198972714Y-95739857D01*
X198972714Y-96719571D01*
X197557571Y-96719571D01*
X197557571Y-96973571D01*
X199263000Y-96973571D01*
X199263000Y-94324714D01*
X197557571Y-94324714D01*
X197557571Y-94578714D01*
G36*
X209259310Y-92167745D02*
X209097330Y-92432495D01*
X208946532Y-92677500D01*
X208811211Y-92895889D01*
X208695665Y-93080794D01*
X208604190Y-93225342D01*
X208541083Y-93322664D01*
X208510640Y-93365889D01*
X208509106Y-93367315D01*
X208502056Y-93336910D01*
X208495609Y-93242214D01*
X208489971Y-93091503D01*
X208485350Y-92893057D01*
X208481953Y-92655154D01*
X208479986Y-92386072D01*
X208479571Y-92185999D01*
X208479571Y-90986428D01*
X208189286Y-90986428D01*
X208189286Y-93671571D01*
X208681858Y-93671571D01*
X209369929Y-92543901D01*
X209529935Y-92282294D01*
X209680188Y-92037827D01*
X209815996Y-91818042D01*
X209932668Y-91630481D01*
X210025515Y-91482686D01*
X210089844Y-91382201D01*
X210120293Y-91337401D01*
X210137194Y-91319206D01*
X210150745Y-91316441D01*
X210161323Y-91335831D01*
X210169309Y-91384103D01*
X210175079Y-91467980D01*
X210179014Y-91594189D01*
X210181491Y-91769455D01*
X210182890Y-92000502D01*
X210183589Y-92294058D01*
X210183793Y-92465071D01*
X210185000Y-93671571D01*
X210475285Y-93671571D01*
X210475285Y-90986428D01*
X209979979Y-90986428D01*
X209259310Y-92167745D01*
X209259310Y-92167745D01*
G37*
X209259310Y-92167745D02*
X209097330Y-92432495D01*
X208946532Y-92677500D01*
X208811211Y-92895889D01*
X208695665Y-93080794D01*
X208604190Y-93225342D01*
X208541083Y-93322664D01*
X208510640Y-93365889D01*
X208509106Y-93367315D01*
X208502056Y-93336910D01*
X208495609Y-93242214D01*
X208489971Y-93091503D01*
X208485350Y-92893057D01*
X208481953Y-92655154D01*
X208479986Y-92386072D01*
X208479571Y-92185999D01*
X208479571Y-90986428D01*
X208189286Y-90986428D01*
X208189286Y-93671571D01*
X208681858Y-93671571D01*
X209369929Y-92543901D01*
X209529935Y-92282294D01*
X209680188Y-92037827D01*
X209815996Y-91818042D01*
X209932668Y-91630481D01*
X210025515Y-91482686D01*
X210089844Y-91382201D01*
X210120293Y-91337401D01*
X210137194Y-91319206D01*
X210150745Y-91316441D01*
X210161323Y-91335831D01*
X210169309Y-91384103D01*
X210175079Y-91467980D01*
X210179014Y-91594189D01*
X210181491Y-91769455D01*
X210182890Y-92000502D01*
X210183589Y-92294058D01*
X210183793Y-92465071D01*
X210185000Y-93671571D01*
X210475285Y-93671571D01*
X210475285Y-90986428D01*
X209979979Y-90986428D01*
X209259310Y-92167745D01*
G36*
X206592714Y-93671571D02*
X206883000Y-93671571D01*
X206883000Y-90986428D01*
X206592714Y-90986428D01*
X206592714Y-93671571D01*
X206592714Y-93671571D01*
G37*
X206592714Y-93671571D02*
X206883000Y-93671571D01*
X206883000Y-90986428D01*
X206592714Y-90986428D01*
X206592714Y-93671571D01*
G36*
X204832077Y-92102214D02*
X204735857Y-92375918D01*
X204646126Y-92630872D01*
X204566034Y-92858152D01*
X204498728Y-93048836D01*
X204447357Y-93194000D01*
X204415069Y-93284722D01*
X204406388Y-93308714D01*
X204392487Y-93331182D01*
X204374156Y-93325351D01*
X204348285Y-93284253D01*
X204311763Y-93200919D01*
X204261481Y-93068380D01*
X204194328Y-92879668D01*
X204122976Y-92673714D01*
X204034411Y-92416813D01*
X203940641Y-92145568D01*
X203848977Y-91881074D01*
X203766728Y-91644429D01*
X203704878Y-91467214D01*
X203536538Y-90986428D01*
X203373458Y-90986428D01*
X203274255Y-90990186D01*
X203232250Y-91006118D01*
X203232255Y-91041215D01*
X203235475Y-91049928D01*
X203253196Y-91098188D01*
X203292157Y-91206489D01*
X203349373Y-91366460D01*
X203421859Y-91569735D01*
X203506631Y-91807945D01*
X203600702Y-92072720D01*
X203678760Y-92292714D01*
X203778656Y-92574381D01*
X203872089Y-92837754D01*
X203955972Y-93074131D01*
X204027214Y-93274812D01*
X204082727Y-93431093D01*
X204119422Y-93534275D01*
X204132810Y-93571786D01*
X204158868Y-93628290D01*
X204198607Y-93658140D01*
X204272691Y-93669752D01*
X204377751Y-93671571D01*
X204586831Y-93671571D01*
X205048616Y-92378243D01*
X205152972Y-92086065D01*
X205250066Y-91814401D01*
X205337098Y-91571070D01*
X205411269Y-91363893D01*
X205469779Y-91200689D01*
X205509827Y-91089278D01*
X205528615Y-91037480D01*
X205529297Y-91035671D01*
X205522398Y-91003943D01*
X205462457Y-90988986D01*
X205386152Y-90986428D01*
X205224112Y-90986428D01*
X204832077Y-92102214D01*
X204832077Y-92102214D01*
G37*
X204832077Y-92102214D02*
X204735857Y-92375918D01*
X204646126Y-92630872D01*
X204566034Y-92858152D01*
X204498728Y-93048836D01*
X204447357Y-93194000D01*
X204415069Y-93284722D01*
X204406388Y-93308714D01*
X204392487Y-93331182D01*
X204374156Y-93325351D01*
X204348285Y-93284253D01*
X204311763Y-93200919D01*
X204261481Y-93068380D01*
X204194328Y-92879668D01*
X204122976Y-92673714D01*
X204034411Y-92416813D01*
X203940641Y-92145568D01*
X203848977Y-91881074D01*
X203766728Y-91644429D01*
X203704878Y-91467214D01*
X203536538Y-90986428D01*
X203373458Y-90986428D01*
X203274255Y-90990186D01*
X203232250Y-91006118D01*
X203232255Y-91041215D01*
X203235475Y-91049928D01*
X203253196Y-91098188D01*
X203292157Y-91206489D01*
X203349373Y-91366460D01*
X203421859Y-91569735D01*
X203506631Y-91807945D01*
X203600702Y-92072720D01*
X203678760Y-92292714D01*
X203778656Y-92574381D01*
X203872089Y-92837754D01*
X203955972Y-93074131D01*
X204027214Y-93274812D01*
X204082727Y-93431093D01*
X204119422Y-93534275D01*
X204132810Y-93571786D01*
X204158868Y-93628290D01*
X204198607Y-93658140D01*
X204272691Y-93669752D01*
X204377751Y-93671571D01*
X204586831Y-93671571D01*
X205048616Y-92378243D01*
X205152972Y-92086065D01*
X205250066Y-91814401D01*
X205337098Y-91571070D01*
X205411269Y-91363893D01*
X205469779Y-91200689D01*
X205509827Y-91089278D01*
X205528615Y-91037480D01*
X205529297Y-91035671D01*
X205522398Y-91003943D01*
X205462457Y-90988986D01*
X205386152Y-90986428D01*
X205224112Y-90986428D01*
X204832077Y-92102214D01*
G36*
X200569286Y-91240428D02*
X201984428Y-91240428D01*
X201984428Y-92147571D01*
X200641857Y-92147571D01*
X200641857Y-92401571D01*
X201984428Y-92401571D01*
X201984428Y-93417571D01*
X200564687Y-93417571D01*
X200576058Y-93535500D01*
X200587428Y-93653429D01*
X202274714Y-93672909D01*
X202274714Y-90986428D01*
X200569286Y-90986428D01*
X200569286Y-91240428D01*
X200569286Y-91240428D01*
G37*
X200569286Y-91240428D02*
X201984428Y-91240428D01*
X201984428Y-92147571D01*
X200641857Y-92147571D01*
X200641857Y-92401571D01*
X201984428Y-92401571D01*
X201984428Y-93417571D01*
X200564687Y-93417571D01*
X200576058Y-93535500D01*
X200587428Y-93653429D01*
X202274714Y-93672909D01*
X202274714Y-90986428D01*
X200569286Y-90986428D01*
X200569286Y-91240428D01*
G36*
X198582643Y-90992963D02*
X198319551Y-90997357D01*
X198118248Y-91002459D01*
X197967954Y-91009282D01*
X197857887Y-91018837D01*
X197777265Y-91032138D01*
X197715308Y-91050195D01*
X197661233Y-91074022D01*
X197648285Y-91080682D01*
X197502652Y-91189144D01*
X197406804Y-91339826D01*
X197355361Y-91541756D01*
X197350861Y-91579724D01*
X197342179Y-91847026D01*
X197374018Y-92070731D01*
X197444258Y-92245353D01*
X197550779Y-92365405D01*
X197676481Y-92422387D01*
X197793428Y-92448538D01*
X197668431Y-92491118D01*
X197567145Y-92534738D01*
X197493447Y-92593812D01*
X197442711Y-92679837D01*
X197410312Y-92804311D01*
X197391625Y-92978734D01*
X197382330Y-93202372D01*
X197370375Y-93671571D01*
X197666428Y-93671571D01*
X197667294Y-93354071D01*
X197675134Y-93107556D01*
X197698791Y-92921774D01*
X197740767Y-92786119D01*
X197803561Y-92689986D01*
X197829838Y-92664643D01*
X197869399Y-92633921D01*
X197913665Y-92612045D01*
X197974963Y-92597521D01*
X198065618Y-92588854D01*
X198197957Y-92584549D01*
X198384305Y-92583111D01*
X198503023Y-92583000D01*
X199081571Y-92583000D01*
X199081571Y-93671571D01*
X199371857Y-93671571D01*
X199371857Y-92329000D01*
X199081571Y-92329000D01*
X198618928Y-92326837D01*
X198424053Y-92323688D01*
X198238193Y-92316729D01*
X198082744Y-92307000D01*
X197981204Y-92295890D01*
X197830067Y-92256814D01*
X197729848Y-92190108D01*
X197670242Y-92082762D01*
X197640940Y-91921767D01*
X197636503Y-91860788D01*
X197639401Y-91636559D01*
X197674651Y-91461427D01*
X197740320Y-91342525D01*
X197787263Y-91304481D01*
X197859553Y-91285079D01*
X197998746Y-91268732D01*
X198199222Y-91255913D01*
X198455358Y-91247096D01*
X198473785Y-91246673D01*
X199081571Y-91233111D01*
X199081571Y-92329000D01*
X199371857Y-92329000D01*
X199371857Y-90981354D01*
X198582643Y-90992963D01*
X198582643Y-90992963D01*
G37*
X198582643Y-90992963D02*
X198319551Y-90997357D01*
X198118248Y-91002459D01*
X197967954Y-91009282D01*
X197857887Y-91018837D01*
X197777265Y-91032138D01*
X197715308Y-91050195D01*
X197661233Y-91074022D01*
X197648285Y-91080682D01*
X197502652Y-91189144D01*
X197406804Y-91339826D01*
X197355361Y-91541756D01*
X197350861Y-91579724D01*
X197342179Y-91847026D01*
X197374018Y-92070731D01*
X197444258Y-92245353D01*
X197550779Y-92365405D01*
X197676481Y-92422387D01*
X197793428Y-92448538D01*
X197668431Y-92491118D01*
X197567145Y-92534738D01*
X197493447Y-92593812D01*
X197442711Y-92679837D01*
X197410312Y-92804311D01*
X197391625Y-92978734D01*
X197382330Y-93202372D01*
X197370375Y-93671571D01*
X197666428Y-93671571D01*
X197667294Y-93354071D01*
X197675134Y-93107556D01*
X197698791Y-92921774D01*
X197740767Y-92786119D01*
X197803561Y-92689986D01*
X197829838Y-92664643D01*
X197869399Y-92633921D01*
X197913665Y-92612045D01*
X197974963Y-92597521D01*
X198065618Y-92588854D01*
X198197957Y-92584549D01*
X198384305Y-92583111D01*
X198503023Y-92583000D01*
X199081571Y-92583000D01*
X199081571Y-93671571D01*
X199371857Y-93671571D01*
X199371857Y-92329000D01*
X199081571Y-92329000D01*
X198618928Y-92326837D01*
X198424053Y-92323688D01*
X198238193Y-92316729D01*
X198082744Y-92307000D01*
X197981204Y-92295890D01*
X197830067Y-92256814D01*
X197729848Y-92190108D01*
X197670242Y-92082762D01*
X197640940Y-91921767D01*
X197636503Y-91860788D01*
X197639401Y-91636559D01*
X197674651Y-91461427D01*
X197740320Y-91342525D01*
X197787263Y-91304481D01*
X197859553Y-91285079D01*
X197998746Y-91268732D01*
X198199222Y-91255913D01*
X198455358Y-91247096D01*
X198473785Y-91246673D01*
X199081571Y-91233111D01*
X199081571Y-92329000D01*
X199371857Y-92329000D01*
X199371857Y-90981354D01*
X198582643Y-90992963D01*
G36*
X195199000Y-90973054D02*
X194922909Y-90980541D01*
X194709468Y-91005537D01*
X194549757Y-91053518D01*
X194434859Y-91129959D01*
X194355856Y-91240336D01*
X194303829Y-91390125D01*
X194275958Y-91539786D01*
X194251125Y-91712143D01*
X194582143Y-91712143D01*
X194582143Y-91571020D01*
X194599820Y-91432534D01*
X194659148Y-91336533D01*
X194769572Y-91274555D01*
X194940534Y-91238136D01*
X194955734Y-91236239D01*
X195145985Y-91223414D01*
X195342356Y-91227210D01*
X195527257Y-91245540D01*
X195683093Y-91276318D01*
X195792273Y-91317459D01*
X195821590Y-91338892D01*
X195881729Y-91439115D01*
X195914807Y-91577284D01*
X195921357Y-91731179D01*
X195901910Y-91878585D01*
X195856996Y-91997282D01*
X195804459Y-92055754D01*
X195734293Y-92080488D01*
X195601651Y-92106970D01*
X195416548Y-92133542D01*
X195189000Y-92158549D01*
X195173719Y-92160011D01*
X194887840Y-92190900D01*
X194666414Y-92227031D01*
X194501336Y-92274894D01*
X194384499Y-92340979D01*
X194307797Y-92431775D01*
X194263123Y-92553772D01*
X194242370Y-92713459D01*
X194237428Y-92909571D01*
X194246931Y-93144185D01*
X194278428Y-93319770D01*
X194336401Y-93447723D01*
X194425331Y-93539441D01*
X194503304Y-93585732D01*
X194613981Y-93619359D01*
X194778724Y-93644413D01*
X194979500Y-93660593D01*
X195198274Y-93667600D01*
X195417015Y-93665133D01*
X195617688Y-93652892D01*
X195782262Y-93630577D01*
X195867333Y-93608443D01*
X196014075Y-93539773D01*
X196112298Y-93448516D01*
X196171891Y-93319674D01*
X196202746Y-93138249D01*
X196206340Y-93094318D01*
X196224751Y-92837000D01*
X196074733Y-92837000D01*
X195979793Y-92840234D01*
X195936818Y-92862731D01*
X195925202Y-92923685D01*
X195924714Y-92976728D01*
X195915899Y-93128375D01*
X195883908Y-93242515D01*
X195820421Y-93323730D01*
X195717117Y-93376601D01*
X195565675Y-93405709D01*
X195357777Y-93415634D01*
X195133271Y-93412494D01*
X194943183Y-93405541D01*
X194811478Y-93396350D01*
X194723968Y-93382485D01*
X194666465Y-93361506D01*
X194624781Y-93330977D01*
X194617437Y-93323854D01*
X194565038Y-93232925D01*
X194528390Y-93094015D01*
X194511077Y-92930685D01*
X194516682Y-92766498D01*
X194524633Y-92713660D01*
X194550463Y-92630146D01*
X194598847Y-92566777D01*
X194679485Y-92519907D01*
X194802077Y-92485885D01*
X194976322Y-92461064D01*
X195211919Y-92441796D01*
X195254661Y-92439065D01*
X195521482Y-92416068D01*
X195726921Y-92381874D01*
X195881810Y-92332494D01*
X195996981Y-92263937D01*
X196083265Y-92172214D01*
X196115827Y-92121851D01*
X196178909Y-91960688D01*
X196206905Y-91769863D01*
X196201462Y-91570310D01*
X196164226Y-91382960D01*
X196096843Y-91228746D01*
X196040058Y-91158404D01*
X195942555Y-91084498D01*
X195824836Y-91031798D01*
X195674250Y-90997514D01*
X195478144Y-90978859D01*
X195223868Y-90973045D01*
X195199000Y-90973054D01*
X195199000Y-90973054D01*
G37*
X195199000Y-90973054D02*
X194922909Y-90980541D01*
X194709468Y-91005537D01*
X194549757Y-91053518D01*
X194434859Y-91129959D01*
X194355856Y-91240336D01*
X194303829Y-91390125D01*
X194275958Y-91539786D01*
X194251125Y-91712143D01*
X194582143Y-91712143D01*
X194582143Y-91571020D01*
X194599820Y-91432534D01*
X194659148Y-91336533D01*
X194769572Y-91274555D01*
X194940534Y-91238136D01*
X194955734Y-91236239D01*
X195145985Y-91223414D01*
X195342356Y-91227210D01*
X195527257Y-91245540D01*
X195683093Y-91276318D01*
X195792273Y-91317459D01*
X195821590Y-91338892D01*
X195881729Y-91439115D01*
X195914807Y-91577284D01*
X195921357Y-91731179D01*
X195901910Y-91878585D01*
X195856996Y-91997282D01*
X195804459Y-92055754D01*
X195734293Y-92080488D01*
X195601651Y-92106970D01*
X195416548Y-92133542D01*
X195189000Y-92158549D01*
X195173719Y-92160011D01*
X194887840Y-92190900D01*
X194666414Y-92227031D01*
X194501336Y-92274894D01*
X194384499Y-92340979D01*
X194307797Y-92431775D01*
X194263123Y-92553772D01*
X194242370Y-92713459D01*
X194237428Y-92909571D01*
X194246931Y-93144185D01*
X194278428Y-93319770D01*
X194336401Y-93447723D01*
X194425331Y-93539441D01*
X194503304Y-93585732D01*
X194613981Y-93619359D01*
X194778724Y-93644413D01*
X194979500Y-93660593D01*
X195198274Y-93667600D01*
X195417015Y-93665133D01*
X195617688Y-93652892D01*
X195782262Y-93630577D01*
X195867333Y-93608443D01*
X196014075Y-93539773D01*
X196112298Y-93448516D01*
X196171891Y-93319674D01*
X196202746Y-93138249D01*
X196206340Y-93094318D01*
X196224751Y-92837000D01*
X196074733Y-92837000D01*
X195979793Y-92840234D01*
X195936818Y-92862731D01*
X195925202Y-92923685D01*
X195924714Y-92976728D01*
X195915899Y-93128375D01*
X195883908Y-93242515D01*
X195820421Y-93323730D01*
X195717117Y-93376601D01*
X195565675Y-93405709D01*
X195357777Y-93415634D01*
X195133271Y-93412494D01*
X194943183Y-93405541D01*
X194811478Y-93396350D01*
X194723968Y-93382485D01*
X194666465Y-93361506D01*
X194624781Y-93330977D01*
X194617437Y-93323854D01*
X194565038Y-93232925D01*
X194528390Y-93094015D01*
X194511077Y-92930685D01*
X194516682Y-92766498D01*
X194524633Y-92713660D01*
X194550463Y-92630146D01*
X194598847Y-92566777D01*
X194679485Y-92519907D01*
X194802077Y-92485885D01*
X194976322Y-92461064D01*
X195211919Y-92441796D01*
X195254661Y-92439065D01*
X195521482Y-92416068D01*
X195726921Y-92381874D01*
X195881810Y-92332494D01*
X195996981Y-92263937D01*
X196083265Y-92172214D01*
X196115827Y-92121851D01*
X196178909Y-91960688D01*
X196206905Y-91769863D01*
X196201462Y-91570310D01*
X196164226Y-91382960D01*
X196096843Y-91228746D01*
X196040058Y-91158404D01*
X195942555Y-91084498D01*
X195824836Y-91031798D01*
X195674250Y-90997514D01*
X195478144Y-90978859D01*
X195223868Y-90973045D01*
X195199000Y-90973054D01*
G36*
X192767857Y-93671571D02*
X193058143Y-93671571D01*
X193058143Y-90986428D01*
X192767857Y-90986428D01*
X192767857Y-93671571D01*
X192767857Y-93671571D01*
G37*
X192767857Y-93671571D02*
X193058143Y-93671571D01*
X193058143Y-90986428D01*
X192767857Y-90986428D01*
X192767857Y-93671571D01*
G36*
X189647286Y-91276714D02*
X190518143Y-91276714D01*
X190518143Y-93671571D01*
X190808428Y-93671571D01*
X190808428Y-91276714D01*
X191679286Y-91276714D01*
X191679286Y-90986428D01*
X189647286Y-90986428D01*
X189647286Y-91276714D01*
X189647286Y-91276714D01*
G37*
X189647286Y-91276714D02*
X190518143Y-91276714D01*
X190518143Y-93671571D01*
X190808428Y-93671571D01*
X190808428Y-91276714D01*
X191679286Y-91276714D01*
X191679286Y-90986428D01*
X189647286Y-90986428D01*
X189647286Y-91276714D01*
G36*
X186696971Y-91195071D02*
X186760627Y-91294134D01*
X186854623Y-91439446D01*
X186969567Y-91616533D01*
X187096063Y-91810919D01*
X187204520Y-91977202D01*
X187579000Y-92550689D01*
X187579000Y-93671571D01*
X187869286Y-93671571D01*
X187869286Y-92545350D01*
X188310359Y-91847532D01*
X188440343Y-91641979D01*
X188559916Y-91453062D01*
X188662736Y-91290787D01*
X188742460Y-91165163D01*
X188792746Y-91086195D01*
X188804390Y-91068071D01*
X188832447Y-91019337D01*
X188824764Y-90995338D01*
X188768116Y-90987359D01*
X188680816Y-90986650D01*
X188504286Y-90986871D01*
X188124056Y-91588353D01*
X188005833Y-91774263D01*
X187900178Y-91938319D01*
X187813387Y-92070914D01*
X187751757Y-92162439D01*
X187721584Y-92203287D01*
X187720335Y-92204353D01*
X187694827Y-92179586D01*
X187637280Y-92102054D01*
X187553826Y-91980716D01*
X187450594Y-91824529D01*
X187333715Y-91642451D01*
X187308569Y-91602650D01*
X186920293Y-90986428D01*
X186563901Y-90986428D01*
X186696971Y-91195071D01*
X186696971Y-91195071D01*
G37*
X186696971Y-91195071D02*
X186760627Y-91294134D01*
X186854623Y-91439446D01*
X186969567Y-91616533D01*
X187096063Y-91810919D01*
X187204520Y-91977202D01*
X187579000Y-92550689D01*
X187579000Y-93671571D01*
X187869286Y-93671571D01*
X187869286Y-92545350D01*
X188310359Y-91847532D01*
X188440343Y-91641979D01*
X188559916Y-91453062D01*
X188662736Y-91290787D01*
X188742460Y-91165163D01*
X188792746Y-91086195D01*
X188804390Y-91068071D01*
X188832447Y-91019337D01*
X188824764Y-90995338D01*
X188768116Y-90987359D01*
X188680816Y-90986650D01*
X188504286Y-90986871D01*
X188124056Y-91588353D01*
X188005833Y-91774263D01*
X187900178Y-91938319D01*
X187813387Y-92070914D01*
X187751757Y-92162439D01*
X187721584Y-92203287D01*
X187720335Y-92204353D01*
X187694827Y-92179586D01*
X187637280Y-92102054D01*
X187553826Y-91980716D01*
X187450594Y-91824529D01*
X187333715Y-91642451D01*
X187308569Y-91602650D01*
X186920293Y-90986428D01*
X186563901Y-90986428D01*
X186696971Y-91195071D01*
G36*
X190202531Y-87655639D02*
X189930348Y-87671213D01*
X189721650Y-87700209D01*
X189567784Y-87748130D01*
X189460097Y-87820477D01*
X189389938Y-87922750D01*
X189348653Y-88060452D01*
X189329710Y-88210580D01*
X189310778Y-88446429D01*
X189460889Y-88446429D01*
X189555989Y-88442524D01*
X189599066Y-88420797D01*
X189610614Y-88366226D01*
X189611000Y-88336406D01*
X189625635Y-88224763D01*
X189661001Y-88106762D01*
X189662530Y-88103055D01*
X189706747Y-88028541D01*
X189774747Y-87974264D01*
X189876779Y-87937499D01*
X190023089Y-87915518D01*
X190223926Y-87905596D01*
X190409286Y-87904393D01*
X190647890Y-87909531D01*
X190825874Y-87924973D01*
X190954885Y-87954377D01*
X191046569Y-88001404D01*
X191112573Y-88069714D01*
X191152669Y-88138000D01*
X191177606Y-88194610D01*
X191196092Y-88257391D01*
X191209074Y-88337763D01*
X191217499Y-88447146D01*
X191222315Y-88596962D01*
X191224469Y-88798632D01*
X191224914Y-89008857D01*
X191223441Y-89316415D01*
X191214747Y-89559120D01*
X191192628Y-89744681D01*
X191150881Y-89880810D01*
X191083302Y-89975217D01*
X190983687Y-90035612D01*
X190845833Y-90069705D01*
X190663535Y-90085209D01*
X190430589Y-90089832D01*
X190354857Y-90090230D01*
X190103577Y-90085879D01*
X189915451Y-90065924D01*
X189781606Y-90023629D01*
X189693169Y-89952258D01*
X189641267Y-89845074D01*
X189617027Y-89695342D01*
X189611535Y-89525929D01*
X189611000Y-89244714D01*
X190445571Y-89244714D01*
X190445571Y-88990714D01*
X189320714Y-88990714D01*
X189320714Y-89351785D01*
X189329410Y-89641699D01*
X189357598Y-89868594D01*
X189408422Y-90040161D01*
X189485031Y-90164089D01*
X189590571Y-90248067D01*
X189706333Y-90294048D01*
X189830072Y-90317096D01*
X190005039Y-90334959D01*
X190210031Y-90346923D01*
X190423840Y-90352274D01*
X190625264Y-90350297D01*
X190793096Y-90340279D01*
X190853717Y-90332688D01*
X191041449Y-90292561D01*
X191189407Y-90232981D01*
X191302662Y-90145618D01*
X191386287Y-90022141D01*
X191445351Y-89854221D01*
X191484927Y-89633528D01*
X191510085Y-89351731D01*
X191516048Y-89244714D01*
X191524622Y-88829989D01*
X191505666Y-88482236D01*
X191459141Y-88201264D01*
X191385006Y-87986882D01*
X191283222Y-87838899D01*
X191213223Y-87784425D01*
X191048176Y-87718272D01*
X190817873Y-87674580D01*
X190526223Y-87653848D01*
X190202531Y-87655639D01*
X190202531Y-87655639D01*
G37*
X190202531Y-87655639D02*
X189930348Y-87671213D01*
X189721650Y-87700209D01*
X189567784Y-87748130D01*
X189460097Y-87820477D01*
X189389938Y-87922750D01*
X189348653Y-88060452D01*
X189329710Y-88210580D01*
X189310778Y-88446429D01*
X189460889Y-88446429D01*
X189555989Y-88442524D01*
X189599066Y-88420797D01*
X189610614Y-88366226D01*
X189611000Y-88336406D01*
X189625635Y-88224763D01*
X189661001Y-88106762D01*
X189662530Y-88103055D01*
X189706747Y-88028541D01*
X189774747Y-87974264D01*
X189876779Y-87937499D01*
X190023089Y-87915518D01*
X190223926Y-87905596D01*
X190409286Y-87904393D01*
X190647890Y-87909531D01*
X190825874Y-87924973D01*
X190954885Y-87954377D01*
X191046569Y-88001404D01*
X191112573Y-88069714D01*
X191152669Y-88138000D01*
X191177606Y-88194610D01*
X191196092Y-88257391D01*
X191209074Y-88337763D01*
X191217499Y-88447146D01*
X191222315Y-88596962D01*
X191224469Y-88798632D01*
X191224914Y-89008857D01*
X191223441Y-89316415D01*
X191214747Y-89559120D01*
X191192628Y-89744681D01*
X191150881Y-89880810D01*
X191083302Y-89975217D01*
X190983687Y-90035612D01*
X190845833Y-90069705D01*
X190663535Y-90085209D01*
X190430589Y-90089832D01*
X190354857Y-90090230D01*
X190103577Y-90085879D01*
X189915451Y-90065924D01*
X189781606Y-90023629D01*
X189693169Y-89952258D01*
X189641267Y-89845074D01*
X189617027Y-89695342D01*
X189611535Y-89525929D01*
X189611000Y-89244714D01*
X190445571Y-89244714D01*
X190445571Y-88990714D01*
X189320714Y-88990714D01*
X189320714Y-89351785D01*
X189329410Y-89641699D01*
X189357598Y-89868594D01*
X189408422Y-90040161D01*
X189485031Y-90164089D01*
X189590571Y-90248067D01*
X189706333Y-90294048D01*
X189830072Y-90317096D01*
X190005039Y-90334959D01*
X190210031Y-90346923D01*
X190423840Y-90352274D01*
X190625264Y-90350297D01*
X190793096Y-90340279D01*
X190853717Y-90332688D01*
X191041449Y-90292561D01*
X191189407Y-90232981D01*
X191302662Y-90145618D01*
X191386287Y-90022141D01*
X191445351Y-89854221D01*
X191484927Y-89633528D01*
X191510085Y-89351731D01*
X191516048Y-89244714D01*
X191524622Y-88829989D01*
X191505666Y-88482236D01*
X191459141Y-88201264D01*
X191385006Y-87986882D01*
X191283222Y-87838899D01*
X191213223Y-87784425D01*
X191048176Y-87718272D01*
X190817873Y-87674580D01*
X190526223Y-87653848D01*
X190202531Y-87655639D01*
G36*
X208820543Y-88971140D02*
X208712136Y-89262907D01*
X208612141Y-89533527D01*
X208523316Y-89775427D01*
X208448417Y-89981032D01*
X208390201Y-90142769D01*
X208351424Y-90253063D01*
X208334843Y-90304340D01*
X208334428Y-90306726D01*
X208366514Y-90323285D01*
X208447007Y-90328108D01*
X208484309Y-90326301D01*
X208634190Y-90315143D01*
X208733752Y-90043000D01*
X208833315Y-89770857D01*
X210179033Y-89751135D01*
X210384571Y-90333097D01*
X210538785Y-90333191D01*
X210632634Y-90327553D01*
X210686504Y-90313261D01*
X210691648Y-90306071D01*
X210679245Y-90267031D01*
X210644477Y-90167460D01*
X210590071Y-90014924D01*
X210518755Y-89816987D01*
X210433257Y-89581215D01*
X210406353Y-89507390D01*
X210076143Y-89507390D01*
X210041891Y-89516748D01*
X209947266Y-89524748D01*
X209804461Y-89530806D01*
X209625670Y-89534336D01*
X209500302Y-89535000D01*
X208924462Y-89535000D01*
X209215300Y-88735950D01*
X209297713Y-88511402D01*
X209372102Y-88312286D01*
X209434899Y-88147859D01*
X209482538Y-88027379D01*
X209511450Y-87960105D01*
X209518445Y-87949207D01*
X209534476Y-87986218D01*
X209570217Y-88079789D01*
X209621395Y-88217985D01*
X209683739Y-88388870D01*
X209752978Y-88580512D01*
X209824839Y-88780974D01*
X209895052Y-88978322D01*
X209959344Y-89160620D01*
X210013443Y-89315935D01*
X210053079Y-89432331D01*
X210073979Y-89497873D01*
X210076143Y-89507390D01*
X210406353Y-89507390D01*
X210336302Y-89315173D01*
X210230620Y-89026426D01*
X210210862Y-88972571D01*
X209731428Y-87666286D01*
X209306657Y-87666286D01*
X208820543Y-88971140D01*
X208820543Y-88971140D01*
G37*
X208820543Y-88971140D02*
X208712136Y-89262907D01*
X208612141Y-89533527D01*
X208523316Y-89775427D01*
X208448417Y-89981032D01*
X208390201Y-90142769D01*
X208351424Y-90253063D01*
X208334843Y-90304340D01*
X208334428Y-90306726D01*
X208366514Y-90323285D01*
X208447007Y-90328108D01*
X208484309Y-90326301D01*
X208634190Y-90315143D01*
X208733752Y-90043000D01*
X208833315Y-89770857D01*
X210179033Y-89751135D01*
X210384571Y-90333097D01*
X210538785Y-90333191D01*
X210632634Y-90327553D01*
X210686504Y-90313261D01*
X210691648Y-90306071D01*
X210679245Y-90267031D01*
X210644477Y-90167460D01*
X210590071Y-90014924D01*
X210518755Y-89816987D01*
X210433257Y-89581215D01*
X210406353Y-89507390D01*
X210076143Y-89507390D01*
X210041891Y-89516748D01*
X209947266Y-89524748D01*
X209804461Y-89530806D01*
X209625670Y-89534336D01*
X209500302Y-89535000D01*
X208924462Y-89535000D01*
X209215300Y-88735950D01*
X209297713Y-88511402D01*
X209372102Y-88312286D01*
X209434899Y-88147859D01*
X209482538Y-88027379D01*
X209511450Y-87960105D01*
X209518445Y-87949207D01*
X209534476Y-87986218D01*
X209570217Y-88079789D01*
X209621395Y-88217985D01*
X209683739Y-88388870D01*
X209752978Y-88580512D01*
X209824839Y-88780974D01*
X209895052Y-88978322D01*
X209959344Y-89160620D01*
X210013443Y-89315935D01*
X210053079Y-89432331D01*
X210073979Y-89497873D01*
X210076143Y-89507390D01*
X210406353Y-89507390D01*
X210336302Y-89315173D01*
X210230620Y-89026426D01*
X210210862Y-88972571D01*
X209731428Y-87666286D01*
X209306657Y-87666286D01*
X208820543Y-88971140D01*
G36*
X206770458Y-87661195D02*
X206725810Y-87684868D01*
X206705589Y-87713208D01*
X206683156Y-87762675D01*
X206636841Y-87870619D01*
X206570279Y-88028362D01*
X206487104Y-88227229D01*
X206390953Y-88458544D01*
X206285461Y-88713630D01*
X206230535Y-88846923D01*
X206123144Y-89107352D01*
X206024568Y-89345454D01*
X205938189Y-89553135D01*
X205867388Y-89722303D01*
X205815547Y-89844866D01*
X205786046Y-89912731D01*
X205780602Y-89923779D01*
X205764730Y-89894263D01*
X205724975Y-89805228D01*
X205664615Y-89664449D01*
X205586928Y-89479703D01*
X205495196Y-89258766D01*
X205392695Y-89009416D01*
X205322355Y-88837030D01*
X205213290Y-88570222D01*
X205111652Y-88323955D01*
X205020960Y-88106569D01*
X204944730Y-87926406D01*
X204886481Y-87791807D01*
X204849732Y-87711114D01*
X204839412Y-87691972D01*
X204780665Y-87663640D01*
X204659195Y-87653631D01*
X204564075Y-87655687D01*
X204324857Y-87666286D01*
X204315338Y-88999786D01*
X204305820Y-90333286D01*
X204596034Y-90333286D01*
X204605589Y-89108798D01*
X204615143Y-87884310D01*
X205622247Y-90333286D01*
X205923116Y-90333286D01*
X206409162Y-89163071D01*
X206523234Y-88889133D01*
X206628983Y-88636528D01*
X206723092Y-88413077D01*
X206802243Y-88226603D01*
X206863119Y-88084927D01*
X206902400Y-87995871D01*
X206916319Y-87967407D01*
X206921033Y-87996038D01*
X206924712Y-88089010D01*
X206927286Y-88238102D01*
X206928687Y-88435088D01*
X206928846Y-88671747D01*
X206927693Y-88939855D01*
X206926109Y-89137621D01*
X206914790Y-90333286D01*
X207246751Y-90333286D01*
X207237233Y-88999786D01*
X207227714Y-87666286D01*
X206984923Y-87655605D01*
X206850740Y-87652697D01*
X206770458Y-87661195D01*
X206770458Y-87661195D01*
G37*
X206770458Y-87661195D02*
X206725810Y-87684868D01*
X206705589Y-87713208D01*
X206683156Y-87762675D01*
X206636841Y-87870619D01*
X206570279Y-88028362D01*
X206487104Y-88227229D01*
X206390953Y-88458544D01*
X206285461Y-88713630D01*
X206230535Y-88846923D01*
X206123144Y-89107352D01*
X206024568Y-89345454D01*
X205938189Y-89553135D01*
X205867388Y-89722303D01*
X205815547Y-89844866D01*
X205786046Y-89912731D01*
X205780602Y-89923779D01*
X205764730Y-89894263D01*
X205724975Y-89805228D01*
X205664615Y-89664449D01*
X205586928Y-89479703D01*
X205495196Y-89258766D01*
X205392695Y-89009416D01*
X205322355Y-88837030D01*
X205213290Y-88570222D01*
X205111652Y-88323955D01*
X205020960Y-88106569D01*
X204944730Y-87926406D01*
X204886481Y-87791807D01*
X204849732Y-87711114D01*
X204839412Y-87691972D01*
X204780665Y-87663640D01*
X204659195Y-87653631D01*
X204564075Y-87655687D01*
X204324857Y-87666286D01*
X204315338Y-88999786D01*
X204305820Y-90333286D01*
X204596034Y-90333286D01*
X204605589Y-89108798D01*
X204615143Y-87884310D01*
X205622247Y-90333286D01*
X205923116Y-90333286D01*
X206409162Y-89163071D01*
X206523234Y-88889133D01*
X206628983Y-88636528D01*
X206723092Y-88413077D01*
X206802243Y-88226603D01*
X206863119Y-88084927D01*
X206902400Y-87995871D01*
X206916319Y-87967407D01*
X206921033Y-87996038D01*
X206924712Y-88089010D01*
X206927286Y-88238102D01*
X206928687Y-88435088D01*
X206928846Y-88671747D01*
X206927693Y-88939855D01*
X206926109Y-89137621D01*
X206914790Y-90333286D01*
X207246751Y-90333286D01*
X207237233Y-88999786D01*
X207227714Y-87666286D01*
X206984923Y-87655605D01*
X206850740Y-87652697D01*
X206770458Y-87661195D01*
G36*
X202229357Y-87656612D02*
X201909641Y-87666607D01*
X201654862Y-87681600D01*
X201457393Y-87705518D01*
X201309607Y-87742284D01*
X201203878Y-87795823D01*
X201132579Y-87870061D01*
X201088083Y-87968921D01*
X201062764Y-88096329D01*
X201048995Y-88256210D01*
X201048521Y-88264284D01*
X201042791Y-88418608D01*
X201049674Y-88525728D01*
X201072946Y-88610469D01*
X201113709Y-88692916D01*
X201185095Y-88792565D01*
X201265550Y-88867200D01*
X201290510Y-88881733D01*
X201385714Y-88925369D01*
X201261924Y-88985256D01*
X201138224Y-89061512D01*
X201054763Y-89158662D01*
X201003972Y-89291668D01*
X200978285Y-89475489D01*
X200973814Y-89554850D01*
X200970413Y-89721390D01*
X200979124Y-89840655D01*
X201003412Y-89937426D01*
X201038918Y-90020557D01*
X201084898Y-90106834D01*
X201135576Y-90174483D01*
X201200057Y-90225919D01*
X201287445Y-90263557D01*
X201406845Y-90289811D01*
X201567361Y-90307097D01*
X201778096Y-90317830D01*
X202048155Y-90324425D01*
X202193071Y-90326708D01*
X203000428Y-90338274D01*
X203000428Y-89099571D01*
X202710143Y-89099571D01*
X202710143Y-90086467D01*
X202084214Y-90073077D01*
X201813912Y-90064562D01*
X201604003Y-90052033D01*
X201458455Y-90035815D01*
X201381235Y-90016236D01*
X201379100Y-90015097D01*
X201316032Y-89963550D01*
X201276752Y-89885060D01*
X201256855Y-89764728D01*
X201251934Y-89587660D01*
X201251948Y-89585249D01*
X201256453Y-89432937D01*
X201273665Y-89316236D01*
X201312099Y-89230424D01*
X201380270Y-89170785D01*
X201486695Y-89132599D01*
X201639888Y-89111147D01*
X201848366Y-89101711D01*
X202120643Y-89099572D01*
X202128406Y-89099571D01*
X202710143Y-89099571D01*
X203000428Y-89099571D01*
X203000428Y-88845571D01*
X202712311Y-88845571D01*
X202266727Y-88843408D01*
X202074082Y-88840093D01*
X201889481Y-88832738D01*
X201735283Y-88822471D01*
X201642066Y-88811855D01*
X201500453Y-88775555D01*
X201407819Y-88713571D01*
X201355140Y-88613020D01*
X201333391Y-88461018D01*
X201331286Y-88368188D01*
X201339693Y-88199426D01*
X201372259Y-88081459D01*
X201439995Y-88003936D01*
X201553914Y-87956507D01*
X201725028Y-87928824D01*
X201806719Y-87921379D01*
X202000063Y-87910658D01*
X202213899Y-87906071D01*
X202401714Y-87908604D01*
X202692000Y-87920286D01*
X202702155Y-88382929D01*
X202712311Y-88845571D01*
X203000428Y-88845571D01*
X203000428Y-87637476D01*
X202229357Y-87656612D01*
X202229357Y-87656612D01*
G37*
X202229357Y-87656612D02*
X201909641Y-87666607D01*
X201654862Y-87681600D01*
X201457393Y-87705518D01*
X201309607Y-87742284D01*
X201203878Y-87795823D01*
X201132579Y-87870061D01*
X201088083Y-87968921D01*
X201062764Y-88096329D01*
X201048995Y-88256210D01*
X201048521Y-88264284D01*
X201042791Y-88418608D01*
X201049674Y-88525728D01*
X201072946Y-88610469D01*
X201113709Y-88692916D01*
X201185095Y-88792565D01*
X201265550Y-88867200D01*
X201290510Y-88881733D01*
X201385714Y-88925369D01*
X201261924Y-88985256D01*
X201138224Y-89061512D01*
X201054763Y-89158662D01*
X201003972Y-89291668D01*
X200978285Y-89475489D01*
X200973814Y-89554850D01*
X200970413Y-89721390D01*
X200979124Y-89840655D01*
X201003412Y-89937426D01*
X201038918Y-90020557D01*
X201084898Y-90106834D01*
X201135576Y-90174483D01*
X201200057Y-90225919D01*
X201287445Y-90263557D01*
X201406845Y-90289811D01*
X201567361Y-90307097D01*
X201778096Y-90317830D01*
X202048155Y-90324425D01*
X202193071Y-90326708D01*
X203000428Y-90338274D01*
X203000428Y-89099571D01*
X202710143Y-89099571D01*
X202710143Y-90086467D01*
X202084214Y-90073077D01*
X201813912Y-90064562D01*
X201604003Y-90052033D01*
X201458455Y-90035815D01*
X201381235Y-90016236D01*
X201379100Y-90015097D01*
X201316032Y-89963550D01*
X201276752Y-89885060D01*
X201256855Y-89764728D01*
X201251934Y-89587660D01*
X201251948Y-89585249D01*
X201256453Y-89432937D01*
X201273665Y-89316236D01*
X201312099Y-89230424D01*
X201380270Y-89170785D01*
X201486695Y-89132599D01*
X201639888Y-89111147D01*
X201848366Y-89101711D01*
X202120643Y-89099572D01*
X202128406Y-89099571D01*
X202710143Y-89099571D01*
X203000428Y-89099571D01*
X203000428Y-88845571D01*
X202712311Y-88845571D01*
X202266727Y-88843408D01*
X202074082Y-88840093D01*
X201889481Y-88832738D01*
X201735283Y-88822471D01*
X201642066Y-88811855D01*
X201500453Y-88775555D01*
X201407819Y-88713571D01*
X201355140Y-88613020D01*
X201333391Y-88461018D01*
X201331286Y-88368188D01*
X201339693Y-88199426D01*
X201372259Y-88081459D01*
X201439995Y-88003936D01*
X201553914Y-87956507D01*
X201725028Y-87928824D01*
X201806719Y-87921379D01*
X202000063Y-87910658D01*
X202213899Y-87906071D01*
X202401714Y-87908604D01*
X202692000Y-87920286D01*
X202702155Y-88382929D01*
X202712311Y-88845571D01*
X203000428Y-88845571D01*
X203000428Y-87637476D01*
X202229357Y-87656612D01*
G36*
X198963643Y-87655073D02*
X198701233Y-87661115D01*
X198500082Y-87667797D01*
X198348878Y-87676223D01*
X198236309Y-87687503D01*
X198151065Y-87702743D01*
X198081833Y-87723049D01*
X198022511Y-87747179D01*
X197896185Y-87821141D01*
X197804173Y-87919916D01*
X197742688Y-88053607D01*
X197707942Y-88232322D01*
X197696148Y-88466165D01*
X197697841Y-88613420D01*
X197729882Y-88802547D01*
X197810185Y-88955307D01*
X197931071Y-89059322D01*
X197990494Y-89084975D01*
X198112474Y-89124808D01*
X197971094Y-89193832D01*
X197879830Y-89248881D01*
X197813431Y-89319472D01*
X197767411Y-89417840D01*
X197737287Y-89556218D01*
X197718576Y-89746841D01*
X197710384Y-89905186D01*
X197692752Y-90333286D01*
X198023208Y-90333286D01*
X198035318Y-89898582D01*
X198041241Y-89713721D01*
X198048944Y-89586349D01*
X198061598Y-89501401D01*
X198082374Y-89443807D01*
X198114444Y-89398501D01*
X198147969Y-89363368D01*
X198248510Y-89262857D01*
X198846469Y-89250664D01*
X199444428Y-89238470D01*
X199444428Y-90333286D01*
X199734714Y-90333286D01*
X199734714Y-88990714D01*
X199446368Y-88990714D01*
X198881804Y-88990714D01*
X198625605Y-88988103D01*
X198433248Y-88979843D01*
X198296178Y-88965296D01*
X198205840Y-88943821D01*
X198194326Y-88939358D01*
X198097926Y-88881337D01*
X198028859Y-88809309D01*
X198025355Y-88803286D01*
X198000816Y-88716244D01*
X197987381Y-88582417D01*
X197985063Y-88426739D01*
X197993874Y-88274143D01*
X198013828Y-88149564D01*
X198024997Y-88112992D01*
X198056270Y-88048919D01*
X198101322Y-88001148D01*
X198170293Y-87967281D01*
X198273324Y-87944918D01*
X198420554Y-87931659D01*
X198622125Y-87925105D01*
X198827571Y-87923085D01*
X199426286Y-87920286D01*
X199446368Y-88990714D01*
X199734714Y-88990714D01*
X199734714Y-87639247D01*
X198963643Y-87655073D01*
X198963643Y-87655073D01*
G37*
X198963643Y-87655073D02*
X198701233Y-87661115D01*
X198500082Y-87667797D01*
X198348878Y-87676223D01*
X198236309Y-87687503D01*
X198151065Y-87702743D01*
X198081833Y-87723049D01*
X198022511Y-87747179D01*
X197896185Y-87821141D01*
X197804173Y-87919916D01*
X197742688Y-88053607D01*
X197707942Y-88232322D01*
X197696148Y-88466165D01*
X197697841Y-88613420D01*
X197729882Y-88802547D01*
X197810185Y-88955307D01*
X197931071Y-89059322D01*
X197990494Y-89084975D01*
X198112474Y-89124808D01*
X197971094Y-89193832D01*
X197879830Y-89248881D01*
X197813431Y-89319472D01*
X197767411Y-89417840D01*
X197737287Y-89556218D01*
X197718576Y-89746841D01*
X197710384Y-89905186D01*
X197692752Y-90333286D01*
X198023208Y-90333286D01*
X198035318Y-89898582D01*
X198041241Y-89713721D01*
X198048944Y-89586349D01*
X198061598Y-89501401D01*
X198082374Y-89443807D01*
X198114444Y-89398501D01*
X198147969Y-89363368D01*
X198248510Y-89262857D01*
X198846469Y-89250664D01*
X199444428Y-89238470D01*
X199444428Y-90333286D01*
X199734714Y-90333286D01*
X199734714Y-88990714D01*
X199446368Y-88990714D01*
X198881804Y-88990714D01*
X198625605Y-88988103D01*
X198433248Y-88979843D01*
X198296178Y-88965296D01*
X198205840Y-88943821D01*
X198194326Y-88939358D01*
X198097926Y-88881337D01*
X198028859Y-88809309D01*
X198025355Y-88803286D01*
X198000816Y-88716244D01*
X197987381Y-88582417D01*
X197985063Y-88426739D01*
X197993874Y-88274143D01*
X198013828Y-88149564D01*
X198024997Y-88112992D01*
X198056270Y-88048919D01*
X198101322Y-88001148D01*
X198170293Y-87967281D01*
X198273324Y-87944918D01*
X198420554Y-87931659D01*
X198622125Y-87925105D01*
X198827571Y-87923085D01*
X199426286Y-87920286D01*
X199446368Y-88990714D01*
X199734714Y-88990714D01*
X199734714Y-87639247D01*
X198963643Y-87655073D01*
G36*
X196142428Y-90333286D02*
X196432714Y-90333286D01*
X196432714Y-87648143D01*
X196142428Y-87648143D01*
X196142428Y-90333286D01*
X196142428Y-90333286D01*
G37*
X196142428Y-90333286D02*
X196432714Y-90333286D01*
X196432714Y-87648143D01*
X196142428Y-87648143D01*
X196142428Y-90333286D01*
G36*
X193867128Y-87656451D02*
X193527148Y-87674879D01*
X193254891Y-87711048D01*
X193051470Y-87764838D01*
X192984002Y-87794086D01*
X192884534Y-87857885D01*
X192810116Y-87944012D01*
X192739898Y-88076605D01*
X192739809Y-88076798D01*
X192700581Y-88169759D01*
X192672932Y-88259509D01*
X192654205Y-88363041D01*
X192641744Y-88497349D01*
X192632893Y-88679427D01*
X192629307Y-88783764D01*
X192627211Y-89172826D01*
X192648443Y-89496297D01*
X192693715Y-89757542D01*
X192763740Y-89959929D01*
X192859231Y-90106824D01*
X192921653Y-90164271D01*
X193001126Y-90217359D01*
X193088311Y-90258273D01*
X193193578Y-90288521D01*
X193327296Y-90309608D01*
X193499834Y-90323041D01*
X193721562Y-90330327D01*
X194002847Y-90332971D01*
X194083661Y-90333083D01*
X194837037Y-90333286D01*
X194835277Y-90086603D01*
X194509571Y-90086603D01*
X193901785Y-90073873D01*
X193671431Y-90068109D01*
X193501089Y-90060909D01*
X193378199Y-90050794D01*
X193290202Y-90036279D01*
X193224538Y-90015883D01*
X193168648Y-89988125D01*
X193167000Y-89987168D01*
X193084373Y-89927401D01*
X193021246Y-89850316D01*
X192975486Y-89746575D01*
X192944958Y-89606838D01*
X192927530Y-89421767D01*
X192921067Y-89182024D01*
X192922761Y-88918143D01*
X192929434Y-88627357D01*
X192944537Y-88400522D01*
X192976251Y-88229368D01*
X193032758Y-88105627D01*
X193122240Y-88021030D01*
X193252880Y-87967306D01*
X193432858Y-87936189D01*
X193670357Y-87919407D01*
X193919928Y-87910352D01*
X194509571Y-87891977D01*
X194509571Y-90086603D01*
X194835277Y-90086603D01*
X194827518Y-88999786D01*
X194818000Y-87666286D01*
X194273714Y-87655882D01*
X193867128Y-87656451D01*
X193867128Y-87656451D01*
G37*
X193867128Y-87656451D02*
X193527148Y-87674879D01*
X193254891Y-87711048D01*
X193051470Y-87764838D01*
X192984002Y-87794086D01*
X192884534Y-87857885D01*
X192810116Y-87944012D01*
X192739898Y-88076605D01*
X192739809Y-88076798D01*
X192700581Y-88169759D01*
X192672932Y-88259509D01*
X192654205Y-88363041D01*
X192641744Y-88497349D01*
X192632893Y-88679427D01*
X192629307Y-88783764D01*
X192627211Y-89172826D01*
X192648443Y-89496297D01*
X192693715Y-89757542D01*
X192763740Y-89959929D01*
X192859231Y-90106824D01*
X192921653Y-90164271D01*
X193001126Y-90217359D01*
X193088311Y-90258273D01*
X193193578Y-90288521D01*
X193327296Y-90309608D01*
X193499834Y-90323041D01*
X193721562Y-90330327D01*
X194002847Y-90332971D01*
X194083661Y-90333083D01*
X194837037Y-90333286D01*
X194835277Y-90086603D01*
X194509571Y-90086603D01*
X193901785Y-90073873D01*
X193671431Y-90068109D01*
X193501089Y-90060909D01*
X193378199Y-90050794D01*
X193290202Y-90036279D01*
X193224538Y-90015883D01*
X193168648Y-89988125D01*
X193167000Y-89987168D01*
X193084373Y-89927401D01*
X193021246Y-89850316D01*
X192975486Y-89746575D01*
X192944958Y-89606838D01*
X192927530Y-89421767D01*
X192921067Y-89182024D01*
X192922761Y-88918143D01*
X192929434Y-88627357D01*
X192944537Y-88400522D01*
X192976251Y-88229368D01*
X193032758Y-88105627D01*
X193122240Y-88021030D01*
X193252880Y-87967306D01*
X193432858Y-87936189D01*
X193670357Y-87919407D01*
X193919928Y-87910352D01*
X194509571Y-87891977D01*
X194509571Y-90086603D01*
X194835277Y-90086603D01*
X194827518Y-88999786D01*
X194818000Y-87666286D01*
X194273714Y-87655882D01*
X193867128Y-87656451D01*
G36*
X186526714Y-87900576D02*
X187923714Y-87920286D01*
X187923714Y-88827429D01*
X187261500Y-88837318D01*
X186599286Y-88847208D01*
X186599286Y-89099571D01*
X187941857Y-89099571D01*
X187941857Y-90079286D01*
X186526714Y-90079286D01*
X186526714Y-90333286D01*
X188232143Y-90333286D01*
X188232143Y-87648143D01*
X186526714Y-87648143D01*
X186526714Y-87900576D01*
X186526714Y-87900576D01*
G37*
X186526714Y-87900576D02*
X187923714Y-87920286D01*
X187923714Y-88827429D01*
X187261500Y-88837318D01*
X186599286Y-88847208D01*
X186599286Y-89099571D01*
X187941857Y-89099571D01*
X187941857Y-90079286D01*
X186526714Y-90079286D01*
X186526714Y-90333286D01*
X188232143Y-90333286D01*
X188232143Y-87648143D01*
X186526714Y-87648143D01*
X186526714Y-87900576D01*
M02*
