M48
;DRILL file {KiCad 0.201508190901+6103~28~ubuntu14.04.1-product} date Wed 19 Aug 2015 15:30:25 BST
;FORMAT={-:-/ absolute / inch / decimal}
FMAT,2
INCH,TZ
T1C0.047
T2C0.130
T3C0.157
%
G90
G05
M72
T1
X5.9947Y-4.9527
X6.3491Y-4.9527
X6.4147Y-4.9527
X6.7691Y-4.9527
X6.8347Y-4.9527
X7.1891Y-4.9527
X7.2547Y-4.9527
X7.6091Y-4.9527
X7.6747Y-4.9527
X8.0291Y-4.9527
X8.5923Y-3.4772
X8.5923Y-3.6741
X8.5923Y-3.7372
X8.5923Y-3.9341
X8.5923Y-3.9972
X8.5923Y-4.1941
X8.5923Y-4.2572
X8.5923Y-4.4541
T2
X5.43Y-3.16
X5.43Y-4.74
X8.65Y-3.16
X8.65Y-4.74
T3
X5.662Y-3.1626
X5.662Y-4.7374
X8.418Y-3.1626
X8.418Y-4.7374
T0
M30
