M48
;DRILL file {KiCad 0.201507280910+6003~25~ubuntu14.04.1-product} date Wed 19 Aug 2015 23:33:18 BST
;FORMAT={-:-/ absolute / inch / decimal}
FMAT,2
INCH,TZ
T1C0.016
T2C0.024
T3C0.025
T4C0.030
T5C0.031
T6C0.039
T7C0.047
T8C0.130
T9C0.157
%
G90
G05
M72
T1
X5.42Y-3.93
X5.42Y-4.39
X5.55Y-3.45
X5.65Y-5.
X5.755Y-3.93
X5.755Y-4.39
X5.95Y-3.25
X5.98Y-4.71
X5.99Y-2.93
X6.09Y-3.93
X6.14Y-3.15
X6.15Y-3.45
X6.15Y-4.2
X6.155Y-4.51
X6.175Y-5.115
X6.2Y-3.925
X6.25Y-3.195
X6.285Y-4.155
X6.35Y-3.85
X6.38Y-4.655
X6.41Y-3.32
X6.495Y-4.205
X6.525Y-4.285
X6.55Y-3.215
X6.59Y-4.535
X6.59Y-5.11
X6.61Y-3.42
X6.625Y-3.64
X6.63Y-4.105
X6.635Y-4.055
X6.69Y-4.
X6.725Y-4.155
X6.79Y-3.99
X6.805Y-4.38
X6.81Y-4.685
X6.8625Y-3.85
X6.89Y-2.97
X6.915Y-3.775
X7.015Y-4.14
X7.015Y-4.19
X7.015Y-4.24
X7.015Y-5.11
X7.09Y-3.615
X7.11Y-2.97
X7.11Y-4.065
X7.13Y-3.91
X7.17Y-3.88
X7.215Y-4.39
X7.225Y-4.685
X7.26Y-3.9
X7.32Y-4.225
X7.345Y-2.765
X7.355Y-4.28
X7.39Y-4.315
X7.425Y-4.35
X7.44Y-5.11
X7.515Y-4.445
X7.52Y-3.37
X7.63Y-4.75
X7.64Y-3.94
X7.66Y-4.3
X7.69Y-2.975
X7.725Y-4.615
X7.78Y-4.41
X7.82Y-4.445
X7.835Y-4.15
X7.85Y-4.69
X7.855Y-5.11
X7.89Y-2.975
X7.9Y-3.545
X7.905Y-3.815
X8.005Y-2.81
X8.045Y-4.005
X8.045Y-4.115
X8.045Y-4.475
X8.16Y-3.62
X8.175Y-5.115
X8.25Y-4.93
X8.255Y-5.12
X8.28Y-4.205
X8.335Y-3.855
X8.415Y-4.52
X8.565Y-5.075
X8.755Y-4.085
T2
X5.895Y-3.5375
X5.895Y-3.71
X6.27Y-2.765
X6.365Y-2.93
X6.365Y-3.1375
X6.445Y-3.535
X6.705Y-2.9
X6.785Y-2.765
X7.535Y-4.17
X7.575Y-4.215
X7.62Y-4.255
X7.705Y-4.485
X7.75Y-4.525
T3
X6.89Y-3.35
X6.89Y-3.4
X6.94Y-3.35
X6.94Y-3.4
X6.99Y-3.35
X6.99Y-3.4
X7.04Y-3.35
X7.04Y-3.4
X7.09Y-3.35
X7.09Y-3.4
T4
X7.31Y-3.345
X7.31Y-3.545
X7.71Y-3.445
T5
X6.0538Y-4.87
X6.1325Y-4.87
X6.2113Y-4.87
X6.29Y-4.87
X6.4738Y-4.87
X6.5525Y-4.87
X6.6313Y-4.87
X6.71Y-4.87
X6.8938Y-4.87
X6.9725Y-4.87
X7.0513Y-4.87
X7.13Y-4.87
X7.3138Y-4.87
X7.3925Y-4.87
X7.4713Y-4.87
X7.55Y-4.87
X7.7338Y-4.87
X7.8125Y-4.87
X7.8913Y-4.87
X7.97Y-4.87
X8.675Y-3.5363
X8.675Y-3.615
X8.675Y-3.7963
X8.675Y-3.875
X8.675Y-4.0563
X8.675Y-4.135
X8.675Y-4.3163
X8.675Y-4.395
T6
X6.662Y-3.1232
X6.762Y-3.1232
X6.862Y-3.1232
X6.962Y-3.1232
X7.062Y-3.1232
X7.162Y-3.1232
X7.18Y-3.34
X7.262Y-3.1232
X7.362Y-3.1232
X7.41Y-3.76
X7.462Y-3.1232
X7.51Y-3.76
X7.562Y-3.1232
X7.61Y-3.76
X7.662Y-3.1232
X7.762Y-3.1232
X7.862Y-3.1232
X7.962Y-3.1232
X8.062Y-3.1232
X8.12Y-4.74
X8.162Y-3.1232
T7
X5.9947Y-4.9527
X6.3491Y-4.9527
X6.4147Y-4.9527
X6.7691Y-4.9527
X6.8347Y-4.9527
X7.1891Y-4.9527
X7.2547Y-4.9527
X7.6091Y-4.9527
X7.6747Y-4.9527
X8.0291Y-4.9527
X8.5923Y-3.4772
X8.5923Y-3.6741
X8.5923Y-3.7372
X8.5923Y-3.9341
X8.5923Y-3.9972
X8.5923Y-4.1941
X8.5923Y-4.2572
X8.5923Y-4.4541
T8
X5.43Y-3.16
X5.43Y-4.74
X8.65Y-3.16
X8.65Y-4.74
T9
X5.662Y-3.1626
X5.662Y-4.7374
X8.418Y-3.1626
X8.418Y-4.7374
T0
M30
