G04 #@! TF.GenerationSoftware,KiCad,Pcbnew,no-vcs-found-a20cce0~59~ubuntu16.04.1*
G04 #@! TF.CreationDate,2017-08-21T15:18:52+01:00*
G04 #@! TF.ProjectId,okgo2usbcontrol,6F6B676F32757362636F6E74726F6C2E,rev?*
G04 #@! TF.SameCoordinates,Original*
G04 #@! TF.FileFunction,Copper,L2,Bot,Signal*
G04 #@! TF.FilePolarity,Positive*
%FSLAX46Y46*%
G04 Gerber Fmt 4.6, Leading zero omitted, Abs format (unit mm)*
G04 Created by KiCad (PCBNEW no-vcs-found-a20cce0~59~ubuntu16.04.1) date Mon Aug 21 15:18:52 2017*
%MOMM*%
%LPD*%
G01*
G04 APERTURE LIST*
%ADD10R,0.620000X0.620000*%
%ADD11R,1.200000X0.500000*%
%ADD12R,0.500000X1.200000*%
%ADD13R,1.450000X0.450000*%
%ADD14R,5.000000X2.400000*%
%ADD15C,1.500000*%
%ADD16O,4.200000X2.700000*%
%ADD17C,0.800000*%
%ADD18C,0.250000*%
%ADD19C,0.200000*%
%ADD20C,0.254000*%
G04 APERTURE END LIST*
D10*
X118000000Y-105450000D03*
X118000000Y-104550000D03*
X116750000Y-104550000D03*
X116750000Y-105450000D03*
X117650000Y-112400000D03*
X118550000Y-112400000D03*
X118550000Y-109200000D03*
X117650000Y-109200000D03*
X106100000Y-104550000D03*
X106100000Y-103650000D03*
X106250000Y-118200000D03*
X106250000Y-117300000D03*
X117650000Y-108000000D03*
X118550000Y-108000000D03*
X118550000Y-113600000D03*
X117650000Y-113600000D03*
X114000000Y-104500000D03*
X114000000Y-105400000D03*
D11*
X116200000Y-109200000D03*
X116200000Y-110000000D03*
X116200000Y-110800000D03*
X116200000Y-111600000D03*
X116200000Y-112400000D03*
X116200000Y-113200000D03*
X116200000Y-114000000D03*
X116200000Y-114800000D03*
D12*
X114800000Y-116200000D03*
X114000000Y-116200000D03*
X113200000Y-116200000D03*
X112400000Y-116200000D03*
X111600000Y-116200000D03*
X110800000Y-116200000D03*
X110000000Y-116200000D03*
X109200000Y-116200000D03*
D11*
X107800000Y-114800000D03*
X107800000Y-114000000D03*
X107800000Y-113200000D03*
X107800000Y-112400000D03*
X107800000Y-111600000D03*
X107800000Y-110800000D03*
X107800000Y-110000000D03*
X107800000Y-109200000D03*
D12*
X109200000Y-107800000D03*
X110000000Y-107800000D03*
X110800000Y-107800000D03*
X111600000Y-107800000D03*
X112400000Y-107800000D03*
X113200000Y-107800000D03*
X114000000Y-107800000D03*
X114800000Y-107800000D03*
D13*
X112150000Y-103850000D03*
X112150000Y-104500000D03*
X112150000Y-105150000D03*
X112150000Y-105800000D03*
X107750000Y-105800000D03*
X107750000Y-105150000D03*
X107750000Y-104500000D03*
X107750000Y-103850000D03*
D14*
X128000000Y-116375000D03*
X128000000Y-107625000D03*
D15*
X105100000Y-115500000D03*
X105100000Y-113000000D03*
X105100000Y-111000000D03*
X105100000Y-108500000D03*
D16*
X103000000Y-117700000D03*
X103000000Y-106300000D03*
D17*
X105100000Y-104100000D03*
X120000000Y-116000000D03*
X120000000Y-115000000D03*
X120000000Y-114000000D03*
X120000000Y-113000000D03*
X120000000Y-112000000D03*
X120000000Y-111000000D03*
X120000000Y-110000000D03*
X120000000Y-109000000D03*
X120000000Y-108000000D03*
X116100000Y-107700000D03*
X106200000Y-119250000D03*
X108200000Y-116950000D03*
X126000000Y-114500000D03*
X129750000Y-114500000D03*
X120000000Y-117000000D03*
X127000000Y-119750000D03*
X126000000Y-109500000D03*
X130000000Y-109500000D03*
X120000000Y-107000000D03*
X127000000Y-104250000D03*
X110000000Y-118000000D03*
X112000000Y-118000000D03*
X113962347Y-118037653D03*
X116000000Y-118000000D03*
X118000000Y-118000000D03*
X118000000Y-106750000D03*
D18*
X105100000Y-115500000D02*
X104024999Y-114424999D01*
X104024999Y-114424999D02*
X104024999Y-110134001D01*
X106100000Y-105110000D02*
X106100000Y-104550000D01*
X104024999Y-110134001D02*
X104583999Y-109575001D01*
X105616001Y-109575001D02*
X106175001Y-109016001D01*
X104583999Y-109575001D02*
X105616001Y-109575001D01*
X106175001Y-109016001D02*
X106175001Y-105185001D01*
X106175001Y-105185001D02*
X106100000Y-105110000D01*
X107750000Y-105150000D02*
X107250000Y-105150000D01*
X107250000Y-105150000D02*
X106600000Y-104500000D01*
X107750000Y-104500000D02*
X106250000Y-104500000D01*
X106600000Y-104500000D02*
X106250000Y-104500000D01*
X106250000Y-104500000D02*
X106000000Y-104500000D01*
X107750000Y-103850000D02*
X107250000Y-103850000D01*
X107250000Y-103850000D02*
X106600000Y-104500000D01*
D19*
X106084700Y-112190000D02*
X106884700Y-111390000D01*
X106884700Y-111390000D02*
X107240000Y-111390000D01*
X107240000Y-111390000D02*
X107450000Y-111600000D01*
X107450000Y-111600000D02*
X107800000Y-111600000D01*
X105100000Y-113000000D02*
X105910000Y-112190000D01*
X105910000Y-112190000D02*
X106084700Y-112190000D01*
X105927296Y-111810000D02*
X106727296Y-111010000D01*
X106727296Y-111010000D02*
X107240000Y-111010000D01*
X107240000Y-111010000D02*
X107450000Y-110800000D01*
X107450000Y-110800000D02*
X107800000Y-110800000D01*
X105100000Y-111000000D02*
X105910000Y-111810000D01*
X105910000Y-111810000D02*
X105927296Y-111810000D01*
D18*
X106100000Y-103650000D02*
X105550000Y-103650000D01*
X105550000Y-103650000D02*
X105100000Y-104100000D01*
X118550000Y-113000000D02*
X118550000Y-113600000D01*
X118550000Y-112400000D02*
X118550000Y-113000000D01*
X118550000Y-113000000D02*
X120000000Y-113000000D01*
X119350000Y-108600000D02*
X119550000Y-108600000D01*
X115565685Y-106600000D02*
X115350000Y-106600000D01*
X115350000Y-106600000D02*
X115150000Y-106600000D01*
X114000000Y-105400000D02*
X114560000Y-105400000D01*
X114560000Y-105400000D02*
X115350000Y-106190000D01*
X115350000Y-106190000D02*
X115350000Y-106600000D01*
X116100000Y-107700000D02*
X116100000Y-107134315D01*
X116100000Y-107134315D02*
X115565685Y-106600000D01*
X115900000Y-107500000D02*
X116100000Y-107700000D01*
X114800000Y-107800000D02*
X114800000Y-106950000D01*
X114800000Y-106950000D02*
X115150000Y-106600000D01*
X106250000Y-118200000D02*
X106250000Y-119200000D01*
X106250000Y-119200000D02*
X106200000Y-119250000D01*
X109050000Y-117200000D02*
X108450000Y-117200000D01*
X108450000Y-117200000D02*
X108200000Y-116950000D01*
X109200000Y-116200000D02*
X109200000Y-117050000D01*
X109200000Y-117050000D02*
X109050000Y-117200000D01*
X118550000Y-108600000D02*
X118550000Y-109200000D01*
X118550000Y-108000000D02*
X118550000Y-108600000D01*
X118550000Y-108600000D02*
X119350000Y-108600000D01*
X119750000Y-104500000D02*
X119750000Y-104750000D01*
X118610000Y-104500000D02*
X119750000Y-104500000D01*
X118000000Y-104550000D02*
X118560000Y-104550000D01*
X118560000Y-104550000D02*
X118610000Y-104500000D01*
X116750000Y-104550000D02*
X118000000Y-104550000D01*
X112150000Y-105800000D02*
X111650000Y-105800000D01*
X112150000Y-105800000D02*
X113040000Y-105800000D01*
X113040000Y-105800000D02*
X113440000Y-105400000D01*
X113440000Y-105400000D02*
X114000000Y-105400000D01*
X112200000Y-105750000D02*
X112150000Y-105800000D01*
X112400000Y-116200000D02*
X112400000Y-117326998D01*
X112400000Y-117326998D02*
X112725001Y-117651999D01*
X112725001Y-117651999D02*
X112725001Y-118348001D01*
X112725001Y-118348001D02*
X112348001Y-118725001D01*
X112348001Y-118725001D02*
X110725001Y-118725001D01*
X110725001Y-118725001D02*
X110000000Y-118000000D01*
X111600000Y-116200000D02*
X111600000Y-117600000D01*
X111600000Y-117600000D02*
X112000000Y-118000000D01*
X113200000Y-116200000D02*
X113200000Y-117275306D01*
X113200000Y-117275306D02*
X113962347Y-118037653D01*
X114000000Y-117050000D02*
X114950000Y-118000000D01*
X114950000Y-118000000D02*
X116000000Y-118000000D01*
X114000000Y-116200000D02*
X114000000Y-117050000D01*
X115000000Y-117000000D02*
X117000000Y-117000000D01*
X117000000Y-117000000D02*
X118000000Y-118000000D01*
X114800000Y-116800000D02*
X115000000Y-117000000D01*
X114800000Y-116200000D02*
X114800000Y-116800000D01*
X118000000Y-106600000D02*
X118000000Y-106750000D01*
X118000000Y-105450000D02*
X118000000Y-106600000D01*
X117650000Y-113600000D02*
X117650000Y-112400000D01*
X115486998Y-108590000D02*
X112100000Y-111976998D01*
X112100000Y-111976998D02*
X106776998Y-117300000D01*
X117650000Y-113600000D02*
X117650000Y-114785002D01*
X117650000Y-114785002D02*
X117060001Y-115375001D01*
X112100000Y-112100000D02*
X112100000Y-111976998D01*
X117060001Y-115375001D02*
X115375001Y-115375001D01*
X115375001Y-115375001D02*
X112100000Y-112100000D01*
X114710000Y-104500000D02*
X116760000Y-106550000D01*
X116760000Y-106550000D02*
X117650000Y-107440000D01*
X116750000Y-105450000D02*
X116750000Y-106540000D01*
X116750000Y-106540000D02*
X116760000Y-106550000D01*
X114000000Y-104500000D02*
X114710000Y-104500000D01*
X117650000Y-107440000D02*
X117650000Y-108000000D01*
X117650000Y-108000000D02*
X117090000Y-108000000D01*
X117090000Y-108000000D02*
X116500000Y-108590000D01*
X116500000Y-108590000D02*
X115486998Y-108590000D01*
X106664998Y-117300000D02*
X106250000Y-117300000D01*
X106776998Y-117300000D02*
X106664998Y-117300000D01*
X106250000Y-117300000D02*
X106250000Y-116740000D01*
X106250000Y-116740000D02*
X106500000Y-116490000D01*
X106500000Y-116490000D02*
X106500000Y-115200000D01*
X106500000Y-115200000D02*
X106900000Y-114800000D01*
X106900000Y-114800000D02*
X107800000Y-114800000D01*
X117650000Y-112400000D02*
X116200000Y-112400000D01*
X117650000Y-109200000D02*
X116200000Y-109200000D01*
X117650000Y-108000000D02*
X117650000Y-109200000D01*
X116750000Y-105450000D02*
X118000000Y-105450000D01*
X113250000Y-104450000D02*
X113250000Y-104550000D01*
X113250000Y-104550000D02*
X112650000Y-105150000D01*
X112650000Y-105150000D02*
X112150000Y-105150000D01*
X113250000Y-104500000D02*
X112150000Y-104500000D01*
X114000000Y-104500000D02*
X113250000Y-104500000D01*
X112650000Y-103850000D02*
X112150000Y-103850000D01*
X113250000Y-104500000D02*
X113250000Y-104450000D01*
X113250000Y-104450000D02*
X112650000Y-103850000D01*
D20*
G36*
X130540000Y-106294092D02*
X130540000Y-117705908D01*
X127705908Y-120540000D01*
X119377000Y-120540000D01*
X119377000Y-114291026D01*
X119398327Y-114269699D01*
X119495000Y-114036310D01*
X119495000Y-113885750D01*
X119377000Y-113767750D01*
X119377000Y-113432250D01*
X119495000Y-113314250D01*
X119495000Y-113163690D01*
X119427197Y-113000000D01*
X119495000Y-112836310D01*
X119495000Y-112685750D01*
X119377000Y-112567750D01*
X119377000Y-112232250D01*
X119495000Y-112114250D01*
X119495000Y-111963690D01*
X119398327Y-111730301D01*
X119377000Y-111708974D01*
X119377000Y-109891026D01*
X119398327Y-109869699D01*
X119495000Y-109636310D01*
X119495000Y-109485750D01*
X119377000Y-109367750D01*
X119377000Y-109032250D01*
X119495000Y-108914250D01*
X119495000Y-108763690D01*
X119427197Y-108600000D01*
X119495000Y-108436310D01*
X119495000Y-108285750D01*
X119377000Y-108167750D01*
X119377000Y-107832250D01*
X119495000Y-107714250D01*
X119495000Y-107563690D01*
X119398327Y-107330301D01*
X119377000Y-107308974D01*
X119377000Y-103460000D01*
X127705908Y-103460000D01*
X130540000Y-106294092D01*
X130540000Y-106294092D01*
G37*
X130540000Y-106294092D02*
X130540000Y-117705908D01*
X127705908Y-120540000D01*
X119377000Y-120540000D01*
X119377000Y-114291026D01*
X119398327Y-114269699D01*
X119495000Y-114036310D01*
X119495000Y-113885750D01*
X119377000Y-113767750D01*
X119377000Y-113432250D01*
X119495000Y-113314250D01*
X119495000Y-113163690D01*
X119427197Y-113000000D01*
X119495000Y-112836310D01*
X119495000Y-112685750D01*
X119377000Y-112567750D01*
X119377000Y-112232250D01*
X119495000Y-112114250D01*
X119495000Y-111963690D01*
X119398327Y-111730301D01*
X119377000Y-111708974D01*
X119377000Y-109891026D01*
X119398327Y-109869699D01*
X119495000Y-109636310D01*
X119495000Y-109485750D01*
X119377000Y-109367750D01*
X119377000Y-109032250D01*
X119495000Y-108914250D01*
X119495000Y-108763690D01*
X119427197Y-108600000D01*
X119495000Y-108436310D01*
X119495000Y-108285750D01*
X119377000Y-108167750D01*
X119377000Y-107832250D01*
X119495000Y-107714250D01*
X119495000Y-107563690D01*
X119398327Y-107330301D01*
X119377000Y-107308974D01*
X119377000Y-103460000D01*
X127705908Y-103460000D01*
X130540000Y-106294092D01*
M02*
