G04 #@! TF.GenerationSoftware,KiCad,Pcbnew,no-vcs-found-a20cce0~59~ubuntu16.04.1*
G04 #@! TF.CreationDate,2017-08-21T15:18:52+01:00*
G04 #@! TF.ProjectId,okgo2usbcontrol,6F6B676F32757362636F6E74726F6C2E,rev?*
G04 #@! TF.SameCoordinates,Original*
G04 #@! TF.FileFunction,Copper,L1,Top,Signal*
G04 #@! TF.FilePolarity,Positive*
%FSLAX46Y46*%
G04 Gerber Fmt 4.6, Leading zero omitted, Abs format (unit mm)*
G04 Created by KiCad (PCBNEW no-vcs-found-a20cce0~59~ubuntu16.04.1) date Mon Aug 21 15:18:52 2017*
%MOMM*%
%LPD*%
G01*
G04 APERTURE LIST*
%ADD10R,1.000000X0.950000*%
%ADD11R,5.000000X2.300000*%
%ADD12R,5.000000X2.400000*%
%ADD13R,1.200000X2.500000*%
%ADD14C,1.500000*%
%ADD15O,4.200000X2.700000*%
%ADD16C,0.800000*%
%ADD17C,0.250000*%
%ADD18C,0.400000*%
%ADD19C,1.200000*%
%ADD20C,0.254000*%
G04 APERTURE END LIST*
D10*
X124500000Y-109500000D03*
X124500000Y-111100000D03*
D11*
X128000000Y-112000000D03*
D12*
X128000000Y-107625000D03*
X128000000Y-116375000D03*
D13*
X108000000Y-119250000D03*
X110000000Y-119250000D03*
X112000000Y-119250000D03*
X114000000Y-119250000D03*
X116000000Y-119250000D03*
X118000000Y-119250000D03*
X120000000Y-119250000D03*
X122000000Y-119250000D03*
X122000000Y-104750000D03*
X120000000Y-104750000D03*
X118000000Y-104750000D03*
X116000000Y-104750000D03*
X114000000Y-104750000D03*
X112000000Y-104750000D03*
X110000000Y-104750000D03*
X108000000Y-104750000D03*
D14*
X105100000Y-115500000D03*
X105100000Y-113000000D03*
X105100000Y-111000000D03*
X105100000Y-108500000D03*
D15*
X103000000Y-117700000D03*
X103000000Y-106300000D03*
D16*
X105100000Y-104100000D03*
X120000000Y-116000000D03*
X120000000Y-115000000D03*
X120000000Y-114000000D03*
X120000000Y-113000000D03*
X120000000Y-112000000D03*
X120000000Y-111000000D03*
X120000000Y-110000000D03*
X120000000Y-109000000D03*
X120000000Y-108000000D03*
X116100000Y-107700000D03*
X106200000Y-119250000D03*
X108200000Y-116950000D03*
X126000000Y-114500000D03*
X129750000Y-114500000D03*
X120000000Y-117000000D03*
X127000000Y-119750000D03*
X126000000Y-109500000D03*
X130000000Y-109500000D03*
X120000000Y-107000000D03*
X127000000Y-104250000D03*
X110000000Y-118000000D03*
X112000000Y-118000000D03*
X113962347Y-118037653D03*
X116000000Y-118000000D03*
X118000000Y-118000000D03*
X118000000Y-106750000D03*
D17*
X110000000Y-118000000D02*
X110000000Y-119000000D01*
X112000000Y-118000000D02*
X112000000Y-119000000D01*
X113962347Y-118037653D02*
X113962347Y-118962347D01*
X113962347Y-118962347D02*
X114000000Y-119000000D01*
X116000000Y-118000000D02*
X116000000Y-119000000D01*
X118000000Y-118000000D02*
X118000000Y-119000000D01*
D18*
X124500000Y-111100000D02*
X124500000Y-111975000D01*
X124500000Y-111975000D02*
X124475000Y-112000000D01*
X124475000Y-112000000D02*
X124300000Y-112000000D01*
D19*
X122000000Y-105000000D02*
X122000000Y-110745002D01*
X122000000Y-110745002D02*
X123254998Y-112000000D01*
X123254998Y-112000000D02*
X124300000Y-112000000D01*
X124300000Y-112000000D02*
X128000000Y-112000000D01*
D17*
X118000000Y-106750000D02*
X117575001Y-106325001D01*
X117575001Y-106325001D02*
X114125001Y-106325001D01*
X114125001Y-106325001D02*
X114000000Y-106200000D01*
X114000000Y-106200000D02*
X114000000Y-105000000D01*
D20*
G36*
X106752560Y-103500000D02*
X106752560Y-106000000D01*
X106801843Y-106247765D01*
X106942191Y-106457809D01*
X107152235Y-106598157D01*
X107400000Y-106647440D01*
X108600000Y-106647440D01*
X108847765Y-106598157D01*
X109000000Y-106496436D01*
X109152235Y-106598157D01*
X109400000Y-106647440D01*
X110600000Y-106647440D01*
X110847765Y-106598157D01*
X111000000Y-106496436D01*
X111152235Y-106598157D01*
X111400000Y-106647440D01*
X112600000Y-106647440D01*
X112847765Y-106598157D01*
X113000000Y-106496436D01*
X113152235Y-106598157D01*
X113400000Y-106647440D01*
X113402489Y-106647440D01*
X113462599Y-106737401D01*
X113587600Y-106862402D01*
X113834162Y-107027149D01*
X114125001Y-107085001D01*
X117018548Y-107085001D01*
X117122058Y-107335515D01*
X117412954Y-107626919D01*
X117793223Y-107784820D01*
X118204971Y-107785179D01*
X118585515Y-107627942D01*
X118876919Y-107337046D01*
X119034820Y-106956777D01*
X119035179Y-106545029D01*
X119026853Y-106524879D01*
X119040301Y-106538327D01*
X119273690Y-106635000D01*
X119714250Y-106635000D01*
X119873000Y-106476250D01*
X119873000Y-104877000D01*
X119853000Y-104877000D01*
X119853000Y-104623000D01*
X119873000Y-104623000D01*
X119873000Y-104603000D01*
X120127000Y-104603000D01*
X120127000Y-104623000D01*
X120147000Y-104623000D01*
X120147000Y-104877000D01*
X120127000Y-104877000D01*
X120127000Y-106476250D01*
X120285750Y-106635000D01*
X120473000Y-106635000D01*
X120473000Y-110745002D01*
X120589236Y-111329360D01*
X120780256Y-111615241D01*
X120920248Y-111824754D01*
X122175246Y-113079752D01*
X122670640Y-113410764D01*
X123254998Y-113527000D01*
X124637010Y-113527000D01*
X124831670Y-113818330D01*
X125138303Y-114023215D01*
X125500000Y-114095161D01*
X130500000Y-114095161D01*
X130540000Y-114087205D01*
X130540000Y-117705908D01*
X127705908Y-120540000D01*
X123235000Y-120540000D01*
X123235000Y-119535750D01*
X123076250Y-119377000D01*
X122127000Y-119377000D01*
X122127000Y-119397000D01*
X121873000Y-119397000D01*
X121873000Y-119377000D01*
X121853000Y-119377000D01*
X121853000Y-119123000D01*
X121873000Y-119123000D01*
X121873000Y-117523750D01*
X122127000Y-117523750D01*
X122127000Y-119123000D01*
X123076250Y-119123000D01*
X123235000Y-118964250D01*
X123235000Y-117873691D01*
X123138327Y-117640302D01*
X122959699Y-117461673D01*
X122726310Y-117365000D01*
X122285750Y-117365000D01*
X122127000Y-117523750D01*
X121873000Y-117523750D01*
X121714250Y-117365000D01*
X121273690Y-117365000D01*
X121040301Y-117461673D01*
X120999047Y-117502927D01*
X120847765Y-117401843D01*
X120600000Y-117352560D01*
X119400000Y-117352560D01*
X119152235Y-117401843D01*
X119000000Y-117503564D01*
X118882235Y-117424875D01*
X118877942Y-117414485D01*
X118587046Y-117123081D01*
X118206777Y-116965180D01*
X117795029Y-116964821D01*
X117414485Y-117122058D01*
X117123081Y-117412954D01*
X117118271Y-117424537D01*
X117000000Y-117503564D01*
X116882235Y-117424875D01*
X116877942Y-117414485D01*
X116587046Y-117123081D01*
X116206777Y-116965180D01*
X115795029Y-116964821D01*
X115414485Y-117122058D01*
X115123081Y-117412954D01*
X115118271Y-117424537D01*
X115000000Y-117503564D01*
X114847765Y-117401843D01*
X114775790Y-117387526D01*
X114549393Y-117160734D01*
X114169124Y-117002833D01*
X113757376Y-117002474D01*
X113376832Y-117159711D01*
X113097924Y-117438133D01*
X113000000Y-117503564D01*
X112882235Y-117424875D01*
X112877942Y-117414485D01*
X112587046Y-117123081D01*
X112206777Y-116965180D01*
X111795029Y-116964821D01*
X111414485Y-117122058D01*
X111123081Y-117412954D01*
X111118271Y-117424537D01*
X111000000Y-117503564D01*
X110882235Y-117424875D01*
X110877942Y-117414485D01*
X110587046Y-117123081D01*
X110206777Y-116965180D01*
X109795029Y-116964821D01*
X109414485Y-117122058D01*
X109123081Y-117412954D01*
X109118271Y-117424537D01*
X109000953Y-117502927D01*
X108959699Y-117461673D01*
X108726310Y-117365000D01*
X108285750Y-117365000D01*
X108127000Y-117523750D01*
X108127000Y-119123000D01*
X108147000Y-119123000D01*
X108147000Y-119377000D01*
X108127000Y-119377000D01*
X108127000Y-119397000D01*
X107873000Y-119397000D01*
X107873000Y-119377000D01*
X106923750Y-119377000D01*
X106765000Y-119535750D01*
X106765000Y-120540000D01*
X102544091Y-120540000D01*
X101563121Y-119559030D01*
X102196418Y-119685000D01*
X103803582Y-119685000D01*
X104563209Y-119533901D01*
X105207189Y-119103607D01*
X105637483Y-118459627D01*
X105754032Y-117873691D01*
X106765000Y-117873691D01*
X106765000Y-118964250D01*
X106923750Y-119123000D01*
X107873000Y-119123000D01*
X107873000Y-117523750D01*
X107714250Y-117365000D01*
X107273690Y-117365000D01*
X107040301Y-117461673D01*
X106861673Y-117640302D01*
X106765000Y-117873691D01*
X105754032Y-117873691D01*
X105788582Y-117700000D01*
X105637483Y-116940373D01*
X105551671Y-116811946D01*
X105883515Y-116674831D01*
X106273461Y-116285564D01*
X106484759Y-115776702D01*
X106485240Y-115225715D01*
X106274831Y-114716485D01*
X105885564Y-114326539D01*
X105701414Y-114250073D01*
X105883515Y-114174831D01*
X106273461Y-113785564D01*
X106484759Y-113276702D01*
X106485240Y-112725715D01*
X106274831Y-112216485D01*
X106058687Y-111999964D01*
X106273461Y-111785564D01*
X106484759Y-111276702D01*
X106485240Y-110725715D01*
X106274831Y-110216485D01*
X105885564Y-109826539D01*
X105717246Y-109756647D01*
X105823923Y-109712460D01*
X105891912Y-109471517D01*
X105100000Y-108679605D01*
X105085858Y-108693748D01*
X104906253Y-108514143D01*
X104920395Y-108500000D01*
X105279605Y-108500000D01*
X106071517Y-109291912D01*
X106312460Y-109223923D01*
X106497201Y-108704829D01*
X106469230Y-108154552D01*
X106312460Y-107776077D01*
X106071517Y-107708088D01*
X105279605Y-108500000D01*
X104920395Y-108500000D01*
X104906253Y-108485858D01*
X105085858Y-108306253D01*
X105100000Y-108320395D01*
X105891912Y-107528483D01*
X105823923Y-107287540D01*
X105550271Y-107190150D01*
X105637483Y-107059627D01*
X105788582Y-106300000D01*
X105637483Y-105540373D01*
X105207189Y-104896393D01*
X104563209Y-104466099D01*
X103803582Y-104315000D01*
X102196418Y-104315000D01*
X101607255Y-104432192D01*
X102579447Y-103460000D01*
X106760516Y-103460000D01*
X106752560Y-103500000D01*
X106752560Y-103500000D01*
G37*
X106752560Y-103500000D02*
X106752560Y-106000000D01*
X106801843Y-106247765D01*
X106942191Y-106457809D01*
X107152235Y-106598157D01*
X107400000Y-106647440D01*
X108600000Y-106647440D01*
X108847765Y-106598157D01*
X109000000Y-106496436D01*
X109152235Y-106598157D01*
X109400000Y-106647440D01*
X110600000Y-106647440D01*
X110847765Y-106598157D01*
X111000000Y-106496436D01*
X111152235Y-106598157D01*
X111400000Y-106647440D01*
X112600000Y-106647440D01*
X112847765Y-106598157D01*
X113000000Y-106496436D01*
X113152235Y-106598157D01*
X113400000Y-106647440D01*
X113402489Y-106647440D01*
X113462599Y-106737401D01*
X113587600Y-106862402D01*
X113834162Y-107027149D01*
X114125001Y-107085001D01*
X117018548Y-107085001D01*
X117122058Y-107335515D01*
X117412954Y-107626919D01*
X117793223Y-107784820D01*
X118204971Y-107785179D01*
X118585515Y-107627942D01*
X118876919Y-107337046D01*
X119034820Y-106956777D01*
X119035179Y-106545029D01*
X119026853Y-106524879D01*
X119040301Y-106538327D01*
X119273690Y-106635000D01*
X119714250Y-106635000D01*
X119873000Y-106476250D01*
X119873000Y-104877000D01*
X119853000Y-104877000D01*
X119853000Y-104623000D01*
X119873000Y-104623000D01*
X119873000Y-104603000D01*
X120127000Y-104603000D01*
X120127000Y-104623000D01*
X120147000Y-104623000D01*
X120147000Y-104877000D01*
X120127000Y-104877000D01*
X120127000Y-106476250D01*
X120285750Y-106635000D01*
X120473000Y-106635000D01*
X120473000Y-110745002D01*
X120589236Y-111329360D01*
X120780256Y-111615241D01*
X120920248Y-111824754D01*
X122175246Y-113079752D01*
X122670640Y-113410764D01*
X123254998Y-113527000D01*
X124637010Y-113527000D01*
X124831670Y-113818330D01*
X125138303Y-114023215D01*
X125500000Y-114095161D01*
X130500000Y-114095161D01*
X130540000Y-114087205D01*
X130540000Y-117705908D01*
X127705908Y-120540000D01*
X123235000Y-120540000D01*
X123235000Y-119535750D01*
X123076250Y-119377000D01*
X122127000Y-119377000D01*
X122127000Y-119397000D01*
X121873000Y-119397000D01*
X121873000Y-119377000D01*
X121853000Y-119377000D01*
X121853000Y-119123000D01*
X121873000Y-119123000D01*
X121873000Y-117523750D01*
X122127000Y-117523750D01*
X122127000Y-119123000D01*
X123076250Y-119123000D01*
X123235000Y-118964250D01*
X123235000Y-117873691D01*
X123138327Y-117640302D01*
X122959699Y-117461673D01*
X122726310Y-117365000D01*
X122285750Y-117365000D01*
X122127000Y-117523750D01*
X121873000Y-117523750D01*
X121714250Y-117365000D01*
X121273690Y-117365000D01*
X121040301Y-117461673D01*
X120999047Y-117502927D01*
X120847765Y-117401843D01*
X120600000Y-117352560D01*
X119400000Y-117352560D01*
X119152235Y-117401843D01*
X119000000Y-117503564D01*
X118882235Y-117424875D01*
X118877942Y-117414485D01*
X118587046Y-117123081D01*
X118206777Y-116965180D01*
X117795029Y-116964821D01*
X117414485Y-117122058D01*
X117123081Y-117412954D01*
X117118271Y-117424537D01*
X117000000Y-117503564D01*
X116882235Y-117424875D01*
X116877942Y-117414485D01*
X116587046Y-117123081D01*
X116206777Y-116965180D01*
X115795029Y-116964821D01*
X115414485Y-117122058D01*
X115123081Y-117412954D01*
X115118271Y-117424537D01*
X115000000Y-117503564D01*
X114847765Y-117401843D01*
X114775790Y-117387526D01*
X114549393Y-117160734D01*
X114169124Y-117002833D01*
X113757376Y-117002474D01*
X113376832Y-117159711D01*
X113097924Y-117438133D01*
X113000000Y-117503564D01*
X112882235Y-117424875D01*
X112877942Y-117414485D01*
X112587046Y-117123081D01*
X112206777Y-116965180D01*
X111795029Y-116964821D01*
X111414485Y-117122058D01*
X111123081Y-117412954D01*
X111118271Y-117424537D01*
X111000000Y-117503564D01*
X110882235Y-117424875D01*
X110877942Y-117414485D01*
X110587046Y-117123081D01*
X110206777Y-116965180D01*
X109795029Y-116964821D01*
X109414485Y-117122058D01*
X109123081Y-117412954D01*
X109118271Y-117424537D01*
X109000953Y-117502927D01*
X108959699Y-117461673D01*
X108726310Y-117365000D01*
X108285750Y-117365000D01*
X108127000Y-117523750D01*
X108127000Y-119123000D01*
X108147000Y-119123000D01*
X108147000Y-119377000D01*
X108127000Y-119377000D01*
X108127000Y-119397000D01*
X107873000Y-119397000D01*
X107873000Y-119377000D01*
X106923750Y-119377000D01*
X106765000Y-119535750D01*
X106765000Y-120540000D01*
X102544091Y-120540000D01*
X101563121Y-119559030D01*
X102196418Y-119685000D01*
X103803582Y-119685000D01*
X104563209Y-119533901D01*
X105207189Y-119103607D01*
X105637483Y-118459627D01*
X105754032Y-117873691D01*
X106765000Y-117873691D01*
X106765000Y-118964250D01*
X106923750Y-119123000D01*
X107873000Y-119123000D01*
X107873000Y-117523750D01*
X107714250Y-117365000D01*
X107273690Y-117365000D01*
X107040301Y-117461673D01*
X106861673Y-117640302D01*
X106765000Y-117873691D01*
X105754032Y-117873691D01*
X105788582Y-117700000D01*
X105637483Y-116940373D01*
X105551671Y-116811946D01*
X105883515Y-116674831D01*
X106273461Y-116285564D01*
X106484759Y-115776702D01*
X106485240Y-115225715D01*
X106274831Y-114716485D01*
X105885564Y-114326539D01*
X105701414Y-114250073D01*
X105883515Y-114174831D01*
X106273461Y-113785564D01*
X106484759Y-113276702D01*
X106485240Y-112725715D01*
X106274831Y-112216485D01*
X106058687Y-111999964D01*
X106273461Y-111785564D01*
X106484759Y-111276702D01*
X106485240Y-110725715D01*
X106274831Y-110216485D01*
X105885564Y-109826539D01*
X105717246Y-109756647D01*
X105823923Y-109712460D01*
X105891912Y-109471517D01*
X105100000Y-108679605D01*
X105085858Y-108693748D01*
X104906253Y-108514143D01*
X104920395Y-108500000D01*
X105279605Y-108500000D01*
X106071517Y-109291912D01*
X106312460Y-109223923D01*
X106497201Y-108704829D01*
X106469230Y-108154552D01*
X106312460Y-107776077D01*
X106071517Y-107708088D01*
X105279605Y-108500000D01*
X104920395Y-108500000D01*
X104906253Y-108485858D01*
X105085858Y-108306253D01*
X105100000Y-108320395D01*
X105891912Y-107528483D01*
X105823923Y-107287540D01*
X105550271Y-107190150D01*
X105637483Y-107059627D01*
X105788582Y-106300000D01*
X105637483Y-105540373D01*
X105207189Y-104896393D01*
X104563209Y-104466099D01*
X103803582Y-104315000D01*
X102196418Y-104315000D01*
X101607255Y-104432192D01*
X102579447Y-103460000D01*
X106760516Y-103460000D01*
X106752560Y-103500000D01*
G36*
X130540000Y-106294092D02*
X130540000Y-109912795D01*
X130500000Y-109904839D01*
X125635000Y-109904839D01*
X125635000Y-109785750D01*
X125476250Y-109627000D01*
X124627000Y-109627000D01*
X124627000Y-109647000D01*
X124373000Y-109647000D01*
X124373000Y-109627000D01*
X124353000Y-109627000D01*
X124353000Y-109373000D01*
X124373000Y-109373000D01*
X124373000Y-108548750D01*
X124627000Y-108548750D01*
X124627000Y-109373000D01*
X125476250Y-109373000D01*
X125635000Y-109214250D01*
X125635000Y-108898691D01*
X125538327Y-108665302D01*
X125359699Y-108486673D01*
X125126310Y-108390000D01*
X124785750Y-108390000D01*
X124627000Y-108548750D01*
X124373000Y-108548750D01*
X124214250Y-108390000D01*
X123873690Y-108390000D01*
X123640301Y-108486673D01*
X123527000Y-108599975D01*
X123527000Y-106091302D01*
X123545161Y-106000000D01*
X123545161Y-103500000D01*
X123537205Y-103460000D01*
X127705908Y-103460000D01*
X130540000Y-106294092D01*
X130540000Y-106294092D01*
G37*
X130540000Y-106294092D02*
X130540000Y-109912795D01*
X130500000Y-109904839D01*
X125635000Y-109904839D01*
X125635000Y-109785750D01*
X125476250Y-109627000D01*
X124627000Y-109627000D01*
X124627000Y-109647000D01*
X124373000Y-109647000D01*
X124373000Y-109627000D01*
X124353000Y-109627000D01*
X124353000Y-109373000D01*
X124373000Y-109373000D01*
X124373000Y-108548750D01*
X124627000Y-108548750D01*
X124627000Y-109373000D01*
X125476250Y-109373000D01*
X125635000Y-109214250D01*
X125635000Y-108898691D01*
X125538327Y-108665302D01*
X125359699Y-108486673D01*
X125126310Y-108390000D01*
X124785750Y-108390000D01*
X124627000Y-108548750D01*
X124373000Y-108548750D01*
X124214250Y-108390000D01*
X123873690Y-108390000D01*
X123640301Y-108486673D01*
X123527000Y-108599975D01*
X123527000Y-106091302D01*
X123545161Y-106000000D01*
X123545161Y-103500000D01*
X123537205Y-103460000D01*
X127705908Y-103460000D01*
X130540000Y-106294092D01*
M02*
