M48
;DRILL file {KiCad no-vcs-found-a20cce0~59~ubuntu16.04.1} date Mon Aug 21 15:17:35 2017
;FORMAT={-:-/ absolute / inch / decimal}
FMAT,2
INCH,TZ
T1C0.016
T2C0.036
T3C0.039
%
G90
G05
M72
T1
X4.1378Y-4.0984
X4.1811Y-4.6949
X4.2598Y-4.6043
X4.3307Y-4.6457
X4.4094Y-4.6457
X4.4867Y-4.6472
X4.5669Y-4.6457
X4.5709Y-4.2402
X4.6457Y-4.2028
X4.6457Y-4.6457
X4.7244Y-4.2126
X4.7244Y-4.252
X4.7244Y-4.2913
X4.7244Y-4.3307
X4.7244Y-4.3701
X4.7244Y-4.4094
X4.7244Y-4.4488
X4.7244Y-4.4882
X4.7244Y-4.5276
X4.7244Y-4.5669
X4.7244Y-4.6063
X4.9606Y-4.311
X4.9606Y-4.5079
X5.Y-4.1043
X5.Y-4.7146
X5.1083Y-4.5079
X5.1181Y-4.311
T2
X4.1378Y-4.2717
X4.1378Y-4.3701
X4.1378Y-4.4488
X4.1378Y-4.5472
T3
X4.0846Y-4.185G85X4.0256Y-4.185
G05
X4.0846Y-4.6339G85X4.0256Y-4.6339
G05
T0
M30
