G04 #@! TF.GenerationSoftware,KiCad,Pcbnew,no-vcs-found-a20cce0~59~ubuntu16.04.1*
G04 #@! TF.CreationDate,2017-08-21T15:18:52+01:00*
G04 #@! TF.ProjectId,okgo2usbcontrol,6F6B676F32757362636F6E74726F6C2E,rev?*
G04 #@! TF.SameCoordinates,Original*
G04 #@! TF.FileFunction,Soldermask,Bot*
G04 #@! TF.FilePolarity,Negative*
%FSLAX46Y46*%
G04 Gerber Fmt 4.6, Leading zero omitted, Abs format (unit mm)*
G04 Created by KiCad (PCBNEW no-vcs-found-a20cce0~59~ubuntu16.04.1) date Mon Aug 21 15:18:52 2017*
%MOMM*%
%LPD*%
G01*
G04 APERTURE LIST*
%ADD10R,0.620000X0.620000*%
%ADD11R,1.200000X0.500000*%
%ADD12R,0.500000X1.200000*%
%ADD13R,1.450000X0.450000*%
%ADD14R,5.000000X2.400000*%
%ADD15C,1.500000*%
%ADD16O,4.200000X2.700000*%
G04 APERTURE END LIST*
D10*
X118000000Y-105450000D03*
X118000000Y-104550000D03*
X116750000Y-104550000D03*
X116750000Y-105450000D03*
X117650000Y-112400000D03*
X118550000Y-112400000D03*
X118550000Y-109200000D03*
X117650000Y-109200000D03*
X106100000Y-104550000D03*
X106100000Y-103650000D03*
X106250000Y-118200000D03*
X106250000Y-117300000D03*
X117650000Y-108000000D03*
X118550000Y-108000000D03*
X118550000Y-113600000D03*
X117650000Y-113600000D03*
X114000000Y-104500000D03*
X114000000Y-105400000D03*
D11*
X116200000Y-109200000D03*
X116200000Y-110000000D03*
X116200000Y-110800000D03*
X116200000Y-111600000D03*
X116200000Y-112400000D03*
X116200000Y-113200000D03*
X116200000Y-114000000D03*
X116200000Y-114800000D03*
D12*
X114800000Y-116200000D03*
X114000000Y-116200000D03*
X113200000Y-116200000D03*
X112400000Y-116200000D03*
X111600000Y-116200000D03*
X110800000Y-116200000D03*
X110000000Y-116200000D03*
X109200000Y-116200000D03*
D11*
X107800000Y-114800000D03*
X107800000Y-114000000D03*
X107800000Y-113200000D03*
X107800000Y-112400000D03*
X107800000Y-111600000D03*
X107800000Y-110800000D03*
X107800000Y-110000000D03*
X107800000Y-109200000D03*
D12*
X109200000Y-107800000D03*
X110000000Y-107800000D03*
X110800000Y-107800000D03*
X111600000Y-107800000D03*
X112400000Y-107800000D03*
X113200000Y-107800000D03*
X114000000Y-107800000D03*
X114800000Y-107800000D03*
D13*
X112150000Y-103850000D03*
X112150000Y-104500000D03*
X112150000Y-105150000D03*
X112150000Y-105800000D03*
X107750000Y-105800000D03*
X107750000Y-105150000D03*
X107750000Y-104500000D03*
X107750000Y-103850000D03*
D14*
X128000000Y-116375000D03*
X128000000Y-107625000D03*
D15*
X105100000Y-115500000D03*
X105100000Y-113000000D03*
X105100000Y-111000000D03*
X105100000Y-108500000D03*
D16*
X103000000Y-117700000D03*
X103000000Y-106300000D03*
M02*
