<?xml version="1.0" encoding="UTF-8" standalone="no"?>
<!-- Created with Inkscape (http://www.inkscape.org/) -->

<svg
   xmlns:dc="http://purl.org/dc/elements/1.1/"
   xmlns:cc="http://creativecommons.org/ns#"
   xmlns:rdf="http://www.w3.org/1999/02/22-rdf-syntax-ns#"
   xmlns:svg="http://www.w3.org/2000/svg"
   xmlns="http://www.w3.org/2000/svg"
   xmlns:sodipodi="http://sodipodi.sourceforge.net/DTD/sodipodi-0.dtd"
   xmlns:inkscape="http://www.inkscape.org/namespaces/inkscape"
   width="744.09448"
   height="1052.3622"
   id="svg2"
   version="1.1"
   inkscape:version="0.48.4 r9939"
   sodipodi:docname="control_milling.svg">
  <defs
     id="defs4" />
  <sodipodi:namedview
     id="base"
     pagecolor="#ffffff"
     bordercolor="#666666"
     borderopacity="1.0"
     inkscape:pageopacity="0.0"
     inkscape:pageshadow="2"
     inkscape:zoom="0.9899495"
     inkscape:cx="254.76464"
     inkscape:cy="344.42482"
     inkscape:document-units="mm"
     inkscape:current-layer="layer1"
     showgrid="false"
     inkscape:window-width="1278"
     inkscape:window-height="779"
     inkscape:window-x="0"
     inkscape:window-y="19"
     inkscape:window-maximized="0"
     units="mm" />
  <metadata
     id="metadata7">
    <rdf:RDF>
      <cc:Work
         rdf:about="">
        <dc:format>image/svg+xml</dc:format>
        <dc:type
           rdf:resource="http://purl.org/dc/dcmitype/StillImage" />
        <dc:title></dc:title>
      </cc:Work>
    </rdf:RDF>
  </metadata>
  <g
     inkscape:label="Layer 1"
     inkscape:groupmode="layer"
     id="layer1">
    <rect
       style="fill:none;stroke:#ff0000;stroke-width:1;stroke-miterlimit:4;stroke-opacity:1;stroke-dasharray:none"
       id="rect3023"
       width="212.47488"
       height="439.24484"
       x="247.85641"
       y="458.83203"
       rx="7.0866141"
       ry="7.0866141" />
    <g
       id="g4324-4-5-2"
       transform="translate(-2.08741,-292.24298)"
       style="stroke-width:1;stroke-miterlimit:4;stroke-dasharray:none">
      <g
         id="g4320-6-8-2"
         style="stroke:#ffff00;stroke-opacity:1;stroke-width:1;stroke-miterlimit:4;stroke-dasharray:none">
        <path
           sodipodi:type="arc"
           style="fill:none;fill-opacity:1;stroke:#ffff00;stroke-opacity:1;stroke-width:1.81030551;stroke-miterlimit:4;stroke-dasharray:none"
           id="path4261-0-5-7"
           sodipodi:cx="424.01154"
           sodipodi:cy="565.55005"
           sodipodi:rx="32.072342"
           sodipodi:ry="32.072342"
           d="m 456.08388,565.55005 a 32.072342,32.072342 0 1 1 -64.14469,0 32.072342,32.072342 0 1 1 64.14469,0 z"
           transform="matrix(0.55239295,0,0,0.55239295,172.77343,575.7677)" />
      </g>
      <path
         transform="matrix(1.2471805,0,0,1.2471805,7.9392812,181.57075)"
         d="m 331.33004,566.56018 c 0,6.27628 -5.08794,11.36422 -11.36422,11.36422 -6.27628,0 -11.36422,-5.08794 -11.36422,-11.36422 0,-6.27628 5.08794,-11.36422 11.36422,-11.36422 6.27628,0 11.36422,5.08794 11.36422,11.36422 z"
         sodipodi:ry="11.364216"
         sodipodi:rx="11.364216"
         sodipodi:cy="566.56018"
         sodipodi:cx="319.96582"
         id="path4259-3-1-3"
         style="fill:none;fill-opacity:1;stroke:#ff0000;stroke-opacity:1;stroke-width:0.80180856;stroke-miterlimit:4;stroke-dasharray:none"
         sodipodi:type="arc" />
    </g>
    <rect
       style="fill:none;fill-opacity:1;stroke:#ffff00;stroke-width:1;stroke-miterlimit:4;stroke-opacity:1;stroke-dasharray:none"
       id="rect3365"
       width="61.533878"
       height="82.797302"
       x="277.93976"
       y="514.82465" />
    <rect
       style="fill:none;fill-opacity:1;stroke:#ff0000;stroke-width:1;stroke-miterlimit:4;stroke-opacity:1;stroke-dasharray:none"
       id="rect3363"
       width="46.062992"
       height="70.157478"
       x="285.6752"
       y="521.14453" />
    <path
       sodipodi:type="arc"
       style="fill:none;fill-opacity:1;stroke:#ffff00;stroke-width:0.51994441999999996;stroke-miterlimit:4;stroke-opacity:1;stroke-dasharray:none"
       id="path3373"
       sodipodi:cx="55.053314"
       sodipodi:cy="644.76562"
       sodipodi:rx="20.203051"
       sodipodi:ry="20.203051"
       d="m 75.256365,644.76562 a 20.203051,20.203051 0 1 1 -40.406101,0 20.203051,20.203051 0 1 1 40.406101,0 z"
       transform="matrix(1.9232825,0,0,1.9232825,299.02393,-719.15448)" />
    <path
       sodipodi:type="arc"
       style="fill:none;fill-opacity:1;stroke:#ff0000;stroke-width:1.07316798999999996;stroke-miterlimit:4;stroke-opacity:1;stroke-dasharray:none"
       id="path3371"
       sodipodi:cx="88.214287"
       sodipodi:cy="609.86218"
       sodipodi:rx="30.357143"
       sodipodi:ry="30.357143"
       d="m 118.57143,609.86218 a 30.357143,30.357143 0 1 1 -60.714287,0 30.357143,30.357143 0 1 1 60.714287,0 z"
       transform="matrix(0.93184715,0,0,0.93179398,322.70477,-47.353947)" />
    <path
       sodipodi:type="arc"
       style="fill:none;fill-opacity:1;stroke:#ffff00;stroke-width:1.63262801;stroke-miterlimit:4;stroke-opacity:1;stroke-dasharray:none"
       id="path3381"
       sodipodi:cx="-38.57143"
       sodipodi:cy="695.93359"
       sodipodi:rx="63.571426"
       sodipodi:ry="63.571426"
       d="m 24.999996,695.93359 a 63.571426,63.571426 0 1 1 -127.142856,0 63.571426,63.571426 0 1 1 127.142856,0 z"
       transform="matrix(0.6125094,0,0,0.6125094,331.82495,258.03957)" />
    <path
       sodipodi:type="arc"
       style="fill:none;fill-opacity:1;stroke:#ff0000;stroke-width:1.25381995;stroke-miterlimit:4;stroke-opacity:1;stroke-dasharray:none"
       id="path3379"
       sodipodi:cx="45"
       sodipodi:cy="663.79077"
       sodipodi:rx="42.142857"
       sodipodi:ry="42.142857"
       d="m 87.142857,663.79077 a 42.142857,42.142857 0 1 1 -84.2857136,0 42.142857,42.142857 0 1 1 84.2857136,0 z"
       transform="matrix(0.79756268,0,0,0.79756268,272.30927,154.89069)" />
    <path
       sodipodi:type="arc"
       style="fill:none;fill-opacity:1;stroke:#ffff00;stroke-width:1.63262801;stroke-miterlimit:4;stroke-opacity:1;stroke-dasharray:none"
       id="path3381-7"
       sodipodi:cx="-38.57143"
       sodipodi:cy="695.93359"
       sodipodi:rx="63.571426"
       sodipodi:ry="63.571426"
       d="m 24.999996,695.93359 a 63.571426,63.571426 0 1 1 -127.142856,0 63.571426,63.571426 0 1 1 127.142856,0 z"
       transform="matrix(0.6125094,0,0,0.6125094,422.62536,258.03957)" />
    <path
       sodipodi:type="arc"
       style="fill:none;fill-opacity:1;stroke:#ff0000;stroke-width:1.25381995;stroke-miterlimit:4;stroke-opacity:1;stroke-dasharray:none"
       id="path3379-0"
       sodipodi:cx="45"
       sodipodi:cy="663.79077"
       sodipodi:rx="42.142857"
       sodipodi:ry="42.142857"
       d="m 87.142857,663.79077 a 42.142857,42.142857 0 1 1 -84.2857136,0 42.142857,42.142857 0 1 1 84.2857136,0 z"
       transform="matrix(0.79756268,0,0,0.79756268,363.10968,154.89069)" />
    <path
       sodipodi:type="arc"
       style="fill:none;fill-opacity:1;stroke:#ffff00;stroke-width:1.63262801;stroke-miterlimit:4;stroke-opacity:1;stroke-dasharray:none"
       id="path3381-3"
       sodipodi:cx="-38.57143"
       sodipodi:cy="695.93359"
       sodipodi:rx="63.571426"
       sodipodi:ry="63.571426"
       d="m 24.999996,695.93359 a 63.571426,63.571426 0 1 1 -127.142856,0 63.571426,63.571426 0 1 1 127.142856,0 z"
       transform="matrix(0.6125094,0,0,0.6125094,331.82495,381.8106)" />
    <path
       sodipodi:type="arc"
       style="fill:none;fill-opacity:1;stroke:#ff0000;stroke-width:1.25381995;stroke-miterlimit:4;stroke-opacity:1;stroke-dasharray:none"
       id="path3379-6"
       sodipodi:cx="45"
       sodipodi:cy="663.79077"
       sodipodi:rx="42.142857"
       sodipodi:ry="42.142857"
       d="m 87.142857,663.79077 a 42.142857,42.142857 0 1 1 -84.2857136,0 42.142857,42.142857 0 1 1 84.2857136,0 z"
       transform="matrix(0.79756268,0,0,0.79756268,272.30927,278.66172)" />
    <path
       sodipodi:type="arc"
       style="fill:none;fill-opacity:1;stroke:#ffff00;stroke-width:1.63262801;stroke-miterlimit:4;stroke-opacity:1;stroke-dasharray:none"
       id="path3381-0"
       sodipodi:cx="-38.57143"
       sodipodi:cy="695.93359"
       sodipodi:rx="63.571426"
       sodipodi:ry="63.571426"
       d="m 24.999996,695.93359 a 63.571426,63.571426 0 1 1 -127.142856,0 63.571426,63.571426 0 1 1 127.142856,0 z"
       transform="matrix(0.6125094,0,0,0.6125094,422.62536,381.8106)" />
    <path
       sodipodi:type="arc"
       style="fill:none;fill-opacity:1;stroke:#ff0000;stroke-width:1.25381995;stroke-miterlimit:4;stroke-opacity:1;stroke-dasharray:none"
       id="path3379-8"
       sodipodi:cx="45"
       sodipodi:cy="663.79077"
       sodipodi:rx="42.142857"
       sodipodi:ry="42.142857"
       d="m 87.142857,663.79077 a 42.142857,42.142857 0 1 1 -84.2857136,0 42.142857,42.142857 0 1 1 84.2857136,0 z"
       transform="matrix(0.79756268,0,0,0.79756268,363.10968,278.66172)" />
  </g>
</svg>
