<?xml version="1.0" encoding="UTF-8" standalone="no"?>
<!-- Created with Inkscape (http://www.inkscape.org/) -->

<svg
   xmlns:dc="http://purl.org/dc/elements/1.1/"
   xmlns:cc="http://creativecommons.org/ns#"
   xmlns:rdf="http://www.w3.org/1999/02/22-rdf-syntax-ns#"
   xmlns:svg="http://www.w3.org/2000/svg"
   xmlns="http://www.w3.org/2000/svg"
   xmlns:sodipodi="http://sodipodi.sourceforge.net/DTD/sodipodi-0.dtd"
   xmlns:inkscape="http://www.inkscape.org/namespaces/inkscape"
   width="1052.3622"
   height="744.09448"
   id="svg3011"
   version="1.1"
   inkscape:version="0.48.4 r9939"
   sodipodi:docname="ignition_milling.svg">
  <defs
     id="defs3013" />
  <sodipodi:namedview
     id="base"
     pagecolor="#ffffff"
     bordercolor="#666666"
     borderopacity="1.0"
     inkscape:pageopacity="0.0"
     inkscape:pageshadow="2"
     inkscape:zoom="1"
     inkscape:cx="442.54542"
     inkscape:cy="395.89874"
     inkscape:document-units="mm"
     inkscape:current-layer="layer1"
     showgrid="false"
     inkscape:window-width="1278"
     inkscape:window-height="779"
     inkscape:window-x="0"
     inkscape:window-y="19"
     inkscape:window-maximized="0" />
  <metadata
     id="metadata3016">
    <rdf:RDF>
      <cc:Work
         rdf:about="">
        <dc:format>image/svg+xml</dc:format>
        <dc:type
           rdf:resource="http://purl.org/dc/dcmitype/StillImage" />
        <dc:title />
      </cc:Work>
    </rdf:RDF>
  </metadata>
  <g
     inkscape:label="Layer 1"
     inkscape:groupmode="layer"
     id="layer1"
     transform="translate(0,-308.2677)">
    <g
       id="g3791-1-3-6"
       transform="translate(10.808758,106.46526)"
       style="fill:none;stroke:#000000;stroke-opacity:1">
      <rect
         y="352.36218"
         x="195.71428"
         height="425.19684"
         width="637.79529"
         id="rect3019-5-0-0"
         style="fill:none;fill-opacity:1;stroke:#000000;stroke-opacity:1" />
      <rect
         y="365.10217"
         x="252.74562"
         height="399.71686"
         width="523.7326"
         id="rect3021-5-7-3"
         style="fill:none;fill-opacity:1;stroke:#000000;stroke-opacity:1" />
    </g>
    <rect
       style="fill:none;fill-opacity:1;stroke:#ffff00;stroke-opacity:1;stroke-width:0.99921260000000001;stroke-miterlimit:4;stroke-dasharray:none"
       id="rect4035-0-4-6"
       width="164.76378"
       height="164.76378"
       x="405.75345"
       y="484.85294" />
    <g
       id="g4030-1-4-0"
       transform="translate(189.54984,-281.58123)"
       style="fill:none;stroke:#ff0000;stroke-opacity:1">
      <path
         transform="matrix(1.9267147,0,0,1.9267147,-324.95261,-171.98794)"
         d="m 350.01786,529.81586 c 0,14.57492 -11.81531,26.39023 -26.39024,26.39023 -14.57492,0 -26.39023,-11.81531 -26.39023,-26.39023 0,-14.57493 11.81531,-26.39024 26.39023,-26.39024 14.57493,0 26.39024,11.81531 26.39024,26.39024 z"
         sodipodi:ry="26.390236"
         sodipodi:rx="26.390236"
         sodipodi:cy="529.81586"
         sodipodi:cx="323.62762"
         id="path4006-3-5-3"
         style="fill:none;fill-opacity:1;stroke:#ff0000;stroke-opacity:1"
         sodipodi:type="arc" />
      <path
         transform="matrix(2.3517059,0,0,2.3517059,-350.85589,-361.84902)"
         d="m 260.17857,496.41592 c 0,1.3314 -1.07932,2.41072 -2.41072,2.41072 -1.3314,0 -2.41071,-1.07932 -2.41071,-2.41072 0,-1.3314 1.07931,-2.41071 2.41071,-2.41071 1.3314,0 2.41072,1.07931 2.41072,2.41071 z"
         sodipodi:ry="2.4107144"
         sodipodi:rx="2.4107144"
         sodipodi:cy="496.41592"
         sodipodi:cx="257.76785"
         id="path4010-6-0-5"
         style="fill:none;fill-opacity:1;stroke:#ff0000;stroke-opacity:1"
         sodipodi:type="arc" />
      <path
         transform="matrix(2.3517059,0,0,2.3517059,-264.46203,-275.46386)"
         d="m 260.17857,496.41592 c 0,1.3314 -1.07932,2.41072 -2.41072,2.41072 -1.3314,0 -2.41071,-1.07932 -2.41071,-2.41072 0,-1.3314 1.07931,-2.41071 2.41071,-2.41071 1.3314,0 2.41072,1.07931 2.41072,2.41071 z"
         sodipodi:ry="2.4107144"
         sodipodi:rx="2.4107144"
         sodipodi:cy="496.41592"
         sodipodi:cx="257.76785"
         id="path4010-2-47-2-6"
         style="fill:none;fill-opacity:1;stroke:#ff0000;stroke-opacity:1"
         sodipodi:type="arc" />
    </g>
    <rect
       style="fill:none;fill-opacity:1;stroke:#ffff00;stroke-opacity:1;stroke-width:0.99921260000000001;stroke-miterlimit:4;stroke-dasharray:none"
       id="rect4035-1-7-1-5"
       width="164.76378"
       height="164.76378"
       x="598.51721"
       y="484.85294" />
    <g
       id="g4030-2-2-7-1"
       transform="translate(382.31364,-281.58121)"
       style="fill:none;stroke:#ff0000;stroke-opacity:1">
      <path
         transform="matrix(1.9267147,0,0,1.9267147,-324.95261,-171.98794)"
         d="m 350.01786,529.81586 c 0,14.57492 -11.81531,26.39023 -26.39024,26.39023 -14.57492,0 -26.39023,-11.81531 -26.39023,-26.39023 0,-14.57493 11.81531,-26.39024 26.39023,-26.39024 14.57493,0 26.39024,11.81531 26.39024,26.39024 z"
         sodipodi:ry="26.390236"
         sodipodi:rx="26.390236"
         sodipodi:cy="529.81586"
         sodipodi:cx="323.62762"
         id="path4006-8-27-1-9"
         style="fill:none;fill-opacity:1;stroke:#ff0000;stroke-opacity:1"
         sodipodi:type="arc" />
      <path
         transform="matrix(2.3517059,0,0,2.3517059,-350.85589,-361.84902)"
         d="m 260.17857,496.41592 c 0,1.3314 -1.07932,2.41072 -2.41072,2.41072 -1.3314,0 -2.41071,-1.07932 -2.41071,-2.41072 0,-1.3314 1.07931,-2.41071 2.41071,-2.41071 1.3314,0 2.41072,1.07931 2.41072,2.41071 z"
         sodipodi:ry="2.4107144"
         sodipodi:rx="2.4107144"
         sodipodi:cy="496.41592"
         sodipodi:cx="257.76785"
         id="path4010-1-9-3-3"
         style="fill:none;fill-opacity:1;stroke:#ff0000;stroke-opacity:1"
         sodipodi:type="arc" />
      <path
         transform="matrix(2.3517059,0,0,2.3517059,-264.46203,-275.46386)"
         d="m 260.17857,496.41592 c 0,1.3314 -1.07932,2.41072 -2.41072,2.41072 -1.3314,0 -2.41071,-1.07932 -2.41071,-2.41072 0,-1.3314 1.07931,-2.41071 2.41071,-2.41071 1.3314,0 2.41072,1.07931 2.41072,2.41071 z"
         sodipodi:ry="2.4107144"
         sodipodi:rx="2.4107144"
         sodipodi:cy="496.41592"
         sodipodi:cx="257.76785"
         id="path4010-2-0-0-1-0"
         style="fill:none;fill-opacity:1;stroke:#ff0000;stroke-opacity:1"
         sodipodi:type="arc" />
    </g>
    <rect
       style="fill:none;fill-opacity:1;stroke:#ffff00;stroke-opacity:1;stroke-width:0.99921260000000001;stroke-miterlimit:4;stroke-dasharray:none"
       id="rect4035-5-8-6-9"
       width="164.76378"
       height="164.76378"
       x="405.75345"
       y="695.61682" />
    <g
       id="g4030-7-9-9-9"
       transform="translate(189.54981,-70.817306)"
       style="fill:none;stroke:#ff0000;stroke-opacity:1">
      <path
         transform="matrix(1.9267147,0,0,1.9267147,-324.95261,-171.98794)"
         d="m 350.01786,529.81586 c 0,14.57492 -11.81531,26.39023 -26.39024,26.39023 -14.57492,0 -26.39023,-11.81531 -26.39023,-26.39023 0,-14.57493 11.81531,-26.39024 26.39023,-26.39024 14.57493,0 26.39024,11.81531 26.39024,26.39024 z"
         sodipodi:ry="26.390236"
         sodipodi:rx="26.390236"
         sodipodi:cy="529.81586"
         sodipodi:cx="323.62762"
         id="path4006-2-3-7-7"
         style="fill:none;fill-opacity:1;stroke:#ff0000;stroke-opacity:1"
         sodipodi:type="arc" />
      <path
         transform="matrix(2.3517059,0,0,2.3517059,-350.85589,-361.84902)"
         d="m 260.17857,496.41592 c 0,1.3314 -1.07932,2.41072 -2.41072,2.41072 -1.3314,0 -2.41071,-1.07932 -2.41071,-2.41072 0,-1.3314 1.07931,-2.41071 2.41071,-2.41071 1.3314,0 2.41072,1.07931 2.41072,2.41071 z"
         sodipodi:ry="2.4107144"
         sodipodi:rx="2.4107144"
         sodipodi:cy="496.41592"
         sodipodi:cx="257.76785"
         id="path4010-4-0-4-8"
         style="fill:none;fill-opacity:1;stroke:#ff0000;stroke-opacity:1"
         sodipodi:type="arc" />
      <path
         transform="matrix(2.3517059,0,0,2.3517059,-264.46203,-275.46386)"
         d="m 260.17857,496.41592 c 0,1.3314 -1.07932,2.41072 -2.41072,2.41072 -1.3314,0 -2.41071,-1.07932 -2.41071,-2.41072 0,-1.3314 1.07931,-2.41071 2.41071,-2.41071 1.3314,0 2.41072,1.07931 2.41072,2.41071 z"
         sodipodi:ry="2.4107144"
         sodipodi:rx="2.4107144"
         sodipodi:cy="496.41592"
         sodipodi:cx="257.76785"
         id="path4010-2-4-2-1-5"
         style="fill:none;fill-opacity:1;stroke:#ff0000;stroke-opacity:1"
         sodipodi:type="arc" />
    </g>
    <rect
       style="fill:none;fill-opacity:1;stroke:#ffff00;stroke-opacity:1;stroke-width:0.99921260000000001;stroke-miterlimit:4;stroke-dasharray:none"
       id="rect4035-1-2-2-7-4"
       width="164.76378"
       height="164.76378"
       x="598.51721"
       y="695.61682" />
    <g
       id="g4030-2-8-6-4-4"
       transform="translate(382.31362,-70.817286)"
       style="fill:none;stroke:#ff0000;stroke-opacity:1">
      <path
         transform="matrix(1.9267147,0,0,1.9267147,-324.95261,-171.98794)"
         d="m 350.01786,529.81586 c 0,14.57492 -11.81531,26.39023 -26.39024,26.39023 -14.57492,0 -26.39023,-11.81531 -26.39023,-26.39023 0,-14.57493 11.81531,-26.39024 26.39023,-26.39024 14.57493,0 26.39024,11.81531 26.39024,26.39024 z"
         sodipodi:ry="26.390236"
         sodipodi:rx="26.390236"
         sodipodi:cy="529.81586"
         sodipodi:cx="323.62762"
         id="path4006-8-2-8-9-4"
         style="fill:none;fill-opacity:1;stroke:#ff0000;stroke-opacity:1"
         sodipodi:type="arc" />
      <path
         transform="matrix(2.3517059,0,0,2.3517059,-350.85589,-361.84902)"
         d="m 260.17857,496.41592 c 0,1.3314 -1.07932,2.41072 -2.41072,2.41072 -1.3314,0 -2.41071,-1.07932 -2.41071,-2.41072 0,-1.3314 1.07931,-2.41071 2.41071,-2.41071 1.3314,0 2.41072,1.07931 2.41072,2.41071 z"
         sodipodi:ry="2.4107144"
         sodipodi:rx="2.4107144"
         sodipodi:cy="496.41592"
         sodipodi:cx="257.76785"
         id="path4010-1-4-2-9-7"
         style="fill:none;fill-opacity:1;stroke:#ff0000;stroke-opacity:1"
         sodipodi:type="arc" />
      <path
         transform="matrix(2.3517059,0,0,2.3517059,-264.46203,-275.46386)"
         d="m 260.17857,496.41592 c 0,1.3314 -1.07932,2.41072 -2.41072,2.41072 -1.3314,0 -2.41071,-1.07932 -2.41071,-2.41072 0,-1.3314 1.07931,-2.41071 2.41071,-2.41071 1.3314,0 2.41072,1.07931 2.41072,2.41071 z"
         sodipodi:ry="2.4107144"
         sodipodi:rx="2.4107144"
         sodipodi:cy="496.41592"
         sodipodi:cx="257.76785"
         id="path4010-2-0-9-5-6-7"
         style="fill:none;fill-opacity:1;stroke:#ff0000;stroke-opacity:1"
         sodipodi:type="arc" />
    </g>
    <rect
       style="fill:none;fill-opacity:1;stroke:#ffff00;stroke-opacity:1"
       id="rect4239-6-3-3"
       width="97.795273"
       height="128.97638"
       x="284.87585"
       y="730.7467"
       rx="13.110236"
       ry="13.110236" />
    <rect
       style="fill:none;fill-opacity:1;stroke:#ff0000;stroke-opacity:1"
       id="rect4237-8-0-6"
       width="77.952759"
       height="107.00787"
       x="294.79712"
       y="741.73096" />
    <path
       sodipodi:type="arc"
       style="fill:none;fill-opacity:1;stroke:#ffff00;stroke-opacity:1"
       id="path4261-5-2-9-7-3-6"
       sodipodi:cx="424.01154"
       sodipodi:cy="565.55005"
       sodipodi:rx="32.072342"
       sodipodi:ry="32.072342"
       d="m 456.08388,565.55005 a 32.072342,32.072342 0 1 1 -64.14469,0 32.072342,32.072342 0 1 1 64.14469,0 z"
       transform="matrix(0.55239295,0,0,0.55239295,371.1483,360.32217)" />
    <path
       sodipodi:type="arc"
       style="fill:none;fill-opacity:1;stroke:#ff0000;stroke-opacity:1"
       id="path4259-8-2-6-7-4"
       sodipodi:cx="319.96582"
       sodipodi:cy="566.56018"
       sodipodi:rx="11.364216"
       sodipodi:ry="11.364216"
       d="m 331.33004,566.56018 a 11.364216,11.364216 0 1 1 -22.72844,0 11.364216,11.364216 0 1 1 22.72844,0 z"
       transform="matrix(1.2471805,0,0,1.2471805,206.31416,-33.87478)" />
    <path
       sodipodi:type="arc"
       style="fill:none;fill-opacity:1;stroke:#ffff00;stroke-opacity:1"
       id="path4261-5-2-2-5-2-5"
       sodipodi:cx="424.01154"
       sodipodi:cy="565.55005"
       sodipodi:rx="32.072342"
       sodipodi:ry="32.072342"
       d="m 456.08388,565.55005 a 32.072342,32.072342 0 1 1 -64.14469,0 32.072342,32.072342 0 1 1 64.14469,0 z"
       transform="matrix(0.55239295,0,0,0.55239295,329.50608,360.32217)" />
    <path
       sodipodi:type="arc"
       style="fill:none;fill-opacity:1;stroke:#ff0000;stroke-opacity:1"
       id="path4259-8-0-7-1-2"
       sodipodi:cx="319.96582"
       sodipodi:cy="566.56018"
       sodipodi:rx="11.364216"
       sodipodi:ry="11.364216"
       d="m 331.33004,566.56018 a 11.364216,11.364216 0 1 1 -22.72844,0 11.364216,11.364216 0 1 1 22.72844,0 z"
       transform="matrix(1.2471805,0,0,1.2471805,164.67194,-33.87478)" />
    <path
       sodipodi:type="arc"
       style="fill:none;fill-opacity:1;stroke:#ffff00;stroke-opacity:1"
       id="path4261-5-2-94-0-7-2"
       sodipodi:cx="424.01154"
       sodipodi:cy="565.55005"
       sodipodi:rx="32.072342"
       sodipodi:ry="32.072342"
       d="m 456.08388,565.55005 a 32.072342,32.072342 0 1 1 -64.14469,0 32.072342,32.072342 0 1 1 64.14469,0 z"
       transform="matrix(0.55239295,0,0,0.55239295,526.82434,360.32217)" />
    <path
       sodipodi:type="arc"
       style="fill:none;fill-opacity:1;stroke:#ff0000;stroke-opacity:1"
       id="path4259-8-1-9-8-3"
       sodipodi:cx="319.96582"
       sodipodi:cy="566.56018"
       sodipodi:rx="11.364216"
       sodipodi:ry="11.364216"
       d="m 331.33004,566.56018 a 11.364216,11.364216 0 1 1 -22.72844,0 11.364216,11.364216 0 1 1 22.72844,0 z"
       transform="matrix(1.2471805,0,0,1.2471805,361.9902,-33.87478)" />
    <path
       sodipodi:type="arc"
       style="fill:none;fill-opacity:1;stroke:#ffff00;stroke-opacity:1"
       id="path4591-6-6"
       sodipodi:cx="233.97658"
       sodipodi:cy="1279.6016"
       sodipodi:rx="16.541248"
       sodipodi:ry="16.541248"
       d="m 250.51783,1279.6016 a 16.541248,16.541248 0 1 1 -33.0825,0 16.541248,16.541248 0 1 1 33.0825,0 z"
       transform="matrix(3.5344713,0,0,3.5344713,-493.20998,-3901.2083)" />
    <path
       sodipodi:type="arc"
       style="fill:none;fill-opacity:1;stroke:#ff0000;stroke-opacity:1"
       id="path4593-2-9"
       sodipodi:cx="190.35715"
       sodipodi:cy="1319.0945"
       sodipodi:rx="34.642857"
       sodipodi:ry="34.642857"
       d="m 225,1319.0945 a 34.642857,34.642857 0 1 1 -69.28571,0 34.642857,34.642857 0 1 1 69.28571,0 z"
       transform="matrix(1.3296534,0,0,1.3296534,80.664494,-1132.4317)" />
    <path
       sodipodi:type="arc"
       style="fill:none;fill-opacity:1;stroke:#ffff00;stroke-opacity:1"
       id="path4261-5-2-7-3-2"
       sodipodi:cx="424.01154"
       sodipodi:cy="565.55005"
       sodipodi:rx="32.072342"
       sodipodi:ry="32.072342"
       d="m 456.08388,565.55005 a 32.072342,32.072342 0 1 1 -64.14469,0 32.072342,32.072342 0 1 1 64.14469,0 z"
       transform="matrix(0.55239295,0,0,0.55239295,168.66811,360.32217)" />
    <path
       sodipodi:type="arc"
       style="fill:none;fill-opacity:1;stroke:#ff0000;stroke-opacity:1"
       id="path4259-8-7-8-5"
       sodipodi:cx="319.96582"
       sodipodi:cy="566.56018"
       sodipodi:rx="11.364216"
       sodipodi:ry="11.364216"
       d="m 331.33004,566.56018 a 11.364216,11.364216 0 1 1 -22.72844,0 11.364216,11.364216 0 1 1 22.72844,0 z"
       transform="matrix(1.2471805,0,0,1.2471805,3.833959,-33.36193)" />
    <path
       sodipodi:type="arc"
       style="fill:none;fill-opacity:1;stroke:#ffff00;stroke-opacity:1"
       id="path4881-6-2"
       sodipodi:cx="209.28725"
       sodipodi:cy="1295.2804"
       sodipodi:rx="29.958035"
       sodipodi:ry="29.958035"
       d="m 239.24528,1295.2804 a 29.958035,29.958035 0 1 1 -59.91607,0 29.958035,29.958035 0 1 1 59.91607,0 z"
       transform="matrix(1.1827569,0,0,1.1827569,86.237596,-1011.6265)" />
    <path
       sodipodi:type="arc"
       style="fill:none;fill-opacity:1;stroke:#ff0000;stroke-opacity:1"
       id="path4879-3-5"
       sodipodi:cx="213.26768"
       sodipodi:cy="1295.4899"
       sodipodi:rx="19.692694"
       sodipodi:ry="19.692694"
       d="m 232.96038,1295.4899 a 19.692694,19.692694 0 1 1 -39.38539,0 19.692694,19.692694 0 1 1 39.38539,0 z"
       transform="matrix(1.6193703,0,0,1.6193703,-11.58582,-1577.5025)" />
    <path
       sodipodi:type="arc"
       style="fill:none;fill-opacity:1;stroke:#ffff00;stroke-opacity:1"
       id="path4261-5-2-7-3-2-3"
       sodipodi:cx="424.01154"
       sodipodi:cy="565.55005"
       sodipodi:rx="32.072342"
       sodipodi:ry="32.072342"
       d="m 456.08388,565.55005 a 32.072342,32.072342 0 1 1 -64.14469,0 32.072342,32.072342 0 1 1 64.14469,0 z"
       transform="matrix(0.55239295,0,0,0.55239295,99.552528,395.53518)" />
    <path
       sodipodi:type="arc"
       style="fill:none;fill-opacity:1;stroke:#ff0000;stroke-opacity:1"
       id="path4259-8-7-8-5-3"
       sodipodi:cx="319.96582"
       sodipodi:cy="566.56018"
       sodipodi:rx="11.364216"
       sodipodi:ry="11.364216"
       d="m 331.33004,566.56018 a 11.364216,11.364216 0 1 1 -22.72844,0 11.364216,11.364216 0 1 1 22.72844,0 z"
       transform="matrix(1.2471805,0,0,1.2471805,-65.281621,1.85108)" />
  </g>
</svg>
