<?xml version="1.0" encoding="UTF-8" standalone="no"?>
<!-- Created with Inkscape (http://www.inkscape.org/) -->

<svg
   xmlns:dc="http://purl.org/dc/elements/1.1/"
   xmlns:cc="http://creativecommons.org/ns#"
   xmlns:rdf="http://www.w3.org/1999/02/22-rdf-syntax-ns#"
   xmlns:svg="http://www.w3.org/2000/svg"
   xmlns="http://www.w3.org/2000/svg"
   xmlns:sodipodi="http://sodipodi.sourceforge.net/DTD/sodipodi-0.dtd"
   xmlns:inkscape="http://www.inkscape.org/namespaces/inkscape"
   width="1052.3622"
   height="744.09448"
   id="svg3011"
   version="1.1"
   inkscape:version="0.48.4 r9939"
   sodipodi:docname="ignition_milling.svg">
  <defs
     id="defs3013" />
  <sodipodi:namedview
     id="base"
     pagecolor="#ffffff"
     bordercolor="#666666"
     borderopacity="1.0"
     inkscape:pageopacity="0.0"
     inkscape:pageshadow="2"
     inkscape:zoom="1"
     inkscape:cx="475.87558"
     inkscape:cy="244.37889"
     inkscape:document-units="mm"
     inkscape:current-layer="layer1"
     showgrid="false"
     inkscape:window-width="1598"
     inkscape:window-height="1179"
     inkscape:window-x="1920"
     inkscape:window-y="19"
     inkscape:window-maximized="0" />
  <metadata
     id="metadata3016">
    <rdf:RDF>
      <cc:Work
         rdf:about="">
        <dc:format>image/svg+xml</dc:format>
        <dc:type
           rdf:resource="http://purl.org/dc/dcmitype/StillImage" />
        <dc:title />
      </cc:Work>
    </rdf:RDF>
  </metadata>
  <g
     inkscape:label="Layer 1"
     inkscape:groupmode="layer"
     id="layer1"
     transform="translate(0,-308.2677)">
    <g
       id="g3791-1-3-6"
       transform="translate(10.808758,106.46526)"
       style="fill:none;stroke:#000000;stroke-opacity:1">
      <rect
         y="352.36218"
         x="195.71428"
         height="425.19684"
         width="637.79529"
         id="rect3019-5-0-0"
         style="fill:none;fill-opacity:1;stroke:#000000;stroke-opacity:1" />
      <rect
         y="365.10217"
         x="252.74562"
         height="399.71686"
         width="523.7326"
         id="rect3021-5-7-3"
         style="fill:none;fill-opacity:1;stroke:#000000;stroke-opacity:1" />
    </g>
    <rect
       style="fill:none;fill-opacity:1;stroke:#ffff00;stroke-opacity:1;stroke-width:0.99921260000000001;stroke-miterlimit:4;stroke-dasharray:none"
       id="rect4035-0-4-6"
       width="164.76378"
       height="164.76378"
       x="405.75345"
       y="484.85294" />
    <g
       id="g4030-1-4-0"
       transform="translate(189.54984,-281.58123)"
       style="fill:none;stroke:#ff0000;stroke-opacity:1">
      <path
         transform="matrix(1.9267147,0,0,1.9267147,-324.95261,-171.98794)"
         d="m 350.01786,529.81586 c 0,14.57492 -11.81531,26.39023 -26.39024,26.39023 -14.57492,0 -26.39023,-11.81531 -26.39023,-26.39023 0,-14.57493 11.81531,-26.39024 26.39023,-26.39024 14.57493,0 26.39024,11.81531 26.39024,26.39024 z"
         sodipodi:ry="26.390236"
         sodipodi:rx="26.390236"
         sodipodi:cy="529.81586"
         sodipodi:cx="323.62762"
         id="path4006-3-5-3"
         style="fill:none;fill-opacity:1;stroke:#ff0000;stroke-opacity:1"
         sodipodi:type="arc" />
      <path
         transform="matrix(2.3517059,0,0,2.3517059,-350.85589,-361.84902)"
         d="m 260.17857,496.41592 c 0,1.3314 -1.07932,2.41072 -2.41072,2.41072 -1.3314,0 -2.41071,-1.07932 -2.41071,-2.41072 0,-1.3314 1.07931,-2.41071 2.41071,-2.41071 1.3314,0 2.41072,1.07931 2.41072,2.41071 z"
         sodipodi:ry="2.4107144"
         sodipodi:rx="2.4107144"
         sodipodi:cy="496.41592"
         sodipodi:cx="257.76785"
         id="path4010-6-0-5"
         style="fill:none;fill-opacity:1;stroke:#ff0000;stroke-opacity:1"
         sodipodi:type="arc" />
      <path
         transform="matrix(2.3517059,0,0,2.3517059,-264.46203,-275.46386)"
         d="m 260.17857,496.41592 c 0,1.3314 -1.07932,2.41072 -2.41072,2.41072 -1.3314,0 -2.41071,-1.07932 -2.41071,-2.41072 0,-1.3314 1.07931,-2.41071 2.41071,-2.41071 1.3314,0 2.41072,1.07931 2.41072,2.41071 z"
         sodipodi:ry="2.4107144"
         sodipodi:rx="2.4107144"
         sodipodi:cy="496.41592"
         sodipodi:cx="257.76785"
         id="path4010-2-47-2-6"
         style="fill:none;fill-opacity:1;stroke:#ff0000;stroke-opacity:1"
         sodipodi:type="arc" />
    </g>
    <rect
       style="fill:none;fill-opacity:1;stroke:#ffff00;stroke-opacity:1;stroke-width:0.99921260000000001;stroke-miterlimit:4;stroke-dasharray:none"
       id="rect4035-1-7-1-5"
       width="164.76378"
       height="164.76378"
       x="598.51721"
       y="484.85294" />
    <g
       id="g4030-2-2-7-1"
       transform="translate(382.31364,-281.58121)"
       style="fill:none;stroke:#ff0000;stroke-opacity:1">
      <path
         transform="matrix(1.9267147,0,0,1.9267147,-324.95261,-171.98794)"
         d="m 350.01786,529.81586 c 0,14.57492 -11.81531,26.39023 -26.39024,26.39023 -14.57492,0 -26.39023,-11.81531 -26.39023,-26.39023 0,-14.57493 11.81531,-26.39024 26.39023,-26.39024 14.57493,0 26.39024,11.81531 26.39024,26.39024 z"
         sodipodi:ry="26.390236"
         sodipodi:rx="26.390236"
         sodipodi:cy="529.81586"
         sodipodi:cx="323.62762"
         id="path4006-8-27-1-9"
         style="fill:none;fill-opacity:1;stroke:#ff0000;stroke-opacity:1"
         sodipodi:type="arc" />
      <path
         transform="matrix(2.3517059,0,0,2.3517059,-350.85589,-361.84902)"
         d="m 260.17857,496.41592 c 0,1.3314 -1.07932,2.41072 -2.41072,2.41072 -1.3314,0 -2.41071,-1.07932 -2.41071,-2.41072 0,-1.3314 1.07931,-2.41071 2.41071,-2.41071 1.3314,0 2.41072,1.07931 2.41072,2.41071 z"
         sodipodi:ry="2.4107144"
         sodipodi:rx="2.4107144"
         sodipodi:cy="496.41592"
         sodipodi:cx="257.76785"
         id="path4010-1-9-3-3"
         style="fill:none;fill-opacity:1;stroke:#ff0000;stroke-opacity:1"
         sodipodi:type="arc" />
      <path
         transform="matrix(2.3517059,0,0,2.3517059,-264.46203,-275.46386)"
         d="m 260.17857,496.41592 c 0,1.3314 -1.07932,2.41072 -2.41072,2.41072 -1.3314,0 -2.41071,-1.07932 -2.41071,-2.41072 0,-1.3314 1.07931,-2.41071 2.41071,-2.41071 1.3314,0 2.41072,1.07931 2.41072,2.41071 z"
         sodipodi:ry="2.4107144"
         sodipodi:rx="2.4107144"
         sodipodi:cy="496.41592"
         sodipodi:cx="257.76785"
         id="path4010-2-0-0-1-0"
         style="fill:none;fill-opacity:1;stroke:#ff0000;stroke-opacity:1"
         sodipodi:type="arc" />
    </g>
    <rect
       style="fill:none;fill-opacity:1;stroke:#ffff00;stroke-opacity:1;stroke-width:0.99921260000000001;stroke-miterlimit:4;stroke-dasharray:none"
       id="rect4035-5-8-6-9"
       width="164.76378"
       height="164.76378"
       x="405.75345"
       y="695.61682" />
    <g
       id="g4030-7-9-9-9"
       transform="translate(189.54981,-70.817306)"
       style="fill:none;stroke:#ff0000;stroke-opacity:1">
      <path
         transform="matrix(1.9267147,0,0,1.9267147,-324.95261,-171.98794)"
         d="m 350.01786,529.81586 c 0,14.57492 -11.81531,26.39023 -26.39024,26.39023 -14.57492,0 -26.39023,-11.81531 -26.39023,-26.39023 0,-14.57493 11.81531,-26.39024 26.39023,-26.39024 14.57493,0 26.39024,11.81531 26.39024,26.39024 z"
         sodipodi:ry="26.390236"
         sodipodi:rx="26.390236"
         sodipodi:cy="529.81586"
         sodipodi:cx="323.62762"
         id="path4006-2-3-7-7"
         style="fill:none;fill-opacity:1;stroke:#ff0000;stroke-opacity:1"
         sodipodi:type="arc" />
      <path
         transform="matrix(2.3517059,0,0,2.3517059,-350.85589,-361.84902)"
         d="m 260.17857,496.41592 c 0,1.3314 -1.07932,2.41072 -2.41072,2.41072 -1.3314,0 -2.41071,-1.07932 -2.41071,-2.41072 0,-1.3314 1.07931,-2.41071 2.41071,-2.41071 1.3314,0 2.41072,1.07931 2.41072,2.41071 z"
         sodipodi:ry="2.4107144"
         sodipodi:rx="2.4107144"
         sodipodi:cy="496.41592"
         sodipodi:cx="257.76785"
         id="path4010-4-0-4-8"
         style="fill:none;fill-opacity:1;stroke:#ff0000;stroke-opacity:1"
         sodipodi:type="arc" />
      <path
         transform="matrix(2.3517059,0,0,2.3517059,-264.46203,-275.46386)"
         d="m 260.17857,496.41592 c 0,1.3314 -1.07932,2.41072 -2.41072,2.41072 -1.3314,0 -2.41071,-1.07932 -2.41071,-2.41072 0,-1.3314 1.07931,-2.41071 2.41071,-2.41071 1.3314,0 2.41072,1.07931 2.41072,2.41071 z"
         sodipodi:ry="2.4107144"
         sodipodi:rx="2.4107144"
         sodipodi:cy="496.41592"
         sodipodi:cx="257.76785"
         id="path4010-2-4-2-1-5"
         style="fill:none;fill-opacity:1;stroke:#ff0000;stroke-opacity:1"
         sodipodi:type="arc" />
    </g>
    <rect
       style="fill:none;fill-opacity:1;stroke:#ffff00;stroke-opacity:1;stroke-width:0.99921260000000001;stroke-miterlimit:4;stroke-dasharray:none"
       id="rect4035-1-2-2-7-4"
       width="164.76378"
       height="164.76378"
       x="598.51721"
       y="695.61682" />
    <g
       id="g4030-2-8-6-4-4"
       transform="translate(382.31362,-70.817286)"
       style="fill:none;stroke:#ff0000;stroke-opacity:1">
      <path
         transform="matrix(1.9267147,0,0,1.9267147,-324.95261,-171.98794)"
         d="m 350.01786,529.81586 c 0,14.57492 -11.81531,26.39023 -26.39024,26.39023 -14.57492,0 -26.39023,-11.81531 -26.39023,-26.39023 0,-14.57493 11.81531,-26.39024 26.39023,-26.39024 14.57493,0 26.39024,11.81531 26.39024,26.39024 z"
         sodipodi:ry="26.390236"
         sodipodi:rx="26.390236"
         sodipodi:cy="529.81586"
         sodipodi:cx="323.62762"
         id="path4006-8-2-8-9-4"
         style="fill:none;fill-opacity:1;stroke:#ff0000;stroke-opacity:1"
         sodipodi:type="arc" />
      <path
         transform="matrix(2.3517059,0,0,2.3517059,-350.85589,-361.84902)"
         d="m 260.17857,496.41592 c 0,1.3314 -1.07932,2.41072 -2.41072,2.41072 -1.3314,0 -2.41071,-1.07932 -2.41071,-2.41072 0,-1.3314 1.07931,-2.41071 2.41071,-2.41071 1.3314,0 2.41072,1.07931 2.41072,2.41071 z"
         sodipodi:ry="2.4107144"
         sodipodi:rx="2.4107144"
         sodipodi:cy="496.41592"
         sodipodi:cx="257.76785"
         id="path4010-1-4-2-9-7"
         style="fill:none;fill-opacity:1;stroke:#ff0000;stroke-opacity:1"
         sodipodi:type="arc" />
      <path
         transform="matrix(2.3517059,0,0,2.3517059,-264.46203,-275.46386)"
         d="m 260.17857,496.41592 c 0,1.3314 -1.07932,2.41072 -2.41072,2.41072 -1.3314,0 -2.41071,-1.07932 -2.41071,-2.41072 0,-1.3314 1.07931,-2.41071 2.41071,-2.41071 1.3314,0 2.41072,1.07931 2.41072,2.41071 z"
         sodipodi:ry="2.4107144"
         sodipodi:rx="2.4107144"
         sodipodi:cy="496.41592"
         sodipodi:cx="257.76785"
         id="path4010-2-0-9-5-6-7"
         style="fill:none;fill-opacity:1;stroke:#ff0000;stroke-opacity:1"
         sodipodi:type="arc" />
    </g>
    <rect
       style="fill:none;fill-opacity:1;stroke:#ffff00;stroke-opacity:1"
       id="rect4239-6-3-3"
       width="97.795273"
       height="128.97638"
       x="284.87585"
       y="730.7467"
       rx="13.110236"
       ry="13.110236" />
    <rect
       style="fill:none;fill-opacity:1;stroke:#ff0000;stroke-opacity:1"
       id="rect4237-8-0-6"
       width="77.952759"
       height="107.00787"
       x="294.79712"
       y="741.73096" />
    <path
       sodipodi:type="arc"
       style="fill:none;fill-opacity:1;stroke:#ffff00;stroke-opacity:1"
       id="path4261-5-2-9-7-3-6"
       sodipodi:cx="424.01154"
       sodipodi:cy="565.55005"
       sodipodi:rx="32.072342"
       sodipodi:ry="32.072342"
       d="m 456.08388,565.55005 c 0,17.71306 -14.35928,32.07234 -32.07234,32.07234 -17.71307,0 -32.07235,-14.35928 -32.07235,-32.07234 0,-17.71307 14.35928,-32.07234 32.07235,-32.07234 17.71306,0 32.07234,14.35927 32.07234,32.07234 z"
       transform="matrix(0.55239295,0,0,0.55239295,371.1483,360.32217)" />
    <path
       sodipodi:type="arc"
       style="fill:none;fill-opacity:1;stroke:#ff0000;stroke-opacity:1"
       id="path4259-8-2-6-7-4"
       sodipodi:cx="319.96582"
       sodipodi:cy="566.56018"
       sodipodi:rx="11.364216"
       sodipodi:ry="11.364216"
       d="m 331.33004,566.56018 c 0,6.27628 -5.08794,11.36422 -11.36422,11.36422 -6.27628,0 -11.36422,-5.08794 -11.36422,-11.36422 0,-6.27628 5.08794,-11.36422 11.36422,-11.36422 6.27628,0 11.36422,5.08794 11.36422,11.36422 z"
       transform="matrix(1.2471805,0,0,1.2471805,206.31416,-33.87478)" />
    <path
       sodipodi:type="arc"
       style="fill:none;fill-opacity:1;stroke:#ffff00;stroke-opacity:1"
       id="path4261-5-2-2-5-2-5"
       sodipodi:cx="424.01154"
       sodipodi:cy="565.55005"
       sodipodi:rx="32.072342"
       sodipodi:ry="32.072342"
       d="m 456.08388,565.55005 c 0,17.71306 -14.35928,32.07234 -32.07234,32.07234 -17.71307,0 -32.07235,-14.35928 -32.07235,-32.07234 0,-17.71307 14.35928,-32.07234 32.07235,-32.07234 17.71306,0 32.07234,14.35927 32.07234,32.07234 z"
       transform="matrix(0.55239295,0,0,0.55239295,329.50608,360.32217)" />
    <path
       sodipodi:type="arc"
       style="fill:none;fill-opacity:1;stroke:#ff0000;stroke-opacity:1"
       id="path4259-8-0-7-1-2"
       sodipodi:cx="319.96582"
       sodipodi:cy="566.56018"
       sodipodi:rx="11.364216"
       sodipodi:ry="11.364216"
       d="m 331.33004,566.56018 c 0,6.27628 -5.08794,11.36422 -11.36422,11.36422 -6.27628,0 -11.36422,-5.08794 -11.36422,-11.36422 0,-6.27628 5.08794,-11.36422 11.36422,-11.36422 6.27628,0 11.36422,5.08794 11.36422,11.36422 z"
       transform="matrix(1.2471805,0,0,1.2471805,164.67194,-33.87478)" />
    <path
       sodipodi:type="arc"
       style="fill:none;fill-opacity:1;stroke:#ffff00;stroke-opacity:1"
       id="path4261-5-2-94-0-7-2"
       sodipodi:cx="424.01154"
       sodipodi:cy="565.55005"
       sodipodi:rx="32.072342"
       sodipodi:ry="32.072342"
       d="m 456.08388,565.55005 c 0,17.71306 -14.35928,32.07234 -32.07234,32.07234 -17.71307,0 -32.07235,-14.35928 -32.07235,-32.07234 0,-17.71307 14.35928,-32.07234 32.07235,-32.07234 17.71306,0 32.07234,14.35927 32.07234,32.07234 z"
       transform="matrix(0.55239295,0,0,0.55239295,526.82434,360.32217)" />
    <path
       sodipodi:type="arc"
       style="fill:none;fill-opacity:1;stroke:#ff0000;stroke-opacity:1"
       id="path4259-8-1-9-8-3"
       sodipodi:cx="319.96582"
       sodipodi:cy="566.56018"
       sodipodi:rx="11.364216"
       sodipodi:ry="11.364216"
       d="m 331.33004,566.56018 c 0,6.27628 -5.08794,11.36422 -11.36422,11.36422 -6.27628,0 -11.36422,-5.08794 -11.36422,-11.36422 0,-6.27628 5.08794,-11.36422 11.36422,-11.36422 6.27628,0 11.36422,5.08794 11.36422,11.36422 z"
       transform="matrix(1.2471805,0,0,1.2471805,361.9902,-33.87478)" />
    <path
       sodipodi:type="arc"
       style="fill:none;fill-opacity:1;stroke:#ffff00;stroke-opacity:1"
       id="path4591-6-6"
       sodipodi:cx="233.97658"
       sodipodi:cy="1279.6016"
       sodipodi:rx="16.541248"
       sodipodi:ry="16.541248"
       d="m 250.51783,1279.6016 c 0,9.1354 -7.40577,16.5412 -16.54125,16.5412 -9.13548,0 -16.54125,-7.4058 -16.54125,-16.5412 0,-9.1355 7.40577,-16.5413 16.54125,-16.5413 9.13548,0 16.54125,7.4058 16.54125,16.5413 z"
       transform="matrix(3.5344713,0,0,3.5344713,-493.20998,-3901.2083)" />
    <path
       sodipodi:type="arc"
       style="fill:none;fill-opacity:1;stroke:#ff0000;stroke-opacity:1"
       id="path4593-2-9"
       sodipodi:cx="190.35715"
       sodipodi:cy="1319.0945"
       sodipodi:rx="34.642857"
       sodipodi:ry="34.642857"
       d="m 225,1319.0945 c 0,19.1327 -15.51013,34.6428 -34.64285,34.6428 -19.13272,0 -34.64286,-15.5101 -34.64286,-34.6428 0,-19.1327 15.51014,-34.6429 34.64286,-34.6429 19.13272,0 34.64285,15.5102 34.64285,34.6429 z"
       transform="matrix(1.3296534,0,0,1.3296534,80.664494,-1132.4317)" />
    <path
       sodipodi:type="arc"
       style="fill:none;fill-opacity:1;stroke:#ffff00;stroke-opacity:1"
       id="path4261-5-2-7-3-2"
       sodipodi:cx="424.01154"
       sodipodi:cy="565.55005"
       sodipodi:rx="32.072342"
       sodipodi:ry="32.072342"
       d="m 456.08388,565.55005 c 0,17.71306 -14.35928,32.07234 -32.07234,32.07234 -17.71307,0 -32.07235,-14.35928 -32.07235,-32.07234 0,-17.71307 14.35928,-32.07234 32.07235,-32.07234 17.71306,0 32.07234,14.35927 32.07234,32.07234 z"
       transform="matrix(0.55239295,0,0,0.55239295,168.66811,360.32217)" />
    <path
       sodipodi:type="arc"
       style="fill:none;fill-opacity:1;stroke:#ff0000;stroke-opacity:1"
       id="path4259-8-7-8-5"
       sodipodi:cx="319.96582"
       sodipodi:cy="566.56018"
       sodipodi:rx="11.364216"
       sodipodi:ry="11.364216"
       d="m 331.33004,566.56018 c 0,6.27628 -5.08794,11.36422 -11.36422,11.36422 -6.27628,0 -11.36422,-5.08794 -11.36422,-11.36422 0,-6.27628 5.08794,-11.36422 11.36422,-11.36422 6.27628,0 11.36422,5.08794 11.36422,11.36422 z"
       transform="matrix(1.2471805,0,0,1.2471805,3.833959,-33.36193)" />
    <path
       sodipodi:type="arc"
       style="fill:none;fill-opacity:1;stroke:#ffff00;stroke-opacity:1"
       id="path4881-6-2"
       sodipodi:cx="209.28725"
       sodipodi:cy="1295.2804"
       sodipodi:rx="29.958035"
       sodipodi:ry="29.958035"
       d="m 239.24528,1295.2804 c 0,16.5454 -13.41267,29.958 -29.95803,29.958 -16.54537,0 -29.95804,-13.4126 -29.95804,-29.958 0,-16.5454 13.41267,-29.958 29.95804,-29.958 16.54536,0 29.95803,13.4126 29.95803,29.958 z"
       transform="matrix(1.1827569,0,0,1.1827569,86.237596,-1011.6265)" />
    <path
       style="fill:none;fill-opacity:1;stroke:#ff0000;stroke-opacity:1"
       d="M 333.78125 180.21875 C 320.70599 180.21875 309.45313 188.08307 304.53125 199.34375 L 304.53125 224.875 C 308.78822 234.61444 317.78191 241.79524 328.59375 243.5625 C 329.95813 241.98713 331.93986 241 334.1875 241 C 336.36269 241 338.32694 241.9182 339.6875 243.40625 C 350.16606 241.44031 358.83857 234.39324 363 224.875 L 363 199.34375 C 358.07745 188.08463 346.85538 180.21875 333.78125 180.21875 z "
       transform="translate(0,308.2677)"
       id="path4879-3-5" />
    <path
       sodipodi:type="arc"
       style="fill:none;fill-opacity:1;stroke:#ffff00;stroke-opacity:1"
       id="path4261-5-2-7-3-2-3"
       sodipodi:cx="424.01154"
       sodipodi:cy="565.55005"
       sodipodi:rx="32.072342"
       sodipodi:ry="32.072342"
       d="m 456.08388,565.55005 c 0,17.71306 -14.35928,32.07234 -32.07234,32.07234 -17.71307,0 -32.07235,-14.35928 -32.07235,-32.07234 0,-17.71307 14.35928,-32.07234 32.07235,-32.07234 17.71306,0 32.07234,14.35927 32.07234,32.07234 z"
       transform="matrix(0.55239295,0,0,0.55239295,99.552528,395.53518)" />
    <path
       sodipodi:type="arc"
       style="fill:none;fill-opacity:1;stroke:#ff0000;stroke-opacity:1"
       id="path4259-8-7-8-5-3"
       sodipodi:cx="319.96582"
       sodipodi:cy="566.56018"
       sodipodi:rx="11.364216"
       sodipodi:ry="11.364216"
       d="m 331.33004,566.56018 c 0,6.27628 -5.08794,11.36422 -11.36422,11.36422 -6.27628,0 -11.36422,-5.08794 -11.36422,-11.36422 0,-6.27628 5.08794,-11.36422 11.36422,-11.36422 6.27628,0 11.36422,5.08794 11.36422,11.36422 z"
       transform="matrix(1.2471805,0,0,1.2471805,-65.281621,1.85108)" />
  </g>
</svg>
